<?xml version="1.0" encoding="UTF-8" standalone="no"?>
<!-- Created with Inkscape (http://www.inkscape.org/) -->

<svg
   xmlns:dc="http://purl.org/dc/elements/1.1/"
   xmlns:cc="http://creativecommons.org/ns#"
   xmlns:rdf="http://www.w3.org/1999/02/22-rdf-syntax-ns#"
   xmlns:svg="http://www.w3.org/2000/svg"
   xmlns="http://www.w3.org/2000/svg"
   xmlns:sodipodi="http://sodipodi.sourceforge.net/DTD/sodipodi-0.dtd"
   xmlns:inkscape="http://www.inkscape.org/namespaces/inkscape"
   id="svg2"
   version="1.1"
   inkscape:version="0.48.5 r10040"
   width="1000"
   height="1000"
   xml:space="preserve"
   sodipodi:docname="35387-O0J126.ai"><metadata
     id="metadata8"><rdf:RDF><cc:Work
         rdf:about=""><dc:format>image/svg+xml</dc:format><dc:type
           rdf:resource="http://purl.org/dc/dcmitype/StillImage" /><dc:title></dc:title></cc:Work></rdf:RDF></metadata><defs
     id="defs6"><clipPath
       clipPathUnits="userSpaceOnUse"
       id="clipPath18"><path
         d="M 0,800 800,800 800,0 0,0 0,800 z"
         id="path20" /></clipPath><clipPath
       clipPathUnits="userSpaceOnUse"
       id="clipPath150"><path
         d="m 209.187,208.467 452.056,0 0,-97.076 -452.056,0 0,97.076 z"
         id="path152" /></clipPath><clipPath
       clipPathUnits="userSpaceOnUse"
       id="clipPath166"><path
         d="M 0,800 800,800 800,0 0,0 0,800 z"
         id="path168" /></clipPath><clipPath
       clipPathUnits="userSpaceOnUse"
       id="clipPath666"><path
         d="m 358.731,145.371 c 19.976,-9.199 58.228,-24.305 63.935,-25.545 l 0,0 c 29.643,-6.442 34.07,50.231 -5.202,59.619 l 0,0 c -13.72,3.279 -24.756,4.659 -33.59,4.659 l 0,0 C 339.3,184.1 350.96,148.949 358.731,145.371"
         id="path668" /></clipPath><clipPath
       clipPathUnits="userSpaceOnUse"
       id="clipPath714"><path
         d="M 0,800 800,800 800,0 0,0 0,800 z"
         id="path716" /></clipPath></defs><sodipodi:namedview
     pagecolor="#ffffff"
     bordercolor="#666666"
     borderopacity="1"
     objecttolerance="10"
     gridtolerance="10"
     guidetolerance="10"
     inkscape:pageopacity="0"
     inkscape:pageshadow="2"
     inkscape:window-width="1600"
     inkscape:window-height="847"
     id="namedview4"
     showgrid="false"
     inkscape:zoom="0.944"
     inkscape:cx="778.27641"
     inkscape:cy="319.82079"
     inkscape:window-x="0"
     inkscape:window-y="0"
     inkscape:window-maximized="1"
     inkscape:current-layer="g16" /><g
     id="g10"
     inkscape:groupmode="layer"
     inkscape:label="35387-O0J126"
     transform="matrix(1.25,0,0,-1.25,0,1000)"><path
       d="M 0,0 800,0 800,800 0,800 0,0 z"
       style="fill:#c2e0fc;fill-opacity:1;fill-rule:nonzero;stroke:none"
       id="path12" /><g
       id="g14"><g
         id="g16"
         clip-path="url(#clipPath18)"><g
           id="g106"
           transform="translate(392.4355,22.4066)"><path
             d="M 0,0 0,0.018 0,0 z"
             style="fill:#43525a;fill-opacity:1;fill-rule:nonzero;stroke:none"
             id="path108" /></g><g
           id="g110"
           transform="translate(392.5663,21.5775)"><path
             d="M 0,0 0.002,0 C -0.047,0.236 -0.084,0.471 -0.117,0.702 -0.084,0.469 -0.047,0.233 0,0"
             style="fill:#43525a;fill-opacity:1;fill-rule:nonzero;stroke:none"
             id="path112" /></g><g
           id="g114"
           transform="translate(393.4258,19.1713)"><path
             d="M 0,0 C -0.005,0.01 -0.012,0.02 -0.018,0.033 -0.012,0.02 -0.005,0.01 0,0"
             style="fill:#43525a;fill-opacity:1;fill-rule:nonzero;stroke:none"
             id="path116" /></g><g
           id="g118"
           transform="translate(393.3437,19.3315)"><path
             d="M 0,0 C -0.023,0.044 -0.045,0.09 -0.066,0.134 -0.045,0.087 -0.023,0.044 0,0"
             style="fill:#43525a;fill-opacity:1;fill-rule:nonzero;stroke:none"
             id="path120" /></g><g
           id="g122"
           transform="translate(392.8066,20.6508)"><path
             d="M 0,0 C 0.129,-0.4 0.281,-0.788 0.457,-1.158 0.278,-0.78 0.129,-0.392 0.004,0 L 0,0 z"
             style="fill:#43525a;fill-opacity:1;fill-rule:nonzero;stroke:none"
             id="path124" /></g><g
           id="g146"><g
             id="g148" /><g
             id="g154"><g
               clip-path="url(#clipPath150)"
               id="g156"><g
                 transform="translate(435.2153,208.4668)"
                 id="g158"><path
                   d="m 0,0 c 124.832,0 226.028,-21.731 226.028,-48.538 0,-26.807 -101.196,-48.538 -226.028,-48.538 -124.832,0 -226.028,21.731 -226.028,48.538 C -226.028,-21.731 -124.832,0 0,0"
                   style="fill:#f2f2f2;fill-opacity:1;fill-rule:nonzero;stroke:none"
                   id="path160" /></g></g></g></g></g></g><g
       id="g162"><g
         id="g164"
         clip-path="url(#clipPath166)"><g
           id="g170"
           transform="translate(363.3578,527.5)"><path
             d="m 0,0 -7.075,2.093 -15.335,-0.138 0.861,3.026 c 0,0 19.221,3.363 19.461,3.219 C -1.847,8.056 0,0 0,0"
             style="fill:#58595b;fill-opacity:1;fill-rule:evenodd;stroke:none"
             id="path172" /></g><g
           id="g174"
           transform="translate(541.228,419.9261)"><path
             d="m 0,0 57.981,-52.145 -81.883,-141.701 -78.27,43.706 L 0,0 z"
             style="fill:#696763;fill-opacity:1;fill-rule:evenodd;stroke:none"
             id="path176" /></g><g
           id="g178"
           transform="translate(306.7642,412.107)"><path
             d="m 0,0 c 0,0 1.763,10.085 8.075,2.834 6.311,-7.25 45.694,-75.201 57.754,-86.251 12.06,-11.05 58.423,-30.291 58.423,-30.291 l -8.959,-19.419 C 66.838,-110.712 10.299,-90.253 -3.186,-31.425 -6.778,-15.756 0.398,-0.061 0,0"
             style="fill:#fbd2c0;fill-opacity:1;fill-rule:evenodd;stroke:none"
             id="path180" /></g><g
           id="g182"
           transform="translate(285.1947,407.0166)"><path
             d="m 0,0 c 4.431,6.106 20.693,13.76 25.403,13.052 13.912,-2.09 45.885,-69.021 55.693,-83.985 0,0 -26.622,-22.215 -32.316,-23.424 -5.695,-1.209 -58.715,78.211 -53.747,86.284 L 0,0 z"
             style="fill:#ffb85f;fill-opacity:1;fill-rule:evenodd;stroke:none"
             id="path184" /></g><g
           id="g186"
           transform="translate(347.5729,321.2506)"><path
             d="m 0,0 c -5.844,-4.364 -11.351,-8.114 -13.599,-8.591 -1.351,-0.287 -5.368,3.969 -10.639,10.73 -0.135,3.821 -6.16,59.078 -6.16,59.078 0,0 0.985,-20.509 9.194,-35.104 C -16.257,17.314 -6.763,6.893 0,0"
             style="fill:#e2a557;fill-opacity:1;fill-rule:evenodd;stroke:none"
             id="path188" /></g><g
           id="g190"
           transform="translate(270.0271,424.8572)"><path
             d="m 0,0 c -2.993,-0.656 -12.012,5.983 -19.414,-2.059 -0.709,-0.769 -9.055,0.702 -10.002,0.458 -16.796,-4.325 -32.968,-9.178 -35.511,-12.843 -28.524,-41.096 25.212,-146.939 24.904,-190.297 -0.162,-23.006 4.195,-65.069 13.073,-49.565 3.095,5.403 13.487,9.393 17.062,15.131 3.897,6.258 1.503,18.656 15.007,26.501 25.89,15.041 61.378,31.948 61.378,31.948 -22.459,55.649 -7.151,135.509 -19.02,163.113 C 44.36,-10.365 46.472,-3.378 26.536,-0.127 25.842,0.379 6.565,-1.732 0,0"
             style="fill:#ffb85f;fill-opacity:1;fill-rule:evenodd;stroke:none"
             id="path192" /></g><g
           id="g194"
           transform="translate(198.9543,352.4371)"><path
             d="m 0,0 c 7.449,-46.748 31.256,-103.417 31.05,-132.321 -0.163,-23.006 4.195,-65.069 13.073,-49.565 3.094,5.403 13.487,9.393 17.062,15.131 3.897,6.258 1.502,18.656 15.007,26.501 20.57,11.95 47.196,25.077 57.271,29.968 -0.016,0.003 -16.688,3.743 -33.31,0.887 -16.631,-2.857 -30.512,-12.317 -42.22,-25.134 -11.708,-12.816 -15.985,-10.917 -12.93,-1.51 3.056,9.408 15.231,17.383 13.169,22.335 -2.061,4.953 -13.095,-3.904 -14.743,7.032 -1.648,10.935 -0.531,21.279 3.129,27.839 3.66,6.56 84.384,-8.258 85.073,-11.076 0.054,-0.222 0.081,-0.318 0.084,-0.306 -1.241,4.857 -2.282,9.82 -3.149,14.851 l -0.014,0.062 c 0,0 -45.843,9.197 -52.913,11.289 -7.07,2.093 -27.325,27.943 -26.951,39.14 0.374,11.196 -11.66,53.485 -11.66,53.485 C 37.028,28.608 16.38,14.946 0,0"
             style="fill:#e2a557;fill-opacity:1;fill-rule:evenodd;stroke:none"
             id="path196" /></g><g
           id="g198"
           transform="translate(243.5223,470.4779)"><path
             d="m 0,0 c -1.848,-6.941 8.516,-39.953 4.763,-42.663 -2.841,-2.052 -7.674,-4.558 -7.674,-4.558 -5.083,-6.444 23.396,-44.928 56.118,-43.888 13.134,0.417 16.446,16.189 -0.167,45.361 0,0 -11.568,2.248 -12.665,3.538 -9.658,11.357 -5.84,26.181 -5.84,26.181 C 16.689,-13.303 0,0 0,0"
             style="fill:#fbd2c0;fill-opacity:1;fill-rule:evenodd;stroke:none"
             id="path200" /></g><g
           id="g202"
           transform="translate(524.0284,194.5716)"><path
             d="M 0,0 C 5.49,4.029 41.612,16.358 43.818,36.646 46.024,56.934 16.15,65.415 1.159,68.856 -11.508,71.764 -89.018,17.571 -118.809,0.021 -142.854,-14.143 -87.048,-53.674 -77.52,-48.742 -58.398,-38.843 0,0 0,0"
             style="fill:#3d4b54;fill-opacity:1;fill-rule:evenodd;stroke:none"
             id="path204" /></g><g
           id="g206"
           transform="translate(540.5643,201.8407)"><path
             d="m 0,0 c 5.13,-1.156 3.341,-3.542 10.082,0.905 5.907,3.897 40.754,0.48 45.899,-2.776 19.199,-12.15 18.89,-39.784 8.117,-50.661 -10.773,-10.877 -18.156,-7.559 -33.411,-2.095 -15.255,5.462 -38.25,9.059 -40.517,16.831 C -12.098,-30.024 0,0 0,0"
             style="fill:#496e6e;fill-opacity:1;fill-rule:evenodd;stroke:none"
             id="path208" /></g><g
           id="g210"
           transform="translate(579.5894,378.5507)"><path
             d="M 0,0 -49.007,43.877 -39.195,40.183 17.009,-9.851 0,0 z"
             style="fill:#d0d2d3;fill-opacity:1;fill-rule:evenodd;stroke:none"
             id="path212" /></g><g
           id="g214"
           transform="translate(530.5822,422.4273)"><path
             d="m 0,0 c 0,0 -27.434,-40.286 -25.439,-40.424 1.994,-0.138 71.094,-20.952 71.094,-20.952 l 5.358,16.81 C 33.241,-29.338 16.838,-15.076 0,0"
             style="fill:#e6e7e8;fill-opacity:1;fill-rule:evenodd;stroke:none"
             id="path216" /></g><g
           id="g218"
           transform="translate(552.5574,416.0412)"><path
             d="m 0,0 c 8.363,6.875 13.162,23.207 2.829,31.304 -7.062,5.534 -17.019,12.241 -24.016,2.912 2.588,4.64 -7.315,10.534 -5.887,13.413 1.539,3.104 -11.715,16.021 -20.652,4.107 -5.196,5.684 -12.659,-1.539 -12.173,5.095 0.343,4.698 -1.851,1.038 0.651,10.772 1.194,4.642 -11.715,20.211 -17.746,5.271 -0.045,-0.112 -5.843,-0.975 -6.62,-1.698 -11.493,-10.697 0.905,-8.687 -9.852,-5.332 -14.217,4.436 -11.121,-7.801 -13.595,0.817 -1.204,4.191 -16.177,16.422 -25.329,11.944 -10.498,-5.135 -7.968,-19.38 1.769,-26.519 -0.033,-0.047 -10.348,-1.79 -4.972,-10.41 0.125,0.013 -19.223,6.696 -25.392,-1.776 -10.683,-14.669 3.516,-21.303 3.516,-21.303 -8.298,-1.762 2.351,-12.94 3.941,-12.914 1.01,6.482 -17.489,-3.261 -6.184,-10.754 0.812,-0.537 -6.578,-3.082 -6.562,-4.777 0.077,-7.86 -3.22,-8.625 7.216,-17.402 7.647,-6.431 8.303,0 12.149,-4.092 9.59,-10.206 11.361,-4.738 20.808,-8.911 16.516,-7.298 32.566,1.639 26.421,10.144 6.672,-0.461 9.935,-14.338 24.112,-12.975 2.03,0.195 28.537,-20.813 33.952,5.278 9.005,0.149 19.529,-1.174 27.235,8.359 10.164,12.572 -9.859,1.019 8.209,3.569 16.255,2.294 7.359,20.415 5.392,26.569 L 0,0 z"
             style="fill:#ffffff;fill-opacity:1;fill-rule:evenodd;stroke:none"
             id="path220" /></g><g
           id="g222"
           transform="translate(522.5266,341.1667)"><path
             d="m 0,0 c 8.363,6.875 13.162,23.207 2.829,31.304 -7.062,5.534 -17.019,12.242 -24.016,2.912 2.588,4.64 -7.315,10.534 -5.887,13.413 1.539,3.104 -11.716,16.022 -20.652,4.108 -5.196,5.683 -12.659,-1.54 -12.173,5.094 0.343,4.698 -1.851,1.038 0.651,10.772 1.194,4.642 -11.715,20.211 -17.746,5.271 -0.045,-0.112 -5.843,-0.975 -6.62,-1.698 -11.493,-10.697 0.904,-8.687 -9.852,-5.332 -14.217,4.436 -11.121,-7.8 -13.595,0.817 -1.204,4.191 -16.177,16.422 -25.329,11.945 -10.498,-5.136 -7.968,-19.381 1.769,-26.52 -0.033,-0.047 -10.348,-1.79 -4.972,-10.41 0.125,0.013 -19.223,6.696 -25.392,-1.775 -10.683,-14.67 3.516,-21.304 3.516,-21.304 -8.298,-1.762 2.351,-12.94 3.941,-12.914 1.01,6.482 -17.489,-3.261 -6.184,-10.753 0.812,-0.538 -6.578,-3.083 -6.562,-4.777 0.076,-7.861 -3.22,-8.626 7.216,-17.403 7.646,-6.431 8.303,0 12.149,-4.092 9.59,-10.206 11.361,-4.738 20.808,-8.911 16.516,-7.298 32.566,1.64 26.421,10.144 6.672,-0.461 9.935,-14.338 24.113,-12.975 2.029,0.195 28.535,-20.813 33.951,5.278 9.005,0.149 19.529,-1.174 27.235,8.359 10.163,12.573 -9.858,1.02 8.209,3.569 16.255,2.294 7.359,20.415 5.392,26.569 L 0,0 z"
             style="fill:#ffffff;fill-opacity:1;fill-rule:evenodd;stroke:none"
             id="path224" /></g><g
           id="g226"
           transform="translate(338.6004,264.2823)"><path
             d="M 0,0 96.243,159.757 242.995,113.579 257.998,104.418 54.303,-20.411 4.413,-8.595 0,0 z"
             style="fill:#babdc1;fill-opacity:1;fill-rule:evenodd;stroke:none"
             id="path228" /></g><g
           id="g230"
           transform="translate(348.0016,267.1471)"><path
             d="m 0,0 -0.857,0.514 87.27,145.43 0.858,-0.515 L 0,0 z"
             style="fill:#b0b2b6;fill-opacity:1;fill-rule:nonzero;stroke:none"
             id="path232" /></g><g
           id="g234"
           transform="translate(348.0016,270.1471)"><path
             d="m 0,0 -0.857,0.514 87.27,145.43 0.858,-0.515 L 0,0 z"
             style="fill:#b0b2b6;fill-opacity:1;fill-rule:nonzero;stroke:none"
             id="path236" /></g><g
           id="g238"
           transform="translate(348.0016,272.1471)"><path
             d="m 0,0 -0.857,0.514 87.27,145.43 0.858,-0.515 L 0,0 z"
             style="fill:#b0b2b6;fill-opacity:1;fill-rule:nonzero;stroke:none"
             id="path240" /></g><g
           id="g242"
           transform="translate(434.8435,424.0394)"><path
             d="m 0,0 146.752,-46.178 15.003,-9.161 -9.719,-6.482 L 4.283,-11.425 0,0 z"
             style="fill:#d0d2d3;fill-opacity:1;fill-rule:evenodd;stroke:none"
             id="path244" /></g><g
           id="g246"
           transform="translate(599.2095,367.7807)"><path
             d="M 0,0 C -11.114,1.571 -160.083,44.834 -160.083,44.834 L -256.196,-112.094 -88.641,-155.103 0,0 z"
             style="fill:#8c8984;fill-opacity:1;fill-rule:evenodd;stroke:none"
             id="path248" /></g><g
           id="g250"
           transform="translate(599.2095,367.7807)"><path
             d="m 0,0 c -2.381,0.336 -11.101,2.59 -23.316,5.919 l -0.015,0.003 -92.587,-169.166 20.405,-3.884 L 0,0 z"
             style="fill:#696763;fill-opacity:1;fill-rule:evenodd;stroke:none"
             id="path252" /></g><g
           id="g254"
           transform="translate(254.7095,206.3934)"><path
             d="m 0,0 c -4.641,-7.848 -16.168,-30.944 -0.299,-44.868 15.87,-13.924 89.237,-19.403 99.764,-0.492 10.526,18.91 32.205,19.414 40.127,18.064 7.923,-1.35 87.945,-14.904 120.267,-22.753 32.321,-7.848 30.474,-22.95 41.428,-3.668 10.954,19.282 10.438,46.571 5.24,52.542 C 301.329,4.796 132.476,49.357 103.544,42.532 34.617,26.273 24.299,41.092 0,0"
             style="fill:#43525a;fill-opacity:1;fill-rule:evenodd;stroke:none"
             id="path256" /></g><g
           id="g258"
           transform="translate(561.2366,205.2182)"><path
             d="m 0,0 c -5.198,5.971 -174.051,50.532 -202.984,43.707 -46.129,-10.881 -62.589,-10.355 -78.002,-19.453 9.122,0.211 74.279,15.335 84.249,14.644 9.973,-0.69 103.269,-19.37 130.413,-23.854 27.144,-4.484 31.038,-8.53 38.345,-13.476 7.307,-4.946 11.113,-4.721 18.339,-3.564 C -2.413,-0.841 -1.945,-2.503 0,0"
             style="fill:#3d4b54;fill-opacity:1;fill-rule:evenodd;stroke:none"
             id="path260" /></g><g
           id="g262"
           transform="translate(256.8764,159.7109)"><path
             d="m 0,0 c 19.84,-12.55 87.242,-16.743 97.298,1.322 10.526,18.911 32.205,19.414 40.127,18.065 7.923,-1.35 87.945,-14.905 120.267,-22.753 32.321,-7.848 30.475,-22.95 41.428,-3.669 2.475,4.357 4.363,9.121 5.745,13.957 -6.34,-2.186 -13.9,-4.879 -19.097,-6.588 -11.073,-3.642 -35.39,4.052 -63.625,18.832 C 193.908,33.946 123.416,40.427 111.655,38.435 99.894,36.443 95.641,27.119 77.606,15.541 70.818,11.184 -1.338,12.147 0,0"
             style="fill:#3d4b54;fill-opacity:1;fill-rule:evenodd;stroke:none"
             id="path264" /></g><g
           id="g266"
           transform="translate(334.9748,585.127)"><path
             d="m 0,0 c 10.089,-9.031 18.336,-27.458 18.118,-43.513 -0.219,-16.056 -4.009,-23.531 -3.296,-30.426 0.713,-6.894 12.406,-14.25 9.296,-33.379 -3.109,-19.129 -24.898,-37.263 -27.575,-41.541 -2.677,-4.279 -6.845,-4.288 -10.613,-2.837 -3.768,1.451 -43.98,2.09 -69.939,14.005 -25.959,11.915 -24.744,24.895 -26.152,30.349 -1.408,5.454 -10.378,6.166 -10.378,6.166 0,0 -8.492,23.504 -14.083,45.913 -10.741,43.053 52.495,79.631 97.78,71.205 C -6.284,10.255 0,0 0,0"
             style="fill:#fbd2c0;fill-opacity:1;fill-rule:evenodd;stroke:none"
             id="path268" /></g><g
           id="g270"
           transform="translate(349.8288,457.5594)"><path
             d="m 0,0 c -7.399,-10.441 -16.629,-18.603 -18.311,-21.292 -2.677,-4.278 -6.845,-4.288 -10.613,-2.837 -3.768,1.451 -43.98,2.091 -69.939,14.005 -21.036,9.656 -24.227,20.011 -25.43,26.493 l 8.614,2.543 c 0,0 9.656,-17.637 26.459,-24.695 16.803,-7.057 49.611,-12.852 56.564,-13.733 6.953,-0.882 10.846,3.257 13.638,3.063 2.793,-0.193 5.084,2.978 12.101,9.784 C -4.594,-4.414 -2.184,-2.094 0,0"
             style="fill:#fbcdb8;fill-opacity:1;fill-rule:evenodd;stroke:none"
             id="path272" /></g><g
           id="g274"
           transform="translate(180.1001,572.6312)"><path
             d="m 0,0 c -2.722,23.772 17.999,45.395 17.689,44.904 -2.34,-3.707 -3.855,-16.994 -3.036,-13.777 0.818,3.217 2.699,13.205 30.728,22.574 28.027,9.369 22.09,-3.314 46.013,6.934 23.921,10.249 33.21,28.354 33.025,25.689 -0.184,-2.665 -7.889,-19.394 -6.264,-17.423 1.624,1.971 13.628,16.318 13.628,16.318 0,0 0.633,0.551 -1.342,-15.084 -1.974,-15.637 -4.488,-17.546 -4.488,-17.546 0,0 12.349,2.121 32.948,-5.554 20.598,-7.675 29.541,-24.663 27.335,-22.129 -2.205,2.533 -23.559,7.88 -23.559,7.88 0,0 5.311,-0.665 14.256,-9.022 8.944,-8.357 12.905,-19.939 10.23,-15.588 -2.676,4.352 -15.993,9.738 -14.236,9.318 1.757,-0.419 4.309,-6.547 6.981,-19.529 2.673,-12.982 -1.895,-23.082 -1.895,-23.082 0,0 -31.423,33.554 -34.159,33.117 5.517,-19.48 -18.891,-40.35 -15.519,-37.12 3.187,3.053 3.804,20.57 -4.681,31.275 -8.485,10.706 -9.159,9.562 -9.159,9.562 0,0 -5.701,-4.962 -22.955,-17.755 -17.253,-12.793 -25.119,-14.63 -27.746,-22.483 -2.625,-7.854 1.251,-24.937 2.469,-35.288 1.217,-10.352 -1.888,-12.222 -2.269,-22.016 -0.379,-9.795 3.122,-15.096 0.621,-12.543 -2.502,2.555 -7.095,13.876 -5.729,24.289 1.365,10.413 -3.472,21.802 -7.73,24.775 -4.258,2.974 -13.902,2.827 -22.237,-5.821 -8.336,-8.649 -6.883,-19.145 -0.446,-27.944 6.437,-8.799 18.037,-6.509 17.494,-10.042 -1.875,-12.226 12.355,-19.898 11.188,-25.661 0,0 -14.947,11.412 -14.67,9.863 1.867,-10.415 -11.451,-18.831 -11.451,-18.831 2.131,2.829 4.494,19.778 3.293,17.48 -1.2,-2.298 -15.179,-8.622 -12.38,-6.881 3.383,2.104 4.385,13.323 3.398,16.876 -8.043,-8.109 -26.768,3.296 -25.696,2.82 1.588,-0.705 14.754,0.318 12.735,14.147 -2.019,13.83 -20.508,25.526 -26.204,46.752 C -19.517,-15.32 0,0 0,0"
             style="fill:#955726;fill-opacity:1;fill-rule:evenodd;stroke:none"
             id="path276" /></g><g
           id="g278"
           transform="translate(306.0533,625.2203)"><path
             d="m 0,0 c 0,0 12.349,2.121 32.948,-5.554 20.598,-7.675 29.541,-24.663 27.335,-22.129 -2.204,2.533 -23.56,7.88 -23.56,7.88 0,0 5.312,-0.665 14.256,-9.022 8.945,-8.357 12.906,-19.939 10.23,-15.588 -2.675,4.351 -15.992,9.737 -14.235,9.318 1.757,-0.419 4.309,-6.548 6.981,-19.529 2.673,-12.982 -1.895,-23.083 -1.895,-23.083 0,0 -31.424,33.555 -34.159,33.118 5.517,-19.481 -18.892,-40.35 -15.52,-37.12 3.188,3.053 3.805,20.569 -4.68,31.275 -8.485,10.706 -9.159,9.562 -9.159,9.562 0,0 -5.702,-4.962 -22.956,-17.755 -17.253,-12.793 -25.118,-14.63 -27.745,-22.484 -2.626,-7.853 1.251,-24.937 2.468,-35.288 1.218,-10.351 -1.887,-12.221 -2.268,-22.015 -0.278,-7.156 1.516,-11.914 1.528,-12.961 l -0.077,-0.214 -0.002,0 c -0.035,0.029 -0.866,0.783 -2.535,7.521 -1.707,6.888 -0.34,18.259 -0.043,25.453 0.298,7.194 -6.997,40.765 -6.997,40.765 -2.926,14.634 3.739,32.503 8.632,46.283 l -3.653,-38.011 c 7.031,27.043 17.527,44.905 24.524,47.4 -7.646,-17.808 -9.439,-40.83 -9.439,-40.83 0,0 8.419,5.831 19.845,17.464 11.426,11.634 14.544,19.034 14.544,19.034 0,0 2.923,-1.205 10.163,-9.521 7.239,-8.317 14.518,-27.658 14.518,-27.658 0,0 1.817,3.081 2.898,10.02 1.082,6.939 -0.266,10.639 -0.183,11.836 0.083,1.197 -6.686,14.626 -6.686,14.626 0,0 6.716,-2.227 18.447,-12.634 11.732,-10.408 24.712,-25.158 24.787,-26.966 0.076,-1.808 1.749,7.895 -4.121,21.527 -5.87,13.633 -18.599,17.921 -19.597,17.989 -0.997,0.07 21.918,-4.723 21.918,-4.723 0,0 -0.543,0.84 -6.079,4.83 -5.535,3.991 -26.207,12.234 -26.207,12.234 l 28.404,-0.763 c 0,0 -5.109,4.362 -13.505,7.548 C 20.728,-4.979 0,0 0,0"
             style="fill:#884f20;fill-opacity:1;fill-rule:evenodd;stroke:none"
             id="path280" /></g><g
           id="g282"
           transform="translate(209.4194,517.9141)"><path
             d="M 0,0 C 0.554,15.306 3.064,38.231 3.77,39.147 4.651,40.289 2.009,36.864 -1.639,24.692 -5.287,12.52 -11.961,-12.172 -10.988,-19.19 c 0.974,-7.019 -0.955,6.42 -5.601,21.871 -4.646,15.452 0.076,30.054 1.865,32.736 1.789,2.682 -11.932,-27.63 -10.984,-31.303 0.948,-3.673 -9.473,19.492 -0.94,38.541 8.533,19.048 20.996,25.4 20.996,25.4 L -29.319,54.717 c 0,0 -19.517,-15.32 -13.82,-36.546 5.695,-21.226 24.184,-32.922 26.204,-46.752 2.018,-13.829 -11.148,-14.852 -12.736,-14.147 -1.071,0.476 17.653,-10.929 25.697,-2.82 0.986,-3.553 -0.016,-14.772 -3.399,-16.876 -2.799,-1.741 11.18,4.583 12.381,6.881 1.2,2.298 -1.163,-14.651 -3.293,-17.48 0,0 13.317,8.416 11.451,18.831 -0.277,1.549 14.669,-9.863 14.669,-9.863 1.168,5.763 -13.063,13.435 -11.186,25.661 0.542,3.533 -11.058,1.243 -17.496,10.042 -6.437,8.799 -7.89,19.295 0.446,27.944 C -0.268,-0.27 -0.134,-0.134 0,0 m 20.792,6.027 c -2.062,1.015 -4.945,1.437 -8.189,0.896 2.368,9.244 4.32,16.684 4.32,16.684 0,0 1.691,-7.329 3.869,-17.58"
             style="fill:#884f20;fill-opacity:1;fill-rule:evenodd;stroke:none"
             id="path284" /></g><g
           id="g286"
           transform="translate(283.9488,530.5261)"><path
             d="m 0,0 c -8.788,-7.201 -9.094,-11.625 -7.35,-12.466 1.743,-0.842 8.63,4.929 19.014,9.136 10.382,4.207 10.84,2.133 12.403,5.629 C 25.63,5.795 23.466,7.506 19.401,7.788 12.043,8.297 5.853,4.796 0,0"
             style="fill:#884f20;fill-opacity:1;fill-rule:evenodd;stroke:none"
             id="path288" /></g><g
           id="g290"
           transform="translate(349.2353,540.1157)"><path
             d="m 0,0 c 5.071,-4.635 4.764,-9.059 3.496,-10.458 -1.269,-1.4 -5.229,2.363 -11.718,3.445 -6.489,1.084 -7.035,-1.177 -7.681,1.91 -0.646,3.087 1.006,5.505 3.769,7.051 C -7.131,4.746 -3.378,3.087 0,0"
             style="fill:#884f20;fill-opacity:1;fill-rule:evenodd;stroke:none"
             id="path292" /></g><g
           id="g294"
           transform="translate(205.0997,410.4136)"><path
             d="m 0,0 c -18.978,-13.71 4.582,-120.643 6.312,-130.382 1.73,-9.74 8.275,-7.055 15.824,-8.911 7.549,-1.857 99.343,-4.978 104.474,-6.135 5.13,-1.156 29.585,-9.764 35.911,-11.002 3.677,-0.719 13.163,-3.694 18.82,-5.099 2.067,-0.513 5.346,2.777 1.891,4.783 -5.044,2.93 -18.018,6.943 -20.171,7.71 -1.117,0.404 -0.565,0.885 0.144,0.938 3.16,0.231 6.856,-1.21 9.862,-1.99 2.397,-0.621 4.785,-1.275 7.17,-1.943 2.42,-0.678 5.005,-1.071 7.323,-2.017 1.158,-0.472 2.307,-0.995 3.535,-1.23 1.228,-0.234 2.57,-0.151 3.622,0.525 1.051,0.675 1.71,2.038 1.316,3.224 -0.385,1.158 -1.576,1.82 -2.685,2.332 -5.397,2.492 -11.264,3.955 -16.887,5.861 -2.369,0.804 -4.74,1.62 -7.05,2.58 -0.961,0.4 -3.162,1.021 -3.696,2.047 -0.075,0.145 -0.181,0.27 -0.106,0.443 0.524,1.214 6.653,-0.81 7.457,-1.018 4.547,-1.175 9.045,-2.538 13.568,-3.803 3.723,-1.042 7.429,-2.408 11.352,-1.793 1.03,0.161 2.206,0.578 2.503,1.578 0.253,0.851 -0.262,1.735 -0.848,2.403 -1.79,2.041 -4.144,2.709 -6.61,3.552 -2.149,0.734 -4.323,1.395 -6.498,2.046 -4.383,1.311 -8.809,2.515 -13.128,4.031 -0.828,0.291 -5.957,1.717 -5.511,3.226 0.385,1.299 7.942,-0.328 8.815,-0.466 4.981,-0.784 9.882,-2.015 14.836,-2.849 1.745,-0.294 3.528,-0.363 5.29,-0.198 0.706,0.065 1.424,0.173 2.057,0.493 0.633,0.32 1.177,0.886 1.308,1.584 0.132,0.696 -0.167,1.42 -0.636,1.951 -0.469,0.531 -1.092,0.898 -1.718,1.23 -4.736,2.508 -10.045,2.768 -15.109,4.242 -4.518,1.314 -19.482,4.367 -22.136,6.554 -0.627,0.517 18.453,11.652 16.154,19.483 -1.073,3.657 -11.474,-5.096 -22.366,-10.489 -11.973,-5.93 -12.08,-4.241 -23.724,-12.254 -7.373,-2.295 -58.506,3.939 -71.378,5.356 -14.767,1.627 -21.264,1.074 -21.264,1.074 0,0 -6.591,23.782 -7.938,43.126 C 26.918,-23.715 18.978,13.71 0,0"
             style="fill:#fbd2c0;fill-opacity:1;fill-rule:evenodd;stroke:none"
             id="path296" /></g><g
           id="g298"
           transform="translate(209.1871,291.2949)"><path
             d="m 0,0 c 0.112,-0.593 1.327,-6.212 2.224,-11.264 0.431,-2.431 1.008,-5.245 3.738,-6.587 2.943,-1.446 8.17,-1.361 12.086,-2.324 7.549,-1.856 99.344,-4.977 104.474,-6.134 5.131,-1.157 29.585,-9.764 35.911,-11.002 3.677,-0.72 13.163,-3.694 18.821,-5.099 0.88,-0.219 1.981,0.253 2.687,1.021 -0.59,0.113 -1.335,0.233 -2.245,0.345 -2.832,0.346 -11.284,2.734 -18.047,4.905 -6.764,2.172 -30.685,11.242 -30.685,11.242 0,0 -115.136,10.128 -118.67,11.174 C 6.759,-12.676 4.577,2.882 3.973,2.688 3.369,2.494 1.002,0.511 0,0"
             style="fill:#edc3b1;fill-opacity:1;fill-rule:evenodd;stroke:none"
             id="path300" /></g><g
           id="g302"
           transform="translate(304.1401,519.9688)"><path
             d="m 0,0 c 2.788,-0.193 4.807,-3.84 4.509,-8.145 -0.299,-4.306 -2.8,-7.639 -5.588,-7.446 -2.788,0.193 -4.806,3.839 -4.509,8.145 C -5.289,-3.141 -2.788,0.193 0,0"
             style="fill:#653a14;fill-opacity:1;fill-rule:evenodd;stroke:none"
             id="path304" /></g><g
           id="g306"
           transform="translate(305.5215,517.7174)"><path
             d="M 0,0 C 1.06,-0.073 1.828,-1.46 1.715,-3.098 1.601,-4.735 0.65,-6.003 -0.41,-5.929 -1.47,-5.856 -2.238,-4.469 -2.124,-2.832 -2.011,-1.195 -1.06,0.073 0,0"
             style="fill:#ffffff;fill-opacity:1;fill-rule:evenodd;stroke:none"
             id="path308" /></g><g
           id="g310"
           transform="translate(344.3133,524.2186)"><path
             d="m 0,0 c 2.788,-0.193 4.806,-3.84 4.508,-8.145 -0.298,-4.306 -2.799,-7.639 -5.587,-7.446 -2.788,0.193 -4.807,3.839 -4.509,8.145 C -5.29,-3.141 -2.788,0.193 0,0"
             style="fill:#653a14;fill-opacity:1;fill-rule:evenodd;stroke:none"
             id="path312" /></g><g
           id="g314"
           transform="translate(345.6946,521.9672)"><path
             d="M 0,0 C 1.06,-0.073 1.828,-1.46 1.715,-3.097 1.601,-4.735 0.65,-6.003 -0.41,-5.929 -1.471,-5.856 -2.238,-4.469 -2.125,-2.832 -2.012,-1.195 -1.06,0.073 0,0"
             style="fill:#ffffff;fill-opacity:1;fill-rule:evenodd;stroke:none"
             id="path316" /></g><g
           id="g318"
           transform="translate(345.1211,482.7649)"><path
             d="m 0,0 c -3.564,-2.193 -22.009,-4.484 -18.797,-2.306 5.618,3.81 13.225,7.728 17.574,7.088 C 2.329,4.259 1.975,1.215 0,0"
             style="fill:#e9baa4;fill-opacity:1;fill-rule:evenodd;stroke:none"
             id="path320" /></g><g
           id="g322"
           transform="translate(339.1422,467.5397)"><path
             d="m 0,0 c 1.994,-0.65 2.39,-3.711 0.885,-6.839 -1.505,-3.126 -4.342,-5.135 -6.336,-4.485 -1.994,0.649 -2.39,3.711 -0.885,6.838 C -4.831,-1.359 -1.994,0.649 0,0"
             style="fill:#915f6a;fill-opacity:1;fill-rule:evenodd;stroke:none"
             id="path324" /></g><g
           id="g326"
           transform="translate(200.1577,407.0484)"><path
             d="m 0,0 c -17.883,-17.326 -4.139,-121.273 -4.139,-121.273 11.622,-0.003 35.895,25.244 43.106,25.499 7.21,0.255 2.561,5.665 1.27,10.163 -0.65,2.265 9.993,73.215 -7.708,90.909 C 26.059,11.765 16.11,15.608 0,0"
             style="fill:#ffb85f;fill-opacity:1;fill-rule:evenodd;stroke:none"
             id="path328" /></g><g
           id="g330"
           transform="translate(200.1577,407.0484)"><path
             d="m 0,0 c -17.883,-17.326 -4.139,-121.273 -4.139,-121.273 11.622,-0.003 35.895,25.244 43.106,25.499 2.303,0.081 3.394,0.689 3.773,1.625 1.023,2.8 -8.507,7.886 -15.463,6.441 -6.973,-1.45 -13.636,-17.494 -24.832,-17.12 -11.196,0.374 -3.903,13.097 -4.45,28.364 -0.589,16.467 -0.938,33.918 -1.271,48.924 C -3.547,-15.296 2.691,1.143 5.511,4.785 3.758,3.447 1.924,1.864 0,0"
             style="fill:#e2a557;fill-opacity:1;fill-rule:evenodd;stroke:none"
             id="path332" /></g><g
           id="g334"
           transform="translate(597.9231,192.4528)"><path
             d="m 0,0 c 0.768,-1.391 1.44,-2.823 2.037,-4.125 2.925,-6.388 4.298,-13.496 3.849,-20.513 -0.323,-5.048 -1.585,-10.106 -4.233,-14.416 -3.526,-5.741 -8.696,-7.747 -14.361,-10.695 7.058,-1.501 12.56,-0.349 19.447,6.605 10.773,10.877 11.082,38.511 -8.117,50.661 -1.465,0.927 -5.339,1.867 -10.268,2.648 C -8.907,8.701 -5.718,6.975 -3.484,4.82 -2.137,3.52 -0.99,1.793 0,0"
             style="fill:#e6e7e8;fill-opacity:1;fill-rule:evenodd;stroke:none"
             id="path336" /></g><g
           id="g338"
           transform="translate(360.6799,535.2783)"><path
             d="m 0,0 c 1.605,-8.794 2.645,-19.765 -0.008,-28.148 -1.442,-4.559 -4.22,-8.895 -9.16,-10.032 -6.64,-1.529 -13.525,3.219 -17.398,8.216 -5.665,7.31 -7.066,16.606 -4.619,25.412 C -27.576,-2.838 -7.098,-0.385 0,0 m -46.587,-5.993 c 3.944,-11.119 7.258,-31.071 -5.168,-37.375 -12.425,-6.304 -27.535,1.877 -33.788,11.879 -3.297,5.294 -4.119,11.24 -2.63,17.228 1.551,0.756 5.629,1.721 6.893,2.023 4.627,1.102 9.331,2.012 14.01,2.868 4.821,0.883 9.659,1.699 14.503,2.447 1.93,0.298 4.122,0.692 6.18,0.93 M 1.927,2.385 c -2.66,0.087 -26.059,-2.08 -33.161,-4.474 l 0,10e-4 -13.667,-1.244 c -3.832,-0.233 -40.033,-5.943 -44.95,-9.011 -7.775,0.337 -49.788,4.076 -51.154,4.385 -1.509,0.341 -0.762,-3.83 -0.762,-3.83 0,0 46.865,-5.917 47.948,-6.193 0.608,-0.154 1.602,-1.125 2.435,-2.094 -1.823,-33.094 62.501,-45.241 48.897,9.482 1.443,1.077 4.544,3.377 8.084,1.975 -4.635,-34.854 49.3,-54.447 36.33,11.003"
             style="fill:#58595b;fill-opacity:1;fill-rule:evenodd;stroke:none"
             id="path340" /></g><g
           id="g342"
           transform="translate(568.1859,177.396)"><path
             d="m 0,0 c -2.029,-10.618 -5.73,-20.747 -9.161,-30.968 -0.458,-1.365 -0.941,-2.773 -1.917,-3.832 -1.757,-1.906 -5.588,-1.503 -7.983,-1.453 -3.164,0.066 -6.429,0.442 -9.418,1.524 -0.11,0.04 -0.22,0.08 -0.33,0.12 -2.65,2.52 -7.75,7.51 -8.99,9.78 -1.7,3.12 0.85,6.94 3.68,17.46 2.83,10.52 11.05,20.07 11.47,27.61 0.32,5.55 -3.43,13.19 -6.23,17.23 9.042,0.663 19.15,-0.79 27.206,-5.168 1.479,-0.804 2.81,-1.988 3.476,-3.535 1.237,-2.872 0.3,-6.742 0.338,-9.79 C 2.19,15.021 1.674,10.981 1.148,7.067 0.831,4.701 0.448,2.344 0,0"
             style="fill:#4a5e6a;fill-opacity:1;fill-rule:evenodd;stroke:none"
             id="path344" /></g><g
           id="g346"
           transform="translate(286.5607,380.2733)"><path
             d="m 0,0 c -28.184,5.812 -50.497,37.219 -45.949,42.983 -1.299,-0.335 -2.595,-0.672 -3.88,-1.012 -0.607,-3.372 -0.044,-8.575 4.643,-15.893 9.365,-14.62 28.036,-27.791 41.887,-30.353 2.141,-0.396 4.169,-0.689 6.082,-0.885 6.545,-0.671 11.722,-0.211 15.363,1.094 2.173,0.779 3.799,1.86 4.841,3.182 3.296,4.18 2.864,12.426 1.311,18.946 -0.593,2.491 -2.422,7.375 -4.458,12.462 -1.044,2.608 -2.142,5.27 -3.155,7.689 -0.847,2.023 -1.634,3.876 -2.281,5.388 -1.334,0.308 -2.797,0.594 -4.402,0.856 1.458,-2.561 2.763,-5.019 3.921,-7.372 C 15.841,33.19 17.355,29.581 18.5,26.265 22.947,13.375 21.788,4.906 16.843,1.212 15.074,-0.11 12.822,-0.82 10.169,-0.905 6.721,-1.014 3.319,-0.685 0,0"
             style="fill:#e6e7e8;fill-opacity:1;fill-rule:evenodd;stroke:none"
             id="path348" /></g><g
           id="g350"
           transform="translate(231.9585,522.11)"><path
             d="m 0,0 c -1.103,1.267 -17.846,10.907 -27.249,1.886 -9.403,-9.021 -8.728,-22.907 -3.312,-32.805 5.416,-9.898 15.677,-15.427 22.745,-17.003 7.069,-1.577 11.484,1.197 13.221,9.507 C 7.142,-30.106 0,0 0,0"
             style="fill:#fbd2c0;fill-opacity:1;fill-rule:evenodd;stroke:none"
             id="path352" /></g><g
           id="g354"
           transform="translate(220.1815,517.9845)"><path
             d="m 0,0 c -3.74,1.029 -9,0.878 -12.186,-5.424 -4.834,-9.564 -3.225,-19.308 5.439,-25.47 8.664,-6.161 12.627,-7.254 14.991,-1.358 2.362,5.897 -1.917,6.194 -4.815,9.522 -2.898,3.328 -4.333,5.187 -1.434,7.528 2.899,2.34 5.058,-0.351 5.938,3.889 0.49,2.358 -0.754,5.018 -1.954,6.914 C 4.236,-1.645 3.288,-0.904 0,0"
             style="fill:#e9baa4;fill-opacity:1;fill-rule:evenodd;stroke:none"
             id="path356" /></g><g
           id="g358"
           transform="translate(540.2668,577.8497)"><path
             d="m 0,0 c 13.596,-6.384 9.143,-29.459 7.736,-26.67 -0.443,0.88 -2.527,7.503 -10.812,9.225 C -11.361,-15.722 0,0 0,0"
             style="fill:#43525a;fill-opacity:1;fill-rule:evenodd;stroke:none"
             id="path360" /></g><g
           id="g362"
           transform="translate(526.7074,581.6025)"><path
             d="m 0,0 c -14.944,1.516 -22.989,-20.564 -20.349,-18.896 0.833,0.527 6.026,5.136 14.017,2.353 C 1.659,-19.326 0,0 0,0"
             style="fill:#43525a;fill-opacity:1;fill-rule:evenodd;stroke:none"
             id="path364" /></g><g
           id="g366"
           transform="translate(525.7607,563.1495)"><path
             d="m 0,0 c -0.324,-0.132 -4.405,-1.381 -4.405,-1.381 0,0 -7.833,-12.419 -7.602,-11.929 0.232,0.49 5.101,3.91 5.101,3.91 l -5.992,-12.312 4.631,3.597 -3.176,-13.203 3.862,3.588 -1.541,-15.759 6.782,14.308 1.468,-5.063 4.064,12.957 2.122,-5.467 1.193,13.641 c 0,0 2.417,-5.436 2.364,-5.976 -0.054,-0.54 -0.386,14.14 -0.386,14.14 0,0 -2.858,3.17 -3.068,3.449 L 2.789,-0.459 0,0 z"
             style="fill:#ee5e26;fill-opacity:1;fill-rule:evenodd;stroke:none"
             id="path368" /></g><g
           id="g370"
           transform="translate(519.2863,555.8106)"><path
             d="m 0,0 3.298,2.33 -5.738,-11.795 2.998,2.33 -3.022,-12.562 3.153,2.928 -1.109,-11.335 4.878,10.292 1.198,-4.133 3.867,12.328 1.374,-3.54 1.143,13.067 1.631,-3.694 c -0.048,1.87 -0.097,3.741 -0.135,5.612 -0.398,0.443 -0.797,0.887 -1.195,1.331 -0.413,0.462 -0.919,0.986 -1.335,1.489 L 8.879,5.49 6.621,5.862 C 6.005,5.644 5.302,5.455 4.711,5.272 4.141,5.095 3.571,4.919 3.001,4.744 2.006,3.159 1.002,1.579 0,0"
             style="fill:#ed902d;fill-opacity:1;fill-rule:evenodd;stroke:none"
             id="path372" /></g><g
           id="g374"
           transform="translate(525.0335,559.8971)"><path
             d="m 0,0 -4.205,-8.642 1.366,1.061 -2.868,-11.919 2.443,2.268 -0.677,-6.913 2.975,6.277 0.929,-3.202 3.669,11.697 0.626,-1.612 0.838,9.575 C 4.865,-1.159 4.627,-0.899 4.401,-0.641 L 2.747,0.014 0.992,0.303 C 0.665,0.197 0.327,0.097 0,0"
             style="fill:#f6eb00;fill-opacity:1;fill-rule:evenodd;stroke:none"
             id="path376" /></g><g
           id="g378"
           transform="translate(524.1735,568.111)"><path
             d="m 0,0 -3.341,-6.837 13.608,-3.766 0.649,7.581 -5.458,1.511 0,0 L 0,0 z"
             style="fill:#a15641;fill-opacity:1;fill-rule:evenodd;stroke:none"
             id="path380" /></g><g
           id="g382"
           transform="translate(547.1125,628.95)"><path
             d="m 0,0 0,0 0,0 0,0 c -19.226,-9.091 -25.174,-42.445 -26.737,-63.891 l 8.407,-2.327 10e-4,0 8.407,-2.327 C -0.235,-49.349 11.815,-17.683 0,0 z"
             style="fill:#e6e6e6;fill-opacity:1;fill-rule:evenodd;stroke:none"
             id="path384" /></g><g
           id="g386"
           transform="translate(547.1125,628.95)"><path
             d="m 0,0 0,0 0,0 0,0 c -3.392,-1.604 -6.369,-3.965 -8.983,-6.881 l 13.149,-3.64 C 3.423,-6.676 2.084,-3.12 0,0 z"
             style="fill:#ff7a5a;fill-opacity:1;fill-rule:evenodd;stroke:none"
             id="path388" /></g><g
           id="g390"
           transform="translate(527.6376,603.1299)"><path
             d="m 0,0 c -1.014,-2.855 -1.901,-5.806 -2.675,-8.795 l 23.348,-6.463 c 0.872,2.962 1.63,5.949 2.228,8.919 L 0,0 z"
             style="fill:#ff7a5a;fill-opacity:1;fill-rule:evenodd;stroke:none"
             id="path392" /></g><g
           id="g394"
           transform="translate(533.3727,579.3118)"><path
             d="m 0,0 c 0,0 -0.471,-5.504 -2.257,-11.96 -1.787,-6.456 -4.103,-11.394 -4.215,-11.419 -0.111,-0.025 0.471,5.504 2.258,11.96 C -2.427,-4.962 0,0 0,0"
             style="fill:#43525a;fill-opacity:1;fill-rule:evenodd;stroke:none"
             id="path396" /></g><g
           id="g398"
           transform="translate(540.0289,603.3593)"><path
             d="m 0,0 c 4.323,-1.197 6.858,-5.671 5.661,-9.994 -1.197,-4.323 -5.671,-6.857 -9.994,-5.661 -4.323,1.197 -6.858,5.671 -5.661,9.994 C -8.797,-1.338 -4.323,1.196 0,0"
             style="fill:#58595b;fill-opacity:1;fill-rule:evenodd;stroke:none"
             id="path400" /></g><g
           id="g402"
           transform="translate(539.4586,601.2997)"><path
             d="m 0,0 c 3.185,-0.882 5.053,-4.179 4.171,-7.364 -0.882,-3.186 -4.179,-5.053 -7.364,-4.172 -3.185,0.882 -5.053,4.179 -4.171,7.365 C -6.482,-0.986 -3.185,0.881 0,0"
             style="fill:#56c4cf;fill-opacity:1;fill-rule:evenodd;stroke:none"
             id="path404" /></g><g
           id="g406"
           transform="translate(663.8745,609.433)"><path
             d="M 0,0 C 25.419,14.991 50.527,19.51 56.079,10.094 61.632,0.68 45.527,-19.106 20.108,-34.097 -5.311,-49.088 -30.419,-53.607 -35.972,-44.192 -41.524,-34.776 -25.419,-14.991 0,0"
             style="fill:#e6e7e8;fill-opacity:1;fill-rule:evenodd;stroke:none"
             id="path408" /></g><g
           id="g410"
           transform="translate(660.5553,615.06)"><path
             d="M 0,0 C 26.449,15.598 50.195,-3.513 14.49,-24.57 -21.215,-45.626 -26.449,-15.598 0,0"
             style="fill:#00988f;fill-opacity:1;fill-rule:evenodd;stroke:none"
             id="path412" /></g><g
           id="g414"
           transform="translate(660.5553,615.06)"><path
             d="M 0,0 C 2.883,1.7 5.735,2.988 8.48,3.906 26.198,5.552 34.717,-9.748 6.744,-26.244 2.417,-28.796 -1.458,-30.592 -4.888,-31.76 -21.966,-32.901 -20.529,-12.107 0,0"
             style="fill:#00aaa0;fill-opacity:1;fill-rule:evenodd;stroke:none"
             id="path416" /></g><g
           id="g418"
           transform="translate(682.1035,578.522)"><path
             d="m 0,0 c -23.969,-14.136 -47.661,-18.96 -54.942,-11.571 0.178,-0.602 0.425,-1.173 0.741,-1.71 5.553,-9.415 30.661,-4.896 56.08,10.095 25.419,14.991 41.524,34.777 35.972,44.191 -0.317,0.538 -0.698,1.029 -1.138,1.477 C 39.656,32.534 23.969,14.135 0,0"
             style="fill:#d0d2d3;fill-opacity:1;fill-rule:evenodd;stroke:none"
             id="path420" /></g><g
           id="g422"
           transform="translate(634.3458,579.8962)"><path
             d="m 0,0 c -3.203,-2.501 -4.937,-5.993 -3.871,-7.8 1.065,-1.807 4.526,-1.244 7.73,1.257 3.203,2.501 4.937,5.993 3.871,7.8 C 6.664,3.064 3.203,2.501 0,0"
             style="fill:#929497;fill-opacity:1;fill-rule:evenodd;stroke:none"
             id="path424" /></g><g
           id="g426"
           transform="translate(676.1857,588.8386)"><path
             d="M 0,0 C 4.47,2.636 9.06,3.135 10.252,1.114 11.444,-0.907 8.786,-4.682 4.316,-7.318 -0.154,-9.954 -4.744,-10.453 -5.936,-8.432 -7.127,-6.411 -4.47,-2.636 0,0"
             style="fill:#929497;fill-opacity:1;fill-rule:evenodd;stroke:none"
             id="path428" /></g><g
           id="g430"
           transform="translate(702.7966,620.2646)"><path
             d="M 0,0 C 3.739,1.594 7.634,1.42 8.7,-0.387 9.765,-2.193 7.598,-4.95 3.859,-6.543 0.12,-8.136 -3.775,-7.963 -4.84,-6.157 -5.906,-4.35 -3.739,-1.593 0,0"
             style="fill:#929497;fill-opacity:1;fill-rule:evenodd;stroke:none"
             id="path432" /></g><g
           id="g434"
           transform="translate(652.9045,607.7515)"><path
             d="m 0,0 c -4.839,-4.347 -7.466,-10.068 -5.867,-12.778 1.598,-2.711 6.817,-1.384 11.655,2.962 4.84,4.347 7.467,10.068 5.868,12.778 C 10.058,5.673 4.839,4.346 0,0"
             style="fill:#66ccc6;fill-opacity:1;fill-rule:evenodd;stroke:none"
             id="path436" /></g><g
           id="g438"
           transform="translate(423.4865,539.9805)"><path
             d="m 0,0 c -0.02,-0.031 -0.038,-0.056 -0.054,-0.075 -0.609,-0.706 -2.453,-0.988 -4.526,-0.902 -2.139,0.09 -4.435,0.601 -5.899,1.476 0.104,0.3 0.184,0.653 0.228,1.038 0.139,1.209 -0.127,2.269 -0.595,2.368 -0.468,0.099 -0.959,-0.801 -1.098,-2.009 -0.008,-0.074 -0.015,-0.147 -0.021,-0.22 -0.037,0.039 -0.074,0.077 -0.113,0.116 -0.918,0.915 -1.919,1.4 -2.234,1.083 -0.315,-0.316 0.174,-1.314 1.092,-2.229 0.024,-0.023 0.047,-0.046 0.071,-0.069 -0.041,-0.003 -0.081,-0.008 -0.122,-0.013 -1.208,-0.143 -2.105,-0.638 -2.005,-1.105 0.101,-0.467 1.162,-0.73 2.37,-0.587 0.404,0.048 0.773,0.136 1.082,0.248 0.08,-0.055 0.161,-0.108 0.244,-0.16 1.736,-1.087 4.444,-1.717 6.922,-1.82 2.593,-0.108 5.021,0.385 6.03,1.553 0.089,0.103 0.165,0.205 0.228,0.306 L 0,0 z"
             style="fill:#ff7a5a;fill-opacity:1;fill-rule:evenodd;stroke:none"
             id="path440" /></g><g
           id="g442"
           transform="translate(453.5791,548.5246)"><path
             d="M 0,0 C 0.032,-0.017 0.06,-0.03 0.084,-0.039 0.963,-0.348 2.704,0.323 4.46,1.428 6.272,2.568 8.011,4.151 8.847,5.638 8.608,5.847 8.363,6.115 8.133,6.426 7.412,7.407 7.117,8.459 7.474,8.777 7.83,9.095 8.704,8.558 9.424,7.579 9.468,7.519 9.511,7.459 9.552,7.398 9.564,7.45 9.578,7.502 9.593,7.555 c 0.342,1.25 0.969,2.168 1.4,2.05 0.43,-0.118 0.501,-1.227 0.159,-2.477 -0.009,-0.032 -0.017,-0.064 -0.027,-0.095 0.037,0.017 0.075,0.033 0.112,0.049 1.12,0.476 2.145,0.492 2.289,0.037 C 13.671,6.664 12.881,5.909 11.761,5.432 11.387,5.274 11.023,5.166 10.699,5.11 10.657,5.023 10.613,4.936 10.567,4.85 9.6,3.044 7.563,1.152 5.464,-0.168 3.267,-1.55 0.915,-2.328 -0.541,-1.815 -0.67,-1.77 -0.787,-1.72 -0.891,-1.663 L 0,0 z"
             style="fill:#ff7a5a;fill-opacity:1;fill-rule:evenodd;stroke:none"
             id="path444" /></g><g
           id="g446"
           transform="translate(424.3433,552.7015)"><path
             d="m 0,0 c -6.701,-9.996 2.558,-26.417 6.495,-36.152 3.037,-7.511 7.706,-9.983 7.393,-7.689 -0.313,2.293 0.15,3.902 0.15,3.902 0,0 3.585,1.509 7.592,3.01 4.223,0.688 8.084,1.158 8.084,1.158 0,0 1.201,-1.165 2.069,-3.311 0.867,-2.146 3.691,2.318 2.596,10.346 C 32.96,-18.332 32.839,0.519 22.057,5.866 18.166,7.795 13.848,7.96 10.018,6.733 6.084,5.895 2.419,3.607 0,0"
             style="fill:#ff7a5a;fill-opacity:1;fill-rule:evenodd;stroke:none"
             id="path448" /></g><g
           id="g450"
           transform="translate(430.9124,553.579)"><path
             d="M 0,0 C 1.39,0.207 2.685,-0.753 2.891,-2.143 3.098,-3.534 2.139,-4.828 0.748,-5.034 -0.642,-5.241 -1.937,-4.282 -2.143,-2.892 -2.351,-1.501 -1.39,-0.207 0,0"
             style="fill:#c1b55e;fill-opacity:1;fill-rule:evenodd;stroke:none"
             id="path452" /></g><g
           id="g454"
           transform="translate(430.9569,553.2787)"><path
             d="M 0,0 C 1.39,0.207 2.685,-0.753 2.891,-2.144 3.099,-3.534 2.139,-4.828 0.748,-5.035 -0.642,-5.242 -1.937,-4.282 -2.143,-2.892 -2.351,-1.502 -1.39,-0.207 0,0"
             style="fill:#fdf8fa;fill-opacity:1;fill-rule:evenodd;stroke:none"
             id="path456" /></g><g
           id="g458"
           transform="translate(431.0606,551.8172)"><path
             d="M 0,0 C 0.438,0.167 0.927,-0.052 1.095,-0.489 1.261,-0.927 1.041,-1.418 0.604,-1.584 0.166,-1.751 -0.323,-1.532 -0.49,-1.094 -0.656,-0.657 -0.437,-0.166 0,0"
             style="fill:#404041;fill-opacity:1;fill-rule:evenodd;stroke:none"
             id="path460" /></g><g
           id="g462"
           transform="translate(431.4283,551.7059)"><path
             d="M 0,0 C 0.193,0.073 0.408,-0.023 0.481,-0.216 0.555,-0.408 0.458,-0.623 0.266,-0.697 0.074,-0.77 -0.142,-0.674 -0.215,-0.481 -0.288,-0.289 -0.192,-0.074 0,0"
             style="fill:#ffffff;fill-opacity:1;fill-rule:evenodd;stroke:none"
             id="path464" /></g><g
           id="g466"
           transform="translate(441.9931,555.6664)"><path
             d="M 0,0 C 1.243,0.185 2.4,-0.673 2.585,-1.916 2.77,-3.159 1.912,-4.317 0.669,-4.502 -0.574,-4.687 -1.731,-3.829 -1.916,-2.586 -2.102,-1.343 -1.243,-0.185 0,0"
             style="fill:#c1b55e;fill-opacity:1;fill-rule:evenodd;stroke:none"
             id="path468" /></g><g
           id="g470"
           transform="translate(442.0328,555.3973)"><path
             d="m 0,0 c 1.243,0.185 2.4,-0.673 2.585,-1.916 0.185,-1.243 -0.673,-2.4 -1.916,-2.586 -1.243,-0.184 -2.4,0.673 -2.585,1.916 C -2.101,-1.343 -1.243,-0.185 0,0"
             style="fill:#fdf8fa;fill-opacity:1;fill-rule:evenodd;stroke:none"
             id="path472" /></g><g
           id="g474"
           transform="translate(442.1256,554.0915)"><path
             d="M 0,0 C 0.392,0.15 0.829,-0.048 0.979,-0.439 1.127,-0.83 0.931,-1.268 0.54,-1.417 0.149,-1.566 -0.289,-1.37 -0.438,-0.979 -0.587,-0.587 -0.391,-0.149 0,0"
             style="fill:#404041;fill-opacity:1;fill-rule:evenodd;stroke:none"
             id="path476" /></g><g
           id="g478"
           transform="translate(442.4543,553.9909)"><path
             d="M 0,0 C 0.173,0.066 0.365,-0.021 0.43,-0.192 0.496,-0.364 0.409,-0.557 0.238,-0.622 0.066,-0.688 -0.126,-0.602 -0.192,-0.43 -0.257,-0.258 -0.172,-0.065 0,0"
             style="fill:#ffffff;fill-opacity:1;fill-rule:evenodd;stroke:none"
             id="path480" /></g><g
           id="g482"
           transform="translate(449.6471,551.2507)"><path
             d="m 0,0 c 1.084,-5.653 -2.663,-11.266 -8.567,-12.681 -5.904,-1.414 -11.788,1.891 -13.383,7.423 L 0,0 z"
             style="fill:#404041;fill-opacity:1;fill-rule:evenodd;stroke:none"
             id="path484" /></g><g
           id="g486"
           transform="translate(447.7462,542.9822)"><path
             d="m 0,0 c -1.544,-2.121 -3.862,-3.741 -6.666,-4.412 -2.638,-0.632 -5.272,-0.321 -7.521,0.709 1.288,1.329 3.691,2.618 6.595,3.397 C -4.587,0.5 -1.774,0.565 0,0"
             style="fill:#db66a6;fill-opacity:1;fill-rule:evenodd;stroke:none"
             id="path488" /></g><g
           id="g490"
           transform="translate(447.2679,547.2374)"><path
             d="m 0,0 c 0,0 -0.06,2.306 -0.125,3.413 l -16.176,-3.875 1.539,-3.238 0.531,1.48 L -1.06,0.905 0,0 z"
             style="fill:#ffffff;fill-opacity:1;fill-rule:evenodd;stroke:none"
             id="path492" /></g><g
           id="g494"
           transform="translate(607.1777,469.2791)"><path
             d="m 0,0 0.3,-4.87 -23.768,-1.464 -0.3,4.871 L 0,0 z"
             style="fill:#e6e7e8;fill-opacity:1;fill-rule:evenodd;stroke:none"
             id="path496" /></g><g
           id="g498"
           transform="translate(593.8608,463.5704)"><path
             d="M 0,0 -3.104,-0.191 C -3.157,1.183 -3.235,3.128 -3.31,4.685 l 3.041,0.187 C -0.154,3.203 -0.06,1.334 0,0"
             style="fill:#a6a8ab;fill-opacity:1;fill-rule:evenodd;stroke:none"
             id="path500" /></g><g
           id="g502"
           transform="translate(607.8771,468.9455)"><path
             d="m 0,0 c 1.682,-2.208 1.326,-5.309 -0.796,-6.926 -2.123,-1.617 -5.207,-1.137 -6.889,1.07 -1.683,2.208 -1.326,5.309 0.796,6.926 C -4.767,2.687 -1.682,2.208 0,0"
             style="fill:#bbbdbf;fill-opacity:1;fill-rule:evenodd;stroke:none"
             id="path504" /></g><g
           id="g506"
           transform="translate(577.5869,469.1247)"><path
             d="M 0,0 C 2.252,0.131 4.185,-1.588 4.315,-3.841 4.447,-6.093 2.727,-8.025 0.475,-8.157 0.411,-8.16 0.347,-8.162 0.284,-8.163 L 0.38,-9.822 c 0.064,0.002 0.128,0.005 0.192,0.009 3.167,0.184 5.585,2.901 5.401,6.069 C 5.788,-0.577 3.071,1.841 -0.097,1.657 -0.161,1.653 -0.224,1.648 -0.288,1.642 l 0.097,-1.658 C -0.128,-0.009 -0.064,-0.004 0,0"
             style="fill:#bbbdbf;fill-opacity:1;fill-rule:evenodd;stroke:none"
             id="path508" /></g><g
           id="g510"
           transform="translate(626.2759,444.2133)"><path
             d="m 0,0 -4.616,1.581 -7.719,-22.527 4.616,-1.582 L 0,0 z"
             style="fill:#e6e7e8;fill-opacity:1;fill-rule:evenodd;stroke:none"
             id="path512" /></g><g
           id="g514"
           transform="translate(617.2377,432.889)"><path
             d="m 0,0 -1.008,-2.942 c 1.311,-0.416 3.165,-1.007 4.647,-1.492 l 0.987,2.881 C 3.047,-0.999 1.27,-0.413 0,0"
             style="fill:#a6a8ab;fill-opacity:1;fill-rule:evenodd;stroke:none"
             id="path516" /></g><g
           id="g518"
           transform="translate(626.1398,444.9759)"><path
             d="m 0,0 c -1.682,2.208 -4.767,2.687 -6.889,1.07 -2.122,-1.617 -2.479,-4.718 -0.796,-6.926 1.682,-2.207 4.766,-2.687 6.888,-1.07 C 1.326,-5.309 1.682,-2.208 0,0"
             style="fill:#bbbdbf;fill-opacity:1;fill-rule:evenodd;stroke:none"
             id="path520" /></g><g
           id="g522"
           transform="translate(618.2733,415.7242)"><path
             d="M 0,0 C 0.724,2.137 -0.42,4.456 -2.557,5.181 -4.694,5.905 -7.013,4.76 -7.737,2.623 -7.758,2.563 -7.777,2.501 -7.795,2.44 l -1.573,0.534 c 0.018,0.06 0.038,0.121 0.059,0.182 1.018,3.005 4.28,4.615 7.285,3.596 C 0.981,5.734 2.59,2.472 1.572,-0.533 1.551,-0.594 1.53,-0.654 1.507,-0.713 L -0.066,-0.18 C -0.043,-0.121 -0.02,-0.061 0,0"
             style="fill:#bbbdbf;fill-opacity:1;fill-rule:evenodd;stroke:none"
             id="path524" /></g><g
           id="g526"
           transform="translate(613.8266,476.4722)"><path
             d="m 0,0 c 0.278,-0.364 0.28,-0.853 0.041,-1.215 l 1.995,-2.618 -0.551,-0.42 -1.995,2.619 c -0.412,-0.135 -0.882,-0.003 -1.16,0.362 -0.351,0.461 -0.262,1.119 0.199,1.47 C -1.01,0.55 -0.351,0.461 0,0"
             style="fill:#404041;fill-opacity:1;fill-rule:evenodd;stroke:none"
             id="path528" /></g><g
           id="g530"
           transform="translate(635.7946,447.6395)"><path
             d="M 0,0 C -0.278,0.365 -0.747,0.497 -1.16,0.362 L -3.154,2.98 -3.706,2.561 -1.711,-0.058 c -0.239,-0.361 -0.237,-0.85 0.041,-1.214 0.352,-0.461 1.01,-0.55 1.472,-0.199 C 0.262,-1.119 0.351,-0.461 0,0"
             style="fill:#404041;fill-opacity:1;fill-rule:evenodd;stroke:none"
             id="path532" /></g><g
           id="g534"
           transform="translate(616.4439,474.7358)"><path
             d="M 0,0 1.527,-2.004 -1.913,-4.625 -3.44,-2.621 0,0 z"
             style="fill:#d0d2d3;fill-opacity:1;fill-rule:evenodd;stroke:none"
             id="path536" /></g><g
           id="g538"
           transform="translate(618.6699,474.6896)"><path
             d="M 0,0 2.443,-3.206 -3.769,-7.938 -6.212,-4.733 0,0 z"
             style="fill:#bbbdbf;fill-opacity:1;fill-rule:evenodd;stroke:none"
             id="path540" /></g><g
           id="g542"
           transform="translate(634.8154,450.6238)"><path
             d="M 0,0 -1.527,2.004 -4.966,-0.617 -3.44,-2.621 0,0 z"
             style="fill:#d0d2d3;fill-opacity:1;fill-rule:evenodd;stroke:none"
             id="path544" /></g><g
           id="g546"
           transform="translate(635.3617,452.7823)"><path
             d="M 0,0 -2.443,3.206 -8.655,-1.527 -6.212,-4.733 0,0 z"
             style="fill:#bbbdbf;fill-opacity:1;fill-rule:evenodd;stroke:none"
             id="path548" /></g><g
           id="g550"
           transform="translate(624.0944,473.0429)"><path
             d="m 0,0 11.119,-14.594 c 0.749,-0.983 0.558,-2.399 -0.425,-3.148 l -7.915,-6.03 c -0.983,-0.749 -2.399,-0.558 -3.148,0.425 l -11.119,14.594 c -0.749,0.983 -0.558,2.399 0.425,3.148 l 7.914,6.03 C -2.165,1.174 -0.749,0.983 0,0"
             style="fill:#e6e7e8;fill-opacity:1;fill-rule:evenodd;stroke:none"
             id="path552" /></g><g
           id="g554"
           transform="translate(623.9766,468.071)"><path
             d="m 0,0 c 1.237,-1.623 0.923,-3.941 -0.7,-5.178 -1.623,-1.237 -3.941,-0.923 -5.178,0.7 -1.236,1.623 -0.923,3.941 0.7,5.178 C -3.555,1.937 -1.237,1.624 0,0"
             style="fill:#58595b;fill-opacity:1;fill-rule:evenodd;stroke:none"
             id="path556" /></g><g
           id="g558"
           transform="translate(630.2359,459.8556)"><path
             d="m 0,0 c 1.237,-1.623 0.924,-3.941 -0.699,-5.178 -1.623,-1.237 -3.942,-0.923 -5.179,0.7 -1.237,1.623 -0.923,3.941 0.7,5.178 C -3.555,1.937 -1.237,1.624 0,0"
             style="fill:#58595b;fill-opacity:1;fill-rule:evenodd;stroke:none"
             id="path560" /></g><g
           id="g562"
           transform="translate(617.8873,462.6927)"><path
             d="M 0,0 5.648,-7.414 1.174,-10.823 -4.475,-3.41 0,0 z"
             style="fill:#a6a8ab;fill-opacity:1;fill-rule:evenodd;stroke:none"
             id="path564" /></g><g
           id="g566"
           transform="translate(622.1485,455.9567)"><path
             d="M 0,0 0.417,-0.547 -2.956,-3.117 -3.373,-2.57 0,0 z m -0.757,0.993 0.566,-0.743 -3.373,-2.569 -0.566,0.743 3.373,2.569 z m -0.757,0.994 0.566,-0.743 -3.373,-2.57 -0.566,0.743 3.373,2.57 z M -2.271,2.98 -5.644,0.411 -5.078,-0.332 -1.705,2.237 -2.271,2.98 z m -0.757,0.994 -3.373,-2.57 0.566,-0.743 3.373,2.57 -0.566,0.743 z m -0.757,0.994 -3.373,-2.57 0.566,-0.743 3.373,2.57 -0.566,0.743 z m -0.608,0.797 0.417,-0.547 -3.373,-2.57 -0.417,0.547 3.373,2.57 z"
             style="fill:#58595b;fill-opacity:1;fill-rule:evenodd;stroke:none"
             id="path568" /></g><g
           id="g570"
           transform="translate(622.7242,467.1172)"><path
             d="m 0,0 c 0.709,-0.932 0.53,-2.262 -0.402,-2.972 -0.931,-0.709 -2.261,-0.529 -2.971,0.402 -0.71,0.931 -0.53,2.262 0.401,2.971 C -2.04,1.111 -0.71,0.931 0,0"
             style="fill:#ffffff;fill-opacity:1;fill-rule:evenodd;stroke:none"
             id="path572" /></g><g
           id="g574"
           transform="translate(628.9838,458.9018)"><path
             d="m 0,0 c 0.709,-0.932 0.53,-2.262 -0.402,-2.972 -0.931,-0.709 -2.261,-0.529 -2.971,0.402 -0.71,0.932 -0.53,2.262 0.401,2.971 C -2.04,1.111 -0.71,0.931 0,0"
             style="fill:#ffffff;fill-opacity:1;fill-rule:evenodd;stroke:none"
             id="path576" /></g><g
           id="g578"
           transform="translate(594.3091,448.4151)"><path
             d="M 0,0 9.701,-12.731 3.801,-17.226 -5.9,-4.495 0,0 z"
             style="fill:#bbbdbf;fill-opacity:1;fill-rule:evenodd;stroke:none"
             id="path580" /></g><g
           id="g582"
           transform="translate(607.8759,466.3586)"><path
             d="M 0,0 16.798,-22.046 -1.988,-36.36 -18.786,-14.313 0,0 z"
             style="fill:#e6e7e8;fill-opacity:1;fill-rule:evenodd;stroke:none"
             id="path584" /></g><g
           id="g586"
           transform="translate(588.459,450.459)"><path
             d="m 0,0 2.957,-3.882 -18.941,-14.432 -2.957,3.882 L 0,0 z"
             style="fill:#e6e7e8;fill-opacity:1;fill-rule:evenodd;stroke:none"
             id="path588" /></g><g
           id="g590"
           transform="translate(601.2931,433.6143)"><path
             d="m 0,0 2.957,-3.881 -18.941,-14.432 -2.957,3.881 L 0,0 z"
             style="fill:#e6e7e8;fill-opacity:1;fill-rule:evenodd;stroke:none"
             id="path592" /></g><g
           id="g594"
           transform="translate(579.9771,445.4071)"><path
             d="M 0,0 4.318,-5.667 0.98,-8.21 -3.338,-2.543 0,0 z"
             style="fill:#bbbdbf;fill-opacity:1;fill-rule:evenodd;stroke:none"
             id="path596" /></g><g
           id="g598"
           transform="translate(592.8111,428.5626)"><path
             d="M 0,0 4.318,-5.667 0.98,-8.21 -3.338,-2.543 0,0 z"
             style="fill:#bbbdbf;fill-opacity:1;fill-rule:evenodd;stroke:none"
             id="path600" /></g><g
           id="g602"
           transform="translate(568.3765,439.0719)"><path
             d="M 0,0 6.507,-8.539 3.867,-10.55 -2.639,-2.011 0,0 z"
             style="fill:#a6a8ab;fill-opacity:1;fill-rule:evenodd;stroke:none"
             id="path604" /></g><g
           id="g606"
           transform="translate(581.3235,422.0794)"><path
             d="M 0,0 6.506,-8.539 3.867,-10.55 -2.639,-2.011 0,0 z"
             style="fill:#a6a8ab;fill-opacity:1;fill-rule:evenodd;stroke:none"
             id="path608" /></g><g
           id="g610"
           transform="translate(616.3224,446.0337)"><path
             d="M 0,0 -7.867,10.325 -17.26,3.168 -9.393,-7.157 0,0 z M -7.674,10.716 0.429,0.081 0.547,-0.074 0.392,-0.192 l -9.704,-7.394 -0.155,-0.118 -0.118,0.155 -8.104,10.635 -0.118,0.155 0.155,0.119 9.704,7.393 0.156,0.118 0.118,-0.155 z"
             style="fill:#6d6e70;fill-opacity:1;fill-rule:evenodd;stroke:none"
             id="path612" /></g><g
           id="g614"
           transform="translate(607.2507,452.4645)"><path
             d="M 0,0 1.094,-1.436 -4.379,-5.606 -5.473,-4.17 0,0 z"
             style="fill:#ffca05;fill-opacity:1;fill-rule:evenodd;stroke:none"
             id="path616" /></g><g
           id="g618"
           transform="translate(609.0845,450.0577)"><path
             d="M 0,0 1.094,-1.436 -4.379,-5.606 -5.473,-4.169 0,0 z"
             style="fill:#ffca05;fill-opacity:1;fill-rule:evenodd;stroke:none"
             id="path620" /></g><g
           id="g622"
           transform="translate(611.1545,447.3407)"><path
             d="M 0,0 1.094,-1.436 -4.379,-5.606 -5.473,-4.169 0,0 z"
             style="fill:#ffca05;fill-opacity:1;fill-rule:evenodd;stroke:none"
             id="path624" /></g><g
           id="g626"
           transform="translate(545.8068,549.4382)"><path
             d="M 0,0 -50.129,-132.044 -4.96,3.469 0,0 z"
             style="fill:#ffffff;fill-opacity:1;fill-rule:evenodd;stroke:none"
             id="path628" /></g><g
           id="g630"
           transform="translate(508.3694,561.0931)"><path
             d="M 0,0 -33.508,-137.207 6.053,0.048 0,0 z"
             style="fill:#ffffff;fill-opacity:1;fill-rule:evenodd;stroke:none"
             id="path632" /></g><g
           id="g634"
           transform="translate(519.606,506.8645)"><path
             d="M 0,0 -28.019,-73.804 -2.772,1.939 0,0 z"
             style="fill:#ffffff;fill-opacity:1;fill-rule:evenodd;stroke:none"
             id="path636" /></g><g
           id="g638"
           transform="translate(510.5491,524.0387)"><path
             d="M 0,0 -20.593,-76.211 3.383,-0.055 0,0 z"
             style="fill:#ffffff;fill-opacity:1;fill-rule:evenodd;stroke:none"
             id="path640" /></g><g
           id="g642"
           transform="translate(463.2026,488.9872)"><path
             d="M 0,0 C 0.005,0.003 1.16,1.517 3.52,-23.681 5.832,-48.368 1.184,-63.308 1.17,-63.352 l -0.763,0.235 c 0.012,0.043 4.616,14.836 2.319,39.363 -2.25,24.016 -2.84,21.575 -3.407,23.202 L 0,0 z"
             style="fill:#ffffff;fill-opacity:1;fill-rule:evenodd;stroke:none"
             id="path644" /></g><g
           id="g646"
           transform="translate(421.7588,511.4633)"><path
             d="m 0,0 c 0.021,-0.038 7.554,-13.003 12.869,-40.692 5.307,-27.645 5.897,-36.501 5.899,-36.526 l -0.796,-0.055 c -0.002,0.025 -0.588,8.835 -5.886,36.432 C 6.797,-13.289 -0.67,-0.438 -0.691,-0.4 L 0,0 z"
             style="fill:#ffffff;fill-opacity:1;fill-rule:evenodd;stroke:none"
             id="path648" /></g><g
           id="g650"
           transform="translate(475.714,526.0932)"><path
             d="m 0,0 c 0.02,-0.062 7.372,-21.445 0.853,-57.566 l -0.785,0.139 C 6.55,-21.504 -0.736,-0.313 -0.757,-0.252 L 0,0 z"
             style="fill:#ffffff;fill-opacity:1;fill-rule:evenodd;stroke:none"
             id="path652" /></g><g
           id="g654"
           transform="translate(668.5237,559.0631)"><path
             d="M 0,0 -55.773,-44.128 -1.248,2.781 0,0 z"
             style="fill:#ffffff;fill-opacity:1;fill-rule:evenodd;stroke:none"
             id="path656" /></g><g
           id="g658"
           transform="translate(422.6659,119.8263)"><path
             d="M 0,0 C -5.706,1.24 -43.959,16.345 -63.935,25.544 -73.246,29.832 -88.15,79.448 -5.201,59.619 34.07,50.231 29.643,-6.442 0,0"
             style="fill:#a6a8ab;fill-opacity:1;fill-rule:evenodd;stroke:none"
             id="path660" /></g></g></g><g
       id="g662"><g
         id="g664"
         clip-path="url(#clipPath666)"><g
           id="g670"
           transform="translate(359.7129,192.3496)"><path
             d="M 0,0 2.512,-0.174 -2.596,-73.979 -5.108,-73.805 0,0 z"
             style="fill:#929497;fill-opacity:1;fill-rule:evenodd;stroke:none"
             id="path672" /></g><g
           id="g674"
           transform="translate(368.2891,191.7563)"><path
             d="M 0,0 2.512,-0.174 -2.596,-73.979 -5.108,-73.805 0,0 z"
             style="fill:#929497;fill-opacity:1;fill-rule:evenodd;stroke:none"
             id="path676" /></g><g
           id="g678"
           transform="translate(376.8653,191.1628)"><path
             d="M 0,0 2.512,-0.174 -2.596,-73.979 -5.108,-73.805 0,0 z"
             style="fill:#929497;fill-opacity:1;fill-rule:evenodd;stroke:none"
             id="path680" /></g><g
           id="g682"
           transform="translate(385.441,190.5689)"><path
             d="M 0,0 2.512,-0.174 -2.596,-73.979 -5.108,-73.805 0,0 z"
             style="fill:#929497;fill-opacity:1;fill-rule:evenodd;stroke:none"
             id="path684" /></g><g
           id="g686"
           transform="translate(394.0172,189.9754)"><path
             d="M 0,0 2.512,-0.174 -2.596,-73.979 -5.108,-73.805 0,0 z"
             style="fill:#929497;fill-opacity:1;fill-rule:evenodd;stroke:none"
             id="path688" /></g><g
           id="g690"
           transform="translate(402.5934,189.3819)"><path
             d="M 0,0 2.512,-0.174 -2.596,-73.979 -5.108,-73.805 0,0 z"
             style="fill:#929497;fill-opacity:1;fill-rule:evenodd;stroke:none"
             id="path692" /></g><g
           id="g694"
           transform="translate(411.1696,188.7885)"><path
             d="M 0,0 2.512,-0.174 -2.596,-73.979 -5.108,-73.805 0,0 z"
             style="fill:#929497;fill-opacity:1;fill-rule:evenodd;stroke:none"
             id="path696" /></g><g
           id="g698"
           transform="translate(419.7454,188.195)"><path
             d="M 0,0 2.512,-0.174 -2.596,-73.979 -5.108,-73.805 0,0 z"
             style="fill:#929497;fill-opacity:1;fill-rule:evenodd;stroke:none"
             id="path700" /></g><g
           id="g702"
           transform="translate(428.3216,187.6012)"><path
             d="M 0,0 2.512,-0.174 -2.596,-73.979 -5.108,-73.805 0,0 z"
             style="fill:#929497;fill-opacity:1;fill-rule:evenodd;stroke:none"
             id="path704" /></g><g
           id="g706"
           transform="translate(436.8978,187.0076)"><path
             d="M 0,0 2.512,-0.174 -2.596,-73.979 -5.108,-73.805 0,0 z"
             style="fill:#929497;fill-opacity:1;fill-rule:evenodd;stroke:none"
             id="path708" /></g></g></g><g
       id="g710"><g
         id="g712"
         clip-path="url(#clipPath714)"><g
           id="g718"
           transform="translate(638.6744,552.3283)"><path
             d="M 0,0 -55.773,-44.128 -1.248,2.781 0,0 z"
             style="fill:#ffffff;fill-opacity:1;fill-rule:evenodd;stroke:none"
             id="path720" /></g><g
           id="g722"
           transform="translate(628.6678,579.1707)"><path
             d="M 0,0 -55.773,-44.128 -1.247,2.781 0,0 z"
             style="fill:#ffffff;fill-opacity:1;fill-rule:evenodd;stroke:none"
             id="path724" /></g><g
           id="g726"
           transform="translate(572.6376,469.4378)"><path
             d="m 0,0 c -0.047,-0.011 -16.407,-3.707 -36.662,-21.901 l 0.394,-0.442 C -16.124,-4.248 0.089,-0.587 0.137,-0.575 L 0,0 z"
             style="fill:#ffffff;fill-opacity:1;fill-rule:evenodd;stroke:none"
             id="path728" /></g><g
           id="g730"
           transform="translate(570.3708,447.4853)"><path
             d="m 0,0 c 0,0.004 0.672,1.044 -15.262,-3.071 -15.61,-4.031 -23.724,-10.17 -23.747,-10.188 l 0.312,-0.415 c 0.023,0.017 8.056,6.096 23.566,10.102 15.187,3.922 13.823,3.022 14.944,3.034 L 0,0 z"
             style="fill:#ffffff;fill-opacity:1;fill-rule:evenodd;stroke:none"
             id="path732" /></g><g
           id="g734"
           transform="translate(560.3171,431.7578)"><path
             d="m 0,0 c 0.001,0.002 0.482,0.604 -9.64,-0.936 -9.917,-1.509 -15.327,-4.796 -15.343,-4.806 l 0.167,-0.276 c 0.016,0.009 5.372,3.264 15.225,4.763 9.648,1.468 8.747,0.997 9.441,0.934 L 0,0 z"
             style="fill:#ffffff;fill-opacity:1;fill-rule:evenodd;stroke:none"
             id="path736" /></g><g
           id="g738"
           transform="translate(407.5618,475.8733)"><path
             d="m 0,0 0.718,-2.894 2.975,-0.2 -2.531,-1.577 0.729,-2.892 -2.282,1.92 -2.524,-1.587 1.12,2.763 -2.289,1.911 2.975,-0.211 L 0,0 z"
             style="fill:#ffffff;fill-opacity:1;fill-rule:evenodd;stroke:none"
             id="path740" /></g><g
           id="g742"
           transform="translate(373.7212,435.7305)"><path
             d="m 0,0 0.628,-2.264 2.539,-0.171 -2.151,-1.219 0.636,-2.261 -1.957,1.51 -2.146,-1.226 0.942,2.152 -1.963,1.503 2.539,-0.18 L 0,0 z"
             style="fill:#ffffff;fill-opacity:1;fill-rule:evenodd;stroke:none"
             id="path744" /></g><g
           id="g746"
           transform="translate(562.5725,496.2042)"><path
             d="m 0,0 0.875,-3.529 3.628,-0.244 -3.085,-1.924 0.889,-3.526 -2.783,2.341 -3.079,-1.935 1.366,3.37 -2.791,2.33 3.627,-0.258 L 0,0 z"
             style="fill:#ffffff;fill-opacity:1;fill-rule:evenodd;stroke:none"
             id="path748" /></g><g
           id="g750"
           transform="translate(470.9654,540.6425)"><path
             d="M 0,0 0.631,-2.541 3.243,-2.716 1.021,-4.102 1.661,-6.64 -0.343,-4.955 -2.56,-6.348 -1.575,-3.922 -3.586,-2.244 -0.974,-2.43 0,0 z"
             style="fill:#ffffff;fill-opacity:1;fill-rule:evenodd;stroke:none"
             id="path752" /></g><g
           id="g754"
           transform="translate(523.9309,450.3836)"><path
             d="m 0,0 0.841,-3.388 3.483,-0.235 -2.963,-1.846 0.854,-3.385 -2.672,2.248 -2.956,-1.858 1.312,3.234 -2.68,2.237 L -1.299,-3.24 0,0 z"
             style="fill:#ffffff;fill-opacity:1;fill-rule:evenodd;stroke:none"
             id="path756" /></g><g
           id="g758"
           transform="translate(352.7225,397.609)"><path
             d="m 0,0 0.627,-2.263 2.54,-0.172 -2.151,-1.219 0.636,-2.261 -1.957,1.51 -2.146,-1.226 0.942,2.152 -1.963,1.503 2.539,-0.179 L 0,0 z"
             style="fill:#ffffff;fill-opacity:1;fill-rule:evenodd;stroke:none"
             id="path760" /></g><g
           id="g762"
           transform="translate(466.5511,650.7629)"><path
             d="M 0,0 C 8.278,2.636 17.126,-1.937 19.763,-10.216 22.4,-18.494 17.826,-27.342 9.548,-29.979 1.269,-32.615 -7.579,-28.042 -10.215,-19.763 -12.852,-11.485 -8.278,-2.637 0,0"
             style="fill:#cc8844;fill-opacity:1;fill-rule:evenodd;stroke:none"
             id="path764" /></g><g
           id="g766"
           transform="translate(476.2933,620.849)"><path
             d="m 0,0 c -0.065,-0.022 -0.129,-0.044 -0.194,-0.065 -1.14,-0.362 -2.291,-0.588 -3.434,-0.687 1.575,2.28 3.366,5.2 4.819,8.402 3.121,6.879 3.536,8.401 3.536,8.401 0,0 -0.039,-5.264 -2.112,-10.563 C 1.873,3.594 0.919,1.679 0,0"
             style="fill:#d6a069;fill-opacity:1;fill-rule:evenodd;stroke:none"
             id="path768" /></g><g
           id="g770"
           transform="translate(477.6225,650.1881)"><path
             d="m 0,0 c 0.867,-0.379 1.7,-0.836 2.486,-1.364 -0.895,-3.525 -2.607,-9.182 -5.457,-14.77 -2.774,-5.438 -6.571,-10.057 -9.17,-12.886 -1.195,0.479 -2.329,1.103 -3.375,1.858 3.535,4.17 9.075,11.257 11.822,17.663 C -1.972,-5.48 -0.782,-2.312 0,0"
             style="fill:#d6a069;fill-opacity:1;fill-rule:evenodd;stroke:none"
             id="path772" /></g><g
           id="g774"
           transform="translate(469.3547,651.3827)"><path
             d="m 0,0 c 1.068,0.136 2.133,0.16 3.181,0.079 -0.624,-2.587 -1.863,-7.03 -4.16,-11.56 -3.213,-6.336 -7.364,-11.009 -7.364,-11.009 0,0 6.203,14.399 7.446,18.963 C -0.5,-2.073 -0.211,-0.91 0,0"
             style="fill:#d6a069;fill-opacity:1;fill-rule:evenodd;stroke:none"
             id="path776" /></g><g
           id="g778"
           transform="translate(493.7105,642.2226)"><path
             d="m 0,0 c 0.582,-1.827 -2.06,-4.465 -6.664,-7.104 -3.482,-1.997 -8.085,-3.995 -13.265,-5.644 -5.6,-1.784 -10.886,-2.846 -15.04,-3.149 -4.768,-0.346 -8.045,0.309 -8.592,2.024 -0.529,1.664 1.613,3.998 5.474,6.395 -0.041,0.619 -0.045,1.236 -0.012,1.847 -6.812,-3.555 -10.885,-7.247 -10.098,-9.719 0.808,-2.536 6.537,-3.161 14.468,-2.003 4.241,0.619 9.11,1.748 14.194,3.367 4.715,1.502 9.037,3.241 12.684,5.039 C 0.79,-5.181 5.476,-1.158 4.637,1.477 3.818,4.047 -2.05,4.654 -10.141,3.434 -9.769,2.974 -9.421,2.489 -9.101,1.983 -4.057,2.415 -0.566,1.776 0,0"
             style="fill:#e7e9bd;fill-opacity:1;fill-rule:evenodd;stroke:none"
             id="path780" /></g><g
           id="g782"
           transform="translate(237.2066,620.3276)"><path
             d="m 0,0 c -5.31,-1.436 -16.088,-3.697 -27.445,-14.333 -11.357,-10.637 -18.623,-22.959 -18.354,-21.976 0.268,0.984 11.431,11.779 22.895,18.127 11.463,6.349 16.375,7.812 16.375,7.812 0,0 -12.134,-7.376 -17.398,-16.832 -5.264,-9.455 -6.688,-15.568 -6.221,-14.599 0.468,0.97 20.101,18.248 29.6,25.206 9.5,6.958 16.13,10.106 16.13,10.106 L 5.503,-21.823 c 0,0 5.758,5.012 13.95,10.457 8.192,5.445 29.59,10.578 29.59,10.578 L 38.558,-13.289 c 0,0 13.385,8.091 23.564,10.393 10.18,2.301 11.246,3.23 11.246,3.23 0,0 -14.702,7.63 -29.551,4.449 -14.85,-3.18 -20.428,-5.6 -20.428,-5.6 0,0 12.361,7.762 11.364,7.831 C 33.756,7.083 25.028,5.482 15.481,0.733 5.933,-4.017 3.216,-5.633 3.216,-5.633 c 0,0 12.087,9.584 10.862,9.268 C 12.854,3.319 0,0 0,0"
             style="fill:#884f20;fill-opacity:1;fill-rule:evenodd;stroke:none"
             id="path784" /></g><g
           id="g786"
           transform="translate(335.3751,453.558)"><path
             d="m 0,0 c -0.55,-0.714 -3.886,-1.134 -5.576,-0.215 -1.69,0.919 -2.961,2.81 -2.961,2.81 0,0 -0.859,-1.544 1.041,-3.78 1.899,-2.235 5.095,-1.655 6.098,-0.923 C -0.395,-1.375 0,0 0,0"
             style="fill:#f1bca4;fill-opacity:1;fill-rule:evenodd;stroke:none"
             id="path788" /></g><g
           id="g790"
           transform="translate(277.3324,416.9439)"><path
             d="M 0,0 C -1.268,0.489 -4.7,3.031 -9.807,3.084 -14.913,3.136 -33.072,2.79 -32.402,2.342 -31.732,1.895 -11.372,2.19 -7.531,1.222 -3.69,0.255 0,0 0,0"
             style="fill:#f1bca4;fill-opacity:1;fill-rule:evenodd;stroke:none"
             id="path792" /></g><g
           id="g794"
           transform="translate(282.5833,418.9853)"><path
             d="m 0,0 c -0.467,-0.97 -0.364,-2.379 0.368,-1.929 0.732,0.45 7.889,1.057 11.221,1.428 3.332,0.37 4.925,0.21 4.925,0.21 0,0 -5.01,0.747 -8.905,0.917 C 3.713,0.796 0,0 0,0"
             style="fill:#f1bca4;fill-opacity:1;fill-rule:evenodd;stroke:none"
             id="path796" /></g><g
           id="g798"
           transform="translate(379.3533,184.4915)"><path
             d="m 0,0 c 9.555,0.642 22.094,-0.538 38.429,-4.443 5.363,-1.282 9.899,-3.462 13.669,-6.246 l -2.206,-0.77 c 0,0 -21.258,1.135 -33.888,3.66 C 7.837,-6.166 2.648,-2.434 0,0"
             style="fill:#496e6e;fill-opacity:1;fill-rule:evenodd;stroke:none"
             id="path800" /></g><g
           id="g802"
           transform="translate(443.7521,145.7353)"><path
             d="m 0,0 c -0.943,-14.071 -4.777,-23.49 -21.954,-25.378 27.767,-8.783 32.152,37.91 17.225,51.236 -10.097,8.61 -28.122,5.05 -39.757,6.964 -6.185,1.017 -13.067,6.485 -16.412,6.394 -1.225,-0.034 -6.151,-0.655 -7.028,-0.485 1.8,-0.942 8.504,-7.894 18.555,-9.343 C -21.894,25.423 -0.391,30.787 0,0"
             style="fill:#e6e7e8;fill-opacity:1;fill-rule:evenodd;stroke:none"
             id="path804" /></g><g
           id="g806"
           transform="translate(577.6843,373.5924)"><path
             d="m 0,0 c -0.048,0 -0.097,0.007 -0.145,0.021 l -138.157,41.805 c -0.264,0.08 -0.414,0.359 -0.334,0.623 0.08,0.264 0.361,0.413 0.623,0.334 L 0.145,0.979 C 0.409,0.898 0.559,0.619 0.479,0.355 0.413,0.14 0.215,0 0,0"
             style="fill:#bcbec0;fill-opacity:1;fill-rule:nonzero;stroke:none"
             id="path808" /></g><g
           id="g810"
           transform="translate(578.6843,375.5924)"><path
             d="m 0,0 c -0.048,0 -0.097,0.007 -0.145,0.021 l -138.157,41.805 c -0.264,0.08 -0.414,0.359 -0.334,0.623 0.08,0.264 0.361,0.413 0.623,0.334 L 0.145,0.979 C 0.409,0.898 0.559,0.619 0.479,0.355 0.413,0.14 0.215,0 0,0"
             style="fill:#bcbec0;fill-opacity:1;fill-rule:nonzero;stroke:none"
             id="path812" /></g><g
           id="g814"
           transform="translate(577.6843,378.5924)"><path
             d="m 0,0 c -0.048,0 -0.097,0.007 -0.145,0.021 l -138.157,41.805 c -0.264,0.08 -0.414,0.359 -0.334,0.623 0.08,0.264 0.361,0.413 0.623,0.334 L 0.145,0.979 C 0.409,0.898 0.559,0.619 0.479,0.355 0.413,0.14 0.215,0 0,0"
             style="fill:#bcbec0;fill-opacity:1;fill-rule:nonzero;stroke:none"
             id="path816" /></g><g
           id="g818"
           transform="translate(534.0667,170.0267)"><path
             d="m 0,0 c -2.83,-10.52 -5.38,-14.34 -3.68,-17.46 1.24,-2.27 6.34,-7.26 8.99,-9.78 -8.3,3.14 -11.42,9.11 -11.42,9.11 C -9.19,-14.38 5.14,16.58 7.78,22 11.37,29.37 0.31,44.28 0.31,44.28 2.02,44.54 3.66,44.72 5.24,44.84 8.04,40.8 11.79,33.16 11.47,27.61 11.05,20.07 2.83,10.52 0,0"
             style="fill:#445762;fill-opacity:1;fill-rule:evenodd;stroke:none"
             id="path820" /></g></g></g></g></svg>