<?xml version="1.0" encoding="UTF-8" standalone="no"?>
<!-- Created with Inkscape (http://www.inkscape.org/) -->

<svg
   xmlns:dc="http://purl.org/dc/elements/1.1/"
   xmlns:cc="http://creativecommons.org/ns#"
   xmlns:rdf="http://www.w3.org/1999/02/22-rdf-syntax-ns#"
   xmlns:svg="http://www.w3.org/2000/svg"
   xmlns="http://www.w3.org/2000/svg"
   xmlns:sodipodi="http://sodipodi.sourceforge.net/DTD/sodipodi-0.dtd"
   xmlns:inkscape="http://www.inkscape.org/namespaces/inkscape"
   id="svg2"
   version="1.1"
   inkscape:version="0.48.5 r10040"
   width="999.9"
   height="999.9"
   xml:space="preserve"
   sodipodi:docname="foodm_05.eps"><metadata
     id="metadata8"><rdf:RDF><cc:Work
         rdf:about=""><dc:format>image/svg+xml</dc:format><dc:type
           rdf:resource="http://purl.org/dc/dcmitype/StillImage" /><dc:title></dc:title></cc:Work></rdf:RDF></metadata><defs
     id="defs6" /><sodipodi:namedview
     pagecolor="#ffffff"
     bordercolor="#666666"
     borderopacity="1"
     objecttolerance="10"
     gridtolerance="10"
     guidetolerance="10"
     inkscape:pageopacity="0"
     inkscape:pageshadow="2"
     inkscape:window-width="1600"
     inkscape:window-height="847"
     id="namedview4"
     showgrid="false"
     inkscape:zoom="1.3351511"
     inkscape:cx="557.2781"
     inkscape:cy="776.60145"
     inkscape:window-x="0"
     inkscape:window-y="0"
     inkscape:window-maximized="1"
     inkscape:current-layer="g12" /><g
     id="g10"
     inkscape:groupmode="layer"
     inkscape:label="ink_ext_XXXXXX"
     transform="matrix(1.25,0,0,-1.25,0,999.9)"><g
       id="g12"
       transform="scale(0.1,0.1)"><path
         d="m 0,0 7999.19,0 0,7999.2 L 0,7999.2 0,0 z"
         style="fill:#89c7c6;fill-opacity:1;fill-rule:evenodd;stroke:none"
         id="path14" /><path
         d="m 7512.83,1555.71 c 74.86,-13.11 147.52,-32.68 217.34,-58.11 l 41.17,113.1 c 77.7,-28.29 152.21,-63.21 222.85,-104.09 L 7934,1402.38 c 22.17,-12.82 43.91,-26.29 65.19,-40.36 l 0,-598.532 c -153.94,227.981 -414.7,377.882 -710.48,377.882 -473.15,0 -856.68,-383.55 -856.68,-856.69 0,-99.809 17.13,-195.6097 48.51,-284.68 l -450.7,0 c -4.51,20.0195 -8.56,40.2188 -12.13,60.5781 L 5899.19,39.6797 C 5885.25,119.25 5877.94,201.121 5877.94,284.68 l 120.34,0 c 0,76.461 6.64,151.351 19.39,224.129 l -118.48,20.882 c 14.34,81.84 35.71,161.289 63.5,237.629 l 113.11,-41.16 c 25.87,71.078 57.81,139.219 95.19,203.828 l -104.22,60.18 c 41.25,71.302 88.6,138.612 141.27,201.312 l 92.17,-77.33 c 48.3,57.51 101.54,110.73 159.04,159.04 l -77.32,92.15 c 62.69,52.69 130,100.01 201.29,141.27 l 60.19,-104.23 c 64.61,37.39 132.76,69.36 203.83,95.24 l -41.17,113.08 c 76.35,27.81 155.78,49.16 237.64,63.5 l 20.89,-118.52 c 72.78,12.75 147.68,19.45 224.11,19.45 l 0,120.33 c 83.57,0 165.43,-7.32 245.02,-21.26 l -20.9,-118.49"
         style="fill:#95cfce;fill-opacity:1;fill-rule:evenodd;stroke:none"
         id="path16" /><path
         d="m 3536.82,1802.84 0,-122.54 c -85.12,0 -168.48,7.45 -249.52,21.64 l 21.27,120.67 c -76.25,13.38 -150.23,33.28 -221.34,59.19 l -41.93,-115.19 c -79.13,28.81 -155,64.38 -226.95,106.01 l 61.28,106.15 c -66.4,38.43 -129.14,82.51 -187.54,131.56 l -78.75,-93.84 c -64.05,53.78 -123.29,113.05 -177.08,177.08 l 93.85,78.75 c -49.05,58.4 -93.14,121.13 -131.56,187.54 l -106.15,-61.29 c -41.63,71.95 -77.2,147.83 -106.01,226.95 l 115.22,41.95 c -25.89,71.1 -45.83,145.09 -59.19,221.34 l -120.7,-21.29 c -14.19,81.05 -21.64,164.42 -21.64,249.52 l 122.54,0 c 0,77.86 6.78,154.12 19.76,228.24 l -120.66,21.27 c 14.61,83.36 36.37,164.26 64.67,242.01 l 115.19,-41.92 c 26.34,72.37 58.88,141.78 96.96,207.59 l -106.14,61.28 c 42,72.61 90.22,141.16 143.86,205.01 l 93.85,-78.74 c 49.2,58.56 103.42,112.76 161.98,161.96 l -78.75,93.85 c 63.85,53.65 132.4,101.85 205.01,143.87 l 61.28,-106.16 c 65.81,38.09 135.21,70.65 207.6,97 l -41.93,115.17 c 77.75,28.3 158.65,50.06 242,64.67 l 21.29,-120.7 c 74.12,12.97 150.38,19.8 228.23,19.8 l 0,122.54 0,-564.29 c -481.85,0 -872.45,-390.6 -872.45,-872.45 0,-481.83 390.6,-872.45 872.45,-872.45 l 0,-441.75 z m 228.25,2608.63 c 76.23,-13.35 150.22,-33.29 221.34,-59.19 l 41.92,115.19 c 79.15,-28.81 155,-64.37 226.96,-106.01 L 4194,4255.3 c 66.41,-38.42 129.16,-82.49 187.54,-131.56 l 78.75,93.85 c 64.04,-53.78 123.3,-113.04 177.09,-177.07 l -93.85,-78.75 c 49.04,-58.41 93.14,-121.13 131.56,-187.54 l 106.16,61.28 c 41.62,-71.94 77.18,-147.82 105.99,-226.95 l -115.21,-41.95 c 25.89,-71.11 45.84,-145.09 59.2,-221.34 l 120.68,21.28 c 14.2,-81.03 21.64,-164.39 21.64,-249.51 l -122.54,0 c 0,-77.85 -6.78,-154.12 -19.76,-228.25 l 120.66,-21.27 c -14.59,-83.35 -36.35,-164.24 -64.67,-242 l -115.17,41.93 c -26.35,-72.38 -58.89,-141.79 -96.98,-207.6 l 106.16,-61.28 c -42.02,-72.61 -90.22,-141.15 -143.87,-205 l -93.85,78.75 c -49.2,-58.57 -103.42,-112.79 -161.99,-161.98 l 78.75,-93.85 c -63.85,-53.65 -132.4,-101.85 -205,-143.87 L 4194,1978.78 c -65.82,-38.07 -135.2,-70.63 -207.59,-96.98 l 41.92,-115.19 c -77.75,-28.3 -158.64,-50.05 -242,-64.67 l -21.28,120.71 c -74.13,-12.99 -150.38,-19.81 -228.23,-19.81 l 0,441.75 c 481.83,0 872.45,390.62 872.45,872.45 0,481.85 -390.62,872.44 -872.45,872.45 l 0,564.29 c 85.12,0 168.47,-7.46 249.51,-21.64 l -21.26,-120.67"
         style="fill:#95cfce;fill-opacity:1;fill-rule:evenodd;stroke:none"
         id="path18" /><path
         d="m 5075.6,5742.33 c -58.85,0 -116.5,5.16 -172.54,14.97 l 14.71,83.45 c -52.74,9.24 -103.89,23.02 -153.07,40.93 l -29,-79.66 c -54.71,19.92 -107.19,44.52 -156.95,73.31 l 42.38,73.41 c -45.92,26.58 -89.3,57.05 -129.69,90.98 l -54.45,-64.9 c -44.3,37.2 -85.26,78.18 -122.46,122.46 l 64.9,54.46 c -33.93,40.39 -64.42,83.77 -90.98,129.7 l -73.42,-42.4 c -28.77,49.76 -53.37,102.24 -73.3,156.95 l 79.67,29.01 c -17.89,49.18 -31.68,100.34 -40.92,153.07 l -83.47,-14.72 c -9.81,56.05 -14.96,113.7 -14.96,172.55 l 84.74,0 c 0,53.84 4.69,106.58 13.65,157.84 l -83.43,14.71 c 10.09,57.64 25.15,113.59 44.72,167.35 l 79.65,-28.98 c 18.22,50.05 40.72,98.04 67.05,143.55 l -73.4,42.38 c 29.07,50.21 62.41,97.61 99.5,141.77 l 64.9,-54.45 c 34.02,40.5 71.52,77.99 112.01,112.01 l -54.45,64.89 c 44.16,37.1 91.56,70.44 141.76,99.49 l 42.38,-73.4 c 45.51,26.33 93.49,48.85 143.57,67.07 l -29,79.65 c 53.77,19.57 109.71,34.61 167.36,44.71 l 14.71,-83.46 c 51.27,8.97 104,13.69 157.83,13.69 l 0,-85.1 c -454.92,0 -823.71,-368.79 -823.71,-823.72 0,-454.92 368.79,-823.72 823.71,-823.72 l 0,-169.85 z m 157.85,1888.72 c 52.72,-9.24 103.89,-23.02 153.07,-40.93 l 29,79.66 c 54.71,-19.92 107.19,-44.53 156.94,-73.32 l -42.39,-73.4 c 45.92,-26.58 89.32,-57.05 129.69,-90.98 l 54.47,64.89 c 44.28,-37.19 85.26,-78.17 122.46,-122.45 l -64.9,-54.46 c 33.93,-40.39 64.4,-83.77 90.98,-129.69 l 73.4,42.38 c 28.79,-49.74 53.4,-102.23 73.32,-156.95 l -79.69,-29 c 17.91,-49.18 31.7,-100.34 40.94,-153.07 l 83.45,14.72 c 9.83,-56.05 14.98,-113.69 14.98,-172.55 l -84.74,0 c 0,-53.84 -4.69,-106.57 -13.67,-157.84 l 83.43,-14.71 c -10.09,-57.65 -25.13,-113.57 -44.7,-167.36 l -79.67,29 c -18.22,-50.06 -40.72,-98.06 -67.05,-143.56 l 73.4,-42.39 c -29.05,-50.21 -62.39,-97.6 -99.48,-141.76 l -64.9,54.46 c -34.02,-40.5 -71.52,-78 -112.03,-112.01 l 54.47,-64.91 c -44.16,-37.09 -91.58,-70.43 -141.77,-99.49 l -42.39,73.42 c -45.5,-26.34 -93.49,-48.85 -143.55,-67.07 l 29,-79.66 c -53.79,-19.57 -109.72,-34.61 -167.36,-44.72 l -14.73,83.47 c -51.27,-8.97 -103.98,-13.69 -157.83,-13.69 l 0,-84.75 0,169.85 c 454.92,0 823.73,368.8 823.73,823.72 0,454.93 -368.81,823.72 -823.73,823.72 l 0,169.84 c 58.87,0 116.5,-5.16 172.56,-14.97 l -14.71,-83.44"
         style="fill:#95cfce;fill-opacity:1;fill-rule:evenodd;stroke:none"
         id="path20" /><path
         d="m 0,4667.84 c 197.348,0 390.629,17.28 578.551,50.19 l -49.332,279.78 c 176.797,30.99 348.34,77.2 513.241,137.25 l 97.21,-267.1 c 183.48,66.8 359.42,149.28 526.23,245.8 l -142.11,246.14 c 153.98,89.12 299.46,191.29 434.87,305.05 l 182.6,-217.61 c 148.49,124.72 285.87,262.14 410.6,410.6 l -217.63,182.61 c 113.75,135.43 215.98,280.87 305.06,434.85 l 246.15,-142.11 c 96.51,166.81 178.98,342.76 245.79,526.23 l -267.17,97.25 c 60.03,164.89 106.28,336.43 137.24,513.21 l 279.86,-49.34 c 32.91,187.93 50.19,381.22 50.19,578.56 l -775.16,0 0,0 C 2556.19,6587.44 1411.75,5443 0,5443 l 0,-775.16"
         style="fill:#95cfce;fill-opacity:1;fill-rule:evenodd;stroke:none"
         id="path22" /><path
         d="m 7083.67,6819.82 c -30.32,28.7 -59.01,59.12 -85.88,91.11 l 71.09,59.65 c -37.15,44.24 -70.55,91.74 -99.65,142.05 l -80.41,-46.42 c -31.52,54.49 -58.45,111.97 -80.29,171.91 l 87.29,31.76 c -19.61,53.86 -34.73,109.9 -44.85,167.65 l -91.42,-16.12 c -10.75,61.38 -16.39,124.53 -16.39,188.99 l 92.81,0 c 0,58.97 5.14,116.74 14.98,172.88 l -91.4,16.11 c 11.07,63.14 27.53,124.41 48.98,183.31 l 87.25,-31.75 c 5.93,16.29 12.28,32.38 19.02,48.25 l 168.87,0 0,-108.75 -34.3,13.19 c -34.24,-91.23 -52.99,-190.03 -52.99,-293.24 0,-47.31 3.99,-93.68 11.54,-138.85 l 75.75,12.63 0,-140.63 -38.87,-13.89 c 11.19,-31.33 24.18,-61.79 38.87,-91.26 l 0,-418.58 z m 0,1179.38 87.91,0 39.27,-23.76 0,-699.28 c -16.79,31.12 -31.32,63.64 -43.35,97.36 l -83.83,-29.97 0,140.63 52.77,8.8 c -6.41,38.2 -9.78,77.41 -9.78,117.42 0,86.71 15.68,169.75 44.33,246.45 l -87.32,33.6 0,108.75 z m 127.18,-1167.11 c -6.48,5.19 -12.93,10.45 -19.27,15.79 l -59.65,-71.08 c -16.52,13.86 -32.6,28.21 -48.26,43.02 l 0,418.58 c 33.9,-68.02 76.83,-130.75 127.18,-186.65 l 0,-219.66 z m 414.05,-195.64 c -45.94,9.69 -90.69,22.55 -134.03,38.33 l -31.75,-87.24 c -59.95,21.81 -117.43,48.76 -171.92,80.28 l 46.43,80.41 c -43.07,24.93 -84.1,52.99 -122.78,83.86 l 0,219.66 c 25.77,-28.59 53.46,-55.39 82.9,-80.2 l 83.16,100.28 c -67.33,56.88 -123.87,126.17 -166.06,204.33 l 0,699.28 12.97,-7.83 c 6.31,10.71 12.89,21.25 19.75,31.59 l 192.93,0 c -98.52,-100.04 -159.32,-237.31 -159.32,-388.8 0,-233.08 143.91,-432.54 347.72,-514.42 l 0,-159.57 c -51.7,15.83 -100.88,37.44 -146.78,64.08 l -64.08,-113.47 c 65.21,-37.71 136.01,-66.87 210.86,-85.91 l 0,-164.66 z m 374.29,-7.34 c -54.55,-9.27 -110.6,-14.13 -167.79,-14.13 l 0,-92.82 c -64.47,0 -127.6,5.64 -189,16.4 l 16.13,91.39 c -11.29,1.97 -22.5,4.14 -33.63,6.5 l 0,164.66 c 66.03,-16.8 135.23,-25.74 206.5,-25.74 1.47,0 2.91,0.05 4.36,0.06 l -2.39,130.24 -1.97,-0.01 c -71.85,0 -141.19,10.76 -206.5,30.75 l 0,159.57 c 63.83,-25.65 133.51,-39.79 206.5,-39.79 58.5,0 114.86,9.1 167.79,25.89 l 0,-156.32 c -14.02,-3.43 -28.22,-6.43 -42.57,-9.01 l 25.21,-127.83 c 5.82,1.06 11.6,2.18 17.36,3.36 l 0,-163.17"
         style="fill:#95cfce;fill-opacity:1;fill-rule:evenodd;stroke:none"
         id="path24" /><path
         d="M 501.367,0 411.801,0 C 399.117,28.3516 387.656,57.4492 377.527,87.2617 L 288.008,56.7109 c -20.43,60.1291 -36,122.8091 -46.098,187.7071 l 0,0 93.449,14.551 c -9.242,59.363 -13.113,118.332 -12,176.39 l -94.535,1.911 c 1.242,65.3 8.238,129.57 20.602,192.21 l 92.808,-18.3 c 11.516,58.32 28.086,115.101 49.328,169.8 l -88.21,34.149 c 23.421,60.351 52.058,118.34 85.386,173.402 l 80.91,-48.929 c 10.102,16.687 20.684,33.078 31.719,49.148 l 0,-276.16 c -18.238,-3.602 -34.293,-16.172 -41.5,-34.789 -11.179,-28.871 3.164,-61.34 32.047,-72.52 3.121,-1.211 6.277,-2.121 9.453,-2.742 l 0,-334.109 c -2.844,-0.012 -5.722,-0.231 -8.613,-0.68 -30.598,-4.762 -51.539,-33.41 -46.785,-64.012 4.304,-27.699 28.207,-47.488 55.398,-47.457 L 501.367,0 z M 744.098,818.859 C 645.141,673.578 598.953,491.891 628.105,304.48 645.062,195.441 685.777,96 744.098,10.5312 l 0,-10.5312 -242.731,0 0,156.281 c 2.844,0.008 5.719,0.231 8.617,0.68 30.586,4.758 51.539,33.41 46.778,64.008 -4.305,27.711 -28.207,47.492 -55.395,47.461 l 0,334.109 c 26.188,-5.168 53.098,9.031 63.067,34.781 11.179,28.879 -3.168,61.352 -32.047,72.52 -10.258,3.98 -20.969,4.719 -31.02,2.75 l 0,276.16 c 22.36,32.56 46.602,63.81 72.602,93.57 l -71.196,62.24 c 42.332,48.48 88.903,93.37 139.278,134.03 l 59.332,-73.7 c 13.926,11.24 28.168,22.12 42.715,32.64 l 0,-143.74 c -12.356,0.01 -24.789,-4.04 -35.16,-12.39 -24.118,-19.42 -27.926,-54.71 -8.508,-78.83 11.07,-13.75 27.297,-20.898 43.668,-20.898 l 0,-162.813 z m 0,-808.3278 C 746.508,6.98828 748.941,3.48828 751.41,0 l -7.312,0 0,10.5312 z M 1135.05,1103.7 C 971.562,1055.87 835.383,952.859 744.098,818.859 l 0,162.813 c 12.351,-0.012 24.785,4.039 35.156,12.387 24.125,19.431 27.93,54.721 8.512,78.831 -11.071,13.75 -27.297,20.89 -43.668,20.9 l 0,143.74 c 33.152,23.96 67.882,46.02 104.082,65.95 l -45.629,82.86 c 55.933,30.81 115.031,56.99 176.867,78.02 l 30.542,-89.53 c 40.47,13.75 82.21,25.1 125.09,33.82 l 0,-101.58 c -2.84,-0.01 -5.71,-0.22 -8.61,-0.67 -30.6,-4.77 -51.55,-33.42 -46.78,-64.03 4.3,-27.69 28.21,-47.48 55.39,-47.44 l 0,-91.23 z m 223.01,325.3 c 59.73,-1.14 118.51,-7.56 175.82,-18.88 l 18.31,92.81 c 9.39,-1.86 18.75,-3.83 28.07,-5.93 l 0,-200.71 c -22.47,-0.01 -43.68,-13.62 -52.28,-35.84 -11.17,-28.88 3.17,-61.34 32.05,-72.52 6.65,-2.58 13.5,-3.79 20.23,-3.79 l 0,-93.49 c -109.44,39.41 -230.03,52.75 -353.07,33.62 -31.56,-4.91 -62.29,-11.84 -92.14,-20.57 l 0,91.23 c 2.85,0 5.73,0.23 8.63,0.68 30.58,4.75 51.53,33.4 46.77,64 -4.3,27.71 -28.2,47.49 -55.4,47.46 l 0,101.58 c 15.39,3.13 30.93,5.92 46.61,8.35 l -14.54,93.46 c 64.91,10.1 129.37,14.3 192.86,13.08 L 1358.06,1429 z M 1960.43,0 1923.47,0 c 13.22,18.6797 25.55,37.9805 36.96,57.8516 L 1960.43,0 z m -380.17,1497 c 53.93,-12.11 106.58,-28.2 157.57,-47.99 l -34.15,-88.22 c 55.2,-21.42 108.27,-47.6 158.62,-78.08 l 48.92,80.91 c 16.69,-10.09 33.1,-20.63 49.21,-31.58 l 0,-267.71 c -12.35,0 -24.79,-4.05 -35.16,-12.4 -24.11,-19.42 -27.93,-54.711 -8.51,-78.821 11.07,-13.75 27.3,-20.898 43.67,-20.91 l 0,-180.051 c -85.16,148.383 -220.83,261.092 -380.17,318.502 l 0,93.49 c 22.48,0 43.69,13.62 52.28,35.83 11.19,28.89 -3.16,61.35 -32.04,72.52 -6.66,2.58 -13.5,3.8 -20.24,3.8 l 0,200.71 z m 380.17,-164.96 c 37.23,-25.3 72.91,-52.83 106.84,-82.46 l -62.24,-71.19 c 44.35,-38.71 85.4,-81.32 122.58,-127.41 l 46.09,37.12 0,-414.721 c -2.84,0 -5.72,-0.219 -8.62,-0.668 -30.6,-4.77 -51.54,-33.422 -46.78,-64.02 4.3,-27.703 28.2,-47.492 55.4,-47.453 l 0,-334.117 c -26.19,5.18 -53.1,-9.019 -63.07,-34.793 -11.18,-28.859 3.17,-61.328 32.05,-72.508 10.25,-3.968 20.97,-4.718 31.02,-2.738 l 0,-117.082 -213.27,0 0,57.8516 c 78.38,136.5394 112.62,299.6484 86.54,467.3164 -13.94,89.633 -43.93,172.754 -86.54,246.98 l 0,180.051 c 12.36,0 24.79,4.051 35.16,12.403 24.12,19.41 27.93,54.708 8.51,78.828 -11.07,13.74 -27.29,20.89 -43.67,20.9 l 0,267.71 z m 213.27,-243.94 27.59,22.21 c 40.27,-49.92 76.4,-103.57 107.75,-160.49 l -82.89,-45.648 c 28.18,-51.152 52.16,-105.211 71.39,-161.774 l 89.53,30.551 c 20.43,-60.129 36,-122.82 46.09,-187.711 l 0,0 -93.45,-14.547 c 9.24,-59.363 13.11,-118.32 12,-176.382 l 94.54,-1.918 C 2445,327.09 2438,262.82 2425.63,200.18 l -92.8,18.308 c -11.51,-58.32 -28.09,-115.117 -49.32,-169.8083 l 88.21,-34.1406 C 2369.83,9.67969 2367.91,4.82812 2365.95,0 l -192.25,0 0,117.082 c 18.23,3.586 34.29,16.168 41.49,34.789 11.18,28.867 -3.17,61.328 -32.04,72.52 -3.12,1.211 -6.28,2.109 -9.45,2.73 l 0,334.117 c 2.84,0 5.72,0.231 8.61,0.672 30.6,4.762 51.54,33.41 46.78,64.02 -4.3,27.691 -28.2,47.48 -55.39,47.449 l 0,414.721"
         style="fill:#95cfce;fill-opacity:1;fill-rule:evenodd;stroke:none"
         id="path26" /><path
         d="m 2772.42,3607.37 c -13.14,12.45 -25.56,25.62 -37.21,39.48 l 30.8,25.85 c -16.1,19.15 -30.57,39.74 -43.17,61.53 L 2688,3714.12 c -13.65,23.61 -25.32,48.5 -34.77,74.46 l 37.8,13.76 c -8.5,23.33 -15.04,47.61 -19.42,72.63 l -39.6,-6.98 c -4.66,26.59 -7.11,53.94 -7.11,81.87 l 40.21,0 c 0,25.55 2.22,50.58 6.49,74.9 l -39.59,6.97 c 4.78,27.36 11.93,53.9 21.22,79.41 l 37.79,-13.75 c 8.65,23.74 19.32,46.52 31.82,68.11 l -34.84,20.11 c 13.79,23.82 29.61,46.31 47.21,67.27 l 30.8,-25.84 c 2.11,2.5 4.24,4.99 6.41,7.45 l 0,-163.31 -14.87,5.72 c -14.83,-39.53 -22.96,-82.33 -22.96,-127.04 0,-20.49 1.73,-40.58 5.01,-60.14 l 32.82,5.47 0,-60.92 -16.85,-6.03 c 4.85,-13.56 10.48,-26.76 16.85,-39.53 l 0,-181.34 z m 0,627.12 c 14.4,16.38 30.03,31.66 46.74,45.7 l -25.84,30.8 c 10.98,9.22 22.39,17.96 34.19,26.17 l 0,-145.28 c -16.06,-17.85 -30.39,-37.28 -42.68,-58.06 l 42.68,-25.82 0,-302.94 c -7.28,13.49 -13.57,27.58 -18.78,42.18 l -36.31,-12.97 0,60.92 22.85,3.8 c -2.77,16.55 -4.23,33.54 -4.23,50.87 0,37.57 6.79,73.53 19.19,106.77 l -37.81,14.55 0,163.31 z m 55.09,-621.79 c -2.81,2.24 -5.6,4.53 -8.35,6.84 l -25.84,-30.8 c -7.16,6.02 -14.13,12.23 -20.9,18.63 l 0,181.34 c 14.68,-29.46 33.27,-56.64 55.09,-80.86 l 0,-95.15 z m 50.34,550.38 0,-113.57 c -13.87,-30.35 -21.6,-64.09 -21.6,-99.65 0,-35.55 7.73,-69.29 21.6,-99.64 l 0,-113.57 c -19.78,20.27 -36.77,43.28 -50.34,68.41 l 0,302.94 5.62,-3.4 c 12.53,21.29 27.57,40.91 44.72,58.48 z m -50.34,174.08 c 10.71,7.44 21.74,14.47 33.08,21.02 l 17.26,-29.89 0,-90.13 c -18.21,-13.82 -35.06,-29.32 -50.34,-46.28 l 0,145.28 z m 50.34,-759.12 c -17.62,10.38 -34.44,21.96 -50.34,34.66 l 0,95.15 c 11.16,-12.38 23.16,-23.99 35.91,-34.73 l 14.43,17.39 0,-112.47 z m 0,-46.02 c -5.83,3.06 -11.59,6.23 -17.26,9.51 l 17.26,29.91 0,-39.42 z m 0,796.27 2.85,-4.93 c 21.59,12.49 44.36,23.17 68.11,31.82 l -13.76,37.79 c 25.52,9.29 52.06,16.43 79.4,21.22 l 7,-39.61 c 15.16,2.66 30.6,4.53 46.27,5.56 l 0,-69.66 c -32.24,-2.53 -63.29,-9.3 -92.6,-19.72 l 18.13,-53.45 c 23.62,8.46 48.58,14.12 74.47,16.53 l 0,-65.6 c -84.65,-10.05 -155.79,-64.15 -189.87,-138.73 l 0,113.57 c 19.84,20.34 42.5,37.92 67.35,52.11 l -27.11,49.5 c -14.03,-7.96 -27.46,-16.83 -40.24,-26.53 l 0,90.13 z m 189.87,-849 c -18.04,1.09 -35.82,3.19 -53.27,6.25 l 6.99,39.59 c -25.02,4.39 -49.29,10.93 -72.63,19.42 l -13.76,-37.79 c -19.72,7.17 -38.81,15.63 -57.2,25.26 l 0,39.42 2.85,4.93 -2.85,1.67 0,112.47 21.6,26.04 c -7.52,6.35 -14.73,13.07 -21.6,20.1 l 0,113.57 c 34.08,-74.58 105.22,-128.69 189.87,-138.73 l 0,-65.6 c -45.03,4.19 -87.22,18.16 -124.43,39.77 l -27.77,-49.17 c 45.42,-26.25 97.07,-42.93 152.2,-47.24 l 0,-109.96 z m 218.94,83.54 c -13.87,-6.83 -28.15,-12.95 -42.81,-18.28 l 13.76,-37.79 c -25.51,-9.29 -52.05,-16.43 -79.4,-21.22 l -6.99,39.6 c -24.33,-4.25 -49.35,-6.5 -74.89,-6.5 l 0,-40.2 c -9.61,0 -19.15,0.28 -28.61,0.85 l 0,109.96 c 9.44,-0.74 18.98,-1.12 28.61,-1.12 0.64,0 1.26,0.02 1.89,0.03 l -1.03,56.42 -0.86,-0.02 c -9.65,0 -19.19,0.45 -28.61,1.33 l 0,65.6 c 9.38,-1.13 18.93,-1.71 28.61,-1.71 77.51,0 146.43,36.73 190.33,93.74 l 0,-92.36 c -38.77,-30.95 -85.24,-52.67 -136.09,-61.79 l 10.93,-55.38 c 45.21,8.23 87.48,24.86 125.16,48.22 l 0,-79.38 z m -115.43,811.76 c 25.01,-4.38 49.29,-10.92 72.62,-19.41 l 13.76,37.79 c 9.84,-3.58 19.53,-7.48 29.05,-11.69 l 0,-123.75 c -20.71,12.83 -42.8,23.64 -66.01,32.13 l -20.01,-52.78 c 31.4,-11.42 60.4,-27.85 86.02,-48.31 l 0,-92.36 c -43.9,57 -112.82,93.74 -190.33,93.74 -9.68,0 -19.23,-0.58 -28.61,-1.71 l 0,65.6 c 9.42,0.88 18.96,1.33 28.61,1.33 18.18,0 35.98,-1.6 53.29,-4.65 l 10.71,55.43 c -20.77,3.71 -42.16,5.65 -64,5.65 -9.63,0 -19.17,-0.38 -28.61,-1.12 l 0,69.66 c 9.45,0.62 19,0.94 28.61,0.94 l 0,40.21 c 27.93,0 55.28,-2.44 81.88,-7.1 l -6.98,-39.6 0,0 z m 162.81,-223.6 0,-167.29 c -5.92,41.97 -22.69,80.45 -47.38,112.51 l 0,92.36 c 15.55,-12.42 29.85,-26.31 42.71,-41.49 l 4.67,3.91 z m 0,-608.31 -1.96,-1.15 -20.11,34.84 c -8.27,-4.78 -16.71,-9.3 -25.31,-13.54 l 0,79.38 c 15.76,9.77 30.72,20.72 44.75,32.73 l -37.24,42.41 c -2.48,-2.11 -4.98,-4.17 -7.51,-6.19 l 0,92.36 c 24.69,32.07 41.46,70.54 47.38,112.51 l 0,-157.75 c -0.79,-0.98 -1.59,-1.96 -2.39,-2.93 l 2.39,-1.91 0,-210.76 z m -47.38,838.6 c 15.6,-6.89 30.76,-14.61 45.42,-23.1 l -20.11,-34.82 c 7.5,-4.35 14.86,-8.91 22.07,-13.68 l 0,-87.17 c -14.79,12.91 -30.63,24.63 -47.38,35.02 l 0,123.75 z m 122.32,-728.36 0,114.92 c -9.82,-16.84 -20.97,-32.83 -33.31,-47.81 l -41.63,33.41 0,-210.76 c 23.09,13.52 44.93,28.94 65.31,46.06 l -25.84,30.8 c 12.44,10.45 24.29,21.6 35.47,33.38 z m -74.94,656.76 c 13.72,-9.08 26.9,-18.94 39.47,-29.49 l 25.84,30.8 c 3.25,-2.74 6.47,-5.51 9.63,-8.32 l 0,-170.8 -0.21,0.37 -48.82,-28.33 c 26.13,-44.62 41.25,-96.46 41.65,-151.8 l 7.38,0.1 0,-54.9 -11.56,1.84 c -8.83,-52.77 -31.17,-100.96 -63.38,-140.87 l 0,157.75 c 1.56,11.05 2.38,22.35 2.38,33.83 0,11.49 -0.82,22.79 -2.38,33.84 l 0,167.29 38.63,32.27 c -11.87,14.05 -24.78,27.17 -38.63,39.25 l 0,87.17 z m 74.94,-7.01 c 17.35,-15.39 33.55,-32.03 48.48,-49.8 l -30.8,-25.83 c 16.09,-19.17 30.55,-39.75 43.16,-61.54 l 34.84,20.11 c 13.66,-23.61 25.33,-48.5 34.78,-74.47 l -37.8,-13.76 c 8.49,-23.34 15.03,-47.6 19.41,-72.62 l 39.61,6.97 c 4.66,-26.58 7.1,-53.95 7.1,-81.87 l -40.21,0 c 0,-25.54 -2.22,-50.57 -6.49,-74.89 l 39.6,-6.98 c -4.79,-27.35 -11.93,-53.9 -21.22,-79.41 l -37.79,13.75 c -8.65,-23.74 -19.33,-46.52 -31.82,-68.1 l 34.83,-20.11 c -13.79,-23.83 -29.61,-46.32 -47.21,-67.27 l -30.79,25.84 c -5.69,-6.77 -11.58,-13.36 -17.68,-19.77 l 0,114.92 c 21.65,37.11 36.87,78.42 44.17,122.42 l -44.17,7.05 0,54.9 49.05,0.65 c -0.53,65.24 -18.32,126.34 -49.05,179.01 l 0,170.8"
         style="fill:#77bab9;fill-opacity:1;fill-rule:evenodd;stroke:none"
         id="path28" /><path
         d="m 5230.33,4226.8 c -31.47,0 -62.29,2.75 -92.25,8 l 7.85,44.61 c -28.18,4.94 -55.52,12.3 -81.81,21.88 l -15.51,-42.59 c -29.24,10.66 -57.29,23.81 -83.89,39.2 l 22.66,39.24 c -24.55,14.2 -47.76,30.5 -69.34,48.63 l -29.12,-34.7 c -23.67,19.9 -45.57,41.8 -65.45,65.46 l 34.69,29.13 c -18.15,21.59 -34.43,44.77 -48.63,69.33 l -39.24,-22.67 c -15.39,26.61 -28.54,54.65 -39.2,83.9 l 42.6,15.51 c -9.57,26.3 -16.94,53.63 -21.88,81.84 l -44.63,-7.88 c -5.23,29.97 -7.99,60.79 -7.99,92.24 l 45.3,0 c 0,28.78 2.5,56.98 7.3,84.39 l -44.61,7.86 c 5.41,30.81 13.46,60.71 23.91,89.46 l 42.58,-15.51 c 9.74,26.77 21.77,52.42 35.86,76.75 l -39.24,22.66 c 15.53,26.83 33.34,52.18 53.18,75.79 l 34.69,-29.11 c 18.2,21.65 38.22,41.69 59.88,59.87 l -29.12,34.7 c 23.61,19.83 48.97,37.64 75.8,53.17 l 22.66,-39.23 c 24.31,14.07 49.98,26.11 76.74,35.85 l -15.51,42.58 c 28.75,10.46 58.65,18.5 89.47,23.91 l 7.87,-44.63 c 27.4,4.8 55.59,7.32 84.38,7.32 l 0,-163.3 c -178.15,0 -322.54,-144.4 -322.54,-322.53 0,-178.12 144.39,-322.53 322.54,-322.53 l 0,-208.6 z m 84.37,1009.66 c 28.19,-4.94 55.53,-12.31 81.82,-21.88 l 15.51,42.58 c 29.25,-10.66 57.3,-23.8 83.9,-39.2 l -22.67,-39.23 c 24.55,-14.21 47.75,-30.5 69.33,-48.64 l 29.12,34.7 c 23.68,-19.89 45.57,-41.79 65.47,-65.46 l -34.7,-29.12 c 18.14,-21.6 34.43,-44.78 48.63,-69.33 l 39.24,22.66 c 15.41,-26.6 28.55,-54.64 39.2,-83.9 l -42.6,-15.51 c 9.57,-26.29 16.95,-53.63 21.87,-81.83 l 44.63,7.88 c 5.26,-29.97 8.01,-60.78 8.01,-92.25 l -45.31,0 c 0,-28.78 -2.5,-56.97 -7.31,-84.38 l 44.61,-7.86 c -5.39,-30.82 -13.44,-60.72 -23.9,-89.47 l -42.58,15.51 c -9.75,-26.76 -21.78,-52.42 -35.86,-76.75 l 39.24,-22.66 c -15.53,-26.83 -33.34,-52.17 -53.17,-75.79 l -34.7,29.13 c -18.19,-21.66 -38.23,-41.69 -59.89,-59.89 l 29.12,-34.7 c -23.61,-19.83 -48.94,-37.64 -75.78,-53.17 l -22.67,39.24 c -24.32,-14.08 -49.96,-26.11 -76.74,-35.85 l 15.51,-42.59 c -28.75,-10.46 -58.66,-18.49 -89.48,-23.9 l -7.87,44.62 c -27.4,-4.8 -55.58,-7.32 -84.35,-7.32 l 0,-45.3 0,208.6 c 178.12,0 322.52,144.41 322.52,322.53 0,178.13 -144.4,322.53 -322.52,322.53 l 0,208.6 c 31.46,0 62.26,-2.75 92.22,-7.99 l -7.85,-44.61"
         style="fill:#aadddc;fill-opacity:1;fill-rule:evenodd;stroke:none"
         id="path30" /><path
         d="m 3419.83,4692.28 -13.7,-11.04 c -20,24.8 -37.94,51.45 -53.51,79.71 l 41.16,22.67 c -13.99,25.41 -25.9,52.26 -35.45,80.36 l -44.46,-15.18 c -10.15,29.86 -17.88,61 -22.89,93.22 l 0,0 46.41,7.23 c -4.59,29.48 -6.52,58.77 -5.96,87.61 l -46.95,0.94 c 0.61,32.43 4.08,64.36 10.23,95.46 l 46.09,-9.09 c 5.72,28.97 13.96,57.17 24.5,84.34 l -43.81,16.95 c 11.64,29.98 25.85,58.78 42.41,86.12 l 40.18,-24.29 c 5.02,8.29 10.28,16.42 15.75,24.4 l 0,-137.15 c -9.05,-1.8 -17.03,-8.04 -20.61,-17.27 -5.54,-14.35 1.58,-30.47 15.92,-36.02 1.54,-0.6 3.12,-1.05 4.69,-1.37 l 0,-165.93 c -1.41,0 -2.84,-0.11 -4.28,-0.34 -15.19,-2.37 -25.59,-16.59 -23.24,-31.79 2.15,-13.76 14.02,-23.59 27.52,-23.57 l 0,-205.97 z m 105.92,-121.16 c -18.48,12.57 -36.2,26.24 -53.05,40.95 l 30.9,35.36 c -22.02,19.23 -42.41,40.39 -60.87,63.28 l -22.9,-18.43 0,205.97 c 1.42,0 2.85,0.11 4.28,0.33 15.19,2.37 25.6,16.61 23.23,31.79 -2.13,13.76 -14.01,23.59 -27.51,23.58 l 0,165.93 c 13.01,-2.56 26.38,4.49 31.33,17.28 5.55,14.33 -1.58,30.47 -15.92,36.01 -5.09,1.98 -10.42,2.35 -15.41,1.37 l 0,137.15 c 11.11,16.17 23.15,31.7 36.06,46.48 l -35.35,30.9 c 21.02,24.09 44.15,46.38 69.17,66.58 l 29.46,-36.61 c 2.18,1.76 4.37,3.5 6.58,5.23 l 0,-64.55 c -0.97,-0.61 -1.92,-1.27 -2.83,-2.01 -11.98,-9.64 -13.86,-27.17 -4.22,-39.14 2.04,-2.54 4.43,-4.62 7.05,-6.25 l 0,-108.36 c -38.92,-67.82 -55.93,-148.83 -42.98,-232.1 6.93,-44.52 21.82,-85.79 42.98,-122.67 l 0,-89.41 c -6.14,0 -12.31,-2.02 -17.46,-6.17 -11.98,-9.63 -13.87,-27.16 -4.23,-39.15 5.5,-6.82 13.56,-10.37 21.69,-10.38 l 0,-132.96 z m 0,853.15 c 20.79,16.21 42.95,30.86 66.33,43.73 l -22.66,41.16 c 27.78,15.3 57.13,28.3 87.84,38.74 l 15.17,-44.45 c 20.09,6.82 40.83,12.47 62.13,16.79 l 0,-50.44 c -1.42,-0.01 -2.85,-0.12 -4.28,-0.35 -15.2,-2.36 -25.6,-16.6 -23.24,-31.78 2.14,-13.77 14.01,-23.6 27.52,-23.58 l 0,-45.3 c -90.47,-26.47 -164.1,-86.94 -208.81,-164.83 l 0,108.36 c 9.76,-6.02 22.65,-5.59 32.1,2.02 11.97,9.64 13.86,27.17 4.23,39.15 -8.92,11.06 -24.55,13.51 -36.33,6.23 l 0,64.55 z m 208.81,-907.37 -6.05,-30.65 c -31.67,6.25 -62.5,15.24 -92.2,26.78 l 16.96,43.82 c -27.42,10.64 -53.77,23.63 -78.79,38.78 l -24.29,-40.19 c -8.28,5.01 -16.44,10.24 -24.44,15.68 l 0,132.96 c 6.13,-0.01 12.31,2.01 17.46,6.16 11.99,9.64 13.87,27.17 4.23,39.15 -5.5,6.83 -13.56,10.38 -21.69,10.39 l 0,89.41 c 45.82,-79.81 121.07,-138.85 208.81,-164.7 l 0,-48.38 c -2.72,2.81 -6.07,5.08 -9.95,6.59 -14.34,5.55 -30.46,-1.58 -36.01,-15.91 -5.55,-14.35 1.57,-30.47 15.91,-36.02 10.75,-4.16 22.5,-1.2 30.05,6.57 l 0,-80.44 z m 0,1003.34 c 7.64,1.56 15.35,2.93 23.14,4.15 l -7.22,46.41 c 28.45,4.43 56.72,6.56 84.64,6.59 l 0,-194.12 c -18.08,-0.02 -36.38,-1.4 -54.81,-4.28 -15.67,-2.44 -30.93,-5.86 -45.75,-10.2 l 0,45.3 c 1.41,0 2.84,0.12 4.27,0.33 15.2,2.37 25.6,16.61 23.24,31.8 -2.14,13.75 -14.01,23.58 -27.51,23.58 l 0,50.44 z m 100.56,-1044.32 c -3.72,-0.01 -7.44,0.03 -11.15,0.1 l 0.95,46.95 c -29.66,0.57 -58.86,3.76 -87.32,9.37 l -3.04,-15.44 0,80.44 c 2.52,2.6 4.58,5.75 5.97,9.34 4.05,10.46 1.35,21.88 -5.97,29.43 l 0,48.38 c 32.12,-9.47 65.92,-14.5 100.56,-14.46 l 0,-194.11 z m 120.55,61.64 c -14.12,-3.47 -28.51,-6.36 -43.14,-8.64 l 7.22,-46.41 c -28.45,-4.41 -56.71,-6.56 -84.63,-6.59 l 0,194.11 c 18.07,0.03 36.38,1.43 54.79,4.29 22.82,3.54 44.79,9.21 65.76,16.72 l 0,-60.29 c -6.08,6.27 -15,9.58 -24.27,8.14 -15.2,-2.37 -25.59,-16.59 -23.24,-31.79 2.37,-15.19 16.6,-25.6 31.8,-23.24 6.22,0.97 11.64,3.93 15.71,8.13 l 0,-54.43 z m -110.36,992.79 c 29.67,-0.57 58.86,-3.77 87.32,-9.38 l 9.09,46.09 c 4.67,-0.92 9.32,-1.89 13.95,-2.94 l 0,-99.69 c -11.16,-0.01 -21.69,-6.76 -25.97,-17.8 -5.55,-14.33 1.58,-30.47 15.92,-36.01 3.31,-1.28 6.7,-1.89 10.05,-1.89 l 0,-46.43 c -37.97,13.68 -78.65,21.02 -120.55,20.97 l 0,194.12 c 3.72,0.01 7.43,-0.02 11.14,-0.09 l -0.95,-46.95 0,0 z m 299.18,-901.31 c -20.8,-16.21 -42.95,-30.86 -66.33,-43.74 l 22.66,-41.15 c -27.78,-15.29 -57.13,-28.3 -87.84,-38.74 l -15.17,44.46 c -13.76,-4.68 -27.81,-8.8 -42.14,-12.31 l 0,54.43 c 5.86,6.07 8.91,14.69 7.52,23.67 -0.92,5.91 -3.64,11.11 -7.52,15.09 l 0,60.29 c 81.32,29.11 147.45,86.25 188.82,158.32 l 0,-108.37 c -9.77,6.02 -22.66,5.59 -32.11,-2 -11.97,-9.65 -13.87,-27.18 -4.22,-39.17 8.91,-11.06 24.55,-13.51 36.33,-6.22 l 0,-64.56 z m -188.82,935.08 c 26.78,-6.01 52.93,-14.01 78.25,-23.84 l -16.95,-43.81 c 27.4,-10.64 53.77,-23.64 78.77,-38.78 l 24.29,40.19 c 8.3,-5.02 16.45,-10.25 24.46,-15.69 l 0,-132.96 c -6.14,0 -12.33,-2.01 -17.46,-6.15 -12,-9.65 -13.89,-27.17 -4.24,-39.15 5.51,-6.83 13.55,-10.38 21.7,-10.38 l 0,-89.43 c -42.31,73.69 -109.69,129.67 -188.82,158.18 l 0,46.43 c 11.16,0 21.69,6.77 25.96,17.8 5.56,14.35 -1.57,30.47 -15.92,36.02 -3.3,1.28 -6.7,1.88 -10.04,1.88 l 0,99.69 z m 188.82,-81.93 c 18.47,-12.56 36.21,-26.24 53.04,-40.95 l -30.89,-35.36 c 22.01,-19.23 42.4,-40.39 60.87,-63.27 l 22.9,18.43 0,-205.97 c -1.43,0 -2.86,-0.12 -4.28,-0.33 -15.22,-2.38 -25.61,-16.6 -23.24,-31.8 2.12,-13.76 14,-23.58 27.52,-23.57 l 0,-165.93 c -13.01,2.57 -26.39,-4.49 -31.33,-17.29 -5.55,-14.33 1.58,-30.46 15.92,-36.01 5.09,-1.98 10.41,-2.35 15.41,-1.36 l 0,-137.16 c -11.12,-16.17 -23.15,-31.69 -36.08,-46.47 l 35.37,-30.92 c -21.03,-24.07 -44.16,-46.37 -69.18,-66.56 l -29.45,36.6 c -2.19,-1.76 -4.38,-3.5 -6.58,-5.23 l 0,64.56 c 0.95,0.61 1.91,1.27 2.81,2 11.99,9.65 13.87,27.18 4.24,39.16 -2.05,2.53 -4.44,4.61 -7.05,6.23 l 0,108.37 c 38.92,67.82 55.92,148.82 42.97,232.1 -6.92,44.51 -21.82,85.8 -42.97,122.66 l 0,89.43 c 6.13,0 12.3,2.01 17.44,6.15 11.99,9.65 13.89,27.17 4.24,39.15 -5.49,6.82 -13.56,10.38 -21.68,10.38 l 0,132.96 z m 105.92,-121.15 13.69,11.03 c 20,-24.79 37.95,-51.43 53.51,-79.72 l -41.17,-22.66 c 14,-25.41 25.92,-52.25 35.47,-80.34 l 44.45,15.16 c 10.16,-29.86 17.89,-60.98 22.89,-93.22 l 0,0 -46.4,-7.23 c 4.59,-29.48 6.52,-58.76 5.95,-87.59 l 46.96,-0.96 c -0.63,-32.43 -4.1,-64.35 -10.24,-95.46 l -46.09,9.09 c -5.72,-28.96 -13.95,-57.18 -24.49,-84.33 l 43.81,-16.96 c -11.65,-29.97 -25.86,-58.78 -42.41,-86.12 l -40.19,24.31 c -5.02,-8.3 -10.28,-16.44 -15.74,-24.42 l 0,137.16 c 9.04,1.79 17.03,8.03 20.6,17.28 5.55,14.34 -1.58,30.45 -15.92,36.01 -1.54,0.6 -3.12,1.06 -4.68,1.37 l 0,165.93 c 1.4,0.01 2.83,0.11 4.27,0.34 15.2,2.36 25.59,16.59 23.23,31.78 -2.13,13.76 -14.01,23.59 -27.5,23.58 l 0,205.97"
         style="fill:#bfebea;fill-opacity:1;fill-rule:evenodd;stroke:none"
         id="path32" /><path
         d="m 2172.23,4114.82 0,-30.24 c -20.99,0 -41.56,1.85 -61.55,5.34 l 5.25,29.77 c -18.81,3.3 -37.06,8.21 -54.6,14.6 l -10.34,-28.42 c -19.53,7.11 -38.24,15.88 -55.99,26.15 l 15.12,26.18 c -16.38,9.49 -31.86,20.37 -46.26,32.46 l -19.43,-23.15 c -15.8,13.27 -30.41,27.89 -43.68,43.68 l 23.15,19.43 c -12.1,14.41 -22.98,29.88 -32.45,46.27 l -26.19,-15.12 c -10.27,17.74 -19.04,36.46 -26.15,55.97 l 28.42,10.36 c -6.38,17.54 -11.3,35.79 -14.6,54.6 l -29.77,-5.26 c -3.5,19.99 -5.34,40.56 -5.34,61.55 l 30.23,0 c 0,19.21 1.67,38.02 4.87,56.31 l -29.76,5.24 c 3.6,20.56 8.97,40.53 15.95,59.7 l 28.42,-10.34 c 6.49,17.85 14.52,34.97 23.92,51.2 l -26.19,15.12 c 10.37,17.91 22.25,34.83 35.49,50.58 l 23.15,-19.43 c 12.14,14.45 25.51,27.82 39.96,39.95 l -19.43,23.16 c 15.75,13.23 32.66,25.12 50.57,35.49 l 15.12,-26.19 c 16.23,9.39 33.35,17.43 51.21,23.92 l -10.34,28.41 c 19.18,6.98 39.13,12.35 59.69,15.96 l 5.25,-29.78 c 18.28,3.2 37.1,4.88 56.3,4.88 l 0,-108.96 c -118.86,0 -215.21,-96.36 -215.21,-215.22 0,-118.85 96.35,-215.21 215.21,-215.21 l 0,-108.96 z m 56.31,643.48 c 18.8,-3.29 37.05,-8.21 54.59,-14.6 l 10.35,28.41 c 19.52,-7.1 38.23,-15.88 55.98,-26.14 l -15.12,-26.19 c 16.38,-9.48 31.86,-20.36 46.27,-32.46 l 19.42,23.16 c 15.8,-13.27 30.41,-27.89 43.69,-43.68 l -23.16,-19.43 c 12.11,-14.41 22.98,-29.88 32.46,-46.27 l 26.18,15.12 c 10.27,-17.74 19.04,-36.46 26.15,-55.98 l -28.42,-10.35 c 6.39,-17.54 11.3,-35.79 14.6,-54.6 l 29.77,5.25 c 3.5,-19.98 5.34,-40.55 5.34,-61.55 l -30.23,0 c 0,-19.19 -1.67,-38.01 -4.87,-56.3 l 29.76,-5.25 c -3.6,-20.55 -8.97,-40.52 -15.95,-59.7 l -28.42,10.36 c -6.49,-17.86 -14.52,-34.98 -23.91,-51.21 l 26.18,-15.12 c -10.36,-17.91 -22.25,-34.83 -35.48,-50.58 l -23.16,19.43 c -12.13,-14.45 -25.51,-27.82 -39.95,-39.96 l 19.42,-23.15 c -15.75,-13.23 -32.66,-25.12 -50.57,-35.49 l -15.12,26.19 c -16.23,-9.39 -33.35,-17.42 -51.21,-23.92 l 10.35,-28.42 c -19.18,-6.97 -39.14,-12.34 -59.7,-15.95 l -5.25,29.78 c -18.29,-3.21 -37.1,-4.88 -56.3,-4.88 l 0,108.96 c 118.86,0 215.22,96.36 215.22,215.21 0,118.86 -96.36,215.22 -215.22,215.22 l 0,139.2 c 21,0 41.56,-1.85 61.55,-5.34 l -5.24,-29.77"
         style="fill:#aadddc;fill-opacity:1;fill-rule:evenodd;stroke:none"
         id="path34" /><path
         d="m 3227.18,644.91 c -19.87,0 -39.32,1.731 -58.24,5.051 l 4.97,28.16 c -17.81,3.117 -35.07,7.77 -51.67,13.82 l -9.78,-26.89 c -18.48,6.73 -36.19,15.027 -52.98,24.75 l 14.3,24.781 c -15.5,8.969 -30.14,19.258 -43.78,30.699 l -18.37,-21.902 c -14.96,12.551 -28.78,26.402 -41.34,41.34 l 21.91,18.383 c -11.45,13.628 -21.75,28.269 -30.71,43.769 l -24.78,-14.301 c -9.71,16.789 -18.02,34.489 -24.74,52.969 l 26.89,9.789 c -6.04,16.59 -10.7,33.871 -13.81,51.66 l -28.17,-4.968 c -3.32,18.921 -5.06,38.378 -5.06,58.242 l 28.6,0 c 0,18.179 1.59,35.988 4.62,53.288 l -28.16,4.96 c 3.4,19.45 8.48,38.34 15.09,56.48 l 26.88,-9.78 c 6.15,16.89 13.75,33.1 22.64,48.45 l -24.78,14.31 c 9.8,16.94 21.06,32.95 33.58,47.85 l 21.91,-18.38 c 11.48,13.67 24.14,26.33 37.8,37.8 l -18.37,21.92 c 14.9,12.52 30.9,23.77 47.85,33.57 l 14.3,-24.76 c 15.36,8.87 31.57,16.48 48.46,22.63 l -9.78,26.88 c 18.14,6.61 37.03,11.69 56.48,15.1 l 4.97,-28.18 c 17.3,3.03 35.1,4.62 53.27,4.62 l 0,-28.72 c -153.55,0 -278.03,-124.48 -278.03,-278.038 0,-153.543 124.48,-278.024 278.03,-278.032 l 0,-57.32 z m 53.28,637.5 c 17.8,-3.12 35.06,-7.77 51.66,-13.82 l 9.79,26.89 c 18.48,-6.72 36.18,-15.02 52.97,-24.75 l -14.3,-24.76 c 15.5,-8.98 30.14,-19.27 43.78,-30.73 l 18.38,21.92 c 14.95,-12.56 28.78,-26.39 41.33,-41.34 l -21.91,-18.38 c 11.45,-13.63 21.75,-28.27 30.72,-43.78 l 24.78,14.31 c 9.71,-16.79 18.01,-34.5 24.74,-52.98 l -26.9,-9.78 c 6.05,-16.61 10.71,-33.87 13.82,-51.67 l 28.17,4.97 c 3.31,-18.92 5.05,-38.37 5.05,-58.248 l -28.6,0 c 0,-18.16 -1.58,-35.973 -4.61,-53.274 l 28.16,-4.968 c -3.41,-19.45 -8.49,-38.329 -15.09,-56.481 l -26.89,9.781 c -6.15,-16.89 -13.75,-33.09 -22.63,-48.449 l 24.78,-14.301 c -9.81,-16.949 -21.07,-32.949 -33.59,-47.851 l -21.91,18.383 c -11.48,-13.684 -24.13,-26.332 -37.8,-37.821 l 18.38,-21.902 c -14.9,-12.52 -30.91,-23.777 -47.86,-33.578 l -14.3,24.781 c -15.36,-8.891 -31.56,-16.48 -48.46,-22.641 l 9.79,-26.89 c -18.16,-6.602 -37.03,-11.68 -56.49,-15.09 l -4.97,28.18 c -17.3,-3.032 -35.09,-4.629 -53.26,-4.629 l 0,-28.602 -0.01,0 0,57.32 0.01,0 c 153.54,0 278.03,124.489 278.03,278.032 0,153.558 -124.49,278.038 -278.03,278.038 l -0.01,0 0,28.72 0.01,0 0,28.61 c 19.86,0 39.32,-1.74 58.23,-5.05 l -4.96,-28.17"
         style="fill:#bfebea;fill-opacity:1;fill-rule:evenodd;stroke:none"
         id="path36" /><path
         d="m 2198.13,409.488 c -30.63,0 -60.62,2.692 -89.79,7.793 l 7.65,43.418 c -27.43,4.821 -54.06,11.992 -79.65,21.301 l -15.09,-41.441 c -28.48,10.371 -55.78,23.16 -81.67,38.14 l 22.05,38.211 c -23.89,13.828 -46.48,29.68 -67.48,47.328 L 1865.8,530.48 c -23.04,19.348 -44.36,40.68 -63.72,63.719 l 33.76,28.352 c -17.65,21.019 -33.51,43.578 -47.34,67.488 l -38.19,-22.059 c -14.99,25.891 -27.79,53.18 -38.16,81.668 l 41.46,15.102 c -9.31,25.59 -16.49,52.199 -21.29,79.66 l -43.43,-7.672 c -5.11,29.172 -7.8,59.172 -7.8,89.793 l 44.1,0 c 0,28.028 2.44,55.469 7.11,82.149 l -43.41,7.65 c 5.25,30 13.08,59.11 23.26,87.09 l 41.46,-15.09 c 9.48,26.06 21.19,51.03 34.89,74.71 l -38.19,22.05 c 15.11,26.13 32.46,50.8 51.77,73.79 l 33.76,-28.34 c 17.72,21.07 37.22,40.57 58.31,58.28 l -28.35,33.77 c 22.97,19.32 47.66,36.66 73.78,51.78 l 22.05,-38.2 c 23.69,13.69 48.65,25.42 74.71,34.9 l -15.09,41.45 c 27.98,10.19 57.09,18.02 87.09,23.27 l 7.66,-43.44 c 26.68,4.67 54.12,7.12 82.13,7.12 l 0,-158.96 c -173.39,0 -313.96,-140.58 -313.96,-313.979 0,-173.39 140.57,-313.972 313.96,-313.972 l 0,-203.071 z m 82.15,982.872 c 27.43,-4.8 54.06,-11.98 79.65,-21.29 l 15.09,41.45 c 28.49,-10.37 55.79,-23.17 81.67,-38.15 l -22.06,-38.2 c 23.9,-13.84 46.5,-29.69 67.5,-47.35 l 28.35,33.77 c 23.04,-19.36 44.36,-40.68 63.71,-63.71 l -33.77,-28.35 c 17.66,-21.02 33.53,-43.6 47.35,-67.49 l 38.2,22.05 c 14.98,-25.88 27.78,-53.18 38.15,-81.67 l -41.47,-15.09 c 9.32,-25.59 16.5,-52.22 21.31,-79.66 l 43.43,7.66 c 5.11,-29.17 7.79,-59.17 7.79,-89.799 l -44.1,0 c 0,-28.011 -2.44,-55.461 -7.11,-82.133 l 43.42,-7.66 c -5.26,-29.988 -13.08,-59.097 -23.27,-87.09 l -41.45,15.09 c -9.49,-26.047 -21.2,-51.019 -34.9,-74.707 l 38.2,-22.051 c -15.13,-26.128 -32.47,-50.8 -51.78,-73.781 l -33.77,28.352 c -17.71,-21.09 -37.21,-40.602 -58.29,-58.301 l 28.35,-33.77 c -22.98,-19.308 -47.67,-36.66 -73.79,-51.781 l -22.06,38.211 c -23.68,-13.711 -48.64,-25.422 -74.7,-34.91 l 15.09,-41.441 c -27.98,-10.2 -57.09,-18.008 -87.09,-23.278 l -7.66,43.43 c -26.68,-4.66 -54.12,-7.121 -82.13,-7.121 l 0,-44.102 -0.01,0 0,203.071 0.01,0 c 173.39,0 313.97,140.582 313.97,313.972 0,173.399 -140.58,313.979 -313.97,313.979 l -0.01,0 0,158.96 0.01,0 0,44.1 c 30.63,0 60.62,-2.67 89.79,-7.78 l -7.65,-43.43"
         style="fill:#77bab9;fill-opacity:1;fill-rule:evenodd;stroke:none"
         id="path38" /><path
         d="m 7999.19,1823.72 -1375.5,0 c -115.16,0 -209.38,-94.23 -209.38,-209.38 l 0,-0.01 c 0,-115.15 94.22,-209.38 209.38,-209.38 l 1375.5,0 0,418.77"
         style="fill:#374f4e;fill-opacity:1;fill-rule:evenodd;stroke:none"
         id="path58" /><path
         d="m 7999.19,1854.53 -1375.5,0 c -66.08,0 -126.14,-27.02 -169.65,-70.54 -43.52,-43.51 -70.55,-103.57 -70.55,-169.65 l 0,-0.01 c 0,-66.08 27.03,-126.14 70.55,-169.65 43.51,-43.53 103.57,-70.54 169.65,-70.54 l 1375.5,0 0,61.62 -1375.5,0 c -49.07,0 -93.71,20.1 -126.1,52.48 -32.36,32.38 -52.48,77.02 -52.48,126.09 l 0,0.01 c 0,49.07 20.12,93.71 52.48,126.09 32.39,32.37 77.03,52.48 126.1,52.48 l 1375.5,0 0,61.62"
         style="fill:#ffffff;fill-opacity:1;fill-rule:nonzero;stroke:none"
         id="path60" /><path
         d="m 7999.19,1715.52 c -41.23,-15.12 -70.64,-54.71 -70.64,-101.19 0,-46.47 29.41,-86.06 70.64,-101.17 l 0,202.36"
         style="fill:#b9d6d4;fill-opacity:1;fill-rule:evenodd;stroke:none"
         id="path62" /><path
         d="m 7682.87,1722.06 c -59.5,0 -107.74,-48.22 -107.74,-107.73 0,-59.49 48.24,-107.72 107.74,-107.72 59.49,0 107.71,48.23 107.71,107.72 0,59.51 -48.22,107.73 -107.71,107.73"
         style="fill:#b9d6d4;fill-opacity:1;fill-rule:evenodd;stroke:none"
         id="path64" /><path
         d="m 7329.45,1722.06 c -59.47,0 -107.72,-48.22 -107.72,-107.73 0,-59.49 48.25,-107.72 107.72,-107.72 59.51,0 107.73,48.23 107.73,107.72 0,59.51 -48.22,107.73 -107.73,107.73"
         style="fill:#b9d6d4;fill-opacity:1;fill-rule:evenodd;stroke:none"
         id="path66" /><path
         d="m 6976.05,1722.06 c -59.49,0 -107.72,-48.22 -107.72,-107.73 0,-59.49 48.23,-107.72 107.72,-107.72 59.49,0 107.73,48.23 107.73,107.72 0,59.51 -48.24,107.73 -107.73,107.73"
         style="fill:#b9d6d4;fill-opacity:1;fill-rule:evenodd;stroke:none"
         id="path68" /><path
         d="m 6622.65,1722.06 c -59.49,0 -107.73,-48.22 -107.73,-107.73 0,-59.49 48.24,-107.72 107.73,-107.72 59.49,0 107.72,48.23 107.72,107.72 0,59.51 -48.23,107.73 -107.72,107.73"
         style="fill:#b9d6d4;fill-opacity:1;fill-rule:evenodd;stroke:none"
         id="path70" /><path
         d="m 7999.19,1642.91 -1386.42,0 c -15.72,0 -28.58,-12.87 -28.58,-28.57 l 0,-0.01 c 0,-15.7 12.88,-28.58 28.58,-28.58 l 1386.42,0 0,57.16"
         style="fill:#b9d6d4;fill-opacity:1;fill-rule:evenodd;stroke:none"
         id="path72" /><path
         d="m 7682.87,1649.15 c -19.24,0 -34.83,-15.58 -34.83,-34.81 0,-19.23 15.59,-34.82 34.83,-34.82 19.21,0 34.8,15.59 34.8,34.82 0,19.23 -15.59,34.81 -34.8,34.81"
         style="fill:#ffffff;fill-opacity:1;fill-rule:evenodd;stroke:none"
         id="path74" /><path
         d="m 7329.47,1649.15 c -19.24,0 -34.83,-15.58 -34.83,-34.81 0,-19.23 15.59,-34.82 34.83,-34.82 19.22,0 34.8,15.59 34.8,34.82 0,19.23 -15.58,34.81 -34.8,34.81"
         style="fill:#ffffff;fill-opacity:1;fill-rule:evenodd;stroke:none"
         id="path76" /><path
         d="m 6976.05,1649.15 c -19.22,0 -34.8,-15.58 -34.8,-34.81 0,-19.23 15.58,-34.82 34.8,-34.82 19.24,0 34.82,15.59 34.82,34.82 0,19.23 -15.58,34.81 -34.82,34.81"
         style="fill:#ffffff;fill-opacity:1;fill-rule:evenodd;stroke:none"
         id="path78" /><path
         d="m 6797.08,2382.51 c 45.94,-8.05 90.51,-20.06 133.36,-35.66 l 27.27,74.92 c 48.01,-17.47 94.02,-39.04 137.66,-64.3 l -39.87,-69.05 c 40.02,-23.16 77.82,-49.7 113.01,-79.26 l 51.21,61.05 c 38.85,-32.63 74.79,-68.58 107.42,-107.42 l -61.05,-51.22 c 29.55,-35.19 56.11,-72.98 79.28,-112.99 l 69.04,39.87 c 25.23,-43.64 46.82,-89.67 64.3,-137.67 l -74.95,-27.27 c 15.61,-42.85 27.62,-87.42 35.67,-133.36 l 78.49,13.84 c 8.62,-49.16 13.13,-99.72 13.13,-151.34 l -79.71,0 c 0,-46.91 -4.08,-92.85 -11.89,-137.52 l 78.47,-13.83 c -8.84,-50.57 -22.05,-99.64 -39.21,-146.8 l -74.93,27.27 c -15.87,-43.61 -35.48,-85.42 -58.41,-125.06 l 69.04,-39.86 c -25.49,-44.05 -54.75,-85.63 -87.27,-124.36 l -61.05,51.22 c -29.65,-35.28 -62.31,-67.94 -97.6,-97.589 l 51.23,-61.043 c -38.73,-32.527 -80.31,-61.777 -124.35,-87.269 l -39.87,69.062 c -39.65,-22.953 -81.44,-42.562 -125.06,-58.441 l 27.27,-74.91 c -47.17,-17.168 -96.23,-30.36 -146.78,-39.231 l -13.85,78.5 c -44.66,-7.82 -90.6,-11.918 -137.51,-11.918 l 0,-79.711 c -51.63,0 -102.19,4.508 -151.35,13.129 l 13.85,78.481 c -45.94,8.05 -90.51,20.058 -133.36,35.671 l -27.27,-74.921 c -48.01,17.468 -94.02,39.05 -137.68,64.289 l 39.89,69.062 c -40.02,23.149 -77.82,49.688 -113.01,79.25 l -51.21,-61.043 c -38.85,32.633 -74.79,68.572 -107.42,107.412 l 61.05,51.23 c -29.57,35.19 -56.13,72.97 -79.28,112.99 l -69.04,-39.86 c -25.25,43.63 -46.82,89.66 -64.3,137.65 l 74.95,27.29 c -15.61,42.84 -27.62,87.41 -35.67,133.35 l -78.49,-13.84 c -8.62,49.15 -13.15,99.72 -13.15,151.35 l 79.73,0 c 0,46.89 4.08,92.85 11.89,137.51 l -78.47,13.83 c 8.84,50.57 22.05,99.63 39.21,146.79 l 74.93,-27.26 c 15.88,43.6 35.46,85.42 58.41,125.06 l -69.04,39.87 c 25.49,44.03 54.73,85.61 87.27,124.35 l 61.05,-51.23 c 29.63,35.29 62.31,67.95 97.58,97.58 l -51.21,61.06 c 38.73,32.53 80.31,61.77 124.33,87.26 l 39.87,-69.04 c 39.65,22.94 81.46,42.56 125.08,58.43 l -27.27,74.91 c 47.15,17.17 96.23,30.37 146.78,39.23 l 13.85,-78.51 c 44.66,7.82 90.6,11.93 137.5,11.93 l 0,79.71 c 51.64,0 102.2,-4.52 151.36,-13.13 l -13.85,-78.49 z"
         style="fill:none;stroke:#d3ebeb;stroke-opacity:1;stroke-width:60.001;stroke-linecap:round;stroke-linejoin:round;stroke-miterlimit:22.9256;stroke-dasharray:none"
         id="path80" /><path
         d="m 6797.08,2382.51 c 45.94,-8.05 90.51,-20.06 133.36,-35.66 l 27.27,74.92 c 48.01,-17.47 94.02,-39.04 137.66,-64.3 l -39.87,-69.05 c 40.02,-23.16 77.82,-49.7 113.01,-79.26 l 51.21,61.05 c 38.85,-32.63 74.79,-68.58 107.42,-107.42 l -61.05,-51.22 c 29.55,-35.19 56.11,-72.98 79.28,-112.99 l 69.04,39.87 c 25.23,-43.64 46.82,-89.67 64.3,-137.67 l -74.95,-27.27 c 15.61,-42.85 27.62,-87.42 35.67,-133.36 l 78.49,13.84 c 8.62,-49.16 13.13,-99.72 13.13,-151.34 l -79.71,0 c 0,-46.91 -4.08,-92.85 -11.89,-137.52 l 78.47,-13.83 c -8.84,-50.57 -22.05,-99.64 -39.21,-146.8 l -74.93,27.27 c -15.87,-43.61 -35.48,-85.42 -58.41,-125.06 l 69.04,-39.86 c -25.49,-44.05 -54.75,-85.63 -87.27,-124.36 l -61.05,51.22 c -29.65,-35.28 -62.31,-67.94 -97.6,-97.589 l 51.23,-61.043 c -38.73,-32.527 -80.31,-61.777 -124.35,-87.269 l -39.87,69.062 c -39.65,-22.953 -81.44,-42.562 -125.06,-58.441 l 27.27,-74.91 c -47.17,-17.168 -96.23,-30.36 -146.78,-39.231 l -13.85,78.5 c -44.66,-7.82 -90.6,-11.918 -137.51,-11.918 l 0,-79.711 c -51.63,0 -102.19,4.508 -151.35,13.129 l 13.85,78.481 c -45.94,8.05 -90.51,20.058 -133.36,35.671 l -27.27,-74.921 c -48.01,17.468 -94.02,39.05 -137.68,64.289 l 39.89,69.062 c -40.02,23.149 -77.82,49.688 -113.01,79.25 l -51.21,-61.043 c -38.85,32.633 -74.79,68.572 -107.42,107.412 l 61.05,51.23 c -29.57,35.19 -56.13,72.97 -79.28,112.99 l -69.04,-39.86 c -25.25,43.63 -46.82,89.66 -64.3,137.65 l 74.95,27.29 c -15.61,42.84 -27.62,87.41 -35.67,133.35 l -78.49,-13.84 c -8.62,49.15 -13.15,99.72 -13.15,151.35 l 79.73,0 c 0,46.89 4.08,92.85 11.89,137.51 l -78.47,13.83 c 8.84,50.57 22.05,99.63 39.21,146.79 l 74.93,-27.26 c 15.88,43.6 35.46,85.42 58.41,125.06 l -69.04,39.87 c 25.49,44.03 54.73,85.61 87.27,124.35 l 61.05,-51.23 c 29.63,35.29 62.31,67.95 97.58,97.58 l -51.21,61.06 c 38.73,32.53 80.31,61.77 124.33,87.26 l 39.87,-69.04 c 39.65,22.94 81.46,42.56 125.08,58.43 l -27.27,74.91 c 47.15,17.17 96.23,30.37 146.78,39.23 l 13.85,-78.51 c 44.66,7.82 90.6,11.93 137.5,11.93 l 0,79.71 c 51.64,0 102.2,-4.52 151.36,-13.13 l -13.85,-78.49"
         style="fill:#539493;fill-opacity:1;fill-rule:evenodd;stroke:none"
         id="path82" /><path
         d="m 7999.19,3775.82 -2276.73,0 c -115.16,0 -209.38,-94.23 -209.38,-209.38 l 0,0 c 0,-115.16 94.22,-209.39 209.38,-209.39 l 2276.73,0 0,418.77"
         style="fill:#374f4e;fill-opacity:1;fill-rule:evenodd;stroke:none"
         id="path84" /><path
         d="m 7999.19,3806.63 -2276.73,0 c -66.08,0 -126.16,-27.01 -169.67,-70.53 -43.52,-43.51 -70.53,-103.58 -70.53,-169.66 l 0,0 c 0,-66.09 27.01,-126.15 70.53,-169.66 43.51,-43.53 103.59,-70.54 169.67,-70.54 l 2276.73,0 0,61.62 -2276.73,0 c -49.09,0 -93.71,20.11 -126.1,52.48 -32.38,32.39 -52.48,77.02 -52.48,126.1 l 0,0 c 0,49.08 20.1,93.72 52.48,126.09 32.37,32.37 77.01,52.48 126.1,52.48 l 2276.73,0 0,61.62"
         style="fill:#ffffff;fill-opacity:1;fill-rule:nonzero;stroke:none"
         id="path86" /><path
         d="m 7841.85,3674.17 c -59.49,0 -107.73,-48.23 -107.73,-107.73 0,-59.5 48.24,-107.73 107.73,-107.73 59.49,0 107.72,48.23 107.72,107.73 0,59.5 -48.23,107.73 -107.72,107.73"
         style="fill:#b9d6d4;fill-opacity:1;fill-rule:evenodd;stroke:none"
         id="path88" /><path
         d="m 7488.43,3674.17 c -59.49,0 -107.71,-48.23 -107.71,-107.73 0,-59.5 48.22,-107.73 107.71,-107.73 59.51,0 107.74,48.23 107.74,107.73 0,59.5 -48.23,107.73 -107.74,107.73"
         style="fill:#b9d6d4;fill-opacity:1;fill-rule:evenodd;stroke:none"
         id="path90" /><path
         d="m 7135.03,3674.17 c -59.49,0 -107.73,-48.23 -107.73,-107.73 0,-59.5 48.24,-107.73 107.73,-107.73 59.5,0 107.72,48.23 107.72,107.73 0,59.5 -48.22,107.73 -107.72,107.73"
         style="fill:#b9d6d4;fill-opacity:1;fill-rule:evenodd;stroke:none"
         id="path92" /><path
         d="m 6781.62,3674.17 c -59.5,0 -107.72,-48.23 -107.72,-107.73 0,-59.5 48.22,-107.73 107.72,-107.73 59.51,0 107.73,48.23 107.73,107.73 0,59.5 -48.22,107.73 -107.73,107.73"
         style="fill:#b9d6d4;fill-opacity:1;fill-rule:evenodd;stroke:none"
         id="path94" /><path
         d="m 6428.22,3674.17 c -59.49,0 -107.72,-48.23 -107.72,-107.73 0,-59.5 48.23,-107.73 107.72,-107.73 59.49,0 107.73,48.23 107.73,107.73 0,59.5 -48.24,107.73 -107.73,107.73"
         style="fill:#b9d6d4;fill-opacity:1;fill-rule:evenodd;stroke:none"
         id="path96" /><path
         d="m 6074.82,3674.17 c -59.49,0 -107.74,-48.23 -107.74,-107.73 0,-59.5 48.25,-107.73 107.74,-107.73 59.49,0 107.71,48.23 107.71,107.73 0,59.5 -48.22,107.73 -107.71,107.73"
         style="fill:#b9d6d4;fill-opacity:1;fill-rule:evenodd;stroke:none"
         id="path98" /><path
         d="m 5721.42,3674.17 c -59.51,0 -107.73,-48.23 -107.73,-107.73 0,-59.5 48.22,-107.73 107.73,-107.73 59.49,0 107.72,48.23 107.72,107.73 0,59.5 -48.23,107.73 -107.72,107.73"
         style="fill:#b9d6d4;fill-opacity:1;fill-rule:evenodd;stroke:none"
         id="path100" /><path
         d="m 7999.19,3595.01 -2287.65,0 c -15.72,0 -28.58,-12.87 -28.58,-28.57 l 0,0 c 0,-15.71 12.87,-28.58 28.58,-28.58 l 2287.65,0 0,57.15"
         style="fill:#b9d6d4;fill-opacity:1;fill-rule:evenodd;stroke:none"
         id="path102" /><path
         d="m 7841.85,3601.26 c -19.24,0 -34.82,-15.59 -34.82,-34.82 0,-19.22 15.58,-34.81 34.82,-34.81 19.22,0 34.81,15.59 34.81,34.81 0,19.23 -15.59,34.82 -34.81,34.82"
         style="fill:#ffffff;fill-opacity:1;fill-rule:evenodd;stroke:none"
         id="path104" /><path
         d="m 7488.43,3601.26 c -19.22,0 -34.8,-15.59 -34.8,-34.82 0,-19.22 15.58,-34.81 34.8,-34.81 19.24,0 34.83,15.59 34.83,34.81 0,19.23 -15.59,34.82 -34.83,34.82"
         style="fill:#ffffff;fill-opacity:1;fill-rule:evenodd;stroke:none"
         id="path106" /><path
         d="m 7135.03,3601.26 c -19.23,0 -34.82,-15.59 -34.82,-34.82 0,-19.22 15.59,-34.81 34.82,-34.81 19.22,0 34.81,15.59 34.81,34.81 0,19.23 -15.59,34.82 -34.81,34.82"
         style="fill:#ffffff;fill-opacity:1;fill-rule:evenodd;stroke:none"
         id="path108" /><path
         d="m 6781.64,3601.26 c -19.24,0 -34.83,-15.59 -34.83,-34.82 0,-19.22 15.59,-34.81 34.83,-34.81 19.21,0 34.8,15.59 34.8,34.81 0,19.23 -15.59,34.82 -34.8,34.82"
         style="fill:#ffffff;fill-opacity:1;fill-rule:evenodd;stroke:none"
         id="path110" /><path
         d="m 6428.22,3601.26 c -19.22,0 -34.81,-15.59 -34.81,-34.82 0,-19.22 15.59,-34.81 34.81,-34.81 19.24,0 34.82,15.59 34.82,34.81 0,19.23 -15.58,34.82 -34.82,34.82"
         style="fill:#ffffff;fill-opacity:1;fill-rule:evenodd;stroke:none"
         id="path112" /><path
         d="m 6074.82,3601.26 c -19.24,0 -34.82,-15.59 -34.82,-34.82 0,-19.22 15.58,-34.81 34.82,-34.81 19.22,0 34.8,15.59 34.8,34.81 0,19.23 -15.58,34.82 -34.8,34.82"
         style="fill:#ffffff;fill-opacity:1;fill-rule:evenodd;stroke:none"
         id="path114" /><path
         d="m 6074.82,3531.63 c 19.18,0 34.8,15.64 34.8,34.82 0,19.17 -15.62,34.81 -34.8,34.81 -19.18,0 -34.82,-15.64 -34.82,-34.81 0,-19.18 15.64,-34.82 34.82,-34.82"
         style="fill:#ffffff;fill-opacity:1;fill-rule:evenodd;stroke:none"
         id="path116" /><path
         d="m 3858.38,1981.01 1748.53,1748.53 c 81.44,81.43 214.69,81.43 296.11,0 l 0,-0.01 c 81.43,-81.41 81.43,-214.68 0,-296.1 L 4154.51,1684.89 c -81.43,-81.42 -214.69,-81.42 -296.12,0 l -0.01,0 c -81.42,81.44 -81.42,214.69 0,296.12"
         style="fill:#374f4e;fill-opacity:1;fill-rule:evenodd;stroke:none"
         id="path118" /><path
         d="m 3836.6,2002.8 1044.1,1044.11 0,-87.15 -1000.52,-1000.54 c -34.71,-34.7 -52.06,-80.48 -52.06,-126.27 0,-45.78 17.35,-91.56 52.06,-126.26 l 0,-0.01 c 34.7,-34.7 80.48,-52.05 126.27,-52.05 45.79,0 91.57,17.35 126.26,52.05 l 747.99,748 0,-87.15 -704.42,-704.42 c -46.71,-46.73 -108.3,-70.09 -169.83,-70.09 -61.55,0 -123.12,23.36 -169.85,70.09 l 0,0.01 c -46.73,46.71 -70.09,108.29 -70.09,169.83 0,61.54 23.36,123.12 70.09,169.85 z m 1044.1,1044.11 704.43,704.42 c 46.72,46.73 108.3,70.09 169.85,70.09 61.54,0 123.1,-23.36 169.84,-70.09 l 0,-0.01 c 46.72,-46.73 70.1,-108.29 70.1,-169.84 0,-61.55 -23.38,-123.11 -70.1,-169.85 l -1044.12,-1044.1 0,87.15 1000.55,1000.54 c 34.7,34.69 52.05,80.47 52.05,126.26 0,45.79 -17.35,91.57 -52.05,126.26 l 0,0.01 c -34.71,34.7 -80.49,52.06 -126.27,52.06 -45.79,0 -91.57,-17.36 -126.27,-52.06 l -748.01,-747.99 0,87.15"
         style="fill:#ffffff;fill-opacity:1;fill-rule:nonzero;stroke:none"
         id="path120" /><path
         d="m 3930.27,1909.13 c 42.07,42.06 110.27,42.06 152.34,0 42.07,-42.07 42.07,-110.28 0,-152.35 -42.07,-42.07 -110.27,-42.07 -152.34,0 -42.07,42.07 -42.07,110.28 0,152.35"
         style="fill:#b9d6d4;fill-opacity:1;fill-rule:evenodd;stroke:none"
         id="path122" /><path
         d="m 4180.17,2159.01 c 42.07,42.07 110.27,42.07 152.34,0 42.07,-42.06 42.07,-110.27 0,-152.34 -42.07,-42.07 -110.27,-42.07 -152.34,0 -42.07,42.07 -42.07,110.28 0,152.34"
         style="fill:#b9d6d4;fill-opacity:1;fill-rule:evenodd;stroke:none"
         id="path124" /><path
         d="m 4430.05,2408.92 c 42.07,42.07 110.28,42.07 152.37,0 42.07,-42.07 42.07,-110.28 0,-152.35 -42.09,-42.07 -110.3,-42.07 -152.37,0 -42.07,42.07 -42.07,110.28 0,152.35"
         style="fill:#b9d6d4;fill-opacity:1;fill-rule:evenodd;stroke:none"
         id="path126" /><path
         d="m 4679.96,2658.81 c 42.07,42.07 110.27,42.07 152.34,0 42.07,-42.07 42.07,-110.27 0,-152.34 -42.07,-42.07 -110.27,-42.07 -152.34,0 -42.07,42.07 -42.07,110.27 0,152.34"
         style="fill:#b9d6d4;fill-opacity:1;fill-rule:evenodd;stroke:none"
         id="path128" /><path
         d="m 4929.86,2908.7 c 42.07,42.07 110.27,42.07 152.34,0 42.07,-42.07 42.07,-110.27 0,-152.34 -42.07,-42.07 -110.27,-42.07 -152.34,0 -42.07,42.07 -42.07,110.27 0,152.34"
         style="fill:#b9d6d4;fill-opacity:1;fill-rule:evenodd;stroke:none"
         id="path130" /><path
         d="m 5179.74,3158.6 c 42.07,42.07 110.27,42.07 152.34,0 42.08,-42.07 42.08,-110.27 0,-152.35 -42.07,-42.06 -110.27,-42.06 -152.34,0 -42.07,42.08 -42.07,110.28 0,152.35"
         style="fill:#b9d6d4;fill-opacity:1;fill-rule:evenodd;stroke:none"
         id="path132" /><path
         d="m 5429.64,3408.5 c 42.07,42.07 110.28,42.07 152.35,0 42.07,-42.07 42.07,-110.29 0,-152.35 -42.07,-42.08 -110.28,-42.08 -152.35,0 -42.07,42.06 -42.07,110.28 0,152.35"
         style="fill:#b9d6d4;fill-opacity:1;fill-rule:evenodd;stroke:none"
         id="path134" /><path
         d="m 5679.53,3658.39 c 42.09,42.07 110.29,42.07 152.36,0 42.07,-42.07 42.07,-110.27 0,-152.34 -42.07,-42.07 -110.27,-42.07 -152.36,0 -42.05,42.07 -42.05,110.27 0,152.34"
         style="fill:#b9d6d4;fill-opacity:1;fill-rule:evenodd;stroke:none"
         id="path136" /><path
         d="M 3983.42,1850.34 5742.5,3609.41 c 11.11,11.12 29.29,11.11 40.41,0 l 0,0 c 11.09,-11.11 11.09,-29.31 0,-40.42 L 4023.82,1809.92 c -11.09,-11.1 -29.28,-11.11 -40.4,0 l 0,0.01 c -11.12,11.12 -11.12,29.29 0,40.41"
         style="fill:#b9d6d4;fill-opacity:1;fill-rule:evenodd;stroke:none"
         id="path138" /><path
         d="m 5505.82,3297.51 c 19.18,0 34.8,15.65 34.8,34.81 0,19.18 -15.62,34.82 -34.8,34.82 -19.18,0 -34.83,-15.64 -34.83,-34.82 0,-19.16 15.65,-34.81 34.83,-34.81"
         style="fill:#ffffff;fill-opacity:1;fill-rule:evenodd;stroke:none"
         id="path140" /><path
         d="m 5255.91,3047.62 c 19.18,0 34.83,15.63 34.83,34.81 0,19.18 -15.65,34.82 -34.83,34.82 -19.16,0 -34.8,-15.64 -34.8,-34.82 0,-19.18 15.64,-34.81 34.8,-34.81"
         style="fill:#ffffff;fill-opacity:1;fill-rule:evenodd;stroke:none"
         id="path142" /><path
         d="m 5006.03,2797.73 c 19.16,0 34.8,15.63 34.8,34.81 0,19.17 -15.64,34.81 -34.8,34.81 -19.18,0 -34.82,-15.64 -34.82,-34.81 0,-19.18 15.64,-34.81 34.82,-34.81"
         style="fill:#ffffff;fill-opacity:1;fill-rule:evenodd;stroke:none"
         id="path144" /><path
         d="m 4756.13,2547.82 c 19.18,0 34.82,15.65 34.82,34.83 0,19.17 -15.64,34.8 -34.82,34.8 -19.18,0 -34.81,-15.63 -34.81,-34.8 0,-19.18 15.63,-34.83 34.81,-34.83"
         style="fill:#ffffff;fill-opacity:1;fill-rule:evenodd;stroke:none"
         id="path146" /><path
         d="m 4506.23,2297.93 c 19.18,0 34.82,15.64 34.82,34.81 0,19.18 -15.64,34.82 -34.82,34.82 -19.16,0 -34.81,-15.64 -34.81,-34.82 0,-19.17 15.65,-34.81 34.81,-34.81"
         style="fill:#ffffff;fill-opacity:1;fill-rule:evenodd;stroke:none"
         id="path148" /><path
         d="m 4256.34,2048.04 c 19.18,0 34.81,15.63 34.81,34.81 0,19.17 -15.63,34.82 -34.81,34.82 -19.18,0 -34.82,-15.65 -34.82,-34.82 0,-19.18 15.64,-34.81 34.82,-34.81"
         style="fill:#ffffff;fill-opacity:1;fill-rule:evenodd;stroke:none"
         id="path150" /><path
         d="m 4256.34,2048.04 c 19.18,0 34.81,15.63 34.81,34.81 0,19.17 -15.63,34.82 -34.81,34.82 -19.18,0 -34.82,-15.65 -34.82,-34.82 0,-19.18 15.64,-34.81 34.82,-34.81"
         style="fill:#ffffff;fill-opacity:1;fill-rule:evenodd;stroke:none"
         id="path152" /><path
         d="m 4009.18,2041.36 -2472.8,0 c -115.16,0 -209.38,-94.23 -209.38,-209.39 l 0,0 c 0,-115.15 94.23,-209.38 209.38,-209.38 l 2472.8,0 c 115.15,0 209.37,94.22 209.37,209.38 l 0,0 c 0,115.17 -94.22,209.39 -209.37,209.39"
         style="fill:#374f4e;fill-opacity:1;fill-rule:evenodd;stroke:none"
         id="path154" /><path
         d="m 2772.78,2072.17 -1236.4,0 c -66.08,0 -126.14,-27.02 -169.66,-70.54 -43.52,-43.51 -70.53,-103.57 -70.53,-169.66 l 0,0 c 0,-66.08 27.01,-126.14 70.53,-169.65 43.52,-43.53 103.58,-70.54 169.66,-70.54 l 1236.4,0 0,61.62 -1236.4,0 c -49.08,0 -93.71,20.11 -126.09,52.48 -32.37,32.37 -52.48,77.02 -52.48,126.09 l 0,0 c 0,49.08 20.11,93.72 52.48,126.1 32.38,32.37 77.01,52.48 126.09,52.48 l 1236.4,0 0,61.62 z m 1236.4,0 -1236.4,0 0,-61.62 1236.4,0 c 49.08,0 93.73,-20.11 126.09,-52.48 32.38,-32.38 52.48,-77.02 52.48,-126.1 l 0,0 c 0,-49.07 -20.1,-93.72 -52.48,-126.09 -32.38,-32.37 -77.01,-52.48 -126.09,-52.48 l -1236.4,0 0,-61.62 1236.4,0 c 66.09,0 126.15,27.01 169.66,70.54 43.52,43.51 70.53,103.57 70.53,169.65 l 0,0 c 0,66.09 -27.01,126.15 -70.53,169.66 -43.51,43.52 -103.57,70.54 -169.66,70.54"
         style="fill:#ffffff;fill-opacity:1;fill-rule:nonzero;stroke:none"
         id="path156" /><path
         d="m 4009.18,1724.25 c 59.33,0 107.73,48.4 107.73,107.72 0,59.34 -48.4,107.73 -107.73,107.73 -59.34,0 -107.72,-48.39 -107.72,-107.73 0,-59.32 48.38,-107.72 107.72,-107.72"
         style="fill:#b9d6d4;fill-opacity:1;fill-rule:evenodd;stroke:none"
         id="path158" /><path
         d="m 3655.78,1724.25 c 59.33,0 107.72,48.4 107.72,107.72 0,59.34 -48.39,107.73 -107.72,107.73 -59.33,0 -107.73,-48.39 -107.73,-107.73 0,-59.32 48.4,-107.72 107.73,-107.72"
         style="fill:#b9d6d4;fill-opacity:1;fill-rule:evenodd;stroke:none"
         id="path160" /><path
         d="m 3302.37,1724.25 c 59.33,0 107.73,48.4 107.73,107.72 0,59.34 -48.4,107.73 -107.73,107.73 -59.33,0 -107.73,-48.39 -107.73,-107.73 0,-59.32 48.4,-107.72 107.73,-107.72"
         style="fill:#b9d6d4;fill-opacity:1;fill-rule:evenodd;stroke:none"
         id="path162" /><path
         d="m 2948.96,1724.25 c 59.34,0 107.73,48.4 107.73,107.72 0,59.34 -48.39,107.73 -107.73,107.73 -59.33,0 -107.72,-48.39 -107.72,-107.73 0,-59.32 48.39,-107.72 107.72,-107.72"
         style="fill:#b9d6d4;fill-opacity:1;fill-rule:evenodd;stroke:none"
         id="path164" /><path
         d="m 2595.56,1724.25 c 59.33,0 107.73,48.4 107.73,107.72 0,59.34 -48.4,107.73 -107.73,107.73 -59.33,0 -107.73,-48.39 -107.73,-107.73 0,-59.32 48.4,-107.72 107.73,-107.72"
         style="fill:#b9d6d4;fill-opacity:1;fill-rule:evenodd;stroke:none"
         id="path166" /><path
         d="m 2242.16,1724.25 c 59.33,0 107.72,48.4 107.72,107.72 0,59.34 -48.39,107.73 -107.72,107.73 -59.34,0 -107.73,-48.39 -107.73,-107.73 0,-59.32 48.39,-107.72 107.73,-107.72"
         style="fill:#b9d6d4;fill-opacity:1;fill-rule:evenodd;stroke:none"
         id="path168" /><path
         d="m 1888.75,1724.25 c 59.34,0 107.72,48.4 107.72,107.72 0,59.34 -48.38,107.73 -107.72,107.73 -59.34,0 -107.73,-48.39 -107.73,-107.73 0,-59.32 48.39,-107.72 107.73,-107.72"
         style="fill:#b9d6d4;fill-opacity:1;fill-rule:evenodd;stroke:none"
         id="path170" /><path
         d="m 1535.35,1724.25 c 59.33,0 107.72,48.4 107.72,107.72 0,59.34 -48.39,107.73 -107.72,107.73 -59.34,0 -107.73,-48.39 -107.73,-107.73 0,-59.32 48.39,-107.72 107.73,-107.72"
         style="fill:#b9d6d4;fill-opacity:1;fill-rule:evenodd;stroke:none"
         id="path172" /><path
         d="m 4013.16,1860.55 -2487.7,0 c -15.71,0 -28.57,-12.87 -28.57,-28.58 l 0,0 c 0,-15.7 12.87,-28.57 28.57,-28.57 l 2487.7,0 c 15.7,0 28.57,12.85 28.57,28.57 l 0,0 c 0,15.73 -12.85,28.58 -28.57,28.58"
         style="fill:#b9d6d4;fill-opacity:1;fill-rule:evenodd;stroke:none"
         id="path174" /><path
         d="m 3655.77,1797.16 c 19.18,0 34.82,15.64 34.82,34.81 0,19.18 -15.64,34.82 -34.82,34.82 -19.17,0 -34.81,-15.64 -34.81,-34.82 0,-19.17 15.64,-34.81 34.81,-34.81"
         style="fill:#ffffff;fill-opacity:1;fill-rule:evenodd;stroke:none"
         id="path176" /><path
         d="m 3302.37,1797.16 c 19.18,0 34.82,15.64 34.82,34.81 0,19.18 -15.64,34.82 -34.82,34.82 -19.18,0 -34.82,-15.64 -34.82,-34.82 0,-19.17 15.64,-34.81 34.82,-34.81"
         style="fill:#ffffff;fill-opacity:1;fill-rule:evenodd;stroke:none"
         id="path178" /><path
         d="m 2948.96,1797.16 c 19.18,0 34.82,15.64 34.82,34.81 0,19.18 -15.64,34.82 -34.82,34.82 -19.17,0 -34.81,-15.64 -34.81,-34.82 0,-19.17 15.64,-34.81 34.81,-34.81"
         style="fill:#ffffff;fill-opacity:1;fill-rule:evenodd;stroke:none"
         id="path180" /><path
         d="m 2595.56,1797.16 c 19.18,0 34.82,15.64 34.82,34.81 0,19.18 -15.64,34.82 -34.82,34.82 -19.18,0 -34.81,-15.64 -34.81,-34.82 0,-19.17 15.63,-34.81 34.81,-34.81"
         style="fill:#ffffff;fill-opacity:1;fill-rule:evenodd;stroke:none"
         id="path182" /><path
         d="m 2242.16,1797.16 c 19.17,0 34.81,15.64 34.81,34.81 0,19.18 -15.64,34.82 -34.81,34.82 -19.18,0 -34.82,-15.64 -34.82,-34.82 0,-19.17 15.64,-34.81 34.82,-34.81"
         style="fill:#ffffff;fill-opacity:1;fill-rule:evenodd;stroke:none"
         id="path184" /><path
         d="m 1888.75,1797.16 c 19.17,0 34.81,15.64 34.81,34.81 0,19.18 -15.64,34.82 -34.81,34.82 -19.17,0 -34.81,-15.64 -34.81,-34.82 0,-19.17 15.64,-34.81 34.81,-34.81"
         style="fill:#ffffff;fill-opacity:1;fill-rule:evenodd;stroke:none"
         id="path186" /><path
         d="m 2166.77,2072.16 1088.39,0 0,1091.52 -1088.39,0 0,-1091.52 z"
         style="fill:#ffd4b8;fill-opacity:1;fill-rule:evenodd;stroke:none"
         id="path188" /><path
         d="m 2610.56,2072.17 200.801,0 0,1091.51 -200.801,0 0,-1091.51 z"
         style="fill:#fff9f5;fill-opacity:1;fill-rule:evenodd;stroke:none"
         id="path190" /><path
         d="m 2437.88,2072.16 0,135.96 -43,0 66.62,121.73 66.62,-121.73 -43,0 0,-135.96 -47.24,0"
         style="fill:#fff9f5;fill-opacity:1;fill-rule:nonzero;stroke:none"
         id="path192" /><path
         d="m 2265.63,2072.16 0,135.96 -42.99,0 66.62,121.73 66.61,-121.73 -42.99,0 0,-135.96 -47.25,0"
         style="fill:#fff9f5;fill-opacity:1;fill-rule:nonzero;stroke:none"
         id="path194" /><path
         d="m 3937,2241.3 c -24.11,-4.22 -47.51,-10.53 -69.99,-18.71 l -13.26,36.42 c -25.02,-9.11 -49.02,-20.37 -71.77,-33.52 l 19.38,-33.57 c -21,-12.15 -40.84,-26.09 -59.3,-41.61 l -24.91,29.68 c -20.25,-17 -38.99,-35.74 -56,-56 l 29.68,-24.9 c -15.51,-18.46 -29.45,-38.31 -41.6,-59.3 l -33.57,19.38 c -13.16,-22.75 -24.41,-46.75 -33.52,-71.77 l 36.43,-13.26 c -8.18,-22.49 -14.49,-45.89 -18.71,-69.99 l -38.17,6.72 c -4.49,-25.63 -6.84,-51.98 -6.84,-78.9 l 38.75,0 c 0,-24.62 2.14,-48.74 6.25,-72.17 l -38.16,-6.73 c 4.62,-26.36 11.5,-51.95 20.45,-76.53 l 36.42,13.26 c 8.33,-22.89 18.63,-44.84 30.66,-65.65 l -33.56,-19.37 c 13.29,-22.96 28.53,-44.64 45.49,-64.83 l 29.68,24.89 c 15.56,-18.51 32.71,-35.65 51.23,-51.21 l -24.91,-29.68 c 20.19,-16.97 41.87,-32.21 64.83,-45.5 l 19.38,33.57 c 20.81,-12.03 42.76,-22.33 65.65,-30.66 l -13.26,-36.43 c 24.58,-8.94 50.17,-15.83 76.52,-20.45 l 6.73,38.18 c 23.44,-4.11 47.56,-6.26 72.18,-6.26 l 0,-38.75 c 26.91,0 53.28,2.35 78.9,6.83 l -6.74,38.17 c 24.12,4.22 47.52,10.52 70,18.71 l 13.26,-36.43 c 25.02,9.11 49.03,20.36 71.78,33.52 l -19.39,33.57 c 20.99,12.16 40.84,26.1 59.31,41.6 l 24.91,-29.67 c 20.25,17.01 38.98,35.75 55.99,56 l -29.69,24.9 c 15.53,18.47 29.46,38.31 41.61,59.3 l 33.57,-19.37 c 13.16,22.75 24.41,46.74 33.52,71.76 l -36.43,13.27 c 8.18,22.49 14.49,45.87 18.71,69.99 l 38.17,-6.73 c 4.49,25.62 6.85,51.99 6.85,78.9 l -38.75,0 c 0,24.62 -2.15,48.74 -6.25,72.18 l 38.15,6.72 c -4.61,26.37 -11.49,51.94 -20.45,76.53 l -36.43,-13.26 c -8.32,22.89 -18.61,44.84 -30.66,65.65 l 33.57,19.38 c -13.28,22.96 -28.53,44.64 -45.49,64.82 l -29.69,-24.9 c -15.54,18.53 -32.69,35.67 -51.21,51.22 l 24.91,29.68 c -20.2,16.96 -41.88,32.21 -64.83,45.5 l -19.39,-33.57 c -20.8,12.04 -42.76,22.34 -65.65,30.67 l 13.26,36.42 c -24.59,8.95 -50.15,15.82 -76.52,20.45 l -6.74,-38.17 c -23.43,4.1 -47.56,6.26 -72.16,6.26 l 0,38.75 c -26.92,0 -53.28,-2.35 -78.91,-6.84 l 6.73,-38.16 z"
         style="fill:none;stroke:#d3ebeb;stroke-opacity:1;stroke-width:60.001;stroke-linecap:round;stroke-linejoin:round;stroke-miterlimit:22.9256;stroke-dasharray:none"
         id="path196" /><path
         d="m 3937,2241.3 c -24.11,-4.22 -47.51,-10.53 -69.99,-18.71 l -13.26,36.42 c -25.02,-9.11 -49.02,-20.37 -71.77,-33.52 l 19.38,-33.57 c -21,-12.15 -40.84,-26.09 -59.3,-41.61 l -24.91,29.68 c -20.25,-17 -38.99,-35.74 -56,-56 l 29.68,-24.9 c -15.51,-18.46 -29.45,-38.31 -41.6,-59.3 l -33.57,19.38 c -13.16,-22.75 -24.41,-46.75 -33.52,-71.77 l 36.43,-13.26 c -8.18,-22.49 -14.49,-45.89 -18.71,-69.99 l -38.17,6.72 c -4.49,-25.63 -6.84,-51.98 -6.84,-78.9 l 38.75,0 c 0,-24.62 2.14,-48.74 6.25,-72.17 l -38.16,-6.73 c 4.62,-26.36 11.5,-51.95 20.45,-76.53 l 36.42,13.26 c 8.33,-22.89 18.63,-44.84 30.66,-65.65 l -33.56,-19.37 c 13.29,-22.96 28.53,-44.64 45.49,-64.83 l 29.68,24.89 c 15.56,-18.51 32.71,-35.65 51.23,-51.21 l -24.91,-29.68 c 20.19,-16.97 41.87,-32.21 64.83,-45.5 l 19.38,33.57 c 20.81,-12.03 42.76,-22.33 65.65,-30.66 l -13.26,-36.43 c 24.58,-8.94 50.17,-15.83 76.52,-20.45 l 6.73,38.18 c 23.44,-4.11 47.56,-6.26 72.18,-6.26 l 0,-38.75 c 26.91,0 53.28,2.35 78.9,6.83 l -6.74,38.17 c 24.12,4.22 47.52,10.52 70,18.71 l 13.26,-36.43 c 25.02,9.11 49.03,20.36 71.78,33.52 l -19.39,33.57 c 20.99,12.16 40.84,26.1 59.31,41.6 l 24.91,-29.67 c 20.25,17.01 38.98,35.75 55.99,56 l -29.69,24.9 c 15.53,18.47 29.46,38.31 41.61,59.3 l 33.57,-19.37 c 13.16,22.75 24.41,46.74 33.52,71.76 l -36.43,13.27 c 8.18,22.49 14.49,45.87 18.71,69.99 l 38.17,-6.73 c 4.49,25.62 6.85,51.99 6.85,78.9 l -38.75,0 c 0,24.62 -2.15,48.74 -6.25,72.18 l 38.15,6.72 c -4.61,26.37 -11.49,51.94 -20.45,76.53 l -36.43,-13.26 c -8.32,22.89 -18.61,44.84 -30.66,65.65 l 33.57,19.38 c -13.28,22.96 -28.53,44.64 -45.49,64.82 l -29.69,-24.9 c -15.54,18.53 -32.69,35.67 -51.21,51.22 l 24.91,29.68 c -20.2,16.96 -41.88,32.21 -64.83,45.5 l -19.39,-33.57 c -20.8,12.04 -42.76,22.34 -65.65,30.67 l 13.26,36.42 c -24.59,8.95 -50.15,15.82 -76.52,20.45 l -6.74,-38.17 c -23.43,4.1 -47.56,6.26 -72.16,6.26 l 0,38.75 c -26.92,0 -53.28,-2.35 -78.91,-6.84 l 6.73,-38.16"
         style="fill:#539493;fill-opacity:1;fill-rule:evenodd;stroke:none"
         id="path198" /><path
         d="m 6228.43,3806.63 1088.38,0 0,1091.53 -1088.38,0 0,-1091.53 z"
         style="fill:#ffd4b8;fill-opacity:1;fill-rule:evenodd;stroke:none"
         id="path200" /><path
         d="m 6672.22,3806.64 200.781,0 0,1091.52 -200.781,0 0,-1091.52 z"
         style="fill:#fff9f5;fill-opacity:1;fill-rule:evenodd;stroke:none"
         id="path202" /><path
         d="m 6499.53,3806.63 0,135.96 -42.99,0 66.62,121.74 66.62,-121.74 -43.01,0 0,-135.96 -47.24,0"
         style="fill:#fff9f5;fill-opacity:1;fill-rule:nonzero;stroke:none"
         id="path204" /><path
         d="m 6327.3,3806.63 0,135.96 -43.01,0 66.62,121.74 66.62,-121.74 -43,0 0,-135.96 -47.23,0"
         style="fill:#fff9f5;fill-opacity:1;fill-rule:nonzero;stroke:none"
         id="path206" /><path
         d="m 780.484,2041.36 -780.484,0 0,-418.77 780.484,0 c 115.153,0 209.379,94.22 209.379,209.38 l 0,0 c 0,115.17 -94.218,209.39 -209.379,209.39"
         style="fill:#374f4e;fill-opacity:1;fill-rule:evenodd;stroke:none"
         id="path208" /><path
         d="m 780.484,2072.17 -780.484,0 0,-61.62 780.484,0 c 49.071,0 93.719,-20.11 126.086,-52.48 32.379,-32.38 52.485,-77.02 52.485,-126.1 l 0,0 c 0,-49.07 -20.106,-93.72 -52.485,-126.09 -32.375,-32.37 -77.015,-52.48 -126.086,-52.48 l -780.484,0 0,-61.62 780.484,0 c 66.078,0 126.141,27.01 169.657,70.54 43.519,43.51 70.539,103.57 70.539,169.65 l 0,0 c 0,66.09 -27.02,126.15 -70.539,169.66 -43.516,43.52 -103.579,70.54 -169.657,70.54"
         style="fill:#ffffff;fill-opacity:1;fill-rule:nonzero;stroke:none"
         id="path210" /><path
         d="m 780.484,1939.7 c -59.5,0 -107.726,-48.22 -107.726,-107.73 0,-59.49 48.226,-107.72 107.726,-107.72 59.496,0 107.723,48.23 107.723,107.72 0,59.51 -48.227,107.73 -107.723,107.73"
         style="fill:#b9d6d4;fill-opacity:1;fill-rule:evenodd;stroke:none"
         id="path212" /><path
         d="m 427.078,1939.7 c -59.496,0 -107.726,-48.22 -107.726,-107.73 0,-59.49 48.23,-107.72 107.726,-107.72 59.5,0 107.727,48.23 107.727,107.72 0,59.51 -48.227,107.73 -107.727,107.73"
         style="fill:#b9d6d4;fill-opacity:1;fill-rule:evenodd;stroke:none"
         id="path214" /><path
         d="M 73.6719,1939.7 C 45.1758,1939.7 19.2695,1928.63 0,1910.56 l 0,-157.17 c 19.2695,-18.07 45.1758,-29.14 73.6719,-29.14 59.4961,0 107.7301,48.23 107.7301,107.72 0,59.51 -48.234,107.73 -107.7301,107.73"
         style="fill:#b9d6d4;fill-opacity:1;fill-rule:evenodd;stroke:none"
         id="path216" /><path
         d="m 784.473,1860.55 -784.473,0 0,-57.15 784.473,0 c 15.703,0 28.574,12.85 28.574,28.57 l 0,0 c 0,15.73 -12.856,28.58 -28.574,28.58"
         style="fill:#b9d6d4;fill-opacity:1;fill-rule:evenodd;stroke:none"
         id="path218" /><path
         d="m 427.074,1866.79 c -19.226,0 -34.812,-15.59 -34.812,-34.82 0,-19.23 15.586,-34.81 34.812,-34.81 19.231,0 34.817,15.58 34.817,34.81 0,19.23 -15.586,34.82 -34.817,34.82"
         style="fill:#ffffff;fill-opacity:1;fill-rule:evenodd;stroke:none"
         id="path220" /><path
         d="m 73.6719,1866.79 c -19.2266,0 -34.8164,-15.59 -34.8164,-34.82 0,-19.23 15.5898,-34.81 34.8164,-34.81 19.2304,0 34.8121,15.58 34.8121,34.81 0,19.23 -15.5817,34.82 -34.8121,34.82"
         style="fill:#ffffff;fill-opacity:1;fill-rule:evenodd;stroke:none"
         id="path222" /><path
         d="m 437.48,1591.78 1254.18,0 0,2062.81 -1254.18,0 0,-2062.81 z"
         style="fill:none;stroke:#d3ebeb;stroke-opacity:1;stroke-width:60.001;stroke-linecap:round;stroke-linejoin:round;stroke-miterlimit:22.9256;stroke-dasharray:none"
         id="path224" /><path
         d="m 437.48,1591.78 1254.18,0 0,2062.81 -1254.18,0 0,-2062.81 z"
         style="fill:#539493;fill-opacity:1;fill-rule:evenodd;stroke:none"
         id="path226" /><path
         d="m 5675.91,3978.32 c -24.12,-4.23 -47.5,-10.52 -70,-18.71 l -13.26,36.43 c -25.02,-9.12 -49,-20.37 -71.76,-33.53 l 19.38,-33.57 c -21,-12.15 -40.84,-26.09 -59.3,-41.61 l -24.9,29.69 c -20.25,-17.01 -39,-35.75 -56.02,-55.99 l 29.69,-24.92 c -15.51,-18.46 -29.45,-38.31 -41.6,-59.3 l -33.57,19.38 c -13.17,-22.75 -24.42,-46.75 -33.52,-71.77 l 36.45,-13.26 c -8.21,-22.49 -14.52,-45.88 -18.74,-70 l -38.16,6.74 c -4.49,-25.62 -6.84,-51.99 -6.84,-78.91 l 38.75,0 c 0,-24.61 2.13,-48.73 6.25,-72.17 l -38.16,-6.73 c 4.61,-26.36 11.5,-51.93 20.45,-76.52 l 36.43,13.26 c 8.32,-22.89 18.61,-44.85 30.66,-65.65 l -33.57,-19.38 c 13.28,-22.96 28.53,-44.64 45.5,-64.83 l 29.67,24.9 c 15.57,-18.52 32.7,-35.67 51.23,-51.21 l -24.9,-29.69 c 20.18,-16.96 41.85,-32.21 64.82,-45.49 l 19.38,33.56 c 20.82,-12.04 42.75,-22.33 65.64,-30.66 l -13.26,-36.43 c 24.59,-8.94 50.18,-15.83 76.52,-20.44 l 6.74,38.17 c 23.44,-4.1 47.56,-6.26 72.17,-6.26 l 0,-38.76 c 26.92,0 53.28,2.36 78.91,6.85 l -6.72,38.16 c 24.1,4.22 47.5,10.53 69.98,18.71 l 13.26,-36.43 c 25.02,9.12 49.02,20.37 71.78,33.53 l -19.4,33.56 c 21.02,12.16 40.84,26.1 59.32,41.62 l 24.9,-29.69 c 20.26,17.01 38.99,35.75 56,56 l -29.69,24.91 c 15.53,18.46 29.47,38.3 41.62,59.3 l 33.56,-19.38 c 13.16,22.74 24.41,46.75 33.53,71.77 l -36.44,13.26 c 8.18,22.49 14.49,45.88 18.71,69.99 l 38.18,-6.73 c 4.47,25.62 6.84,51.99 6.84,78.9 l -38.75,0 c 0,24.62 -2.15,48.75 -6.25,72.18 l 38.16,6.73 c -4.63,26.36 -11.5,51.93 -20.45,76.52 l -36.42,-13.26 c -8.34,22.89 -18.64,44.85 -30.67,65.65 l 33.56,19.38 c -13.28,22.96 -28.52,44.64 -45.49,64.84 l -29.69,-24.91 c -15.55,18.52 -32.69,35.66 -51.21,51.21 l 24.9,29.69 c -20.19,16.96 -41.87,32.21 -64.82,45.49 l -19.4,-33.57 c -20.8,12.04 -42.73,22.34 -65.62,30.67 l 13.24,36.43 c -24.59,8.94 -50.16,15.83 -76.52,20.45 l -6.72,-38.18 c -23.46,4.1 -47.56,6.26 -72.19,6.26 l 0,38.75 c -26.91,0 -53.26,-2.35 -78.91,-6.83 l 6.74,-38.17 z"
         style="fill:none;stroke:#d3ebeb;stroke-opacity:1;stroke-width:60.001;stroke-linecap:round;stroke-linejoin:round;stroke-miterlimit:22.9256;stroke-dasharray:none"
         id="path228" /><path
         d="m 5675.91,3978.32 c -24.12,-4.23 -47.5,-10.52 -70,-18.71 l -13.26,36.43 c -25.02,-9.12 -49,-20.37 -71.76,-33.53 l 19.38,-33.57 c -21,-12.15 -40.84,-26.09 -59.3,-41.61 l -24.9,29.69 c -20.25,-17.01 -39,-35.75 -56.02,-55.99 l 29.69,-24.92 c -15.51,-18.46 -29.45,-38.31 -41.6,-59.3 l -33.57,19.38 c -13.17,-22.75 -24.42,-46.75 -33.52,-71.77 l 36.45,-13.26 c -8.21,-22.49 -14.52,-45.88 -18.74,-70 l -38.16,6.74 c -4.49,-25.62 -6.84,-51.99 -6.84,-78.91 l 38.75,0 c 0,-24.61 2.13,-48.73 6.25,-72.17 l -38.16,-6.73 c 4.61,-26.36 11.5,-51.93 20.45,-76.52 l 36.43,13.26 c 8.32,-22.89 18.61,-44.85 30.66,-65.65 l -33.57,-19.38 c 13.28,-22.96 28.53,-44.64 45.5,-64.83 l 29.67,24.9 c 15.57,-18.52 32.7,-35.67 51.23,-51.21 l -24.9,-29.69 c 20.18,-16.96 41.85,-32.21 64.82,-45.49 l 19.38,33.56 c 20.82,-12.04 42.75,-22.33 65.64,-30.66 l -13.26,-36.43 c 24.59,-8.94 50.18,-15.83 76.52,-20.44 l 6.74,38.17 c 23.44,-4.1 47.56,-6.26 72.17,-6.26 l 0,-38.76 c 26.92,0 53.28,2.36 78.91,6.85 l -6.72,38.16 c 24.1,4.22 47.5,10.53 69.98,18.71 l 13.26,-36.43 c 25.02,9.12 49.02,20.37 71.78,33.53 l -19.4,33.56 c 21.02,12.16 40.84,26.1 59.32,41.62 l 24.9,-29.69 c 20.26,17.01 38.99,35.75 56,56 l -29.69,24.91 c 15.53,18.46 29.47,38.3 41.62,59.3 l 33.56,-19.38 c 13.16,22.74 24.41,46.75 33.53,71.77 l -36.44,13.26 c 8.18,22.49 14.49,45.88 18.71,69.99 l 38.18,-6.73 c 4.47,25.62 6.84,51.99 6.84,78.9 l -38.75,0 c 0,24.62 -2.15,48.75 -6.25,72.18 l 38.16,6.73 c -4.63,26.36 -11.5,51.93 -20.45,76.52 l -36.42,-13.26 c -8.34,22.89 -18.64,44.85 -30.67,65.65 l 33.56,19.38 c -13.28,22.96 -28.52,44.64 -45.49,64.84 l -29.69,-24.91 c -15.55,18.52 -32.69,35.66 -51.21,51.21 l 24.9,29.69 c -20.19,16.96 -41.87,32.21 -64.82,45.49 l -19.4,-33.57 c -20.8,12.04 -42.73,22.34 -65.62,30.67 l 13.24,36.43 c -24.59,8.94 -50.16,15.83 -76.52,20.45 l -6.72,-38.18 c -23.46,4.1 -47.56,6.26 -72.19,6.26 l 0,38.75 c -26.91,0 -53.26,-2.35 -78.91,-6.83 l 6.74,-38.17"
         style="fill:#539493;fill-opacity:1;fill-rule:evenodd;stroke:none"
         id="path230" /><path
         d="M 5527.91,3489.23 6293.98,1406.69"
         style="fill:none;stroke:#ffffff;stroke-opacity:1;stroke-width:38.401;stroke-linecap:butt;stroke-linejoin:miter;stroke-miterlimit:22.9256;stroke-dasharray:none"
         id="path232" /><path
         d="M 5937.38,3728.65 6944.43,1905.66"
         style="fill:none;stroke:#ffffff;stroke-opacity:1;stroke-width:38.401;stroke-linecap:butt;stroke-linejoin:miter;stroke-miterlimit:22.9256;stroke-dasharray:none"
         id="path234" /><path
         d="m 5748.08,3840.8 c -150.12,0 -271.8,-121.69 -271.8,-271.81 0,-150.11 121.68,-271.81 271.8,-271.81 150.12,0 271.82,121.7 271.82,271.81 0,150.12 -121.7,271.81 -271.82,271.81"
         style="fill:#374f4e;fill-opacity:1;fill-rule:evenodd;stroke:none"
         id="path236" /><path
         d="m 5748.08,3461.27 c 59.34,0 107.74,48.4 107.74,107.72 0,59.34 -48.4,107.74 -107.74,107.74 -59.33,0 -107.71,-48.4 -107.71,-107.74 0,-59.32 48.38,-107.72 107.71,-107.72"
         style="fill:#b9d6d4;fill-opacity:1;fill-rule:evenodd;stroke:none"
         id="path238" /><path
         d="m 5748.08,3534.18 c 19.18,0 34.83,15.64 34.83,34.81 0,19.18 -15.65,34.83 -34.83,34.83 -19.18,0 -34.8,-15.65 -34.8,-34.83 0,-19.17 15.62,-34.81 34.8,-34.81"
         style="fill:#ffffff;fill-opacity:1;fill-rule:evenodd;stroke:none"
         id="path240" /><path
         d="m 3972.42,1604.78 2665.6,-406.69"
         style="fill:none;stroke:#ffffff;stroke-opacity:1;stroke-width:38.401;stroke-linecap:butt;stroke-linejoin:miter;stroke-miterlimit:22.9256;stroke-dasharray:none"
         id="path242" /><path
         d="m 4034.08,2072.62 2550.43,-56.83"
         style="fill:none;stroke:#ffffff;stroke-opacity:1;stroke-width:38.401;stroke-linecap:butt;stroke-linejoin:miter;stroke-miterlimit:22.9256;stroke-dasharray:none"
         id="path244" /><path
         d="m 6740.05,2059.03 c 26.88,-4.7 52.95,-11.73 78.03,-20.87 l 15.96,43.84 c 28.1,-10.21 55.04,-22.85 80.56,-37.61 l -23.32,-40.41 c 23.42,-13.56 45.53,-29.1 66.12,-46.39 l 29.98,35.72 c 22.73,-19.09 43.77,-40.14 62.87,-62.86 l -35.74,-29.97 c 17.3,-20.6 32.85,-42.72 46.4,-66.13 l 40.39,23.34 c 14.79,-25.55 27.41,-52.48 37.64,-80.57 l -43.87,-15.97 c 9.14,-25.07 16.18,-51.15 20.88,-78.03 l 45.94,8.1 c 5.04,-28.77 7.69,-58.36 7.69,-88.57 l -46.66,0 c 0,-27.45 -2.38,-54.35 -6.97,-80.48 l 45.94,-8.1 c -5.18,-29.59 -12.91,-58.3 -22.95,-85.91 l -43.85,15.97 c -9.29,-25.53 -20.76,-50 -34.18,-73.2 l 40.39,-23.32 c -14.9,-25.77 -32.03,-50.11 -51.05,-72.78 l -35.74,29.99 c -17.35,-20.66 -36.45,-39.77 -57.11,-57.11 l 29.98,-35.74 c -22.66,-19.03 -46.99,-36.15 -72.78,-51.06 l -23.32,40.41 c -23.2,-13.43 -47.67,-24.9 -73.2,-34.2 l 15.96,-43.85 c -27.6,-10.04 -56.31,-17.76 -85.9,-22.95 l -8.09,45.94 c -26.15,-4.57 -53.02,-6.97 -80.48,-6.97 l 0,-46.65 c -30.22,0 -59.81,2.64 -88.58,7.68 l 8.11,45.94 c -26.88,4.71 -52.97,11.73 -78.05,20.86 l -15.96,-43.85 c -28.08,10.24 -55.02,22.86 -80.56,37.64 l 23.34,40.41 c -23.42,13.54 -45.53,29.08 -66.14,46.39 l -29.96,-35.74 c -22.73,19.1 -43.77,40.14 -62.87,62.86 l 35.72,29.99 c -17.28,20.58 -32.83,42.7 -46.38,66.12 l -40.41,-23.33 c -14.77,25.54 -27.41,52.47 -37.62,80.56 l 43.85,15.96 c -9.12,25.08 -16.15,51.15 -20.86,78.04 l -45.94,-8.1 c -5.04,28.77 -7.69,58.36 -7.69,88.58 l 46.64,0 c 0,27.44 2.4,54.33 6.97,80.47 l -45.92,8.1 c 5.18,29.59 12.89,58.3 22.95,85.9 l 43.85,-15.96 c 9.27,25.52 20.76,49.99 34.18,73.19 l -40.41,23.34 c 14.92,25.76 32.03,50.09 51.07,72.77 l 35.72,-29.98 c 17.35,20.64 36.47,39.76 57.13,57.11 l -29.98,35.72 c 22.66,19.04 46.99,36.15 72.76,51.08 l 23.34,-40.41 c 23.2,13.41 47.67,24.9 73.18,34.18 l -15.96,43.84 c 27.6,10.06 56.33,17.78 85.9,22.96 l 8.11,-45.94 c 26.15,4.58 53.02,6.99 80.47,6.99 l 0,46.64 c 30.21,0 59.8,-2.65 88.57,-7.69 l -8.09,-45.93"
         style="fill:#374f4e;fill-opacity:1;fill-rule:evenodd;stroke:none"
         id="path246" /><path
         d="m 6650.35,1494.92 c 59.33,0 107.73,48.39 107.73,107.73 0,59.33 -48.4,107.72 -107.73,107.72 -59.34,0 -107.72,-48.39 -107.72,-107.72 0,-59.34 48.38,-107.73 107.72,-107.73"
         style="fill:#b9d6d4;fill-opacity:1;fill-rule:evenodd;stroke:none"
         id="path248" /><path
         d="m 6650.35,1567.83 c 19.18,0 34.82,15.64 34.82,34.82 0,19.18 -15.64,34.81 -34.82,34.81 -19.18,0 -34.81,-15.63 -34.81,-34.81 0,-19.18 15.63,-34.82 34.81,-34.82"
         style="fill:#ffffff;fill-opacity:1;fill-rule:evenodd;stroke:none"
         id="path250" /><path
         d="m 709.047,3276.98 c 52.613,0 95.523,42.91 95.523,95.53 0,52.62 -42.91,95.53 -95.523,95.53 -52.617,0 -95.527,-42.91 -95.527,-95.53 0,-52.62 42.91,-95.53 95.527,-95.53"
         style="fill:#ffeade;fill-opacity:1;fill-rule:evenodd;stroke:none"
         id="path252" /><path
         d="m 1064.58,3276.98 c 52.61,0 95.52,42.91 95.52,95.53 0,52.62 -42.91,95.53 -95.52,95.53 -52.62,0 -95.533,-42.91 -95.533,-95.53 0,-52.62 42.913,-95.53 95.533,-95.53"
         style="fill:#77bab9;fill-opacity:1;fill-rule:evenodd;stroke:none"
         id="path254" /><path
         d="m 1420.1,3276.98 c 52.61,0 95.53,42.91 95.53,95.53 0,52.62 -42.92,95.53 -95.53,95.53 -52.61,0 -95.52,-42.91 -95.52,-95.53 0,-52.62 42.91,-95.53 95.52,-95.53"
         style="fill:#77bab9;fill-opacity:1;fill-rule:evenodd;stroke:none"
         id="path256" /><path
         d="m 4415.83,4125.66 -769.61,-769.6 771.82,-771.82 769.61,769.6 -771.82,771.82"
         style="fill:#ffd4b8;fill-opacity:1;fill-rule:evenodd;stroke:none"
         id="path258" /><path
         d="m 4102.03,3811.85 -141.99,-141.99 771.81,-771.8 141.99,141.97 -771.81,771.82"
         style="fill:#fff9f5;fill-opacity:1;fill-rule:evenodd;stroke:none"
         id="path260" /><path
         d="m 4609.76,2775.95 -96.15,96.13 -30.39,-30.41 -38.99,133.18 133.19,-38.96 -30.39,-30.41 96.13,-96.13 -33.4,-33.4"
         style="fill:#fff9f5;fill-opacity:1;fill-rule:nonzero;stroke:none"
         id="path262" /><path
         d="m 4487.96,2654.15 -96.15,96.13 -30.39,-30.4 -38.98,133.19 133.18,-38.98 -30.39,-30.4 96.13,-96.14 -33.4,-33.4"
         style="fill:#fff9f5;fill-opacity:1;fill-rule:nonzero;stroke:none"
         id="path264" /><path
         d="m 4009.18,2103.78 c -150.12,0 -271.81,-121.69 -271.81,-271.81 0,-150.11 121.69,-271.8 271.81,-271.8 150.11,0 271.81,121.69 271.81,271.8 0,150.12 -121.7,271.81 -271.81,271.81"
         style="fill:#374f4e;fill-opacity:1;fill-rule:evenodd;stroke:none"
         id="path266" /><path
         d="m 4009.18,1724.25 c 59.33,0 107.73,48.4 107.73,107.72 0,59.34 -48.4,107.73 -107.73,107.73 -59.34,0 -107.73,-48.39 -107.73,-107.73 0,-59.32 48.39,-107.72 107.73,-107.72"
         style="fill:#b9d6d4;fill-opacity:1;fill-rule:evenodd;stroke:none"
         id="path268" /><path
         d="m 4009.18,1797.16 c 19.17,0 34.82,15.64 34.82,34.81 0,19.18 -15.65,34.82 -34.82,34.82 -19.18,0 -34.81,-15.64 -34.81,-34.82 0,-19.17 15.63,-34.81 34.81,-34.81"
         style="fill:#ffffff;fill-opacity:1;fill-rule:evenodd;stroke:none"
         id="path270" /><path
         d="m 5104.29,6148.08 246.37,352.84 210.25,-146.81 -246.36,-352.84 -110.22,-16.5 -77.56,54.15 -22.48,109.16"
         style="fill:#ffeade;fill-opacity:1;fill-rule:evenodd;stroke:none"
         id="path272" /><path
         d="m 4927.3,5993.44 221.11,200.19 77,-85.04 -221.12,-200.19 -82.89,-124.73 -54.73,17.23 60.63,192.54"
         style="fill:#ffeade;fill-opacity:1;fill-rule:evenodd;stroke:none"
         id="path274" /><path
         d="m 5222.26,5787.5 111.76,276.53 -106.37,42.99 -111.76,-276.54 -88.53,-120.8 35.02,-45.43 159.88,123.25"
         style="fill:#ffeade;fill-opacity:1;fill-rule:evenodd;stroke:none"
         id="path276" /><path
         d="m 5202.44,6394.8 466.32,667.89 0,-104.37 -417.36,-597.74 c -35.55,-50.91 -30.84,-102.46 -5.66,-140.98 10.19,-15.57 23.47,-29.08 38.67,-39.7 15.25,-10.64 32.48,-18.46 50.51,-22.63 44.86,-10.38 94.92,2.97 130.49,53.91 l 203.35,291.23 0,-104.37 -154.37,-221.09 c -51.88,-74.3 -125.98,-93.52 -192.83,-78.04 -25.43,5.88 -49.79,16.95 -71.37,32.01 -21.6,15.09 -40.37,34.11 -54.61,55.87 -37.56,57.46 -45.06,133.68 6.86,208.01 z m 466.32,667.89 205.41,294.19 c 9.46,13.52 28.09,16.83 41.61,7.38 0.39,-0.28 0.78,-0.56 1.15,-0.84 l 0.02,0.02 253.85,-196.71 c 13.06,-10.09 15.48,-28.85 5.43,-41.91 l -507.47,-726.78 0,104.37 442.97,634.42 -206.56,160.06 -236.41,-338.57 0,104.37"
         style="fill:#d3ebeb;fill-opacity:1;fill-rule:nonzero;stroke:none"
         id="path278" /><path
         d="m 5226.91,6377.69 671.76,962.08 253.84,-196.71 -662.61,-948.99 c -121.47,-173.96 -384.46,9.66 -262.99,183.62"
         style="fill:#539493;fill-opacity:1;fill-rule:evenodd;stroke:none"
         id="path280" /><path
         d="m 6507.2,6230.39 -645.62,892.32 c -30.69,42.39 -41.23,93.49 -33.5,141.64 7.64,47.69 33.17,92.48 74.73,123.12 0.94,0.76 1.89,1.47 2.89,2.09 42.09,29.85 92.56,40.06 140.13,32.42 47.66,-7.63 92.45,-33.14 123.09,-74.68 0.72,-0.88 1.39,-1.8 2.01,-2.75 l 336.27,-464.76 0,-102.21 -385.74,533.12 -0.02,0.03 c -21.03,29.09 -52.03,46.91 -84.98,52.19 -32.6,5.24 -67.15,-1.75 -96,-22.15 -0.74,-0.59 -1.5,-1.15 -2.3,-1.67 -28.38,-21.02 -45.8,-51.61 -51.02,-84.13 -5.29,-33.02 1.94,-68.06 22.95,-97.11 l 597.11,-825.25 0,-102.22 z m 604.44,-507.65 c -0.94,-0.78 -1.92,-1.48 -2.93,-2.12 -42.11,-29.85 -92.56,-40.05 -140.14,-32.43 -47.68,7.65 -92.44,33.15 -123.09,74.69 -0.74,0.89 -1.4,1.81 -2.01,2.76 l -336.27,464.75 0,102.22 385.72,-533.12 0.04,-0.04 c 21.04,-29.07 52.02,-46.9 84.98,-52.19 33.01,-5.3 68.01,1.92 97.07,22.92 l 0.04,0.04 c 29.09,21.04 46.92,52.03 52.21,84.99 5.29,33.02 -1.93,68.05 -22.97,97.11 l -597.09,825.26 0,102.21 645.63,-892.31 c 30.66,-42.4 41.21,-93.49 33.49,-141.65 -7.63,-47.67 -33.14,-92.45 -74.68,-123.09"
         style="fill:#d3ebeb;fill-opacity:1;fill-rule:nonzero;stroke:none"
         id="path282" /><path
         d="m 7092.63,5745.96 0,0 c -71.46,-51.71 -172.22,-35.55 -223.94,35.92 l -982.86,1358.41 c -51.69,71.46 -35.54,172.22 35.92,223.94 l 0,0 c 71.47,51.7 172.25,35.54 223.95,-35.92 L 7128.57,5969.9 c 51.7,-71.47 35.53,-172.23 -35.94,-223.94"
         style="fill:#539493;fill-opacity:1;fill-rule:evenodd;stroke:none"
         id="path284" /><path
         d="m 7999.19,5642.81 -983.92,-4.1 c -74.28,-0.37 -141.94,29.66 -191.1,78.33 -49.1,48.62 -79.76,115.96 -80.13,190.26 l 0,0.11 -0.14,0 0,0.01 c 0,0.91 0.06,1.82 0.14,2.71 0.39,73.15 30.27,139.72 78.32,188.26 48.61,49.11 115.96,79.77 190.27,80.15 l 986.56,4.12 0,-59.8 -986.32,-4.09 c -57.72,-0.28 -110.14,-24.23 -148.09,-62.57 -37.34,-37.72 -60.59,-89.39 -60.98,-146.15 0.06,-0.87 0.12,-1.75 0.12,-2.63 l 0,-0.01 -0.12,0 c 0.32,-57.65 24.26,-110.02 62.56,-147.95 38.28,-37.9 90.92,-61.28 148.67,-60.98 l 984.16,4.08 0,-59.75"
         style="fill:#d3ebeb;fill-opacity:1;fill-rule:nonzero;stroke:none"
         id="path286" /><path
         d="m 7999.19,5673.53 -984.04,-4.94 c -132.01,-0.66 -240.57,106.81 -241.23,238.82 l 0,0.01 c -0.66,132.01 106.8,240.57 238.83,241.23 l 986.44,4.95 0,-480.07"
         style="fill:#539493;fill-opacity:1;fill-rule:evenodd;stroke:none"
         id="path288" /><path
         d="m 6947.73,6002.4 c 55.19,38.7 131.31,25.34 170,-29.86 38.69,-55.21 25.33,-131.32 -29.86,-170.01 -55.2,-38.69 -131.31,-25.32 -170,29.87 -38.71,55.19 -25.34,131.3 29.86,170"
         style="fill:#b9d6d4;fill-opacity:1;fill-rule:evenodd;stroke:none"
         id="path290" /><path
         d="m 5940.09,7272.4 c 27.44,47.33 88.03,63.44 135.35,36 47.33,-27.43 63.44,-88.04 36.02,-135.36 -27.44,-47.32 -88.05,-63.44 -135.37,-36 -47.33,27.44 -63.44,88.04 -36,135.36"
         style="fill:#b9d6d4;fill-opacity:1;fill-rule:evenodd;stroke:none"
         id="path292" /><path
         d="m 5999.47,7237.97 c -8.42,-14.52 -3.48,-33.13 11.05,-41.54 14.53,-8.43 33.13,-3.48 41.55,11.04 8.41,14.53 3.47,33.13 -11.04,41.55 -14.53,8.42 -33.14,3.47 -41.56,-11.05"
         style="fill:#ffffff;fill-opacity:1;fill-rule:evenodd;stroke:none"
         id="path294" /><path
         d="m 7000.35,5927.35 c -13.75,-9.62 -17.07,-28.59 -7.44,-42.34 9.62,-13.75 28.59,-17.07 42.34,-7.43 13.75,9.64 17.07,28.59 7.44,42.34 -9.65,13.74 -28.61,17.07 -42.34,7.43"
         style="fill:#ffffff;fill-opacity:1;fill-rule:evenodd;stroke:none"
         id="path296" /><path
         d="m 3899.67,300.539 c -0.02,0.051 -0.02,0.102 -0.02,0.172 0,-0.07 0,-0.121 0.02,-0.172"
         style="fill:#3e7572;fill-opacity:1;fill-rule:nonzero;stroke:none"
         id="path340" /><path
         d="m 3900.98,292.25 0.03,0 c -0.5,2.359 -0.88,4.699 -1.2,7.02 0.32,-2.34 0.7,-4.688 1.17,-7.02"
         style="fill:#3e7572;fill-opacity:1;fill-rule:nonzero;stroke:none"
         id="path342" /><path
         d="m 3909.56,268.18 c -0.06,0.101 -0.11,0.211 -0.17,0.34 0.06,-0.129 0.11,-0.239 0.17,-0.34"
         style="fill:#3e7572;fill-opacity:1;fill-rule:nonzero;stroke:none"
         id="path344" /><path
         d="m 3908.74,269.789 c -0.22,0.441 -0.44,0.891 -0.65,1.332 0.21,-0.461 0.43,-0.891 0.65,-1.332"
         style="fill:#3e7572;fill-opacity:1;fill-rule:nonzero;stroke:none"
         id="path346" /><path
         d="m 3903.39,282.98 c 1.27,-4 2.8,-7.878 4.57,-11.582 -1.8,3.782 -3.3,7.661 -4.54,11.582 l -0.03,0"
         style="fill:#3e7572;fill-opacity:1;fill-rule:nonzero;stroke:none"
         id="path348" /></g></g></svg>