<?xml version="1.0" encoding="UTF-8" standalone="no"?>
<!-- Created with Inkscape (http://www.inkscape.org/) -->

<svg
   xmlns:dc="http://purl.org/dc/elements/1.1/"
   xmlns:cc="http://creativecommons.org/ns#"
   xmlns:rdf="http://www.w3.org/1999/02/22-rdf-syntax-ns#"
   xmlns:svg="http://www.w3.org/2000/svg"
   xmlns="http://www.w3.org/2000/svg"
   xmlns:sodipodi="http://sodipodi.sourceforge.net/DTD/sodipodi-0.dtd"
   xmlns:inkscape="http://www.inkscape.org/namespaces/inkscape"
   id="svg2"
   version="1.1"
   inkscape:version="0.48.5 r10040"
   width="1000"
   height="1000"
   xml:space="preserve"
   sodipodi:docname="551453.eps"><metadata
     id="metadata8"><rdf:RDF><cc:Work
         rdf:about=""><dc:format>image/svg+xml</dc:format><dc:type
           rdf:resource="http://purl.org/dc/dcmitype/StillImage" /><dc:title></dc:title></cc:Work></rdf:RDF></metadata><defs
     id="defs6" /><sodipodi:namedview
     pagecolor="#ffffff"
     bordercolor="#666666"
     borderopacity="1"
     objecttolerance="10"
     gridtolerance="10"
     guidetolerance="10"
     inkscape:pageopacity="0"
     inkscape:pageshadow="2"
     inkscape:window-width="1600"
     inkscape:window-height="847"
     id="namedview4"
     showgrid="false"
     inkscape:zoom="0.236"
     inkscape:cx="508.47458"
     inkscape:cy="500"
     inkscape:window-x="0"
     inkscape:window-y="0"
     inkscape:window-maximized="1"
     inkscape:current-layer="g10" /><g
     id="g10"
     inkscape:groupmode="layer"
     inkscape:label="ink_ext_XXXXXX"
     transform="matrix(1.25,0,0,-1.25,0,1000)"><g
       id="g12"
       transform="scale(0.1,0.1)"><path
         d="m 3979.54,283.539 7.45,0 0,9.359 c 0,9.872 1.22,17.614 3.72,23.422 2.45,5.801 6.7,9.981 12.62,12.621 5.9,2.61 14.07,3.93 24.37,3.93 18.32,0 27.44,-4.441 27.44,-13.473 0,-2.859 -0.99,-5.347 -2.89,-7.41 -1.9,-2.027 -4.15,-3.086 -6.73,-3.086 -1.22,0 -3.36,0.227 -6.39,0.719 -2.86,0.41 -5.48,0.68 -7.52,0.68 -5.63,0 -9.27,-1.692 -10.9,-5.012 -1.58,-3.32 -2.4,-8.09 -2.4,-14.297 l 0,-7.453 7.67,0 c 11.94,0 17.89,-3.617 17.89,-10.828 0,-5.051 -1.56,-8.313 -4.76,-9.691 -3.17,-1.391 -7.56,-2.071 -13.13,-2.071 l -7.67,0 0,-82.988 c 0,-6.149 -1.43,-10.879 -4.44,-14.102 -2.94,-3.297 -6.7,-4.898 -11.42,-4.898 -4.4,0 -8.1,1.601 -11.07,4.898 -2.92,3.223 -4.39,7.953 -4.39,14.102 l 0,82.988 -8.62,0 c -4.67,0 -8.26,0.992 -10.79,3.153 -2.5,2.07 -3.81,4.82 -3.81,8.168 0,7.539 5.28,11.269 15.77,11.269"
         style="fill:#ffffff;fill-opacity:1;fill-rule:nonzero;stroke:none"
         id="path14" /><path
         d="m 4082.04,204.141 0,-26.18 c 0,-6.32 -1.57,-11.109 -4.53,-14.242 -2.99,-3.207 -6.74,-4.758 -11.31,-4.758 -4.59,0 -8.3,1.57 -11.16,4.828 -2.93,3.18 -4.39,7.941 -4.39,14.172 l 0,87.25 c 0,14.078 5.09,21.109 15.25,21.109 5.23,0 8.96,-1.66 11.3,-4.941 2.28,-3.317 3.54,-8.16 3.8,-14.637 3.72,6.477 7.53,11.32 11.46,14.637 3.98,3.281 9.19,4.941 15.78,4.941 6.63,0 12.98,-1.66 19.17,-4.941 6.18,-3.317 9.31,-7.66 9.31,-13.078 0,-3.84 -1.32,-7.039 -3.97,-9.492 -2.65,-2.5 -5.43,-3.707 -8.52,-3.707 -1.19,0 -3.97,0.679 -8.34,2.14 -4.44,1.379 -8.3,2.078 -11.65,2.078 -4.57,0 -8.32,-1.238 -11.21,-3.59 -2.91,-2.449 -5.2,-5.988 -6.79,-10.699 -1.6,-4.761 -2.72,-10.429 -3.3,-16.949 -0.63,-6.594 -0.9,-14.543 -0.9,-23.941"
         style="fill:#ffffff;fill-opacity:1;fill-rule:nonzero;stroke:none"
         id="path16" /><path
         d="m 4164.71,232.711 56.79,0 c -0.76,10.699 -3.65,18.719 -8.64,24.019 -5,5.309 -11.6,7.961 -19.79,7.961 -7.78,0 -14.22,-2.652 -19.24,-8.101 -4.99,-5.371 -8.05,-13.34 -9.12,-23.879 z m 61.28,-17.813 -61.28,0 c 0.08,-7.058 1.51,-13.386 4.31,-18.777 2.78,-5.441 6.48,-9.519 11.13,-12.289 4.68,-2.742 9.74,-4.121 15.32,-4.121 3.76,0 7.16,0.43 10.25,1.367 3.12,0.82 6.13,2.203 9.02,4.094 2.92,1.848 5.56,3.848 8.03,6.008 2.44,2.16 5.62,5.07 9.53,8.73 1.64,1.352 3.92,2.07 6.87,2.07 3.21,0 5.8,-0.878 7.83,-2.628 2,-1.821 2.96,-4.262 2.96,-7.454 0,-2.878 -1.08,-6.148 -3.26,-9.937 -2.26,-3.84 -5.6,-7.441 -10.12,-10.922 -4.44,-3.449 -10.1,-6.41 -16.85,-8.641 -6.76,-2.316 -14.55,-3.437 -23.33,-3.437 -20.13,0 -35.76,5.668 -46.89,17.168 -11.21,11.5 -16.81,27.082 -16.81,46.691 0,9.289 1.4,17.891 4.18,25.789 2.71,7.961 6.75,14.692 12.06,20.352 5.26,5.68 11.75,10.039 19.46,13.027 7.71,3.012 16.25,4.524 25.67,4.524 12.29,0 22.77,-2.551 31.51,-7.782 8.76,-5.121 15.38,-11.8 19.69,-19.968 4.35,-8.223 6.55,-16.543 6.55,-25.051 0,-7.82 -2.29,-12.961 -6.79,-15.289 -4.49,-2.344 -10.87,-3.524 -19.04,-3.524"
         style="fill:#ffffff;fill-opacity:1;fill-rule:nonzero;stroke:none"
         id="path18" /><path
         d="m 4294.97,232.711 56.8,0 c -0.75,10.699 -3.7,18.719 -8.67,24.019 -5.02,5.309 -11.61,7.961 -19.82,7.961 -7.8,0 -14.18,-2.652 -19.2,-8.101 -5.03,-5.371 -8.05,-13.34 -9.11,-23.879 z m 61.26,-17.813 -61.26,0 c 0.08,-7.058 1.52,-13.386 4.31,-18.777 2.77,-5.441 6.5,-9.519 11.12,-12.289 4.6,-2.742 9.75,-4.121 15.32,-4.121 3.71,0 7.18,0.43 10.24,1.367 3.13,0.82 6.1,2.203 9.05,4.094 2.88,1.848 5.56,3.848 8.03,6.008 2.4,2.16 5.6,5.07 9.49,8.73 1.63,1.352 3.93,2.07 6.86,2.07 3.25,0 5.86,-0.878 7.87,-2.628 1.98,-1.821 2.91,-4.262 2.91,-7.454 0,-2.878 -1.07,-6.148 -3.32,-9.937 -2.15,-3.84 -5.51,-7.441 -10.03,-10.922 -4.45,-3.449 -10.12,-6.41 -16.87,-8.641 -6.75,-2.316 -14.55,-3.437 -23.36,-3.437 -20.07,0 -35.72,5.668 -46.89,17.168 -11.18,11.5 -16.77,27.082 -16.77,46.691 0,9.289 1.39,17.891 4.16,25.789 2.78,7.961 6.76,14.692 12.02,20.352 5.3,5.68 11.79,10.039 19.51,13.027 7.75,3.012 16.31,4.524 25.71,4.524 12.2,0 22.71,-2.551 31.54,-7.782 8.72,-5.121 15.3,-11.8 19.63,-19.968 4.34,-8.223 6.53,-16.543 6.53,-25.051 0,-7.82 -2.27,-12.961 -6.75,-15.289 -4.53,-2.344 -10.9,-3.524 -19.05,-3.524"
         style="fill:#ffffff;fill-opacity:1;fill-rule:nonzero;stroke:none"
         id="path20" /><path
         d="m 4486.2,223.172 c 0,8.289 -1.24,15.367 -3.78,21.289 -2.5,5.949 -6,10.469 -10.45,13.621 -4.46,3.18 -9.46,4.789 -14.89,4.789 -8.62,0 -15.94,-3.41 -21.84,-10.18 -5.95,-6.859 -8.89,-16.839 -8.89,-30.089 0,-12.422 2.92,-22.153 8.82,-29.063 5.89,-6.937 13.14,-10.379 21.91,-10.379 5.19,0 10.05,1.52 14.46,4.5 4.45,3.02 8.02,7.551 10.69,13.602 2.68,6.058 3.97,13.379 3.97,21.91 z m -61.39,45.519 0,-3.75 c 5.87,7.25 12.05,12.618 18.41,15.981 6.31,3.43 13.53,5.148 21.53,5.148 9.63,0 18.53,-2.511 26.64,-7.461 8.14,-5 14.52,-12.25 19.2,-21.828 4.72,-9.551 7.1,-20.871 7.1,-33.961 0,-9.609 -1.36,-18.48 -4.09,-26.539 -2.67,-8.09 -6.45,-14.82 -11.17,-20.32 -4.75,-5.391 -10.39,-9.66 -16.8,-12.621 -6.51,-2.899 -13.44,-4.379 -20.88,-4.379 -8.92,0 -16.46,1.789 -22.54,5.379 -6.08,3.539 -11.85,8.89 -17.4,15.801 l 0,-47.039 c 0,-13.731 -5.02,-20.653 -15,-20.653 -5.91,0 -9.77,1.781 -11.71,5.313 -1.86,3.617 -2.85,8.75 -2.85,15.609 l 0,135.149 c 0,5.96 1.3,10.371 3.86,13.378 2.63,2.891 6.22,4.422 10.7,4.422 4.44,0 8.07,-1.531 10.82,-4.531 2.83,-3.059 4.18,-7.379 4.18,-13.098"
         style="fill:#ffffff;fill-opacity:1;fill-rule:nonzero;stroke:none"
         id="path22" /><path
         d="m 4564.75,268.52 0,-90.559 c 0,-6.231 -1.54,-10.992 -4.5,-14.172 -3.01,-3.258 -6.78,-4.828 -11.4,-4.828 -4.57,0 -8.27,1.601 -11.14,4.898 -2.89,3.352 -4.34,8.012 -4.34,14.102 l 0,89.66 c 0,6.188 1.45,10.859 4.34,13.961 2.87,3.188 6.57,4.738 11.14,4.738 4.62,0 8.39,-1.55 11.4,-4.738 2.96,-3.102 4.5,-7.512 4.5,-13.062 z m -15.54,32.371 c -4.38,0 -8.06,1.379 -11.14,4.019 -3.12,2.711 -4.7,6.442 -4.7,11.289 0,4.449 1.61,8.141 4.77,11.012 3.18,2.82 6.86,4.277 11.07,4.277 4.08,0 7.64,-1.297 10.82,-3.828 3.1,-2.64 4.72,-6.449 4.72,-11.461 0,-4.769 -1.57,-8.547 -4.62,-11.258 -3.06,-2.671 -6.69,-4.05 -10.92,-4.05"
         style="fill:#ffffff;fill-opacity:1;fill-rule:nonzero;stroke:none"
         id="path24" /><path
         d="m 4665.68,173.23 -27.6,45.5 -17.03,-16.039 0,-24.961 c 0,-6 -1.6,-10.648 -4.78,-13.871 -3.11,-3.297 -6.81,-4.898 -10.93,-4.898 -4.81,0 -8.62,1.57 -11.35,4.828 -2.76,3.18 -4.16,7.941 -4.16,14.172 l 0,133.598 c 0,6.91 1.34,12.23 4.01,15.89 2.68,3.653 6.55,5.422 11.5,5.422 4.83,0 8.62,-1.629 11.44,-4.961 2.89,-3.25 4.27,-8.121 4.27,-14.488 l 0,-76.031 35.24,37.007 c 4.38,4.532 7.65,7.711 9.99,9.403 2.26,1.64 5.08,2.519 8.34,2.519 3.92,0 7.16,-1.25 9.83,-3.75 2.53,-2.48 3.84,-5.601 3.84,-9.351 0,-4.559 -4.26,-10.719 -12.74,-18.367 l -16.6,-15.231 32.13,-50.512 c 2.31,-3.777 4.06,-6.55 5.07,-8.507 1.07,-1.954 1.57,-3.903 1.57,-5.59 0,-5 -1.34,-8.871 -4.08,-11.801 -2.7,-2.84 -6.31,-4.25 -10.68,-4.25 -3.89,0 -6.82,0.949 -8.93,3.09 -2.02,2.097 -4.85,5.828 -8.35,11.179"
         style="fill:#ffffff;fill-opacity:1;fill-rule:nonzero;stroke:none"
         id="path26" /><path
         d="m 4733.71,158.961 c -4.72,0 -8.82,1.551 -12.26,4.598 -3.43,3.011 -5.17,7.312 -5.17,12.843 0,4.676 1.69,8.7 4.94,12.039 3.32,3.348 7.37,5.039 12.18,5.039 4.81,0 8.88,-1.691 12.36,-4.968 3.37,-3.34 5.12,-7.422 5.12,-12.11 0,-5.453 -1.75,-9.742 -5.12,-12.824 -3.48,-3.066 -7.48,-4.617 -12.05,-4.617"
         style="fill:#ffffff;fill-opacity:1;fill-rule:nonzero;stroke:none"
         id="path28" /><path
         d="m 4889.43,197.73 c 0,-3.871 -1.15,-8.058 -3.49,-12.519 -2.35,-4.441 -5.88,-8.672 -10.67,-12.68 -4.79,-3.992 -10.76,-7.25 -18.07,-9.672 -7.29,-2.461 -15.45,-3.711 -24.52,-3.711 -19.38,0 -34.49,5.661 -45.4,16.911 -10.81,11.281 -16.22,26.461 -16.22,45.421 0,12.891 2.45,24.168 7.44,34.09 4.94,9.84 12.14,17.461 21.56,22.879 9.39,5.383 20.69,8.063 33.7,8.063 8.13,0 15.58,-1.172 22.37,-3.563 6.79,-2.328 12.49,-5.449 17.22,-9.14 4.65,-3.797 8.25,-7.77 10.74,-11.989 2.5,-4.261 3.73,-8.218 3.73,-11.929 0,-3.731 -1.37,-6.891 -4.19,-9.469 -2.8,-2.652 -6.18,-3.942 -10.13,-3.942 -2.63,0 -4.79,0.68 -6.48,2.02 -1.76,1.34 -3.67,3.5 -5.8,6.531 -3.82,5.77 -7.82,10.149 -12.01,13.008 -4.16,2.953 -9.47,4.391 -15.91,4.391 -9.18,0 -16.64,-3.621 -22.35,-10.828 -5.67,-7.223 -8.49,-17.141 -8.49,-29.641 0,-5.902 0.76,-11.359 2.2,-16.281 1.42,-4.891 3.49,-9.121 6.29,-12.578 2.79,-3.5 6.07,-6.114 9.97,-7.93 3.93,-1.84 8.21,-2.723 12.84,-2.723 6.33,0 11.65,1.461 16.13,4.363 4.57,2.887 8.5,7.336 11.92,13.34 1.92,3.469 3.97,6.2 6.14,8.2 2.24,2 4.99,3.027 8.18,3.027 3.87,0 7.01,-1.481 9.53,-4.379 2.53,-2.898 3.77,-6.008 3.77,-9.27"
         style="fill:#ffffff;fill-opacity:1;fill-rule:nonzero;stroke:none"
         id="path30" /><path
         d="m 4993.17,222.602 c 0,12.789 -2.85,22.687 -8.44,29.839 -5.6,7.161 -13.14,10.707 -22.65,10.707 -6.14,0 -11.51,-1.628 -16.21,-4.777 -4.65,-3.16 -8.22,-7.832 -10.75,-14.039 -2.51,-6.23 -3.83,-13.441 -3.83,-21.73 0,-8.192 1.24,-15.313 3.73,-21.391 2.53,-6.191 6.07,-10.859 10.72,-14.09 4.65,-3.211 10.09,-4.902 16.34,-4.902 9.51,0 17.05,3.613 22.65,10.773 5.59,7.16 8.44,17.039 8.44,29.61 z m 31.44,0 c 0,-9.313 -1.48,-17.922 -4.31,-25.821 -2.98,-7.89 -7.15,-14.64 -12.7,-20.269 -5.45,-5.672 -12.08,-10.012 -19.7,-13.032 -7.7,-2.968 -16.27,-4.519 -25.82,-4.519 -9.49,0 -18.01,1.551 -25.6,4.598 -7.53,3.011 -14.17,7.421 -19.64,13.05 -5.56,5.77 -9.79,12.5 -12.71,20.289 -2.76,7.762 -4.26,16.313 -4.26,25.704 0,9.507 1.54,18.179 4.39,26.07 2.9,7.898 7.08,14.629 12.54,20.168 5.44,5.601 11.99,9.89 19.68,12.949 7.75,3 16.28,4.531 25.6,4.531 9.51,0 18.1,-1.531 25.82,-4.621 7.71,-3.027 14.31,-7.41 19.85,-13.039 5.52,-5.668 9.68,-12.41 12.56,-20.18 2.83,-7.859 4.3,-16.441 4.3,-25.878"
         style="fill:#ffffff;fill-opacity:1;fill-rule:nonzero;stroke:none"
         id="path32" /><path
         d="m 5144.05,220.281 0,-41.601 c 0,-6.61 -1.47,-11.469 -4.47,-14.821 -3,-3.297 -6.93,-4.898 -11.84,-4.898 -4.71,0 -8.62,1.601 -11.46,4.898 -2.97,3.352 -4.49,8.211 -4.49,14.821 l 0,49.879 c 0,7.902 -0.26,14.023 -0.76,18.402 -0.57,4.289 -2.04,7.937 -4.39,10.711 -2.32,2.777 -6.11,4.199 -11.23,4.199 -10.26,0 -16.98,-3.5 -20.25,-10.621 -3.24,-6.961 -4.89,-17.07 -4.89,-30.258 l 0,-42.312 c 0,-6.508 -1.49,-11.41 -4.41,-14.758 -2.96,-3.301 -6.83,-4.961 -11.66,-4.961 -4.75,0 -8.61,1.66 -11.62,4.961 -3.03,3.348 -4.58,8.25 -4.58,14.758 l 0,89.621 c 0,5.859 1.38,10.371 4.09,13.398 2.74,3.09 6.31,4.621 10.73,4.621 4.32,0 7.86,-1.5 10.76,-4.332 2.86,-2.879 4.27,-6.777 4.27,-11.879 l 0,-2.937 c 5.49,6.437 11.26,11.25 17.48,14.289 6.19,3.078 13.03,4.609 20.63,4.609 7.89,0 14.67,-1.57 20.31,-4.691 5.67,-3.16 10.31,-7.887 14.01,-14.207 5.26,6.367 10.94,11.148 16.97,14.289 6.09,3.078 12.73,4.609 20.08,4.609 8.57,0 15.98,-1.718 22.16,-5.031 6.2,-3.387 10.78,-8.238 13.82,-14.457 2.71,-5.703 4.03,-14.594 4.03,-26.793 l 0,-61.109 c 0,-6.61 -1.5,-11.469 -4.43,-14.821 -2.99,-3.297 -6.91,-4.898 -11.84,-4.898 -4.72,0 -8.63,1.66 -11.65,4.961 -3.02,3.348 -4.5,8.25 -4.5,14.758 l 0,52.691 c 0,6.731 -0.3,12.09 -0.89,16.141 -0.52,4.047 -2.12,7.457 -4.63,10.218 -2.55,2.719 -6.37,4.141 -11.49,4.141 -4.13,0 -8.03,-1.25 -11.75,-3.699 -3.7,-2.422 -6.59,-5.731 -8.69,-9.82 -2.26,-5.25 -3.42,-14.641 -3.42,-28.071"
         style="fill:#ffffff;fill-opacity:1;fill-rule:nonzero;stroke:none"
         id="path34" /><path
         d="m 3762.65,147.992 c 0,0 -17.12,2.719 -33.78,20.969 -16.8,18.379 -19.63,37.891 -19.63,37.891 0,0 21.3,-5.04 36.62,-6.7 26.96,-3.07 51.25,-1.371 62.7,-0.14 24.8,2.726 38,7.308 43.34,8.636 31.68,7.571 62.13,28.094 62.13,28.094 0,0 3.84,-23.801 -14.07,-50.203 -6.97,-10.297 -20.86,-22.141 -36.87,-30.297 -54.81,-23.351 -100.44,-8.25 -100.44,-8.25"
         style="fill:#ffffff;fill-opacity:1;fill-rule:evenodd;stroke:none"
         id="path36" /><path
         d="m 3861.17,255.211 c -11.37,-0.68 -21.16,7.859 -21.87,19.187 -0.68,11.231 7.97,20.993 19.31,21.731 11.33,0.742 21.17,-7.899 21.83,-19.129 0.75,-11.32 -7.94,-21.078 -19.27,-21.789 z m -92.2,-23.172 c -18.04,-1.199 -33.58,12.422 -34.7,30.391 -1.14,17.902 12.59,33.449 30.64,34.55 18.07,1.25 33.62,-12.441 34.7,-30.351 1.17,-17.957 -12.59,-33.457 -30.64,-34.59 z m 123.17,51.172 c -5.92,7.141 -25.52,40.777 -65.23,45.609 -10.18,1.211 -63.84,-0.851 -96.03,-30.691 -3.21,-2.977 -19.56,-17.359 -25,-44.078 -4.21,-20.649 2.72,-43.942 2.72,-43.942 0,0 35.71,-7.418 62.62,-6.75 42.69,1.063 64.15,4.821 86.48,11.582 32.86,9.989 56.11,26.629 56.11,26.629 0,0 -15.75,34.45 -21.67,41.641"
         style="fill:#ffffff;fill-opacity:1;fill-rule:evenodd;stroke:none"
         id="path38" /><path
         d="m 3876.68,306.441 10.38,12.489 c 0,0 14.32,-7.059 23.52,-20.36 9.18,-13.199 15.12,-25.308 15.12,-25.308 l -17.1,-10.41 c 0,0 -5.3,12.769 -13.26,23.019 -7.91,10.188 -18.66,20.57 -18.66,20.57"
         style="fill:#ffffff;fill-opacity:1;fill-rule:evenodd;stroke:none"
         id="path40" /><path
         d="m 3909.25,297.809 c 2.67,1.613 7.2,1.832 6.92,5.683 -0.17,3.738 -2.72,11.219 4.69,13.75 7.54,2.547 3.32,-2.211 0.73,-5.512 -2.59,-3.281 -1.75,-5.289 -1.41,-10.16 0.27,-4.75 -3.12,-6.359 -8.21,-8.718 -5.06,-2.442 -5.39,3.367 -2.72,4.957"
         style="fill:#ffffff;fill-opacity:1;fill-rule:evenodd;stroke:none"
         id="path42" /><path
         d="m 3718.99,290.18 c 0,0 -12,-13.961 -15.05,-26.559 -3.04,-12.66 -2.41,-27.871 -2.41,-27.871 l -17.81,6.121 c 0,0 -1,17.481 7.06,31.621 9.04,15.656 20.54,22.727 20.54,22.727 l 7.67,-6.039"
         style="fill:#ffffff;fill-opacity:1;fill-rule:evenodd;stroke:none"
         id="path44" /><path
         d="m 3692.84,274.289 c -2.89,1.902 -3.17,6.402 -5.45,9.352 -2.28,2.988 -2.85,1.179 -8.06,1.179 -5.23,0.051 -5.37,2.469 -6.87,3.719 -1.47,1.301 -2.16,-3.898 -2.16,-3.898 0,0 0.97,-4.45 6.56,-4.77 5.55,-0.371 5.41,2.391 7.82,-2.621 2.39,-5.059 7.16,-8.898 7.16,-8.898 0,0 3.92,4.058 1,5.937"
         style="fill:#ffffff;fill-opacity:1;fill-rule:evenodd;stroke:none"
         id="path46" /><path
         d="m 3787.19,340.52 c 29.16,7.3 47.41,-1.122 47.41,-1.122 l -1.54,-8.378 c 0,0 -21.34,1.41 -38.23,-1.11 -16.88,-2.41 -24.57,-7.73 -24.57,-7.73 l -3.66,8.382 c 0,0 7.99,6.79 20.59,9.958"
         style="fill:#ffffff;fill-opacity:1;fill-rule:evenodd;stroke:none"
         id="path48" /><path
         d="m 3795.94,352.492 4.09,1.528 5.42,-14.571 -4.07,-1.508 -5.44,14.551"
         style="fill:#ffffff;fill-opacity:1;fill-rule:evenodd;stroke:none"
         id="path50" /><path
         d="m 3924.4,325.492 c 4.14,0.227 7.64,-2.89 7.89,-7.023 0.28,-4.098 -2.86,-7.61 -6.97,-7.848 -4.12,-0.32 -7.62,2.859 -7.9,6.938 -0.25,4.089 2.86,7.57 6.98,7.933"
         style="fill:#ffffff;fill-opacity:1;fill-rule:evenodd;stroke:none"
         id="path52" /><path
         d="m 3668.26,297.289 c 4.15,0.231 7.68,-2.859 7.93,-6.937 0.23,-4.102 -2.87,-7.59 -7,-7.872 -4.11,-0.289 -7.63,2.829 -7.94,6.918 -0.22,4.094 2.92,7.582 7.01,7.891"
         style="fill:#ffffff;fill-opacity:1;fill-rule:evenodd;stroke:none"
         id="path54" /><path
         d="m 3799.5,371.059 c 6.55,0.421 12.2,-4.5 12.6,-11.047 0.41,-6.492 -4.58,-12.114 -11.14,-12.543 -6.56,-0.457 -12.17,4.519 -12.61,11.07 -0.42,6.5 4.59,12.141 11.15,12.52"
         style="fill:#ffffff;fill-opacity:1;fill-rule:evenodd;stroke:none"
         id="path56" /><path
         d="m 2828.71,227.559 c -11.4,0 -17.01,-11.969 -17.01,-22.348 0,-10.191 5.61,-22.051 17.01,-22.051 11.99,0 17.19,12.18 17.19,22.82 0,10.661 -5.48,21.579 -17.19,21.579 z m 39.1,-51.368 c 0,-7.351 -4.63,-12.179 -11.02,-12.179 -6.03,0 -9.56,3.328 -10.89,9.16 -4.14,-6.711 -12.6,-10.043 -20.07,-10.043 -22.06,0 -36.02,20.473 -36.02,41.172 0,21.32 11.69,43.351 35.26,43.351 7.59,0 15.05,-2.621 20.83,-7.652 l 0,29.84 c 0,7.242 4.53,12.101 10.89,12.101 6.39,0 11.02,-4.859 11.02,-12.101 l 0,-93.649"
         style="fill:#ffffff;fill-opacity:1;fill-rule:nonzero;stroke:none"
         id="path58" /><path
         d="m 2932.23,212.68 c -1.22,9.609 -7.3,16.672 -17.5,16.672 -9.73,0 -16.28,-7.391 -17.33,-16.672 l 34.83,0 z m -34.39,-14.578 c 1.55,-10.793 10.49,-15.832 20.71,-15.832 11.23,0 18.97,8.82 24.77,8.82 4.71,0 8.93,-4.688 8.93,-9.461 0,-9.418 -19.44,-18.5 -35.68,-18.5 -24.63,0 -41.06,17.949 -41.06,42.082 0,22.18 16.13,42.441 39.22,42.441 23.69,0 39.39,-21.64 39.39,-39.851 0,-6.539 -2.91,-9.699 -9.6,-9.699 l -46.68,0"
         style="fill:#ffffff;fill-opacity:1;fill-rule:nonzero;stroke:none"
         id="path60" /><path
         d="m 3007.92,222.082 c -4.12,0 -12.49,6.387 -19.63,6.387 -3.93,0 -7.46,-1.809 -7.46,-6.071 0,-10.156 38.01,-8.679 38.01,-33.636 0,-14.551 -12.3,-25.633 -31.17,-25.633 -12.3,0 -30.53,6.98 -30.53,16.84 0,3.363 3.34,9.73 9.43,9.73 8.48,0 12.3,-7.429 22.63,-7.429 6.69,0 8.68,2.109 8.68,6.242 0,10.027 -38.03,8.488 -38.03,33.57 0,15.188 12.33,25.57 29.63,25.57 10.81,0 27.38,-5.07 27.38,-15.863 0,-4.977 -3.8,-9.707 -8.94,-9.707"
         style="fill:#ffffff;fill-opacity:1;fill-rule:nonzero;stroke:none"
         id="path62" /><path
         d="m 3026.29,234.531 c 0,7.321 4.55,12.18 10.93,12.18 6.38,0 10.95,-4.859 10.95,-12.18 l 0,-58.34 c 0,-7.351 -4.57,-12.179 -10.95,-12.179 -6.38,0 -10.93,4.828 -10.93,12.179 l 0,58.34 z m 23.25,33.02 c 0,-6.903 -5.45,-12.621 -12.32,-12.621 -6.53,0 -12.29,5.922 -12.29,12.621 0,6.23 5.76,11.949 12.29,11.949 6.53,0 12.32,-5.559 12.32,-11.949"
         style="fill:#ffffff;fill-opacity:1;fill-rule:nonzero;stroke:none"
         id="path64" /><path
         d="m 3096.02,227.559 c -11.37,0 -16.98,-11.86 -16.98,-22.067 0,-11.66 5.61,-22.332 16.98,-22.332 11.71,0 17.2,10.922 17.2,21.66 0,10.559 -5.18,22.739 -17.2,22.739 z m 39.09,-56.27 c 0,-26.25 -17.19,-39.539 -42.11,-39.539 -8.96,0 -34.51,4.441 -34.51,16.469 0,4.09 4.56,9.57 8.84,9.57 7,0 14.73,-6.797 27.34,-6.797 10.64,0 18.55,6.16 18.55,17.297 l 0,5.141 -0.3,0 c -4.55,-6.668 -12,-10.301 -22.03,-10.301 -22.95,0 -33.78,20.203 -33.78,41.91 0,22.07 14,42.613 36.06,42.613 7.44,0 15.94,-3.363 20.05,-10.031 1.38,5.758 4.86,9.09 10.95,9.09 6.38,0 10.94,-4.859 10.94,-12.18 l 0,-63.242"
         style="fill:#ffffff;fill-opacity:1;fill-rule:nonzero;stroke:none"
         id="path66" /><path
         d="m 3147.55,234.531 c 0,7.321 4.55,12.18 10.94,12.18 5.66,0 9.29,-3.031 10.02,-8.09 4.32,5.969 10.82,9.031 21.13,9.031 17.19,0 29.96,-10.961 29.96,-29.504 l 0,-41.957 c 0,-7.351 -4.52,-12.179 -10.92,-12.179 -6.38,0 -10.97,4.828 -10.97,12.179 l 0,38.161 c 0,10.148 -6.37,15 -14.29,15 -8.92,0 -13.96,-6.532 -13.96,-15 l 0,-38.161 c 0,-7.351 -4.59,-12.179 -10.97,-12.179 -6.39,0 -10.94,4.828 -10.94,12.179 l 0,58.34"
         style="fill:#ffffff;fill-opacity:1;fill-rule:nonzero;stroke:none"
         id="path68" /><path
         d="m 3284.04,212.68 c -1.22,9.609 -7.28,16.672 -17.46,16.672 -9.76,0 -16.3,-7.391 -17.34,-16.672 l 34.8,0 z m -34.35,-14.578 c 1.53,-10.793 10.5,-15.832 20.67,-15.832 11.25,0 18.99,8.82 24.78,8.82 4.69,0 8.98,-4.688 8.98,-9.461 0,-9.418 -19.48,-18.5 -35.73,-18.5 -24.65,0 -41.04,17.949 -41.04,42.082 0,22.18 16.11,42.441 39.23,42.441 23.7,0 39.33,-21.64 39.33,-39.851 0,-6.539 -2.88,-9.699 -9.55,-9.699 l -46.67,0"
         style="fill:#ffffff;fill-opacity:1;fill-rule:nonzero;stroke:none"
         id="path70" /><path
         d="m 3349.41,227.559 c -11.4,0 -17.02,-11.969 -17.02,-22.348 0,-10.191 5.62,-22.051 17.02,-22.051 11.99,0 17.17,12.18 17.17,22.82 0,10.661 -5.46,21.579 -17.17,21.579 z m 39.04,-51.368 c 0,-7.351 -4.54,-12.179 -10.96,-12.179 -6.05,0 -9.56,3.328 -10.91,9.16 -4.13,-6.711 -12.61,-10.043 -20.09,-10.043 -22.02,0 -35.98,20.473 -35.98,41.172 0,21.32 11.68,43.351 35.26,43.351 7.58,0 15.02,-2.621 20.81,-7.652 l 0,29.84 c 0,7.242 4.55,12.101 10.91,12.101 6.42,0 10.96,-4.859 10.96,-12.101 l 0,-93.649"
         style="fill:#ffffff;fill-opacity:1;fill-rule:nonzero;stroke:none"
         id="path72" /><path
         d="m 3480.71,183.16 c 11.38,0 17.02,11.86 17.02,22.051 0,10.379 -5.64,22.348 -17.02,22.348 -11.71,0 -17.19,-10.918 -17.19,-21.579 0,-10.64 5.2,-22.82 17.19,-22.82 z m -39.07,86.68 c 0,7.242 4.59,12.101 10.99,12.101 6.34,0 10.89,-4.859 10.89,-12.101 l 0,-29.84 c 5.81,5.031 13.24,7.652 20.83,7.652 23.57,0 35.27,-22.031 35.27,-43.351 0,-20.699 -13.98,-41.172 -36.04,-41.172 -7.43,0 -15.94,3.332 -20.06,10.043 -1.37,-5.832 -4.83,-9.16 -10.89,-9.16 -6.4,0 -10.99,4.828 -10.99,12.179 l 0,93.649"
         style="fill:#ffffff;fill-opacity:1;fill-rule:nonzero;stroke:none"
         id="path74" /><path
         d="m 3523.41,231.68 c -0.61,1.64 -1.07,3.371 -1.07,5.59 0,5.492 5.79,9.441 10.33,9.441 5.31,0 9.15,-2.93 10.97,-7.75 l 15.03,-41.199 16.1,41.199 c 1.82,4.82 5.63,7.75 10.96,7.75 4.59,0 10.32,-3.949 10.32,-9.441 0,-2.219 -0.3,-3.95 -1.03,-5.59 l -36.64,-91.231 c -1.84,-4.527 -5.19,-8.699 -10.34,-8.699 -7.42,0 -11.42,4.781 -11.42,9.449 0,2.172 0.62,4.449 1.36,6.41 l 9.61,23.68 -24.18,60.391"
         style="fill:#ffffff;fill-opacity:1;fill-rule:nonzero;stroke:none"
         id="path76" /><path
         d="m 0,0 8000,0 0,8000 L 0,8000 0,0 z"
         style="fill:#325d8c;fill-opacity:1;fill-rule:nonzero;stroke:none"
         id="path78" /><path
         d="m 6390.82,3875.32 c 115.67,169.6 144.5,395.97 66.91,584.35 -82.5,200.2 -269.12,319.74 -499.37,319.74 l -887.91,-0.72 c 30.6,181.63 70.9,435.11 67.53,491.61 l 0.02,0 c -25.26,374.99 -256.44,815.26 -266.62,834.5 -69.08,128.91 -276.36,226.13 -482.14,226.13 -45.67,0 -90.85,-4.76 -134.15,-14.08 -334.12,-71.6 -416.1,-302.85 -411.96,-429.43 0.5,-21.02 8.89,-381.31 11.72,-532.4 -62.73,-129.91 -179.54,-337.15 -294.3,-521.26 -125.22,-200.9 -210.16,-314.87 -258.25,-370.77 -22.1,4.17 -44.66,6.26 -67.61,6.26 l -1364.43,0 c -204.8,0 -371.42,-166.62 -371.42,-371.42 l 0,-1891.88 0.49,-6.25 c 14.39,-185.42 171.88,-330.63 358.53,-330.63 l 1225.7,0 c 138.35,0 258.68,78.66 318.6,193.61 69.03,-31.92 151.51,-57.44 247.25,-57.44 l 1829.35,0 c 414.31,0 597.6,193.45 678.39,355.73 80.62,161.94 83.58,342.22 52.84,468.51 95.58,146.12 144.82,343.92 91.24,525.27 82.4,125.07 151.57,315.88 89.59,520.57"
         style="fill:#eeebef;fill-opacity:1;fill-rule:nonzero;stroke:none"
         id="path80" /><path
         d="m 6204.53,3903.66 c 237.21,235.47 164.29,713.57 -246.04,713.57 l -1080.73,-0.88 c 41.3,228.21 101.05,608.01 98.42,643.04 -22.86,339.16 -239,752.24 -247.79,768.82 -39.54,73.81 -239,173.21 -439.32,130.05 -258.34,-55.36 -285.56,-220.44 -283.8,-266.13 0,0 10.54,-451.62 12.39,-571.99 -123.98,-271.51 -551.12,-986.83 -680.17,-1041.2 -31.74,18.46 -65.9,28.12 -102.8,28.12 l -1364.43,0 c -116.09,0 -209.23,-93.14 -209.23,-209.23 l 0,-1885.59 c 7.92,-101.93 94.9,-180.98 196.83,-180.98 l 1225.7,0 c 108.19,0 196.82,87.84 196.82,196.81 l 0,62.37 c 0,0 45.58,3.51 65.9,-9.65 79.08,-50.09 176.5,-113.36 303.13,-113.36 l 1829.35,0 c 683.57,0 610.65,607.15 548.26,689.74 115.11,125.67 186.3,347.95 88.74,522.81 75.58,79.95 207.37,297.85 88.77,523.68 l 0,0"
         style="fill:#325d8c;fill-opacity:1;fill-rule:nonzero;stroke:none"
         id="path82" /><path
         d="m 1856.98,2228.07 1184.52,0 0,1882.06 -1184.52,0 0,-1882.06 z"
         style="fill:#325d8c;fill-opacity:1;fill-rule:nonzero;stroke:none"
         id="path84" /><path
         d="m 5885.58,3919.47 -10.55,-46.57 c 314.55,-89.62 146.71,-452.5 -79.08,-476.23 l -11.45,-46.57 c 302.27,-76.44 158.17,-450.75 -78.19,-476.22 l -11.4,-46.57 c 246.88,-40.42 187.15,-461.3 -186.28,-461.3 l -1860.98,-0.87 c -130.92,0 -250.41,150.25 -347.06,150.25 l -84.36,0 0,1448.01 c 104.57,65.9 233.73,150.24 305.67,210.87 135.42,115.88 690.74,1013.19 690.74,1125.65 0,112.47 -11.43,598.25 -11.43,598.25 0,0 108.06,140.59 351.45,37.79 0,0 204.74,-383.97 225.81,-689.86 0,0 -92.26,-628.87 -141.46,-826.58 l 1288.98,0 c 317.19,-0.88 256.56,-453.48 -40.41,-500.05 l 0,0"
         style="fill:#eeebef;fill-opacity:1;fill-rule:nonzero;stroke:none"
         id="path86" /><path
         d="m 2610.35,2452.19 c 0,-88.97 -72.13,-161.11 -161.11,-161.11 -88.98,0 -161.12,72.14 -161.12,161.11 0,89 72.14,161.13 161.12,161.13 88.98,0 161.11,-72.13 161.11,-161.13"
         style="fill:#eeebef;fill-opacity:1;fill-rule:nonzero;stroke:none"
         id="path88" /><path
         d="m 2895.25,476.289 c 0,-5.957 0.9,-11.019 2.79,-15.23 1.84,-4.207 4.39,-7.36 7.61,-9.45 3.2,-2.179 6.75,-3.25 10.58,-3.25 l 0.07,0 0,-16.429 c -2.18,-0.379 -4.45,-0.59 -6.85,-0.59 -5.27,0 -10.17,1.101 -14.65,3.32 -4.5,2.262 -8.4,5.449 -11.67,9.59 -3.29,4.109 -5.77,9 -7.48,14.621 -1.7,5.609 -2.53,11.668 -2.53,18.168 0,13.762 3.35,24.512 10.09,32.211 6.73,7.711 15.58,11.539 26.53,11.539 2.35,0 4.52,-0.148 6.56,-0.437 l 0,-15.891 -0.23,0 c -4.03,0 -7.65,-1.09 -10.81,-3.391 -3.19,-2.289 -5.63,-5.609 -7.38,-9.89 -1.76,-4.239 -2.63,-9.239 -2.63,-14.891 m 21.05,-27.93 c 3.83,0 7.36,1.02 10.52,3.043 3.22,2.02 5.79,5.098 7.71,9.278 1.88,4.211 2.84,9.379 2.84,15.609 0,5.891 -0.96,10.922 -2.84,15.16 -1.92,4.211 -4.51,7.5 -7.77,9.692 -3.19,2.23 -6.66,3.289 -10.46,3.32 l 0,15.891 c 3.59,-0.524 6.74,-1.442 9.51,-2.852 4.39,-2.148 8.65,-5.539 12.77,-10.008 l 0,32.5 c 0,4.559 0.91,7.949 2.72,10.278 1.82,2.359 4.37,3.449 7.69,3.449 3.34,0 5.94,-1.059 7.7,-3.219 1.85,-2.078 2.72,-5.23 2.72,-9.34 l 0,-97.199 c 0,-4.231 -0.96,-7.379 -2.87,-9.473 -1.95,-2.117 -4.49,-3.148 -7.55,-3.148 -3.01,0 -5.49,1.07 -7.46,3.262 -1.97,2.148 -2.95,5.296 -2.95,9.359 l 0,2.168 c -2.96,-3.457 -5.88,-6.129 -8.76,-8.277 -2.88,-2.122 -5.97,-3.731 -9.38,-4.903 -1.32,-0.367 -2.72,-0.75 -4.14,-1.019 l 0,16.429"
         style="fill:#ffffff;fill-opacity:1;fill-rule:evenodd;stroke:none"
         id="path90" /><path
         d="m 2999.99,483.27 19.94,0 0,-12.559 -19.94,0 c 0.02,-4.961 1.02,-9.379 2.98,-13.211 1.95,-3.84 4.56,-6.711 7.86,-8.59 2.79,-1.719 5.8,-2.64 9.1,-2.879 l 0,-14.652 c -13.07,0.41 -23.29,4.48 -30.72,12.082 -7.89,8.078 -11.79,19.039 -11.79,32.828 0,6.543 0.96,12.563 2.91,18.141 1.93,5.582 4.76,10.371 8.47,14.351 3.7,3.969 8.3,7.008 13.74,9.168 5.23,2.02 11.04,3.082 17.39,3.153 l 0,-15.34 -0.03,0 c -5.49,0 -10.01,-1.883 -13.54,-5.653 -3.52,-3.828 -5.66,-9.437 -6.37,-16.839 m 19.94,-51.891 0,14.652 c 0.55,-0.031 1.1,-0.07 1.65,-0.07 2.65,0 5.05,0.309 7.22,0.918 2.17,0.59 4.26,1.613 6.35,2.949 2.04,1.274 3.92,2.703 5.65,4.184 1.73,1.539 3.92,3.547 6.69,6.16 1.15,0.949 2.76,1.469 4.83,1.469 2.26,0 4.09,-0.621 5.53,-1.879 1.4,-1.242 2.09,-2.981 2.09,-5.242 0,-1.989 -0.76,-4.301 -2.37,-7.02 -1.54,-2.629 -3.9,-5.199 -7.07,-7.629 -3.11,-2.473 -7.05,-4.492 -11.86,-6.129 -4.77,-1.57 -10.22,-2.402 -16.43,-2.402 -0.77,0 -1.52,0 -2.28,0.039 m 0,51.891 19.98,0 c -0.51,7.5 -2.55,13.152 -6.11,16.882 -3.49,3.727 -8.15,5.61 -13.87,5.61 l 0,15.34 0.69,0 c 8.63,0 15.99,-1.782 22.15,-5.442 6.19,-3.672 10.78,-8.359 13.88,-14.07 3.05,-5.75 4.55,-11.641 4.55,-17.629 0,-5.512 -1.57,-9.141 -4.76,-10.789 -3.18,-1.602 -7.61,-2.461 -13.37,-2.461 l -23.14,0 0,12.559"
         style="fill:#ffffff;fill-opacity:1;fill-rule:evenodd;stroke:none"
         id="path92" /><path
         d="m 3150.77,460.172 c 0,-6.063 -1.51,-11.262 -4.45,-15.613 -3,-4.348 -7.36,-7.637 -13.09,-9.899 -5.81,-2.219 -12.88,-3.32 -21.14,-3.32 -7.89,0 -14.71,1.242 -20.35,3.629 -5.72,2.429 -9.79,5.48 -12.5,9.07 -2.7,3.633 -4.04,7.293 -4.04,10.961 0,2.43 0.82,4.48 2.57,6.191 1.74,1.75 3.87,2.61 6.57,2.61 2.3,0 4.08,-0.59 5.31,-1.75 1.26,-1.031 2.43,-2.672 3.56,-4.692 2.26,-3.937 4.96,-6.879 8.08,-8.8 3.18,-1.95 7.44,-2.938 12.9,-2.938 4.4,0 8.03,0.988 10.85,2.938 2.83,1.992 4.25,4.211 4.25,6.75 0,3.902 -1.47,6.703 -4.42,8.492 -2.92,1.738 -7.75,3.488 -14.48,5.101 -7.6,1.879 -13.79,3.797 -18.52,5.918 -4.76,2.09 -8.56,4.789 -11.4,8.18 -2.91,3.391 -4.31,7.562 -4.31,12.531 0,4.379 1.34,8.59 3.97,12.531 2.6,3.899 6.54,7.02 11.67,9.379 5.1,2.36 11.34,3.489 18.59,3.489 5.72,0 10.82,-0.551 15.35,-1.75 4.59,-1.16 8.38,-2.77 11.4,-4.789 3.07,-1.993 5.36,-4.18 6.94,-6.61 1.59,-2.429 2.39,-4.75 2.39,-7.082 0,-2.539 -0.85,-4.621 -2.53,-6.23 -1.7,-1.578 -4.12,-2.399 -7.24,-2.399 -2.26,0 -4.16,0.621 -5.8,1.918 -1.54,1.262 -3.39,3.223 -5.43,5.782 -1.66,2.16 -3.61,3.941 -5.87,5.21 -2.29,1.301 -5.34,1.95 -9.21,1.95 -4,0 -7.29,-0.891 -9.92,-2.598 -2.64,-1.652 -3.94,-3.77 -3.94,-6.27 0,-2.363 0.96,-4.242 2.91,-5.722 1.91,-1.5 4.52,-2.731 7.8,-3.692 3.27,-0.957 7.84,-2.117 13.58,-3.558 6.81,-1.649 12.42,-3.602 16.74,-5.961 4.36,-2.328 7.61,-5.027 9.84,-8.18 2.26,-3.179 3.37,-6.777 3.37,-10.777"
         style="fill:#ffffff;fill-opacity:1;fill-rule:evenodd;stroke:none"
         id="path94" /><path
         d="m 3180.55,531.199 c -3.08,0 -5.68,0.992 -7.85,2.84 -2.2,1.883 -3.29,4.52 -3.29,7.981 0,3.109 1.13,5.71 3.35,7.73 2.21,2.02 4.83,3.012 7.79,3.012 2.84,0 5.36,-0.922 7.58,-2.703 2.21,-1.879 3.31,-4.547 3.31,-8.039 0,-3.391 -1.08,-6.028 -3.22,-7.95 -2.16,-1.84 -4.72,-2.871 -7.67,-2.871 m 10.89,-22.73 0,-63.739 c 0,-4.421 -1.05,-7.742 -3.14,-10 -2.08,-2.289 -4.77,-3.39 -8.01,-3.39 -3.21,0 -5.85,1.129 -7.85,3.488 -2.04,2.301 -3.03,5.621 -3.03,9.902 l 0,63.051 c 0,4.379 0.99,7.711 3.03,9.86 2,2.187 4.64,3.289 7.85,3.289 3.24,0 5.91,-1.102 8.01,-3.289 2.09,-2.149 3.14,-5.25 3.14,-9.172"
         style="fill:#ffffff;fill-opacity:1;fill-rule:evenodd;stroke:none"
         id="path96" /><path
         d="m 3252.63,413.988 0,-15.34 -1.51,0 c -7.57,0 -14.38,1.063 -20.33,3.192 -5.99,2.121 -10.58,4.89 -13.83,8.211 -3.22,3.39 -4.81,6.847 -4.81,10.41 0,2.699 0.9,4.859 2.68,6.539 1.85,1.711 4.04,2.559 6.65,2.559 3.21,0 6.05,-1.399 8.48,-4.239 1.2,-1.468 2.37,-2.949 3.67,-4.418 1.26,-1.433 2.67,-2.742 4.21,-3.8 1.5,-1.063 3.39,-1.84 5.51,-2.321 2.15,-0.519 4.65,-0.793 7.46,-0.793 0.58,0 1.2,0 1.82,0 m -21.23,62.852 c 0,-8.871 1.95,-15.68 5.89,-20.231 3.87,-4.558 8.93,-6.847 15.13,-6.847 l 0.21,0 0,-15.813 c -2.16,-0.418 -4.42,-0.59 -6.82,-0.59 -7.39,0 -13.86,1.891 -19.37,5.653 -5.51,3.769 -9.76,9.039 -12.7,15.847 -2.98,6.782 -4.43,14.582 -4.43,23.481 0,6.582 0.9,12.601 2.67,17.91 1.83,5.34 4.36,9.859 7.71,13.492 3.36,3.688 7.19,6.43 11.57,8.278 4.35,1.808 9.11,2.769 14.38,2.769 2.43,0 4.79,-0.168 6.99,-0.551 l 0,-15.777 -0.38,0 c -6.33,0 -11.37,-2.359 -15.17,-7.152 -3.76,-4.829 -5.68,-11.61 -5.68,-20.469 m 21.23,-27.078 c 3.56,0.039 6.98,1.027 10.13,2.91 3.28,1.988 5.96,4.93 7.94,8.898 2.12,3.969 3.12,8.762 3.12,14.41 0,9.012 -1.99,15.969 -5.96,20.989 -3.87,4.929 -8.97,7.39 -15.23,7.492 l 0,15.777 c 3.39,-0.578 6.46,-1.609 9.24,-3.008 4.55,-2.39 8.8,-6.191 12.77,-11.289 l 0,3.008 c 0,3.801 0.89,6.742 2.8,8.832 1.89,2.16 4.32,3.149 7.23,3.149 4.28,0 7.12,-1.399 8.52,-4.18 1.37,-2.699 2.05,-6.668 2.05,-11.949 l 0,-64.012 c 0,-7.289 -0.75,-13.617 -2.32,-18.891 -1.54,-5.308 -4.01,-9.617 -7.5,-13.078 -3.42,-3.422 -7.91,-6.031 -13.52,-7.672 -5.24,-1.566 -11.67,-2.398 -19.27,-2.5 l 0,15.34 c 4.79,0.172 8.59,0.922 11.43,2.364 3.18,1.609 5.37,3.8 6.64,6.668 1.27,2.882 1.95,5.96 2.19,9.152 0.21,3.25 0.38,8.519 0.55,15.707 -3.46,-4.688 -7.36,-8.359 -11.85,-10.82 -2.67,-1.469 -5.64,-2.528 -8.96,-3.11 l 0,15.813"
         style="fill:#ffffff;fill-opacity:1;fill-rule:evenodd;stroke:none"
         id="path98" /><path
         d="m 3337.55,508.781 0,-2.672 c 3.91,5.133 8.19,8.903 12.77,11.219 4.59,2.402 9.86,3.602 15.85,3.602 5.82,0 10.99,-1.231 15.58,-3.731 4.55,-2.57 7.97,-6.16 10.23,-10.75 1.48,-2.707 2.4,-5.617 2.81,-8.73 0.44,-3.149 0.65,-7.09 0.65,-11.949 l 0,-41.04 c 0,-4.421 -1.03,-7.742 -3.01,-10 -2.02,-2.289 -4.66,-3.39 -7.88,-3.39 -3.28,0 -5.92,1.129 -7.97,3.488 -2.05,2.301 -3.05,5.621 -3.05,9.902 l 0,36.758 c 0,7.192 -1.06,12.813 -3.04,16.672 -2.02,3.84 -6.06,5.75 -12.09,5.75 -3.9,0 -7.5,-1.191 -10.71,-3.488 -3.25,-2.32 -5.62,-5.543 -7.09,-9.652 -1.09,-3.321 -1.68,-9.481 -1.68,-18.418 l 0,-27.622 c 0,-4.421 -1.02,-7.808 -3.04,-10.07 -2.13,-2.219 -4.79,-3.32 -8.08,-3.32 -3.19,0 -5.75,1.129 -7.84,3.488 -2.02,2.301 -3.05,5.621 -3.05,9.902 l 0,63.739 c 0,4.172 0.93,7.32 2.78,9.383 1.81,2.07 4.31,3.078 7.46,3.078 1.91,0 3.7,-0.41 5.24,-1.371 1.57,-0.887 2.8,-2.231 3.76,-4.067 0.96,-1.851 1.4,-4.082 1.4,-6.711"
         style="fill:#ffffff;fill-opacity:1;fill-rule:evenodd;stroke:none"
         id="path100" /><path
         d="m 3435.87,483.27 19.95,0 0,-12.559 -19.95,0 c 0,-4.961 1.03,-9.379 3.01,-13.211 1.88,-3.84 4.55,-6.711 7.77,-8.59 2.84,-1.719 5.86,-2.64 9.17,-2.879 l 0,-14.652 c -13.07,0.41 -23.27,4.48 -30.74,12.082 -7.83,8.078 -11.77,19.039 -11.77,32.828 0,6.543 0.99,12.563 2.91,18.141 1.92,5.582 4.76,10.371 8.49,14.351 3.7,3.969 8.25,7.008 13.73,9.168 5.23,2.02 11.02,3.082 17.38,3.153 l 0,-15.34 -0.06,0 c -5.48,0 -9.96,-1.883 -13.52,-5.653 -3.53,-3.828 -5.65,-9.437 -6.37,-16.839 m 19.95,-51.891 0,14.652 c 0.55,-0.031 1.07,-0.07 1.65,-0.07 2.67,0 5,0.309 7.22,0.918 2.19,0.59 4.25,1.613 6.33,2.949 2.06,1.274 3.94,2.703 5.65,4.184 1.72,1.539 3.94,3.547 6.71,6.16 1.17,0.949 2.74,1.469 4.83,1.469 2.26,0 4.07,-0.621 5.51,-1.879 1.4,-1.242 2.12,-2.981 2.12,-5.242 0,-1.989 -0.79,-4.301 -2.39,-7.02 -1.54,-2.629 -3.91,-5.199 -7.06,-7.629 -3.11,-2.473 -7.05,-4.492 -11.87,-6.129 -4.76,-1.57 -10.24,-2.402 -16.37,-2.402 -0.85,0 -1.57,0 -2.33,0.039 m 0,51.891 20,0 c -0.55,7.5 -2.61,13.152 -6.16,16.882 -3.46,3.727 -8.12,5.61 -13.84,5.61 l 0,15.34 0.66,0 c 8.66,0 16.02,-1.782 22.18,-5.442 6.16,-3.672 10.75,-8.359 13.83,-14.07 3.08,-5.75 4.62,-11.641 4.62,-17.629 0,-5.512 -1.58,-9.141 -4.79,-10.789 -3.15,-1.602 -7.57,-2.461 -13.35,-2.461 l -23.15,0 0,12.559"
         style="fill:#ffffff;fill-opacity:1;fill-rule:evenodd;stroke:none"
         id="path102" /><path
         d="m 3532.71,476.289 c 0,-5.957 0.92,-11.019 2.77,-15.23 1.89,-4.207 4.42,-7.36 7.64,-9.45 3.25,-2.179 6.77,-3.25 10.57,-3.25 l 0.07,0 0,-16.429 c -2.15,-0.379 -4.45,-0.59 -6.84,-0.59 -5.28,0 -10.17,1.101 -14.65,3.32 -4.49,2.262 -8.36,5.449 -11.64,9.59 -3.29,4.109 -5.79,9 -7.5,14.621 -1.68,5.609 -2.53,11.668 -2.53,18.168 0,13.762 3.32,24.512 10.09,32.211 6.71,7.711 15.58,11.539 26.57,11.539 2.29,0 4.48,-0.148 6.5,-0.437 l 0,-15.891 -0.24,0 c -4,0 -7.6,-1.09 -10.81,-3.391 -3.19,-2.289 -5.62,-5.609 -7.36,-9.89 -1.75,-4.239 -2.64,-9.239 -2.64,-14.891 m 21.05,-27.93 c 3.87,0.032 7.4,1.063 10.55,3.043 3.18,2.02 5.75,5.098 7.66,9.278 1.95,4.211 2.91,9.379 2.91,15.609 0,5.891 -0.96,10.922 -2.91,15.16 -1.91,4.211 -4.48,7.5 -7.73,9.692 -3.19,2.191 -6.64,3.289 -10.48,3.32 l 0,15.891 c 3.6,-0.524 6.78,-1.442 9.52,-2.852 4.38,-2.148 8.63,-5.539 12.8,-10.008 l 0,32.5 c 0,4.559 0.89,7.949 2.67,10.278 1.82,2.359 4.38,3.449 7.74,3.449 3.35,0 5.85,-1.059 7.7,-3.219 1.81,-2.078 2.71,-5.23 2.71,-9.34 l 0,-97.199 c 0,-4.231 -0.96,-7.379 -2.88,-9.473 -1.99,-2.117 -4.52,-3.148 -7.53,-3.148 -3.01,0 -5.51,1.07 -7.46,3.262 -1.99,2.148 -2.95,5.296 -2.95,9.359 l 0,2.168 c -3.01,-3.457 -5.92,-6.129 -8.83,-8.277 -2.84,-2.122 -5.96,-3.731 -9.31,-4.903 -1.3,-0.367 -2.67,-0.75 -4.18,-1.019 l 0,16.429"
         style="fill:#ffffff;fill-opacity:1;fill-rule:evenodd;stroke:none"
         id="path104" /><path
         d="m 3681.76,475.672 c 0,-8.793 2.02,-15.5 5.99,-20.231 3.9,-4.55 8.9,-6.91 15.06,-7.082 l 0,-16.5 c -1.13,0.172 -2.19,0.411 -3.29,0.723 -2.98,0.777 -5.51,1.879 -7.6,3.18 -2.09,1.297 -3.9,2.668 -5.37,4.066 -1.47,1.371 -3.46,3.492 -5.86,6.301 l 0,-2.188 c 0,-4.171 -0.95,-7.293 -3.01,-9.453 -1.95,-2.117 -4.48,-3.148 -7.56,-3.148 -3.12,0 -5.62,1.031 -7.47,3.148 -1.88,2.16 -2.8,5.282 -2.8,9.453 l 0,96.258 c 0,4.422 0.92,7.813 2.7,10.071 1.85,2.359 4.32,3.449 7.57,3.449 3.42,0 5.99,-1.059 7.84,-3.278 1.81,-2.203 2.73,-5.281 2.73,-9.281 l 0,-33.68 c 4.15,4.34 8.36,7.602 12.67,9.848 2.77,1.512 5.92,2.473 9.45,3.024 l 0,-15.891 c -3.9,-0.129 -7.36,-1.262 -10.48,-3.391 -3.28,-2.289 -5.88,-5.609 -7.77,-9.961 -1.88,-4.347 -2.8,-9.48 -2.8,-15.437 m 21.05,-27.313 0.72,0 c 5.58,0 10.34,2.43 14.34,7.223 4.04,4.828 6.03,11.738 6.03,20.707 0,5.852 -0.83,10.82 -2.5,15.063 -1.68,4.179 -4.04,7.429 -7.13,9.718 -3.04,2.301 -6.64,3.391 -10.74,3.391 -0.24,0 -0.45,0 -0.72,0 l 0,15.891 c 2.05,0.269 4.24,0.437 6.54,0.437 7.32,0 13.76,-1.75 19.3,-5.199 5.48,-3.43 9.76,-8.461 12.77,-15.129 3.08,-6.539 4.59,-14.383 4.59,-23.422 0,-6.707 -0.86,-12.828 -2.53,-18.379 -1.72,-5.551 -4.18,-10.398 -7.4,-14.441 -3.22,-4.11 -7.15,-7.297 -11.77,-9.559 -4.59,-2.219 -9.62,-3.32 -15.17,-3.32 -2.19,0 -4.28,0.172 -6.33,0.519 l 0,16.5"
         style="fill:#ffffff;fill-opacity:1;fill-rule:evenodd;stroke:none"
         id="path106" /><path
         d="m 3781.85,428.609 2.02,4.911 -27.15,68.292 c -1.61,3.95 -2.5,6.79 -2.5,8.54 0,1.878 0.55,3.699 1.51,5.308 0.92,1.61 2.23,2.871 3.97,3.828 1.68,0.961 3.46,1.442 5.27,1.442 3.19,0 5.55,-0.989 7.19,-2.981 1.61,-2.019 3.05,-4.929 4.32,-8.699 l 18.62,-54.25 17.66,50.449 c 1.4,4.11 2.71,7.301 3.83,9.633 1.13,2.289 2.3,3.859 3.6,4.648 1.27,0.821 3.01,1.2 5.34,1.2 1.68,0 3.25,-0.41 4.76,-1.371 1.61,-0.817 2.77,-2.059 3.56,-3.559 0.89,-1.469 1.3,-3.051 1.3,-4.719 -0.21,-0.961 -0.58,-2.472 -1.03,-4.351 -0.51,-1.918 -1.13,-3.868 -1.81,-5.75 l -28.76,-75.211 c -2.43,-6.707 -4.86,-11.84 -7.29,-15.61 -2.29,-3.769 -5.44,-6.64 -9.34,-8.687 -3.91,-1.992 -9.21,-3.024 -15.82,-3.024 -6.44,0 -11.3,0.723 -14.51,2.09 -3.22,1.391 -4.83,3.942 -4.83,7.672 0,2.531 0.72,4.481 2.29,5.891 1.54,1.371 3.77,2.019 6.81,2.019 1.17,0 2.37,-0.14 3.5,-0.48 1.4,-0.309 2.6,-0.449 3.63,-0.449 2.49,0 4.51,0.339 5.95,1.129 1.47,0.691 2.77,2.019 3.94,3.871 1.13,1.879 2.46,4.621 3.97,8.218"
         style="fill:#ffffff;fill-opacity:1;fill-rule:evenodd;stroke:none"
         id="path108" /><path
         d="m 4189.72,519.039 5.24,0 0,6.609 c 0,6.922 0.92,12.332 2.67,16.434 1.68,4.039 4.69,7.02 8.83,8.84 4.21,1.898 9.89,2.797 17.22,2.797 12.8,0 19.27,-3.11 19.27,-9.407 0,-2.023 -0.68,-3.8 -2.05,-5.273 -1.34,-1.437 -2.91,-2.187 -4.76,-2.187 -0.86,0 -2.36,0.168 -4.42,0.507 -2.12,0.313 -3.86,0.481 -5.37,0.481 -3.97,0 -6.51,-1.16 -7.63,-3.528 -1.13,-2.332 -1.72,-5.71 -1.72,-10.031 l 0,-5.242 5.41,0 c 8.42,0 12.63,-2.598 12.63,-7.59 0,-3.597 -1.13,-5.887 -3.38,-6.879 -2.23,-0.961 -5.31,-1.508 -9.25,-1.508 l -5.41,0 0,-58.332 c 0,-4.351 -1.06,-7.671 -3.11,-10 -2.02,-2.289 -4.72,-3.39 -8.05,-3.39 -3.08,0 -5.68,1.101 -7.73,3.39 -2.12,2.329 -3.15,5.649 -3.15,10 l 0,58.332 -6.06,0 c -3.29,0 -5.75,0.79 -7.57,2.29 -1.78,1.48 -2.67,3.39 -2.67,5.75 0,5.308 3.67,7.937 11.06,7.937"
         style="fill:#ffffff;fill-opacity:1;fill-rule:evenodd;stroke:none"
         id="path110" /><path
         d="m 4268.45,463.18 0,-18.45 c 0,-4.421 -1.06,-7.808 -3.11,-10.07 -2.12,-2.219 -4.76,-3.32 -8.04,-3.32 -3.15,0 -5.79,1.101 -7.81,3.39 -2.05,2.258 -3.05,5.579 -3.05,10 l 0,61.379 c 0,9.891 3.53,14.821 10.68,14.821 3.67,0 6.34,-1.129 7.95,-3.461 1.6,-2.258 2.46,-5.719 2.67,-10.227 2.6,4.508 5.34,7.969 8.11,10.227 2.77,2.332 6.43,3.461 11.09,3.461 4.62,0 9.11,-1.129 13.45,-3.461 4.38,-2.258 6.57,-5.367 6.57,-9.137 0,-2.742 -0.88,-4.93 -2.77,-6.711 -1.88,-1.742 -3.87,-2.601 -6.02,-2.601 -0.82,0 -2.78,0.48 -5.86,1.441 -3.08,1.019 -5.82,1.539 -8.21,1.539 -3.25,0 -5.86,-0.859 -7.88,-2.602 -2.05,-1.648 -3.66,-4.179 -4.82,-7.5 -1.1,-3.359 -1.88,-7.328 -2.3,-11.949 -0.44,-4.551 -0.65,-10.16 -0.65,-16.769"
         style="fill:#ffffff;fill-opacity:1;fill-rule:evenodd;stroke:none"
         id="path112" /><path
         d="m 4333.29,483.27 19.96,0 0,-12.559 -19.96,0 c 0.07,-4.961 1.03,-9.379 2.98,-13.211 2.02,-3.84 4.58,-6.711 7.91,-8.59 2.73,-1.719 5.81,-2.64 9.07,-2.879 l 0,-14.652 c -13.05,0.41 -23.32,4.48 -30.71,12.082 -7.84,8.078 -11.81,19.039 -11.81,32.828 0,6.543 0.99,12.563 2.95,18.141 1.95,5.582 4.72,10.371 8.45,14.351 3.7,3.969 8.28,7.008 13.73,9.168 5.23,2.02 11.02,3.082 17.39,3.153 l 0,-15.34 -0.04,0 c -5.48,0 -9.99,-1.883 -13.59,-5.653 -3.45,-3.828 -5.58,-9.437 -6.33,-16.839 m 19.96,-51.891 0,14.652 c 0.54,-0.031 1.13,-0.07 1.67,-0.07 2.64,0 5.04,0.309 7.19,0.918 2.19,0.59 4.35,1.613 6.37,2.949 2.05,1.274 3.94,2.703 5.65,4.184 1.71,1.539 4,3.547 6.67,6.16 1.17,0.949 2.81,1.469 4.9,1.469 2.19,0 4.07,-0.621 5.47,-1.879 1.38,-1.242 2.09,-2.981 2.09,-5.242 0,-1.989 -0.78,-4.301 -2.32,-7.02 -1.61,-2.629 -3.94,-5.199 -7.02,-7.629 -3.19,-2.473 -7.16,-4.492 -11.95,-6.129 -4.76,-1.57 -10.2,-2.402 -16.4,-2.402 -0.82,0 -1.54,0 -2.32,0.039 m 0,51.891 19.99,0 c -0.58,7.5 -2.57,13.152 -6.1,16.882 -3.49,3.727 -8.14,5.61 -13.89,5.61 l 0,15.34 0.75,0 c 8.56,0 15.88,-1.782 22.08,-5.442 6.16,-3.672 10.78,-8.359 13.9,-14.07 3.01,-5.75 4.58,-11.641 4.58,-17.629 0,-5.512 -1.57,-9.141 -4.79,-10.789 -3.15,-1.602 -7.6,-2.461 -13.38,-2.461 l -23.14,0 0,12.559"
         style="fill:#ffffff;fill-opacity:1;fill-rule:evenodd;stroke:none"
         id="path114" /><path
         d="m 4431.5,483.27 20.03,0 0,-12.559 -20.03,0 c 0.1,-4.961 1.1,-9.379 3.05,-13.211 1.98,-3.84 4.55,-6.711 7.84,-8.59 2.8,-1.719 5.85,-2.64 9.14,-2.879 l 0,-14.652 c -13.08,0.41 -23.32,4.48 -30.71,12.082 -7.91,8.078 -11.81,19.039 -11.81,32.828 0,6.543 0.99,12.563 2.88,18.141 1.98,5.582 4.79,10.371 8.52,14.351 3.66,3.969 8.22,7.008 13.73,9.168 5.23,2.02 11.05,3.082 17.39,3.153 l 0,-15.34 -0.07,0 c -5.48,0 -10,-1.883 -13.52,-5.653 -3.53,-3.828 -5.69,-9.437 -6.44,-16.839 m 20.03,-51.891 0,14.652 c 0.51,-0.07 1.06,-0.07 1.61,-0.07 2.7,0 5.03,0.309 7.22,0.918 2.22,0.59 4.31,1.613 6.33,2.949 2.05,1.274 3.97,2.703 5.72,4.184 1.67,1.539 3.97,3.547 6.67,6.16 1.17,0.949 2.71,1.469 4.83,1.469 2.33,0 4.14,-0.621 5.55,-1.879 1.33,-1.242 2.05,-2.981 2.05,-5.242 0,-1.989 -0.75,-4.301 -2.33,-7.02 -1.54,-2.629 -3.94,-5.199 -7.09,-7.629 -3.15,-2.473 -7.11,-4.492 -11.84,-6.129 -4.79,-1.57 -10.23,-2.402 -16.46,-2.402 -0.76,0 -1.51,0 -2.26,0.039 m 0,51.891 19.95,0 c -0.58,7.5 -2.6,13.152 -6.06,16.882 -3.56,3.727 -8.14,5.61 -13.89,5.61 l 0,15.34 0.65,0 c 8.62,0 16.02,-1.782 22.18,-5.442 6.13,-3.672 10.78,-8.359 13.86,-14.07 3.05,-5.75 4.59,-11.641 4.59,-17.629 0,-5.512 -1.61,-9.141 -4.76,-10.789 -3.15,-1.602 -7.6,-2.461 -13.42,-2.461 l -23.1,0 0,12.559"
         style="fill:#ffffff;fill-opacity:1;fill-rule:evenodd;stroke:none"
         id="path116" /><path
         d="m 4551.65,504.461 c -5.81,-0.129 -10.78,-2.531 -14.78,-7.152 -4.21,-4.829 -6.27,-11.848 -6.27,-21.188 0,-8.73 2.06,-15.539 6.27,-20.441 3.9,-4.719 8.86,-7.149 14.78,-7.321 l 0,-16.57 c -3.76,0.551 -7.05,1.68 -9.85,3.352 -4.32,2.5 -8.43,6.199 -12.29,11.16 l 0,-33.102 c 0,-9.719 -3.53,-14.551 -10.51,-14.551 -4.18,0 -6.92,1.274 -8.29,3.774 -1.33,2.457 -1.98,6.156 -1.98,10.949 l 0,95.098 c 0,4.172 0.92,7.32 2.7,9.383 1.88,2.089 4.35,3.078 7.57,3.078 3.08,0 5.61,-0.989 7.6,-3.149 1.98,-2.121 2.91,-5.199 2.91,-9.179 l 0,-2.661 c 4.21,5.098 8.52,8.899 12.97,11.289 2.81,1.469 5.85,2.5 9.17,3.051 l 0,-15.82 z m 21.06,-27.93 c 0,5.848 -0.86,10.821 -2.67,14.989 -1.78,4.179 -4.21,7.429 -7.36,9.621 -3.12,2.261 -6.64,3.32 -10.44,3.32 l -0.59,0 0,15.82 c 1.89,0.34 3.87,0.508 5.96,0.508 6.81,0 13.01,-1.75 18.76,-5.238 5.72,-3.563 10.23,-8.621 13.56,-15.332 3.25,-6.707 4.92,-14.688 4.92,-23.93 0,-6.738 -0.99,-12.969 -2.87,-18.687 -1.92,-5.653 -4.52,-10.442 -7.88,-14.282 -3.35,-3.8 -7.29,-6.84 -11.77,-8.859 -4.59,-2.09 -9.45,-3.121 -14.72,-3.121 -2.09,0 -4.11,0.14 -5.96,0.449 l 0,16.57 0.59,0 c 3.69,0 7.05,1.063 10.16,3.25 3.12,2.09 5.62,5.243 7.5,9.512 1.81,4.277 2.81,9.418 2.81,15.41"
         style="fill:#ffffff;fill-opacity:1;fill-rule:evenodd;stroke:none"
         id="path118" /><path
         d="m 4623.71,531.199 c -3.11,0 -5.75,0.992 -7.91,2.84 -2.15,1.883 -3.25,4.52 -3.25,7.981 0,3.109 1.1,5.71 3.32,7.73 2.23,2.02 4.86,3.012 7.84,3.012 2.81,0 5.34,-0.922 7.57,-2.703 2.19,-1.879 3.28,-4.547 3.28,-8.039 0,-3.391 -1.06,-6.028 -3.21,-7.95 -2.13,-1.84 -4.73,-2.871 -7.64,-2.871 m 10.85,-22.73 0,-63.739 c 0,-4.421 -1.06,-7.742 -3.15,-10 -2.08,-2.289 -4.75,-3.39 -7.97,-3.39 -3.22,0 -5.82,1.129 -7.87,3.488 -2.06,2.301 -3.02,5.621 -3.02,9.902 l 0,63.051 c 0,4.379 0.96,7.711 3.02,9.86 2.05,2.187 4.65,3.289 7.87,3.289 3.22,0 5.89,-1.102 7.97,-3.289 2.09,-2.149 3.15,-5.25 3.15,-9.172"
         style="fill:#ffffff;fill-opacity:1;fill-rule:evenodd;stroke:none"
         id="path120" /><path
         d="m 4712.27,441.441 -19.51,31.969 -11.98,-11.34 0,-17.511 c 0,-4.25 -1.07,-7.5 -3.26,-9.829 -2.26,-2.289 -4.86,-3.39 -7.73,-3.39 -3.43,0 -6.09,1.101 -8.01,3.39 -1.95,2.258 -2.88,5.579 -2.88,10 l 0,93.961 c 0,4.93 0.86,8.668 2.77,11.2 1.96,2.57 4.63,3.828 8.12,3.828 3.39,0 6.09,-1.09 8.08,-3.449 1.95,-2.329 2.91,-5.719 2.91,-10.278 l 0,-53.433 24.85,26.023 c 3.05,3.207 5.37,5.438 6.98,6.598 1.64,1.199 3.6,1.75 5.89,1.75 2.77,0 5.07,-0.821 6.91,-2.598 1.78,-1.75 2.71,-3.941 2.71,-6.582 0,-3.211 -2.94,-7.531 -8.97,-12.941 l -11.64,-10.68 22.56,-35.559 c 1.71,-2.64 2.91,-4.66 3.6,-6.031 0.78,-1.328 1.06,-2.668 1.06,-3.867 0,-3.524 -0.93,-6.262 -2.85,-8.313 -1.88,-1.988 -4.45,-3.019 -7.53,-3.019 -2.67,0 -4.79,0.719 -6.23,2.191 -1.43,1.438 -3.39,4.11 -5.85,7.91"
         style="fill:#ffffff;fill-opacity:1;fill-rule:evenodd;stroke:none"
         id="path122" /><path
         d="m 4766.73,431.34 c -3.32,0 -6.19,1.07 -8.59,3.262 -2.43,2.117 -3.73,5.128 -3.73,9.027 0,3.293 1.23,6.101 3.49,8.461 2.33,2.359 5.24,3.558 8.59,3.558 3.43,0 6.3,-1.199 8.66,-3.488 2.43,-2.332 3.6,-5.172 3.6,-8.531 0,-3.859 -1.17,-6.879 -3.6,-9.027 -2.36,-2.192 -5.2,-3.262 -8.42,-3.262"
         style="fill:#ffffff;fill-opacity:1;fill-rule:evenodd;stroke:none"
         id="path124" /><path
         d="m 4882.95,458.629 c 0,-2.719 -0.89,-5.649 -2.5,-8.801 -1.64,-3.148 -4.14,-6.086 -7.46,-8.937 -3.39,-2.84 -7.64,-5.102 -12.77,-6.77 -5.1,-1.75 -10.89,-2.609 -17.25,-2.609 -13.63,0 -24.24,4.008 -31.91,11.879 -7.63,7.941 -11.46,18.589 -11.46,31.91 0,9.097 1.77,17.109 5.27,24.058 3.45,6.922 8.52,12.262 15.19,16.063 6.61,3.797 14.49,5.68 23.69,5.68 5.69,0 10.89,-0.821 15.72,-2.473 4.76,-1.668 8.79,-3.789 12.08,-6.469 3.32,-2.629 5.89,-5.441 7.63,-8.418 1.75,-3.043 2.6,-5.781 2.6,-8.383 0,-2.668 -0.99,-4.898 -2.97,-6.711 -1.95,-1.816 -4.32,-2.707 -7.12,-2.707 -1.82,0 -3.39,0.45 -4.55,1.368 -1.2,0.929 -2.61,2.433 -4.11,4.589 -2.71,4.071 -5.48,7.153 -8.43,9.172 -2.9,2.09 -6.64,3.051 -11.15,3.051 -6.51,0 -11.75,-2.5 -15.75,-7.601 -3.97,-5.071 -5.99,-12.008 -5.99,-20.848 0,-4.141 0.48,-7.973 1.54,-11.461 0.99,-3.43 2.5,-6.402 4.45,-8.871 1.85,-2.399 4.31,-4.309 7.02,-5.512 2.73,-1.297 5.82,-1.949 9.03,-1.949 4.39,0 8.22,1.062 11.33,3.082 3.19,2.051 5.96,5.129 8.39,9.379 1.37,2.5 2.81,4.379 4.35,5.781 1.54,1.41 3.46,2.09 5.72,2.09 2.73,0 4.93,-0.992 6.74,-3.051 1.71,-2.078 2.67,-4.238 2.67,-6.531"
         style="fill:#ffffff;fill-opacity:1;fill-rule:evenodd;stroke:none"
         id="path126" /><path
         d="m 4940.77,504.672 -0.17,0 c -4.25,0 -8.08,-1.133 -11.37,-3.363 -3.25,-2.258 -5.82,-5.539 -7.63,-9.86 -1.71,-4.379 -2.64,-9.508 -2.64,-15.328 0,-5.789 0.89,-10.781 2.64,-15.062 1.78,-4.317 4.24,-7.598 7.53,-9.899 3.25,-2.25 7.12,-3.39 11.47,-3.39 l 0.17,0 0,-16.43 -0.17,0 c -6.61,0 -12.64,1.07 -18.01,3.262 -5.27,2.117 -9.89,5.168 -13.83,9.199 -3.83,4.039 -6.85,8.769 -8.83,14.211 -2.02,5.48 -3.05,11.539 -3.05,18.109 0,6.711 1.03,12.801 3.15,18.348 1.95,5.543 4.93,10.301 8.7,14.203 3.86,3.937 8.45,6.988 13.86,9.109 5.48,2.16 11.47,3.149 18.01,3.149 l 0.17,0 0,-16.258 z m 21.77,-28.551 c 0,9 -2.02,16.02 -5.99,21.02 -3.87,4.961 -9.14,7.461 -15.78,7.531 l 0,16.258 c 6.67,0 12.63,-1.102 18.04,-3.192 5.44,-2.148 10.06,-5.199 13.96,-9.199 3.87,-4.008 6.82,-8.769 8.8,-14.238 2.06,-5.481 3.08,-11.539 3.08,-18.18 0,-6.512 -1.02,-12.601 -3.08,-18.109 -2.05,-5.582 -5.07,-10.34 -8.9,-14.313 -3.87,-3.969 -8.49,-7.051 -13.86,-9.211 -5.38,-2.078 -11.37,-3.148 -18.04,-3.148 l 0,16.43 c 6.64,0.039 11.91,2.539 15.78,7.539 3.97,5.031 5.99,11.98 5.99,20.812"
         style="fill:#ffffff;fill-opacity:1;fill-rule:evenodd;stroke:none"
         id="path128" /><path
         d="m 5075.3,474.539 0,-29.301 c 0,-4.617 -1.03,-8.129 -3.19,-10.41 -2.05,-2.359 -4.82,-3.488 -8.31,-3.488 -3.33,0 -6.03,1.129 -8.08,3.488 -2.09,2.281 -3.12,5.793 -3.12,10.41 l 0,35.121 c 0,5.582 -0.2,9.793 -0.54,12.911 -0.38,3.05 -1.44,5.582 -3.09,7.562 -1.64,1.957 -4.31,2.91 -7.9,2.91 -7.19,0 -11.95,-2.461 -14.21,-7.422 -2.29,-4.929 -3.42,-12.019 -3.42,-21.3 l 0,-29.782 c 0,-4.59 -1.1,-8.039 -3.15,-10.41 -2.06,-2.316 -4.8,-3.488 -8.18,-3.488 -3.36,0 -6.06,1.172 -8.22,3.488 -2.16,2.371 -3.18,5.82 -3.18,10.41 l 0,63.071 c 0,4.089 0.96,7.281 2.84,9.429 1.95,2.09 4.45,3.192 7.56,3.192 3.02,0 5.55,-0.989 7.57,-2.981 2.02,-2.019 3.01,-4.859 3.01,-8.39 l 0,-2.079 c 3.83,4.508 7.91,7.942 12.29,10.09 4.38,2.129 9.18,3.219 14.48,3.219 5.61,0 10.34,-1.09 14.31,-3.32 3.97,-2.188 7.29,-5.539 9.86,-9.989 3.69,4.481 7.7,7.872 11.98,10.02 4.24,2.199 8.93,3.289 14.1,3.289 6.03,0 11.2,-1.23 15.58,-3.519 4.38,-2.43 7.63,-5.79 9.72,-10.168 1.95,-4.04 2.87,-10.301 2.87,-18.864 l 0,-43 c 0,-4.617 -1.09,-8.129 -3.21,-10.41 -1.99,-2.359 -4.76,-3.488 -8.25,-3.488 -3.29,0 -6.06,1.172 -8.18,3.488 -2.13,2.371 -3.22,5.82 -3.22,10.41 l 0,37.071 c 0,4.691 -0.17,8.492 -0.58,11.402 -0.41,2.809 -1.48,5.238 -3.26,7.16 -1.78,1.918 -4.48,2.871 -8.07,2.871 -2.91,0 -5.69,-0.851 -8.29,-2.562 -2.57,-1.719 -4.65,-4.039 -6.16,-6.95 -1.57,-3.699 -2.36,-10.269 -2.36,-19.691"
         style="fill:#ffffff;fill-opacity:1;fill-rule:evenodd;stroke:none"
         id="path130" /><path
         d="m 4016.06,577.75 c -0.44,1.469 -0.89,2.84 -1.4,4.25 7.39,0.68 12.39,9.551 8.76,16.121 -1.74,3.969 -5.78,6.059 -9.86,6.129 l -0.47,0 c -3.46,-0.07 -6.82,-1.539 -8.8,-4.621 -4.69,-5.957 -1.03,-15.438 6.23,-17.43 0.41,-1.469 0.82,-2.98 1.3,-4.547 -11.09,-0.754 -22.46,-3.222 -31.73,-9.55 0.95,-2.641 1.95,-5.372 2.87,-8.082 18.76,8.25 39.85,6.468 59.63,4.492 0.69,2.597 1.3,5.23 2.02,7.828 -8.97,4.039 -18.79,5.519 -28.55,5.41"
         style="fill:#ffffff;fill-opacity:1;fill-rule:evenodd;stroke:none"
         id="path132" /><path
         d="m 4127.73,547.461 c -2.95,-1.512 -3.53,-5.102 -3.32,-8.082 -3.32,-3.25 -1.75,-8.078 -2.09,-12.09 -0.75,-2.25 -3.46,-2.527 -5.37,-3.379 -2.57,3.969 -5.35,7.731 -8.8,11.02 l 0.03,0.14 c -3.8,3.559 -7.87,6.77 -12.22,9.582 -3.46,-3.703 -7.12,-7.363 -10.44,-11.261 6.57,-7.262 12.7,-15.032 18.11,-23.282 3.76,-6.23 6.74,-12.898 9.31,-19.718 5.58,2.879 11.09,5.859 16.71,8.8 -2.98,6.809 -6.3,13.45 -9.9,19.989 2.5,1.34 5.79,2.601 6.16,5.859 0.28,3.563 -0.55,7.43 1.65,10.57 4.28,-2.839 10.85,0.352 10.92,5.582 0.58,5.45 -6.23,9.309 -10.75,6.27"
         style="fill:#ffffff;fill-opacity:1;fill-rule:evenodd;stroke:none"
         id="path134" /><path
         d="m 3976.66,551.332 0,-20 c -5.06,0 -10.1,-1.133 -14.65,-3.551 -9.28,-4.972 -15.81,-14.902 -16.29,-25.511 -0.62,-8.489 2.77,-16.938 8.42,-23.239 5.72,-6.269 14.1,-9.59 22.52,-9.59 l 0,-26.972 c -19.68,1.031 -39.09,5.269 -58.19,10.062 -3.53,17.699 -3.59,36.84 4.14,53.469 8.04,18.488 23.96,32.832 42.24,40.879 3.87,1.672 7.81,3.152 11.81,4.453 m 88.08,-65.254 -0.07,0 c -5.37,-0.437 -10.54,2.094 -14.2,5.891 -2.57,3.25 -4.8,6.98 -5.14,11.261 -1.27,9.211 5.27,18.758 14.28,20.899 1.71,0.5 3.38,0.672 5.13,0.633 l 0,21.058 c -11.16,7.758 -24.47,12.66 -38.13,12.629 -16.88,0.199 -33.86,-1.961 -49.95,-7.117 l 0,-20 c 2.95,0 5.96,-0.41 8.84,-1.23 3.21,-0.782 6.19,-2.321 8.96,-4.211 5.75,-4.039 10.07,-10.032 11.98,-16.809 2.67,-8.73 0.96,-18.453 -4.14,-25.98 -3.63,-5.301 -8.86,-9.411 -14.85,-11.743 -3.43,-1.269 -7.13,-1.918 -10.79,-1.918 l 0,-26.972 0.82,-0.039 c 19.76,-0.61 39.61,-1.09 59.19,1.652 9.45,1.297 18.83,3.109 28.07,5.609 l 0,36.387 z m 19.24,16.192 c -1.34,-9.071 -9.96,-16.77 -19.24,-16.192 l 0,-36.387 c 17.01,4.559 33.48,11.301 48.68,20.2 0,0 -3.22,17.699 -15.82,37.039 -7.29,12.082 -15.16,24.062 -25.91,33.371 -2.22,1.988 -4.52,3.801 -6.95,5.519 l 0,-21.058 c 2.33,-0.071 4.69,-0.512 6.92,-1.02 8.48,-3.023 14.07,-12.64 12.32,-21.472"
         style="fill:#ffffff;fill-opacity:1;fill-rule:evenodd;stroke:none"
         id="path136" /><path
         d="m 3922.85,533.871 c -7.87,-4.73 -14.34,-11.441 -19.72,-18.789 -1.57,2.938 -2.05,6.398 -4.1,9 -1.17,1.566 -3.33,0.957 -4.93,0.988 -2.09,-0.242 -4.15,0.34 -6.06,0.961 2.26,3.219 1.64,8.18 -1.85,10.301 -3.8,2.707 -9.62,0.348 -10.61,-4.102 -1.58,-4.941 3.66,-9.859 8.45,-8.601 2.57,-3.801 7.19,-3.18 11.16,-3.277 1.75,-3.082 3.12,-6.473 5.37,-9.25 -4.24,-8.313 -6.6,-17.633 -6.81,-26.973 5.45,-2.258 10.82,-4.59 16.3,-6.848 0.24,5.918 0.96,11.778 1.81,17.528 1.85,12.671 9.18,23.652 17.84,32.722 -2.19,2.258 -4.56,4.211 -6.85,6.34"
         style="fill:#ffffff;fill-opacity:1;fill-rule:evenodd;stroke:none"
         id="path138" /><path
         d="m 4049.54,438.57 c -19.99,-4.351 -40.6,-5.648 -61,-4.761 -13.79,0.722 -27.59,1.98 -41.08,5 -9.55,1.91 -18.89,4.691 -28.31,7.363 1.48,-11.992 6.34,-23.453 13.28,-33.383 8.19,-11.5 19.11,-22.078 32.73,-26.359 10,-2.629 21.74,-6.02 41.15,-6.11 l 1.98,0 1.99,0.02 c 18.04,0.34 35.84,2.601 51.65,9.34 10.2,4.39 19.82,10.379 28.04,17.871 7.05,6.73 12.66,15.058 16.5,24 3.73,8.488 7.09,23.758 6.71,31.531 -19.55,-11.094 -41.39,-20.781 -63.64,-24.512"
         style="fill:#ffffff;fill-opacity:1;fill-rule:evenodd;stroke:none"
         id="path140" /></g></g></svg>