<?xml version="1.0" encoding="UTF-8" standalone="no"?>
<!-- Created with Inkscape (http://www.inkscape.org/) -->

<svg
   xmlns:dc="http://purl.org/dc/elements/1.1/"
   xmlns:cc="http://creativecommons.org/ns#"
   xmlns:rdf="http://www.w3.org/1999/02/22-rdf-syntax-ns#"
   xmlns:svg="http://www.w3.org/2000/svg"
   xmlns="http://www.w3.org/2000/svg"
   xmlns:sodipodi="http://sodipodi.sourceforge.net/DTD/sodipodi-0.dtd"
   xmlns:inkscape="http://www.inkscape.org/namespaces/inkscape"
   id="svg2"
   version="1.1"
   inkscape:version="0.48.5 r10040"
   width="1000"
   height="1000"
   xml:space="preserve"
   sodipodi:docname="file.eps"><metadata
     id="metadata8"><rdf:RDF><cc:Work
         rdf:about=""><dc:format>image/svg+xml</dc:format><dc:type
           rdf:resource="http://purl.org/dc/dcmitype/StillImage" /><dc:title></dc:title></cc:Work></rdf:RDF></metadata><defs
     id="defs6" /><sodipodi:namedview
     pagecolor="#ffffff"
     bordercolor="#666666"
     borderopacity="1"
     objecttolerance="10"
     gridtolerance="10"
     guidetolerance="10"
     inkscape:pageopacity="0"
     inkscape:pageshadow="2"
     inkscape:window-width="640"
     inkscape:window-height="480"
     id="namedview4"
     showgrid="false"
     inkscape:zoom="0.236"
     inkscape:cx="500"
     inkscape:cy="500"
     inkscape:window-x="0"
     inkscape:window-y="0"
     inkscape:window-maximized="0"
     inkscape:current-layer="g10" /><g
     id="g10"
     inkscape:groupmode="layer"
     inkscape:label="ink_ext_XXXXXX"
     transform="matrix(1.25,0,0,-1.25,0,1000)"><g
       id="g12"
       transform="scale(0.1,0.1)"><path
         d="m 0,0 8000,0 0,8000 L 0,8000 0,0 z"
         style="fill:#c0e8fa;fill-opacity:1;fill-rule:nonzero;stroke:none"
         id="path14" /><path
         d="M 1863.51,0 0,0 0,4716.13 4853.53,4739.21 1275.32,2679.45 3397.58,1454.75 1863.51,0"
         style="fill:#9ed7ef;fill-opacity:1;fill-rule:nonzero;stroke:none"
         id="path16" /><path
         d="M 6859.54,3586.11 3397.58,1587.34 1391.56,2740.44 4853.53,4739.21 6859.54,3586.11"
         style="fill:#f68815;fill-opacity:1;fill-rule:nonzero;stroke:none"
         id="path18" /><path
         d="m 4853.53,7214.18 -3461.97,-1998.77 -111.7,69.6 3466.95,2002.37 106.72,-73.2"
         style="fill:#d77f2c;fill-opacity:1;fill-rule:nonzero;stroke:none"
         id="path20" /><path
         d="m 1391.56,5215.41 0,-2474.97 -116.19,67.21 4.49,2477.36 111.7,-69.6"
         style="fill:#e07319;fill-opacity:1;fill-rule:nonzero;stroke:none"
         id="path22" /><path
         d="m 4649.57,3872.52 403.77,233.12 -287.13,165.77 -403.77,-233.12 287.13,-165.77"
         style="fill:#a7b11f;fill-opacity:1;fill-rule:nonzero;stroke:none"
         id="path24" /><path
         d="m 4362.44,4038.29 -260.21,150.23 -502.48,-290.1 260.21,-150.23 502.48,290.1"
         style="fill:#a7b11f;fill-opacity:1;fill-rule:nonzero;stroke:none"
         id="path26" /><path
         d="m 4766.21,4271.41 -260.21,150.23 -403.77,-233.12 260.21,-150.23 403.77,233.12"
         style="fill:#cde314;fill-opacity:1;fill-rule:nonzero;stroke:none"
         id="path28" /><path
         d="m 3402.35,3483.98 -260.21,150.23 -430.7,-248.66 260.21,-150.23 430.7,248.66"
         style="fill:#a7b11f;fill-opacity:1;fill-rule:nonzero;stroke:none"
         id="path30" /><path
         d="m 3859.96,3748.19 -260.21,150.23 -457.61,-264.21 260.21,-150.23 457.61,264.21"
         style="fill:#cde314;fill-opacity:1;fill-rule:nonzero;stroke:none"
         id="path32" /><path
         d="m 2531.98,2981.48 287.13,-165.78 439.67,253.85 -287.13,165.77 -439.67,-253.84"
         style="fill:#a7b11f;fill-opacity:1;fill-rule:nonzero;stroke:none"
         id="path34" /><path
         d="m 3859.96,3748.19 287.13,-165.78 502.48,290.11 -287.13,165.77 -502.48,-290.1"
         style="fill:#cde314;fill-opacity:1;fill-rule:nonzero;stroke:none"
         id="path36" /><path
         d="m 2971.65,3235.32 -260.21,150.23 -439.67,-253.84 260.21,-150.23 439.67,253.84"
         style="fill:#cde314;fill-opacity:1;fill-rule:nonzero;stroke:none"
         id="path38" /><path
         d="m 5134.1,4483.81 -260.21,150.23 -367.89,-212.4 260.21,-150.23 367.89,212.4"
         style="fill:#a7b11f;fill-opacity:1;fill-rule:nonzero;stroke:none"
         id="path40" /><path
         d="m 2971.65,3235.32 287.13,-165.77 430.69,248.66 -287.12,165.77 -430.7,-248.66"
         style="fill:#cde314;fill-opacity:1;fill-rule:nonzero;stroke:none"
         id="path42" /><path
         d="m 3402.35,3483.98 287.12,-165.77 457.62,264.2 -287.13,165.78 -457.61,-264.21"
         style="fill:#a7b11f;fill-opacity:1;fill-rule:nonzero;stroke:none"
         id="path44" /><path
         d="m 2110.26,2738 287.13,-165.78 421.72,243.48 -287.13,165.78 L 2110.26,2738"
         style="fill:#cde314;fill-opacity:1;fill-rule:nonzero;stroke:none"
         id="path46" /><path
         d="m 4147.09,3582.41 224.32,-129.51 502.48,290.11 -224.32,129.51 -502.48,-290.11"
         style="fill:#a7b11f;fill-opacity:1;fill-rule:nonzero;stroke:none"
         id="path48" /><path
         d="m 3258.78,3069.55 224.32,-129.51 430.69,248.66 -224.32,129.51 -430.69,-248.66"
         style="fill:#a7b11f;fill-opacity:1;fill-rule:nonzero;stroke:none"
         id="path50" /><path
         d="m 4649.57,3872.52 224.32,-129.51 403.77,233.12 -224.32,129.51 -403.77,-233.12"
         style="fill:#cde314;fill-opacity:1;fill-rule:nonzero;stroke:none"
         id="path52" /><path
         d="m 3689.47,3318.21 224.32,-129.51 457.62,264.2 -224.32,129.51 -457.62,-264.2"
         style="fill:#cde314;fill-opacity:1;fill-rule:nonzero;stroke:none"
         id="path54" /><path
         d="m 4766.21,4271.41 287.13,-165.77 367.89,212.4 -287.13,165.77 -367.89,-212.4"
         style="fill:#cde314;fill-opacity:1;fill-rule:nonzero;stroke:none"
         id="path56" /><path
         d="m 5277.66,3976.13 367.89,212.4 -224.32,129.51 -367.89,-212.4 224.32,-129.51"
         style="fill:#a7b11f;fill-opacity:1;fill-rule:nonzero;stroke:none"
         id="path58" /><path
         d="m 2397.39,2572.22 224.32,-129.51 421.72,243.48 -224.32,129.51 -421.72,-243.48"
         style="fill:#a7b11f;fill-opacity:1;fill-rule:nonzero;stroke:none"
         id="path60" /><path
         d="m 2110.26,2738 -233.29,-134.7 287.12,-165.77 233.3,134.69 -287.13,165.78"
         style="fill:#a7b11f;fill-opacity:1;fill-rule:nonzero;stroke:none"
         id="path62" /><path
         d="m 1850.05,2888.23 -233.29,-134.69 260.21,-150.24 233.29,134.7 -260.21,150.23"
         style="fill:#cde314;fill-opacity:1;fill-rule:nonzero;stroke:none"
         id="path64" /><path
         d="m 2819.11,2815.7 224.32,-129.51 439.67,253.85 -224.32,129.51 -439.67,-253.85"
         style="fill:#cde314;fill-opacity:1;fill-rule:nonzero;stroke:none"
         id="path66" /><path
         d="m 2531.98,2981.48 -260.21,150.23 -421.72,-243.48 260.21,-150.23 421.72,243.48"
         style="fill:#a7b11f;fill-opacity:1;fill-rule:nonzero;stroke:none"
         id="path68" /><path
         d="m 2164.09,2437.53 224.32,-129.51 233.3,134.69 -224.32,129.51 -233.3,-134.69"
         style="fill:#cde314;fill-opacity:1;fill-rule:nonzero;stroke:none"
         id="path70" /><path
         d="m 1616.76,2753.54 771.65,-445.52 0.01,-61.78 -771.66,445.52 0,61.78"
         style="fill:#818524;fill-opacity:1;fill-rule:nonzero;stroke:none"
         id="path72" /><path
         d="m 4853.53,4739.21 -3461.97,-1998.77 0,2474.97 3461.97,1998.77 0,-2474.97"
         style="fill:#ef2f33;fill-opacity:1;fill-rule:nonzero;stroke:none"
         id="path74" /><path
         d="m 4742.6,4823.65 -3257.13,-1880.51 0,2156.36 3257.13,1880.5 0,-2156.35"
         style="fill:#ffffff;fill-opacity:1;fill-rule:nonzero;stroke:none"
         id="path76" /><path
         d="m 3170.66,6141.02 c 0,-26.58 -21.54,-60.56 -48.12,-75.9 -26.57,-15.35 -48.12,-6.24 -48.12,20.33 0,26.58 21.55,60.56 48.12,75.9 26.58,15.35 48.12,6.24 48.12,-20.33"
         style="fill:#ffffff;fill-opacity:1;fill-rule:nonzero;stroke:none"
         id="path78" /><path
         d="m 6859.54,3454.43 -3461.96,-1998.77 0,131.33 3461.96,1998.77 0,-131.33"
         style="fill:#f89f46;fill-opacity:1;fill-rule:nonzero;stroke:none"
         id="path80" /><path
         d="m 1275.37,2807.65 2122.21,-1220.31 0,-132.59 -2122.26,1224.7 0.05,128.2"
         style="fill:#e07319;fill-opacity:1;fill-rule:nonzero;stroke:none"
         id="path82" /><path
         d="m 5645.55,4126.75 -3257.13,-1880.51 -0.01,61.78 3257.14,1880.51 0,-61.78"
         style="fill:#f0f150;fill-opacity:1;fill-rule:nonzero;stroke:none"
         id="path84" /><path
         d="m 5656.28,3178.77 -1414.83,-816.85 -598.6,345.6 1414.83,816.85 598.6,-345.6"
         style="fill:#fad398;fill-opacity:1;fill-rule:nonzero;stroke:none"
         id="path86" /><path
         d="m 3723.96,2660.69 1329.44,774.08 4.28,89.6 -1414.83,-816.85 81.11,-46.83"
         style="fill:#f9a72c;fill-opacity:1;fill-rule:nonzero;stroke:none"
         id="path88" /><path
         d="m 5057.68,3524.37 -4.28,-89.6 516.89,-305.65 85.99,49.65 -598.6,345.6"
         style="fill:#f9a72c;fill-opacity:1;fill-rule:nonzero;stroke:none"
         id="path90" /><path
         d="m 2694.82,5094.54 -111.69,-64.49 0,-83.2 124.75,72.03 0,-65 -193.65,-111.81 0,350.5 187.35,108.16 0,-65 -118.45,-68.38 0,-72.82 111.69,64.49 0,-64.48"
         style="fill:#be1c2d;fill-opacity:1;fill-rule:nonzero;stroke:none"
         id="path92" /><path
         d="m 2822.71,5215.18 27.03,15.61 c 34.22,19.76 54.49,51.21 54.49,81.89 0,32.25 -18.91,37.45 -50.44,19.77 -16.67,-9.62 -26.12,-16.64 -31.08,-20.55 l 0,-96.72 z m -68,111.54 c 22.07,16.91 54.94,39.01 91.42,60.07 45.04,26 76.57,36.4 98.18,29.12 18.01,-6.24 27.92,-24.96 27.92,-57.2 0,-44.72 -27.48,-91.27 -53.59,-117.27 l 0,-1.56 c 21.16,2.34 32.88,-14.3 40.53,-42.12 9.46,-34.06 18.92,-74.36 24.77,-84.5 l -70.25,-40.56 c -4.95,7.02 -12.17,31.45 -21.17,69.42 -8.11,39 -21.16,43.43 -49.08,27.82 l -20.73,-11.97 0,-137.8 -68,-39.26 0,345.81"
         style="fill:#be1c2d;fill-opacity:1;fill-rule:nonzero;stroke:none"
         id="path94" /><path
         d="m 3089.75,5369.36 27.03,15.6 c 34.22,19.76 54.48,51.21 54.48,81.89 0,32.25 -18.91,37.46 -50.44,19.77 -16.66,-9.62 -26.11,-16.64 -31.07,-20.54 l 0,-96.72 z m -68,111.53 c 22.07,16.91 54.94,39.01 91.42,60.07 45.03,26.01 76.56,36.4 98.18,29.13 18.01,-6.25 27.92,-24.96 27.92,-57.2 0,-44.73 -27.47,-91.27 -53.6,-117.28 l 0,-1.56 c 21.17,2.34 32.89,-14.29 40.54,-42.11 9.45,-34.07 18.91,-74.37 24.77,-84.51 l -70.26,-40.56 c -4.96,7.02 -12.15,31.46 -21.16,69.42 -8.11,39.01 -21.17,43.43 -49.09,27.82 l -20.72,-11.97 0,-137.79 -68,-39.26 0,345.8"
         style="fill:#be1c2d;fill-opacity:1;fill-rule:nonzero;stroke:none"
         id="path96" /><path
         d="m 3345.54,5496.23 c 0,-68.64 27.92,-100.88 73.86,-74.36 46.38,26.78 72.95,93.08 72.95,161.21 0,62.91 -26.12,101.92 -73.4,74.62 -46.39,-26.78 -73.41,-93.34 -73.41,-161.47 z m 219.31,131.3 c 0,-114.92 -60.34,-219.43 -149.06,-270.66 -90.07,-52 -142.76,-3.9 -142.76,95.94 0,105.05 58.1,217.11 147.71,268.84 93.22,53.83 144.11,2.61 144.11,-94.12"
         style="fill:#be1c2d;fill-opacity:1;fill-rule:nonzero;stroke:none"
         id="path98" /><path
         d="m 3677.88,5708.92 27.03,15.6 c 34.22,19.76 54.48,51.21 54.48,81.89 0,32.25 -18.91,37.45 -50.44,19.77 -16.66,-9.62 -26.11,-16.64 -31.07,-20.55 l 0,-96.71 z m -68,111.53 c 22.07,16.91 54.94,39.01 91.42,60.07 45.04,26 76.56,36.4 98.18,29.12 18.01,-6.24 27.92,-24.96 27.92,-57.2 0,-44.72 -27.47,-91.26 -53.6,-117.27 l 0,-1.56 c 21.17,2.34 32.89,-14.3 40.54,-42.12 9.45,-34.06 18.91,-74.36 24.77,-84.5 l -70.26,-40.56 c -4.96,7.02 -12.15,31.46 -21.16,69.42 -8.11,39 -21.17,43.43 -49.09,27.82 l -20.72,-11.97 0,-137.8 -68,-39.25 0,345.8"
         style="fill:#be1c2d;fill-opacity:1;fill-rule:nonzero;stroke:none"
         id="path100" /><path
         d="m 2028.48,4270.07 c 3.9,1.23 8.71,3.65 15.31,7.46 24.32,14.04 39.33,36.92 39.33,60.85 0,21.49 -12.91,26.87 -35.73,13.7 -9.31,-5.38 -15.61,-10.06 -18.91,-13.01 l 0,-69 z m -45.34,79.92 c 14.11,10.92 33.93,24.44 61.85,40.56 28.22,16.29 48.34,21.66 61.85,16.99 12.91,-4.34 21.62,-18.73 21.62,-41.6 0,-22.88 -6.61,-46.11 -18.62,-66.22 -15.61,-25.99 -38.73,-46.97 -65.75,-62.57 -6.01,-3.47 -11.41,-6.25 -15.61,-7.97 l 0,-83.56 -45.34,-26.17 0,230.54"
         style="fill:#be1c2d;fill-opacity:1;fill-rule:nonzero;stroke:none"
         id="path102" /><path
         d="m 2238.03,4366.1 -12.61,42.3 c -3.59,11.79 -7.2,27.04 -10.2,39.18 l -0.61,-0.35 c -3,-15.6 -6,-35.02 -9.3,-50.44 l -12.01,-56.52 44.73,25.83 z m -51.34,-69.16 -14.41,-68.29 -47.44,-27.39 61.85,269.36 60.05,34.67 62.75,-197.43 -49.23,-28.42 -15.62,50.96 -57.95,-33.46"
         style="fill:#be1c2d;fill-opacity:1;fill-rule:nonzero;stroke:none"
         id="path104" /><path
         d="m 2498.03,4427.46 c -14.11,-13.69 -40.83,-36.74 -67.55,-52.16 -36.93,-21.32 -63.65,-26.01 -82.27,-15.95 -18.6,9.36 -28.82,33.97 -28.52,68.47 0.31,77.83 49.24,150.45 115.6,188.77 26.11,15.07 46.23,20.79 56.13,20.96 l -9.61,-47.84 c -11.1,-0.86 -24.92,-4.33 -47.13,-17.16 -38.13,-22.01 -66.95,-63.61 -66.95,-114.22 0,-48.19 26.12,-61.54 63.64,-39.87 10.51,6.06 18.93,12.3 22.52,16.46 l 0,48.88 -31.22,-18.03 0,41.25 75.36,43.51 0,-123.07"
         style="fill:#be1c2d;fill-opacity:1;fill-rule:nonzero;stroke:none"
         id="path106" /><path
         d="m 2654.14,4605.65 -74.46,-42.99 0,-55.47 83.16,48.02 0,-43.34 -129.1,-74.53 0,233.65 124.9,72.11 0,-43.33 -78.96,-45.59 0,-48.52 74.46,42.98 0,-42.99"
         style="fill:#be1c2d;fill-opacity:1;fill-rule:nonzero;stroke:none"
         id="path108" /><path
         d="m 2754.7,4564.91 0,233.66 53.45,30.86 42.03,-61.36 c 12.01,-17.68 24.02,-39.87 33.03,-61.01 l 0.9,0.52 c -3.01,29.11 -3.9,60.14 -3.9,95.15 l 0,68.3 42.03,24.26 0,-233.66 -48.04,-27.73 -43.24,65.18 c -12.01,18.02 -25.22,40.55 -35.12,62.22 l -0.9,-0.86 c 1.19,-30.17 1.8,-62.75 1.8,-100.88 l 0,-70.38 -42.04,-24.27"
         style="fill:#be1c2d;fill-opacity:1;fill-rule:nonzero;stroke:none"
         id="path110" /><path
         d="m 3000.89,4823.18 c 0,-45.76 18.6,-67.26 49.23,-49.57 30.92,17.85 48.64,62.05 48.64,107.46 0,41.94 -17.42,67.96 -48.94,49.76 -30.92,-17.86 -48.93,-62.24 -48.93,-107.65 z m 146.21,87.54 c 0,-76.62 -40.24,-146.31 -99.38,-180.45 -60.05,-34.67 -95.17,-2.61 -95.17,63.95 0,70.04 38.73,144.75 98.47,179.24 62.15,35.88 96.08,1.73 96.08,-62.74"
         style="fill:#be1c2d;fill-opacity:1;fill-rule:nonzero;stroke:none"
         id="path112" /><path
         d="m 3207.74,5015.75 -54.35,-31.38 0,44.38 155.52,89.79 0,-44.37 -55.24,-31.9 0,-189.28 -45.93,-26.52 0,189.28"
         style="fill:#be1c2d;fill-opacity:1;fill-rule:nonzero;stroke:none"
         id="path114" /><path
         d="m 3393.87,5167.59 123.7,71.42 0,-43.33 -77.76,-44.9 0,-53.39 72.65,41.95 0,-42.99 -72.65,-41.95 0,-93.94 -45.94,-26.53 0,233.66"
         style="fill:#be1c2d;fill-opacity:1;fill-rule:nonzero;stroke:none"
         id="path116" /><path
         d="m 3591.12,5163.94 c 0,-45.75 18.6,-67.25 49.23,-49.57 30.92,17.86 48.63,62.05 48.63,107.47 0,41.94 -17.41,67.96 -48.94,49.75 -30.92,-17.85 -48.92,-62.23 -48.92,-107.65 z m 146.21,87.54 c 0,-76.61 -40.24,-146.3 -99.38,-180.45 -60.05,-34.66 -95.18,-2.6 -95.18,63.96 0,70.04 38.74,144.75 98.48,179.24 62.14,35.88 96.08,1.73 96.08,-62.75"
         style="fill:#be1c2d;fill-opacity:1;fill-rule:nonzero;stroke:none"
         id="path118" /><path
         d="m 3812.98,5409.56 0,-134.5 c 0,-40.22 13.21,-53.05 36.64,-39.53 24.01,13.87 37.22,40.91 37.22,82.17 l 0,134.51 45.63,26.34 0,-131.04 c 0,-72.11 -31.52,-124.63 -84.37,-155.14 -51.03,-29.47 -81.05,-14.21 -81.05,60.32 l 0,130.36 45.93,26.51"
         style="fill:#be1c2d;fill-opacity:1;fill-rule:nonzero;stroke:none"
         id="path120" /><path
         d="m 3972.09,5267.77 0,233.65 53.44,30.86 42.04,-61.36 c 12,-17.67 24.01,-39.87 33.02,-61.01 l 0.91,0.53 c -3.02,29.1 -3.92,60.13 -3.92,95.14 l 0,68.3 42.04,24.27 0,-233.66 -48.04,-27.73 -43.23,65.18 c -12.01,18.01 -25.21,40.56 -35.13,62.22 l -0.9,-0.86 c 1.21,-30.16 1.81,-62.75 1.81,-100.89 l 0,-70.37 -42.04,-24.27"
         style="fill:#be1c2d;fill-opacity:1;fill-rule:nonzero;stroke:none"
         id="path122" /><path
         d="m 4225.17,5453.76 c 3.91,1.21 10.21,4.85 15.92,8.14 41.43,23.57 68.44,65.52 68.44,121.33 0.31,48.72 -24.31,60.15 -63.64,37.45 -10.21,-5.9 -16.81,-10.75 -20.72,-14.05 l 0,-152.87 z m -45.94,164.15 c 16.82,12.82 38.74,27.21 61.86,40.55 38.43,22.19 63.35,28.61 82.85,22.88 21.02,-5.89 34.24,-27.03 34.24,-68.28 0,-44.73 -14.12,-83.74 -33.63,-114.06 -21.32,-32.77 -53.74,-61.19 -93.38,-84.07 -23.71,-13.69 -40.52,-21.67 -51.94,-26.53 l 0,229.51"
         style="fill:#be1c2d;fill-opacity:1;fill-rule:nonzero;stroke:none"
         id="path124" /><path
         d="m 2931.02,4182.59 0,74.89 c 0,20.28 0.89,41.59 2.24,64.22 l -1.79,-1.03 c -9.46,-27.32 -17.12,-51.49 -27.03,-78.54 l -39.17,-96.46 0,-1.04 65.75,37.96 z m 0,-139.88 0,80.6 -129.7,-74.88 0,51.48 110.78,269.88 83.77,48.37 0,-198.12 35.13,20.28 0,-59.29 -35.13,-20.28 0,-80.6 -64.85,-37.44"
         style="fill:#be1c2d;fill-opacity:1;fill-rule:nonzero;stroke:none"
         id="path126" /><path
         d="m 3124.19,4322.73 c -0.43,-77.74 15.77,-105.3 42.35,-89.95 26.56,15.34 40.98,62.13 40.98,139.1 0,74.88 -13.96,106.34 -41.43,90.48 -25.23,-14.57 -42.33,-61.37 -41.9,-139.63 z m 151.77,89.71 c 0,-104.53 -36.48,-197.35 -111.23,-240.51 -75.66,-43.68 -108.98,15.59 -109.43,111.02 0,97.76 36.02,196.05 111.69,239.73 78.36,45.24 108.97,-17.69 108.97,-110.24"
         style="fill:#be1c2d;fill-opacity:1;fill-rule:nonzero;stroke:none"
         id="path128" /><path
         d="m 3430.88,4471.19 0,74.88 c 0,20.29 0.89,41.59 2.24,64.22 l -1.79,-1.03 c -9.46,-27.31 -17.12,-51.48 -27.03,-78.54 l -39.17,-96.45 0,-1.04 65.75,37.96 z m 0,-139.88 0,80.59 -129.7,-74.88 0,51.49 110.78,269.88 83.77,48.36 0,-198.12 35.12,20.28 0,-59.28 -35.12,-20.28 0,-80.6 -64.85,-37.44"
         style="fill:#be1c2d;fill-opacity:1;fill-rule:nonzero;stroke:none"
         id="path130" /></g></g></svg>