<?xml version="1.0" encoding="UTF-8" standalone="no"?>
<!-- Created with Inkscape (http://www.inkscape.org/) -->

<svg
   xmlns:dc="http://purl.org/dc/elements/1.1/"
   xmlns:cc="http://creativecommons.org/ns#"
   xmlns:rdf="http://www.w3.org/1999/02/22-rdf-syntax-ns#"
   xmlns:svg="http://www.w3.org/2000/svg"
   xmlns="http://www.w3.org/2000/svg"
   xmlns:sodipodi="http://sodipodi.sourceforge.net/DTD/sodipodi-0.dtd"
   xmlns:inkscape="http://www.inkscape.org/namespaces/inkscape"
   id="svg2"
   version="1.1"
   inkscape:version="0.48.5 r10040"
   width="1000"
   height="1000"
   xml:space="preserve"
   sodipodi:docname="8-People.ai"><metadata
     id="metadata8"><rdf:RDF><cc:Work
         rdf:about=""><dc:format>image/svg+xml</dc:format><dc:type
           rdf:resource="http://purl.org/dc/dcmitype/StillImage" /><dc:title></dc:title></cc:Work></rdf:RDF></metadata><defs
     id="defs6"><clipPath
       clipPathUnits="userSpaceOnUse"
       id="clipPath20"><path
         d="M 0,800 800,800 800,0 0,0 0,800 z"
         id="path22" /></clipPath><clipPath
       clipPathUnits="userSpaceOnUse"
       id="clipPath152"><path
         d="M 0,800 800,800 800,0 0,0 0,800 z"
         id="path154" /></clipPath><clipPath
       clipPathUnits="userSpaceOnUse"
       id="clipPath160"><path
         d="m 20.039,219.395 753.533,0 0,-97.141 -753.533,0 0,97.141 z"
         id="path162" /></clipPath></defs><sodipodi:namedview
     pagecolor="#ffffff"
     bordercolor="#666666"
     borderopacity="1"
     objecttolerance="10"
     gridtolerance="10"
     guidetolerance="10"
     inkscape:pageopacity="0"
     inkscape:pageshadow="2"
     inkscape:window-width="1600"
     inkscape:window-height="847"
     id="namedview4"
     showgrid="false"
     inkscape:zoom="0.944"
     inkscape:cx="413.85331"
     inkscape:cy="276.02989"
     inkscape:window-x="0"
     inkscape:window-y="0"
     inkscape:window-maximized="1"
     inkscape:current-layer="g10" /><g
     id="g10"
     inkscape:groupmode="layer"
     inkscape:label="8-People"
     transform="matrix(1.25,0,0,-1.25,0,1000)"><path
       d="M 0.851,0 800,0 l 0,798.615 -799.149,0 L 0.851,0 z"
       style="fill:#44d3e2;fill-opacity:1;fill-rule:nonzero;stroke:none"
       id="path12" /><path
       d="m 0,0 800,0 0,262.066 -800,0 L 0,0 z"
       style="fill:#13afb7;fill-opacity:1;fill-rule:nonzero;stroke:none"
       id="path14" /><g
       id="g148"><g
         id="g150"
         clip-path="url(#clipPath152)"><g
           id="g156"><g
             id="g158" /><g
             id="g164"><g
               clip-path="url(#clipPath160)"
               opacity="0.699997"
               id="g166"><g
                 transform="translate(773.5718,170.8244)"
                 id="g168"><path
                   d="m 0,0 c 0,-26.825 -168.684,-48.57 -376.766,-48.57 -208.083,0 -376.767,21.745 -376.767,48.57 0,26.825 168.684,48.57 376.767,48.57 C -168.684,48.57 0,26.825 0,0"
                   style="fill:#038389;fill-opacity:1;fill-rule:nonzero;stroke:none"
                   id="path170" /></g></g></g></g><g
           id="g172"
           transform="translate(176.1658,194.465)"><path
             d="m 0,0 c 0,0 6.252,-19.452 6.6,-24.315 0.347,-4.863 -21.536,-5.21 -23.62,-3.821 -2.084,1.39 -7.205,24.665 -5.166,25.359 C -20.146,-2.084 -0.731,2.311 0,0"
             style="fill:#ffffff;fill-opacity:1;fill-rule:nonzero;stroke:none"
             id="path174" /></g><g
           id="g176"
           transform="translate(156.0193,192.3809)"><path
             d="M 0,0 C 0,0 7.642,-7.294 13.894,-5.21 20.146,-3.126 23.967,0 23.967,0 c 0,0 -10.073,59.745 -11.983,85.796 -1.911,26.052 4.016,77.76 2.257,87.52 -1.758,9.761 -31.956,-19.439 -31.956,-19.439 0,0 10.421,-133.731 17.715,-153.877"
             style="fill:#006c9b;fill-opacity:1;fill-rule:nonzero;stroke:none"
             id="path178" /></g><g
           id="g180"
           transform="translate(140.0411,189.9495)"><path
             d="m 0,0 c 0,0 -8.684,-13.894 -10.768,-14.936 -2.084,-1.042 -16.326,1.042 -17.715,0 -1.389,-1.042 -3.126,-9.726 -2.431,-11.115 0.694,-1.39 22.925,-3.821 29.177,-4.169 6.253,-0.347 20.147,1.042 23.968,3.474 C 22.925,-25.009 18.757,-2.431 17.368,0 15.978,2.431 1.042,4.516 0,0"
             style="fill:#ffffff;fill-opacity:1;fill-rule:nonzero;stroke:none"
             id="path182" /></g><g
           id="g184"
           transform="translate(111.5582,375.0884)"><path
             d="m 0,0 c 0,0 1.389,-87.533 5.558,-105.248 4.168,-17.715 15.46,-62.523 16.414,-66.344 0,0 -0.259,-4.168 0,-6.253 0.259,-2.084 3.385,-10.073 5.469,-11.81 2.084,-1.736 17.715,-3.82 21.41,2.632 0,0 -5.085,28.283 -7.169,39.745 -2.084,11.463 -11.462,90.66 -8.684,116.016 0,0 19.105,12.505 24.315,16.673 5.21,4.168 4.516,13.547 4.516,14.589 C 61.829,1.042 0,0 0,0"
             style="fill:#006c9b;fill-opacity:1;fill-rule:nonzero;stroke:none"
             id="path186" /></g><g
           id="g188"
           transform="translate(67.9654,626.919)"><path
             d="m 0,0 c 0,0 -1.737,2.953 -1.737,4.516 0,1.563 5.905,21.709 8.684,22.925 2.779,1.216 21.362,-2.432 25.357,-3.474 C 36.298,22.925 52.45,19.104 53.319,15.631 54.187,12.157 0,0 0,0"
             style="fill:#5c829a;fill-opacity:1;fill-rule:nonzero;stroke:none"
             id="path190" /></g><g
           id="g192"
           transform="translate(120.9501,645.3116)"><path
             d="M 0,0 C 0,0 -2.605,9.348 -5.731,10.318 -8.857,11.289 -21.338,6.016 -21.338,6.016 -21.338,6.016 -2.622,1.16 0,0"
             style="fill:#ffe2c9;fill-opacity:1;fill-rule:nonzero;stroke:none"
             id="path194" /></g><g
           id="g196"
           transform="translate(123.2097,615.8034)"><path
             d="m 0,0 c 0,0 -7.657,-3.821 -12.173,-3.821 -4.515,0 -7.534,3.583 -10.66,3.583 -3.126,0 -1.561,5.212 1.565,4.518 3.126,-0.695 8.922,-2.075 11.006,-1.093 2.084,0.982 7.989,19.044 7.642,22.517 -0.348,3.474 -21.536,6.947 -24.662,9.032 -3.127,2.084 0.347,5.21 0.347,5.21 0,0 11.463,-3.474 14.589,-3.821 3.126,-0.347 10.768,-0.347 13.547,-3.821 2.778,-3.473 5.557,-21.188 5.557,-21.188 0,0 26.92,-21.884 30.133,-27.789 3.213,-5.905 -8.25,-10.574 -8.25,-10.574 C 28.641,-27.247 2.62,1.736 0,0"
             style="fill:#ffe2c9;fill-opacity:1;fill-rule:nonzero;stroke:none"
             id="path198" /></g><g
           id="g200"
           transform="translate(98.11,649.6161)"><path
             d="m 0,0 c -16.442,3.8 -21.113,3.875 -22.155,1.965 -1.043,-1.91 -9.379,-23.273 -7.99,-24.662 1.39,-1.39 38.697,-7.966 43.75,-8.151 5.053,-0.186 9.916,21.698 9.569,23.782 C 22.827,-4.982 3.151,-0.728 0,0"
             style="fill:#ffffff;fill-opacity:1;fill-rule:nonzero;stroke:none"
             id="path202" /></g><g
           id="g204"
           transform="translate(97.3121,646.5121)"><path
             d="m 0,0 c -12.751,2.947 -16.374,3.005 -17.182,1.524 -0.808,-1.482 -7.273,-18.049 -6.196,-19.126 1.078,-1.078 24.993,-4.44 28.912,-4.584 3.919,-0.143 7.691,16.828 7.421,18.444 C 12.686,-2.126 2.444,-0.565 0,0"
             style="fill:#5c829a;fill-opacity:1;fill-rule:nonzero;stroke:none"
             id="path206" /></g><g
           id="g208"
           transform="translate(116.2475,632.1293)"><path
             d="m 0,0 c 0,-1.439 -1.166,-2.605 -2.605,-2.605 -1.439,0 -2.605,1.166 -2.605,2.605 0,1.439 1.166,2.605 2.605,2.605 C -1.166,2.605 0,1.439 0,0"
             style="fill:#bebebe;fill-opacity:1;fill-rule:nonzero;stroke:none"
             id="path210" /></g><g
           id="g212"
           transform="translate(87.4168,676.3947)"><path
             d="M 0,0 C -0.39,1.274 -2.331,0.786 -2.232,-0.494 -2,-3.499 -2.529,-6.508 -2.239,-9.495 -2.116,-10.772 -0.113,-10.928 0.058,-9.602 0.462,-6.461 0.942,-3.079 0,0"
             style="fill:#ffffff;fill-opacity:1;fill-rule:nonzero;stroke:none"
             id="path214" /></g><g
           id="g216"
           transform="translate(75.0724,665.7241)"><path
             d="M 0,0 C -0.727,2.345 -1.224,4.778 -2.499,6.904 -3.156,7.998 -4.856,7.058 -4.442,5.902 -3.608,3.576 -3.155,1.172 -2.011,-1.037 -1.39,-2.236 0.365,-1.177 0,0"
             style="fill:#ffffff;fill-opacity:1;fill-rule:nonzero;stroke:none"
             id="path218" /></g><g
           id="g220"
           transform="translate(67.1279,658.9262)"><path
             d="m 0,0 c -2.542,1.827 -5.722,3 -8.635,4.096 -1.383,0.52 -2.216,-1.268 -0.986,-2.041 2.642,-1.659 5.616,-3.259 8.607,-4.178 C 0.138,-2.477 0.955,-0.686 0,0"
             style="fill:#ffffff;fill-opacity:1;fill-rule:nonzero;stroke:none"
             id="path222" /></g><g
           id="g224"
           transform="translate(60.8763,649.8135)"><path
             d="m 0,0 c -1.34,0.327 -2.765,0.365 -4.132,0.566 -1.496,0.221 -2.998,0.406 -4.511,0.425 -1.359,0.018 -1.279,-1.958 -0.105,-2.258 2.613,-0.668 5.945,-1.595 8.641,-1.038 C 1.157,-2.044 1.337,-0.326 0,0"
             style="fill:#ffffff;fill-opacity:1;fill-rule:nonzero;stroke:none"
             id="path226" /></g><g
           id="g228"
           transform="translate(145.2876,591.2246)"><path
             d="m 0,0 c 0,0 4.94,13.041 14.908,13.032 0,0 9.456,-14.628 11.628,-19.367 0,0 -10.14,-12.361 -15.521,-11.571 0,0 -8.969,13.348 -11.015,17.906"
             style="fill:#c39e05;fill-opacity:1;fill-rule:nonzero;stroke:none"
             id="path230" /></g><g
           id="g232"
           transform="translate(169.9134,584.7157)"><path
             d="m 0,0 c 0,0 13.872,-28.109 19.614,-39.411 5.743,-11.303 11.04,-44.127 12.039,-54.895 0.998,-10.768 -17.583,-4.435 -16.869,0 0.714,4.435 -13.408,61.07 -26.247,84.233 0,0 5.905,11.81 11.463,10.073"
             style="fill:#e4bd00;fill-opacity:1;fill-rule:nonzero;stroke:none"
             id="path234" /></g><g
           id="g236"
           transform="translate(177.0341,516.2728)"><path
             d="m 0,0 c 0,0 -3.126,-11.709 -2.605,-13.532 0.521,-1.824 14.566,-5.246 15.099,-3.665 0.532,1.581 1.834,10.178 2.876,13.043 C 16.412,-1.288 12.378,7.872 9.706,8.502 7.034,9.132 0,0 0,0"
             style="fill:#ffe2c9;fill-opacity:1;fill-rule:nonzero;stroke:none"
             id="path238" /></g><g
           id="g240"
           transform="translate(178.121,369.7614)"><path
             d="m 0,0 c 0,0 -0.695,30.22 7.208,57.053 7.902,26.833 23.793,57.909 16.499,70.376 0,0 -5.992,1.601 -13.547,0 -7.555,-1.601 -21.362,-0.982 -21.362,-0.982 0,0 -13.547,-0.879 -16.934,-1.661 -3.386,-0.781 -25.53,-18.496 -39.077,-20.841 -13.546,-2.344 -23.967,6.09 -26.833,11.251 -2.865,5.162 -15.891,4.596 -16.412,-0.201 -0.521,-4.797 3.908,-18.084 20.059,-26.42 16.152,-8.337 42.464,-2.345 42.464,-2.345 0,0 -26.833,-44.287 -21.883,-90.398 0,0 36.939,-9.071 69.818,4.168"
             style="fill:#ffc800;fill-opacity:1;fill-rule:nonzero;stroke:none"
             id="path242" /></g><g
           id="g244"
           transform="translate(161.7506,496.0271)"><path
             d="m 0,0 c 0,0 2.084,7.294 3.126,7.815 1.042,0.521 23.968,-2.605 30.741,0 0,0 0.781,-3.907 0,-7.033 0,0 -8.076,-7.034 -33.867,-0.782"
             style="fill:#c39e05;fill-opacity:1;fill-rule:nonzero;stroke:none"
             id="path246" /></g><g
           id="g248"
           transform="translate(62.1473,508.4718)"><path
             d="m 0,0 c 0,0 3.632,22.665 9.241,33.867 0,0 -2.483,19.712 0,22.057 2.482,2.344 7.432,1.129 7.953,0.347 0,0 1.563,23.186 3.387,23.707 1.823,0.521 5.731,-0.782 4.949,-5.731 -0.781,-4.95 -0.317,-18.236 0.102,-19.278 0.419,-1.042 7.974,21.622 10.058,22.143 2.085,0.521 5.732,-1.823 4.69,-4.428 -1.042,-2.606 -7.034,-19.8 -7.034,-22.405 0,-2.605 1.042,-5.731 2.084,-6.513 1.042,-0.781 5.731,0.521 6.252,-1.042 0.521,-1.563 -1.563,-5.21 -8.597,-7.815 -7.034,-2.605 -12.206,-4.168 -12.206,-4.168 0,0 -7.593,-21.362 -6.03,-32.565 C 16.412,-13.026 2.605,-0.261 0,0"
             style="fill:#ffe2c9;fill-opacity:1;fill-rule:nonzero;stroke:none"
             id="path250" /></g><g
           id="g252"
           transform="translate(75.173,482.1599)"><path
             d="m 0,0 c -6.255,-1.815 -9.379,-2.866 -12.244,-2.866 -2.866,0 -5.992,26.312 -5.731,30.22 0.26,3.908 17.714,1.042 20.58,0 C 5.471,26.312 7.815,9.639 10.421,5.21 10.421,5.21 6.294,1.826 0,0"
             style="fill:#c39e05;fill-opacity:1;fill-rule:nonzero;stroke:none"
             id="path254" /></g><g
           id="g256"
           transform="translate(165.1895,524.123)"><path
             d="m 0,0 c 0,0 0.55,9.076 6.051,11.552 5.501,2.475 8.801,0 8.801,0 C 14.852,11.552 5.612,-1.334 0,0"
             style="fill:#d89380;fill-opacity:1;fill-rule:nonzero;stroke:none"
             id="path258" /></g><g
           id="g260"
           transform="translate(186.9177,582.1566)"><path
             d="m 0,0 c 0,0 -13.752,-20.628 -15.952,-24.479 -2.201,-3.85 -3.851,-0.825 -4.676,0 -0.825,0.825 -7.976,-1.375 -5.776,-4.4 2.2,-3.026 6.876,-6.051 6.876,-6.051 0,0 -3.575,-5.776 -4.126,-7.151 0,0 13.477,-0.825 17.603,0 0,0 -7.438,-15.127 -20.771,-13.202 0,0 -3.157,-8.251 -2.332,-9.627 0.825,-1.375 18.427,-4.4 22.278,-1.925 3.851,2.475 9.351,12.927 15.677,22.828 6.326,9.902 13.477,8.802 11.827,19.253 C 18.978,-14.302 7.976,6.601 0,0"
             style="fill:#ffe2c9;fill-opacity:1;fill-rule:nonzero;stroke:none"
             id="path262" /></g><g
           id="g264"
           transform="translate(197.9193,572.5302)"><path
             d="m 0,0 c 0,0 -14.199,-0.498 -15.213,10.89 -1.014,11.388 4.211,22.665 9.162,22.94 4.951,0.275 20.189,-7.155 9.902,-15.127 0,0 14.027,5.776 21.453,3.3 7.426,-2.475 15.952,-10.451 2.75,-15.127 0,0 25.304,-10.176 18.428,-25.579 0,0 10.726,-3.85 9.351,-8.801 -1.375,-4.951 -8.251,0 -8.251,0 0,0 5.501,-11.552 1.1,-14.302 -4.4,-2.751 -4.951,0 -4.951,0 0,0 1.651,-10.962 -9.901,-16.345 -11.552,-5.383 -16.227,-4.008 -16.227,-4.008 0,0 0.55,-11.827 -6.326,-11.277 -6.876,0.55 -11.002,11.552 -11.002,11.552 0,0 0.55,-4.126 -5.226,-3.576 -5.776,0.55 -5.982,12.981 -6.154,16.667 -0.172,3.686 8.08,16.063 8.08,16.063 0,0 2.75,12.916 8.526,12.921 0,0 -17.603,8.532 -5.501,19.809"
             style="fill:#a9660c;fill-opacity:1;fill-rule:nonzero;stroke:none"
             id="path266" /></g><g
           id="g268"
           transform="translate(190.2182,552.7216)"><path
             d="m 0,0 c 2.745,0.849 9.901,-10.446 7.151,-16.772 -2.75,-6.326 -9.351,-12.102 -11.827,-9.076 -2.475,3.025 0.55,5.501 3.301,9.351 C 1.375,-12.646 -3.576,-1.106 0,0"
             style="fill:#ffe2c9;fill-opacity:1;fill-rule:nonzero;stroke:none"
             id="path270" /></g><g
           id="g272"
           transform="translate(184.6257,570.0548)"><path
             d="m 0,0 c 0,0 5.867,-3.025 5.042,-9.626 0,0 -2.131,7.736 -7.089,7.701 L 0,0 z"
             style="fill:#955508;fill-opacity:1;fill-rule:nonzero;stroke:none"
             id="path274" /></g><g
           id="g276"
           transform="translate(179.8766,556.6231)"><path
             d="m 0,0 c -0.677,-1.528 -2.014,-2.417 -2.986,-1.986 -0.972,0.43 -1.211,2.018 -0.535,3.546 0.677,1.527 2.014,2.417 2.986,1.986 C 0.437,3.115 0.677,1.528 0,0"
             style="fill:#131416;fill-opacity:1;fill-rule:nonzero;stroke:none"
             id="path278" /></g><g
           id="g280"
           transform="translate(404.5532,339.506)"><path
             d="m 0,0 c 0,0 2.248,-152.182 2.883,-157.234 0.635,-5.051 -10.182,-8.559 -12.086,0 C -11.107,-148.674 -12.377,0 -12.377,0 L 0,0 z"
             style="fill:#2a3549;fill-opacity:1;fill-rule:nonzero;stroke:none"
             id="path282" /></g><g
           id="g284"
           transform="translate(284.0796,279.0807)"><path
             d="m 0,0 c 0,0 -2.526,-88.669 0,-91.359 l 10.777,0 0,91.359 C 10.777,4.388 0.1,3.691 0,0"
             style="fill:#3c4d68;fill-opacity:1;fill-rule:nonzero;stroke:none"
             id="path286" /></g><g
           id="g288"
           transform="translate(349.1794,280.6066)"><path
             d="m 0,0 c 0,0 1.135,-92.276 3.574,-92.904 2.438,-0.628 10.379,0 10.379,0 0,0 1.576,82.425 0,90.197 C 12.377,5.064 0,0 0,0"
             style="fill:#3c4d68;fill-opacity:1;fill-rule:nonzero;stroke:none"
             id="path290" /></g><g
           id="g292"
           transform="translate(372.0265,293.4994)"><path
             d="m 0,0 -3.987,-16.746 -87.393,1.16 -0.34,21.578 c 0,0 69.377,0.807 91.72,-5.992"
             style="fill:#3c4d68;fill-opacity:1;fill-rule:nonzero;stroke:none"
             id="path294" /></g><g
           id="g296"
           transform="translate(304.3483,396.7092)"><path
             d="m 0,0 c 0,0 -7.373,-11.381 -7.696,-14.995 0,0 6.744,10.235 7.696,14.995"
             style="fill:#ffffff;fill-opacity:1;fill-rule:nonzero;stroke:none"
             id="path298" /></g><g
           id="g300"
           transform="translate(363.4343,204.5064)"><path
             d="m 0,0 c 0,0 -7.627,-12.32 -8.855,-15.935 -1.229,-3.615 2.521,-13.194 4.427,-13.698 1.907,-0.504 15.52,-3.025 16.528,-5.546 1.009,-2.521 0,-6.793 0,-6.793 0,0 -16.47,-1.75 -25.377,0 -8.907,1.751 -15.799,28.473 -14.37,38.556 0,0 12.185,9.076 14.37,11.092 C -11.092,9.693 0,0 0,0"
             style="fill:#192e3a;fill-opacity:1;fill-rule:nonzero;stroke:none"
             id="path302" /></g><g
           id="g304"
           transform="translate(365.1397,318.2437)"><path
             d="m 0,0 c 0,0 74.426,8.893 79.973,4.86 5.546,-4.034 7.562,-12.605 2.52,-19.663 -5.041,-7.059 -76.636,-94.51 -80.669,-98.934 -4.034,-4.424 -18.786,2.634 -20.99,8.684 0,0 66.366,80.166 68.887,86.72 0,0 -61.917,0.204 -68.887,9.109 C -26.135,-0.32 -36.494,1.835 -30.948,4.86 -25.402,7.885 0,0 0,0"
             style="fill:#ed3b2e;fill-opacity:1;fill-rule:nonzero;stroke:none"
             id="path306" /></g><g
           id="g308"
           transform="translate(416.8779,175.3773)"><path
             d="m 0,0 c 0,0 3.025,-12.1 5.546,-14.117 2.521,-2.017 24.201,3.025 26.218,0 2.016,-3.025 1.879,-13.613 1.879,-13.613 0,0 -39.693,-4.538 -45.239,0 0,0 -10.282,-2.521 -13.712,0.504 0,0 2.115,26.694 5.141,30.237 C -17.142,6.554 0,0 0,0"
             style="fill:#192e3a;fill-opacity:1;fill-rule:nonzero;stroke:none"
             id="path310" /></g><g
           id="g312"
           transform="translate(334.1916,323.1035)"><path
             d="m 0,0 c 0,0 8.739,-11.092 15.966,-11.596 7.227,-0.504 77.812,1.008 83.863,-6.05 6.05,-7.059 -15.126,-117.914 -12.605,-132.82 0,0 -26.722,-0.724 -30.251,0 0,0 22.184,105.089 19.663,110.131 -2.521,5.042 -101.553,10.117 -107.099,15.663 -5.546,5.546 -6.05,15.63 -4.537,21.176 C -33.488,2.05 0,0 0,0"
             style="fill:#f84834;fill-opacity:1;fill-rule:nonzero;stroke:none"
             id="path314" /></g><g
           id="g316"
           transform="translate(318.2325,467.4001)"><path
             d="m 0,0 c 0,0 -9.203,10.79 -10.79,16.82 -1.587,6.03 -1.587,26.658 -1.587,26.658 0,0 -3.808,-0.009 -4.76,1.899 -0.952,1.909 2.856,6.268 4.76,5.517 0,0 -4.125,4.596 -1.587,7.793 2.539,3.197 8.886,-4.102 8.886,-4.102 0,0 14.916,13.964 39.67,8.569 0,0 7.934,11.047 12.377,1.239 0,0 9.838,8.599 14.598,-3.143 4.76,-11.743 -3.076,-19.042 -3.076,-19.042 0,0 5.905,-23.276 -2.174,-30.045 C 48.238,5.395 11.742,-2.539 0,0"
             style="fill:#4f4003;fill-opacity:1;fill-rule:nonzero;stroke:none"
             id="path318" /></g><g
           id="g320"
           transform="translate(326.1664,490.8148)"><path
             d="m 0,0 c 0,0 7.934,-46.264 9.203,-48.486 1.27,-2.221 16.185,-11.107 27.928,-9.203 11.742,1.904 13.963,6.03 13.329,19.993 -0.635,13.964 -4.443,52.364 -5.396,53.951 0,0 -5.077,-3.06 -7.616,-2.641 -2.539,0.419 -21.58,0.533 -23.802,0 C 11.425,13.081 0,0 0,0"
             style="fill:#ffe2c9;fill-opacity:1;fill-rule:nonzero;stroke:none"
             id="path322" /></g><g
           id="g324"
           transform="translate(335.0829,465.8133)"><path
             d="M 0,0 C 0,0 -6.982,9.521 -13.012,8.251 -19.041,6.982 -18.407,-3.491 -16.502,-6.982 -14.598,-10.473 -0.317,-18.724 0,0"
             style="fill:#ffe2c9;fill-opacity:1;fill-rule:nonzero;stroke:none"
             id="path326" /></g><g
           id="g328"
           transform="translate(361.0755,474.181)"><path
             d="m 0,0 c 0,0 -0.159,-6.622 0.952,-6.464 1.111,0.159 6.506,0.3 7.458,-0.802 0.952,-1.102 0.793,-6.179 0,-6.655 -0.793,-0.477 -5.728,-1.429 -8.418,-0.953 0,0 7.466,1.429 7.625,2.222 0.158,0.793 0.158,5.223 -0.635,5.15 -0.794,-0.072 -5.887,-0.879 -6.99,0 C -1.111,-6.622 -0.317,-1.153 0,0"
             style="fill:#d2a580;fill-opacity:1;fill-rule:nonzero;stroke:none"
             id="path330" /></g><g
           id="g332"
           transform="translate(346.4772,452.8017)"><path
             d="M 0,0 C 0,0 13.012,-4.76 23.008,-1.111 23.008,-1.111 9.362,-8.093 0,0"
             style="fill:#7f4516;fill-opacity:1;fill-rule:nonzero;stroke:none"
             id="path334" /></g><g
           id="g336"
           transform="translate(349.0686,473.6898)"><path
             d="M 0,0 C 0.18,-1.684 -0.499,-3.138 -1.518,-3.247 -2.537,-3.356 -3.509,-2.079 -3.689,-0.395 -3.87,1.289 -3.19,2.743 -2.171,2.852 -1.152,2.961 -0.18,1.684 0,0"
             style="fill:#131416;fill-opacity:1;fill-rule:nonzero;stroke:none"
             id="path338" /></g><g
           id="g340"
           transform="translate(370.1123,476.7458)"><path
             d="M 0,0 C 0.18,-1.684 -0.499,-3.138 -1.518,-3.247 -2.537,-3.356 -3.509,-2.079 -3.689,-0.395 -3.87,1.289 -3.19,2.743 -2.171,2.852 -1.152,2.961 -0.18,1.684 0,0"
             style="fill:#131416;fill-opacity:1;fill-rule:nonzero;stroke:none"
             id="path342" /></g><g
           id="g344"
           transform="translate(350.1267,493.4232)"><path
             d="m 0,0 c 0.563,0.099 -8.293,2.389 -11.583,-5.236 0,0 8.885,4.76 11.583,5.236"
             style="fill:#4f4003;fill-opacity:1;fill-rule:nonzero;stroke:none"
             id="path346" /></g><g
           id="g348"
           transform="translate(361.3929,495.6447)"><path
             d="M 0,0 C -0.476,0 5.94,3.522 8.748,-3.174 8.748,-3.174 5.554,0 0,0"
             style="fill:#4f4003;fill-opacity:1;fill-rule:nonzero;stroke:none"
             id="path350" /></g><g
           id="g352"
           transform="translate(365.7227,394.274)"><path
             d="m 0,0 c 0,0 9.316,-27.687 13.601,-36.07 4.284,-8.384 -10.632,-7.767 -10.632,-7.767 0,0 -13.418,29.849 -14.246,37.466 C -12.105,1.245 -3.604,10.424 0,0"
             style="fill:#ffe2c9;fill-opacity:1;fill-rule:nonzero;stroke:none"
             id="path354" /></g><g
           id="g356"
           transform="translate(314.3449,426.6992)"><path
             d="m 0,0 c 2.618,-4.998 14.28,-15.709 21.659,-14.757 7.379,0.952 17.367,5.66 8.188,18.565 C 26.484,4.667 22.883,5.482 19.358,6.161 13.076,7.37 6.161,7.318 -0.123,6.759 -0.606,6.309 -2.27,4.333 0,0"
             style="fill:#506a91;fill-opacity:1;fill-rule:nonzero;stroke:none"
             id="path358" /></g><g
           id="g360"
           transform="translate(359.8061,424.8745)"><path
             d="m 0,0 c -1.114,1.336 -7.7,3.609 -15.614,5.632 9.179,-12.904 -0.809,-17.612 -8.188,-18.564 -7.379,-0.952 -19.041,9.758 -21.659,14.757 -2.27,4.332 -0.607,6.308 -0.123,6.758 -11.175,-0.994 -20.345,-3.596 -20.345,-3.596 -3.173,-2.281 -18.577,-37.305 -17.218,-38.944 2.697,-3.253 19.993,-9.203 19.993,-9.203 0,0 -6.188,-19.942 -4.443,-31.288 0.726,-4.715 4.443,-40.562 4.443,-40.562 19.042,16.185 59.845,9.249 59.845,9.249 0,0 -8.165,17.864 -9.227,24.528 -1.061,6.665 9.362,46.324 9.362,46.324 0,0 12.06,-1.269 12.06,2.221 C 8.886,-29.197 1.587,-1.904 0,0"
             style="fill:#40567a;fill-opacity:1;fill-rule:nonzero;stroke:none"
             id="path362" /></g><g
           id="g364"
           transform="translate(349.016,438.8381)"><path
             d="m 0,0 c 0,0 -5.915,-6.664 -7.877,-10.79 0,0 7.242,-8.569 -3.23,-10.79 -10.473,-2.222 -20.946,11.846 -19.359,15.602 0,0 8.886,0.583 11.425,1.852 2.539,1.27 3.728,14.6 3.728,14.6 0,0 10.553,5.076 15.313,-10.474"
             style="fill:#ffe2c9;fill-opacity:1;fill-rule:nonzero;stroke:none"
             id="path366" /></g><g
           id="g368"
           transform="translate(294.2914,382.555)"><path
             d="m 0,0 c 0,0 -6.208,-18.93 -5.255,-21.469 0.952,-2.539 37.447,-5.395 43.16,-5.078 5.712,0.318 4.76,-9.203 -1.27,-10.472 -6.029,-1.27 -55.537,-2.539 -59.662,0.952 -4.126,3.491 5.526,40.084 6.795,43.258 C -10.072,4.293 -8.291,3.612 0,0"
             style="fill:#ffe2c9;fill-opacity:1;fill-rule:nonzero;stroke:none"
             id="path370" /></g><g
           id="g372"
           transform="translate(344.2704,360.086)"><path
             d="m 0,0 c 0,0 5.147,6.746 7.175,8.451 2.028,1.704 5.202,1.863 5.202,1.863 0,0 3.808,-2.221 4.443,-4.126 0.635,-1.904 3.332,-7.671 0,-8.913 -3.332,-1.242 -7.594,5.264 -7.594,5.264 0,0 -3.133,-1.716 -4.117,-3.318 C 4.126,-2.38 0,0 0,0"
             style="fill:#ffe2c9;fill-opacity:1;fill-rule:nonzero;stroke:none"
             id="path374" /></g><g
           id="g376"
           transform="translate(330.7105,353.0672)"><path
             d="M 0,0 C 0,0 15.423,6.626 19.575,5.136 23.727,3.647 28.62,2.889 31.238,2.677 33.856,2.465 35.682,-0.372 36.166,0 36.651,0.372 5.179,-5.083 0,0"
             style="fill:#ffe2c9;fill-opacity:1;fill-rule:nonzero;stroke:none"
             id="path378" /></g><g
           id="g380"
           transform="translate(332.1962,356.0084)"><path
             d="m 0,0 c 0.93,-0.044 8.093,1.745 10.314,3.015 2.222,1.269 7.44,6.052 8.886,5.554 1.446,-0.499 2.698,-2.857 3.015,-6.824 0.317,-3.966 -1.587,-6.347 -4.284,-5.395 -2.698,0.952 -2.222,4.126 -2.222,4.126 0,0 -9.362,-4.862 -12.535,-4.335 C 0,-3.332 0,0 0,0"
             style="fill:#ffe2c9;fill-opacity:1;fill-rule:nonzero;stroke:none"
             id="path382" /></g><g
           id="g384"
           transform="translate(321.2474,344.2246)"><path
             d="m 0,0 c 0,0 -0.317,3.691 0,4.802 0.317,1.111 3.65,3.808 3.65,3.808 0,0 43.795,1.746 50.3,2.063 0,0 17.931,52.998 20.787,55.855 0,0 60.932,-2.381 72.357,-4.761 L 130.433,7.885 130.433,0 c 0,0 -74.42,-1.311 -79.815,0 L 0,0 z"
             style="fill:#cfd7e2;fill-opacity:1;fill-rule:nonzero;stroke:none"
             id="path386" /></g><g
           id="g388"
           transform="translate(395.9846,410.7521)"><path
             d="m 0,0 c 0,0 5.474,-0.241 5.712,-2.144 0.238,-1.902 -18.089,-53.164 -19.279,-53.953 -1.19,-0.789 -7.22,0.242 -7.22,0.242 0,0 18.169,52.761 20.787,55.855"
             style="fill:#ffffff;fill-opacity:1;fill-rule:nonzero;stroke:none"
             id="path390" /></g><g
           id="g392"
           transform="translate(452.0982,420.0667)"><path
             d="M 0,0 C -0.441,1.888 -0.742,3.935 -1.801,5.601 -2.411,6.562 -4.127,6 -3.932,4.832 -3.596,2.808 -3.046,0.739 -2.059,-1.062 -1.367,-2.326 0.275,-1.177 0,0"
             style="fill:#ffffff;fill-opacity:1;fill-rule:nonzero;stroke:none"
             id="path394" /></g><g
           id="g396"
           transform="translate(465.246,425.5343)"><path
             d="m 0,0 c -0.51,-1.843 -0.804,-3.764 -1.058,-5.656 -0.198,-1.482 1.99,-1.896 2.29,-0.419 0.381,1.87 0.82,3.767 0.943,5.677 C 2.266,1.015 0.385,1.392 0,0"
             style="fill:#ffffff;fill-opacity:1;fill-rule:nonzero;stroke:none"
             id="path398" /></g><g
           id="g400"
           transform="translate(482.9271,416.7888)"><path
             d="m 0,0 c -0.911,-0.404 -1.653,-1.149 -2.457,-1.731 -0.818,-0.593 -1.686,-1.117 -2.494,-1.723 -1.116,-0.837 -0.221,-2.556 1.105,-2.142 0.967,0.302 1.871,0.852 2.699,1.429 0.949,0.661 2.121,1.457 2.626,2.528 C 1.901,-0.745 0.991,0.439 0,0"
             style="fill:#ffffff;fill-opacity:1;fill-rule:nonzero;stroke:none"
             id="path402" /></g><g
           id="g404"
           transform="translate(487.0872,398.5455)"><path
             d="m 0,0 c -1.242,1.133 -3.509,1.98 -5.196,1.69 -1.37,-0.235 -1.514,-2.123 -0.114,-2.452 0.699,-0.164 1.393,-0.299 2.076,-0.527 0.755,-0.253 1.484,-0.586 2.272,-0.725 C 0.191,-2.218 0.843,-0.769 0,0"
             style="fill:#ffffff;fill-opacity:1;fill-rule:nonzero;stroke:none"
             id="path406" /></g><g
           id="g408"
           transform="translate(498.1729,335.3062)"><path
             d="m 0,0 c 0,0 2.248,-172.091 2.883,-177.803 0.635,-5.713 -10.182,-9.68 -12.086,0 C -11.107,-168.124 -12.377,0 -12.377,0 L 0,0 z"
             style="fill:#2a3549;fill-opacity:1;fill-rule:nonzero;stroke:none"
             id="path410" /></g><g
           id="g412"
           transform="translate(247.145,341.7275)"><path
             d="m 0,0 66.036,3.819 0,-20.48 L 0,-16.661 0,0 z"
             style="fill:#2a3549;fill-opacity:1;fill-rule:nonzero;stroke:none"
             id="path414" /></g><g
           id="g416"
           transform="translate(507.3763,345.5461)"><path
             d="m 0,0 -194.195,0 0,-20.48 L 0,-15.878 0,0 z"
             style="fill:#2a3549;fill-opacity:1;fill-rule:nonzero;stroke:none"
             id="path418" /></g><g
           id="g420"
           transform="translate(260.1859,329.827)"><path
             d="m 0,0 c 0,0 -10.902,-161.926 -10.902,-167.564 0,0 -8.774,-8.409 -10.678,0 C -23.484,-159.154 -12.668,0 -12.668,0 L 0,0 z"
             style="fill:#2a3549;fill-opacity:1;fill-rule:nonzero;stroke:none"
             id="path422" /></g><g
           id="g424"
           transform="translate(313.1813,325.0663)"><path
             d="m 0,0 c 0,0 -11.117,-170.578 -10.015,-174.387 1.103,-3.808 9.844,-5.908 11.462,-2.1 1.617,3.809 11.538,177.478 11.538,177.478 L 0,0 z"
             style="fill:#2a3549;fill-opacity:1;fill-rule:nonzero;stroke:none"
             id="path426" /></g><g
           id="g428"
           transform="translate(606.4125,520.3056)"><path
             d="m 0,0 c 0,0 -4.666,-12.581 -12.766,-19.007 -8.1,-6.427 -46.659,-59.97 5.229,-89.251 0,0 -8.331,10.467 -2.856,23.796 0,0 2.113,-7.408 8.575,-10.472 0,0 -8.447,21.897 -7.083,39.272 1.364,17.376 14.505,41.358 15.813,52.713 C 8.219,8.406 1.802,0.918 0,0"
             style="fill:#864503;fill-opacity:1;fill-rule:nonzero;stroke:none"
             id="path430" /></g><g
           id="g432"
           transform="translate(606.4125,533.3305)"><path
             d="m 0,0 c 0,0 -2.017,-10.849 -1.802,-13.943 0.215,-3.094 3.307,-6.82 7.099,-5.95 3.792,0.87 5.255,12.853 5.969,15.709 C 11.98,-1.328 2.301,2.28 0,0"
             style="fill:#ffc800;fill-opacity:1;fill-rule:nonzero;stroke:none"
             id="path434" /></g><g
           id="g436"
           transform="translate(712.8852,189.2857)"><path
             d="m 0,0 c 0,0 9.045,-7.015 12.377,-6.853 3.332,0.162 16.185,13.491 21.897,11.111 5.713,-2.381 9.997,-9.233 9.045,-15.089 0,0 -24.754,-12.997 -34.274,-14.901 -9.521,-1.905 -19.518,-2.857 -21.422,0 -1.904,2.856 -5.64,14.385 -2.82,20.521 C -12.377,0.925 0,0 0,0"
             style="fill:#d2e4ff;fill-opacity:1;fill-rule:nonzero;stroke:none"
             id="path438" /></g><g
           id="g440"
           transform="translate(563.4109,193.8279)"><path
             d="m 0,0 c 0,0 2.38,-22.023 6.188,-24.245 0,0 16.662,-2.97 19.042,-7.832 2.38,-4.862 0,-9.106 0,-9.106 0,0 -21.898,-5.196 -29.514,0 -7.617,5.196 -22.168,25.342 -22.985,29.788 -0.817,4.446 12.037,17.214 12.037,17.214 L 0,0 z"
             style="fill:#d2e4ff;fill-opacity:1;fill-rule:nonzero;stroke:none"
             id="path442" /></g><g
           id="g444"
           transform="translate(676.7067,400.7189)"><path
             d="m 0,0 c 0,0 20.945,-59.067 26.658,-89.088 5.712,-30.022 9.997,-117.082 11.901,-122.345 0,0 -6.189,-11.928 -19.28,-4.311 0,0 -7.854,77.256 -13.091,95.99 -5.236,18.734 -32.269,73.151 -36.553,79.223 0,0 -16.762,-57.157 -23.903,-75.246 -7.14,-18.09 -48.555,-90.393 -59.028,-95.656 0,0 -11.901,-4.058 -17.137,7.24 0,0 40.939,66.518 46.651,86.988 5.713,20.469 10.457,101.46 20.192,118.412 C -53.854,18.16 -14.757,11.05 0,0"
             style="fill:#2f5f7c;fill-opacity:1;fill-rule:nonzero;stroke:none"
             id="path446" /></g><g
           id="g448"
           transform="translate(746.3662,465.8493)"><path
             d="m 0,0 c 0,0 -0.62,10.772 0.967,16.484 1.587,5.712 6.724,6.642 11.167,2.833 0,0 13.826,14.71 17,15 3.173,0.291 4.507,-1.317 1.333,-4.833 -3.173,-3.516 -10.474,-13.963 -10.474,-13.963 0,0 5.387,1.169 6.974,-1.37 1.587,-2.539 0.008,-6.391 0.008,-6.391 0,0 4.443,-3.46 0.318,-7.76 C 23.167,-4.3 12.06,-10.819 10.155,-10.098 8.251,-9.377 0,0 0,0"
             style="fill:#ffe2c9;fill-opacity:1;fill-rule:nonzero;stroke:none"
             id="path450" /></g><g
           id="g452"
           transform="translate(655.4224,505.3362)"><path
             d="m 0,0 c 0,0 7.288,-2.134 12.144,-9.75 4.856,-7.617 18.661,-39.749 37.702,-42.605 19.042,-2.856 35.941,14.043 39.987,14.757 4.046,0.714 15.233,-8.98 14.043,-15.082 -1.19,-6.101 -37.369,-23.001 -54.744,-22.049 C 31.757,-73.777 18.19,-56.163 14.858,-52.117 11.526,-48.071 -1.529,-11.671 0,0"
             style="fill:#ff6955;fill-opacity:1;fill-rule:nonzero;stroke:none"
             id="path454" /></g><g
           id="g456"
           transform="translate(593.4571,447.5862)"><path
             d="m 0,0 c 0,0 -14.997,-39.035 -40.373,-53.633 0,0 -7.532,0.635 -9.313,3.173 0,0 26.146,11.566 39.157,40.525 C 2.483,19.023 0,0 0,0"
             style="fill:#edb415;fill-opacity:1;fill-rule:nonzero;stroke:none"
             id="path458" /></g><g
           id="g460"
           transform="translate(639.9817,506.3774)"><path
             d="m 0,0 c 0,0 13.514,2.485 15.722,-3.227 2.208,-5.713 6.03,-21.742 9.124,-24.836 3.094,-3.094 14.259,-18.404 5.215,-29.59 0,0 8.565,-24.235 9.758,-51.677 0,0 -38.858,-14.81 -71.532,1.428 0,0 12.302,31.134 13.218,37.369 1.68,11.424 -9.777,35.702 -9.777,35.702 0,0 -18.396,-32.515 -31.876,-41.653 -13.48,-9.138 -39.034,-12.377 -43.081,5.237 -4.046,17.613 13.329,13.074 13.329,13.074 0,0 16.423,-2.38 24.278,3.349 7.854,5.728 23.802,44.509 29.276,49.507 C -30.872,-0.319 -6.755,-0.18 0,0"
             style="fill:#ff6955;fill-opacity:1;fill-rule:nonzero;stroke:none"
             id="path462" /></g><g
           id="g464"
           transform="translate(541.3547,395.5399)"><path
             d="m 0,0 c 0,0 -22.215,-18.724 -26.023,-24.436 -3.808,-5.713 31.101,-31.101 36.178,-30.466 5.078,0.634 31.457,27.155 30.971,30.466 C 40.641,-21.126 6.467,1.12 0,0"
             style="fill:#edb415;fill-opacity:1;fill-rule:nonzero;stroke:none"
             id="path466" /></g><g
           id="g468"
           transform="translate(611.7098,504.1982)"><path
             d="m 0,0 c 0,0 8.349,-17.895 5.969,-40.268 -2.38,-22.374 -23.802,-74.981 -37.607,-87.474 l 3.809,-5.353 c 0,0 58.932,84.821 31.608,133.095 L 0,0 z"
             style="fill:#edb415;fill-opacity:1;fill-rule:nonzero;stroke:none"
             id="path470" /></g><g
           id="g472"
           transform="translate(584.7194,372.3425)"><path
             d="m 0,0 c 0,0 -7.862,6.06 -16.886,12.407 -9.024,6.347 -21.401,15.551 -25.527,14.599 -4.125,-0.952 -13.67,-10.118 -13.658,-13.469 0.012,-3.351 15.88,-19.854 21.91,-20.488 0,0 15.346,4.473 24.753,5.712 C 0,0 -2.019,-3.089 0,0"
             style="fill:#ffd261;fill-opacity:1;fill-rule:nonzero;stroke:none"
             id="path474" /></g><g
           id="g476"
           transform="translate(641.2874,511.5154)"><path
             d="m 0,0 c 0,0 1.63,-6.647 3.768,-6.885 0,0 2.22,-4.76 -1.884,-6.426 -4.104,-1.666 -14.365,5.419 -14.029,6.655 0.336,1.237 1.31,5.37 0.754,7.926 C -11.946,3.826 -3.525,4.504 0,0"
             style="fill:#ffe2c9;fill-opacity:1;fill-rule:nonzero;stroke:none"
             id="path478" /></g><g
           id="g480"
           transform="translate(629.5795,598.0125)"><path
             d="m 0,0 c 9.521,4.443 28.321,-6.347 31.932,-15.55 3.612,-9.204 5.487,-22.986 -0.846,-29.424 -6.332,-6.438 -46.188,-27.211 -46.188,-27.211 0,0 -16.237,11.244 -19.41,18.869 -3.174,7.626 -4.84,24.119 2.459,37.131 C -24.754,-3.174 -10.473,2.221 0,0"
             style="fill:#864503;fill-opacity:1;fill-rule:nonzero;stroke:none"
             id="path482" /></g><g
           id="g484"
           transform="translate(659.7282,560.882)"><path
             d="m 0,0 c 0,0 4.013,-27.098 0,-36.813 -6.03,-14.599 -24.497,-13.33 -32.642,-10.469 -13.454,4.724 -19.404,28.241 -20.674,35.222 0,0 22.215,9.204 24.437,36.179 0,0 18.406,-25.388 28.879,-24.119"
             style="fill:#ffe2c9;fill-opacity:1;fill-rule:nonzero;stroke:none"
             id="path486" /></g><g
           id="g488"
           transform="translate(640.0522,559.2952)"><path
             d="m 0,0 c 0,0 -0.635,-8.251 1.904,-9.838 2.539,-1.587 6.991,3.147 8.41,1.111 1.419,-2.037 1.269,-4.602 -1.904,-5.871 0,0 7.278,1.593 2.762,7.299 C 8.41,-3.808 4.126,-9.997 3.015,-8.569 1.904,-7.141 0,-2.063 0,0"
             style="fill:#d2a580;fill-opacity:1;fill-rule:nonzero;stroke:none"
             id="path490" /></g><g
           id="g492"
           transform="translate(645.5941,520.3056)"><path
             d="M 0,0 C -1.282,-1.075 -2.703,-1.792 -4.272,-1.949 -10.851,-2.607 -17.427,6.885 -20.551,13.025 -15.204,12.882 -3.639,11.235 0,0"
             style="fill:#e4ac99;fill-opacity:1;fill-rule:nonzero;stroke:none"
             id="path494" /></g><g
           id="g496"
           transform="translate(623.2324,538.3497)"><path
             d="m 0,0 c 0.952,0.635 31.736,2.221 31.736,2.221 0,0 -2.881,-14.82 -9.374,-20.265 C 18.723,-6.809 7.158,-5.162 1.811,-5.019 0.414,-2.273 -0.294,-0.196 0,0"
             style="fill:#7a4316;fill-opacity:1;fill-rule:nonzero;stroke:none"
             id="path498" /></g><g
           id="g500"
           transform="translate(632.9117,552.9481)"><path
             d="m 0,0 c 0,0 -3.015,4.76 -6.823,3.967 -3.808,-0.793 -6.03,-3.808 -5.554,-6.347 0,0 4.284,7.616 12.377,2.38"
             style="fill:#131416;fill-opacity:1;fill-rule:nonzero;stroke:none"
             id="path502" /></g><g
           id="g504"
           transform="translate(655.7034,555.8234)"><path
             d="m 0,0 c 0,0 -2.581,4.075 -5.84,3.395 -3.26,-0.679 -5.161,-3.259 -4.754,-5.432 0,0 3.667,6.519 10.594,2.037"
             style="fill:#131416;fill-opacity:1;fill-rule:nonzero;stroke:none"
             id="path506" /></g><g
           id="g508"
           transform="translate(629.8969,569.4506)"><path
             d="m 0,0 c 0,0 -10.439,-2.906 -12.218,-6.03 0,0 0.037,8.945 12.218,6.03"
             style="fill:#442405;fill-opacity:1;fill-rule:nonzero;stroke:none"
             id="path510" /></g><g
           id="g512"
           transform="translate(643.3844,569.668)"><path
             d="M 0,0 C 0,0 6.995,5.315 11.583,-4.343 11.583,-4.343 5.792,0.366 0,0"
             style="fill:#442405;fill-opacity:1;fill-rule:nonzero;stroke:none"
             id="path514" /></g><g
           id="g516"
           transform="translate(607.4579,548.4999)"><path
             d="m 0,0 c 0,0 -6.029,5.319 -8.866,1.951 -2.837,-3.369 0.355,-12.235 4.433,-13.654 4.078,-1.418 6.584,-3.191 8.346,0 C 5.674,-8.511 0,0 0,0"
             style="fill:#ffe2c9;fill-opacity:1;fill-rule:nonzero;stroke:none"
             id="path518" /></g><g
           id="g520"
           transform="translate(660.2873,556.5406)"><path
             d="M 0,0 C 0,0 2.128,4.52 2.966,0.464 3.805,-3.593 4.714,-14.291 1.165,-15.011 -2.384,-15.731 0,0 0,0"
             style="fill:#ffe2c9;fill-opacity:1;fill-rule:nonzero;stroke:none"
             id="path522" /></g><g
           id="g524"
           transform="translate(602.4456,546.2836)"><path
             d="M 0,0 C 1.633,2.45 7.67,-2.856 6.572,-5.712 5.474,-8.569 1.821,-9.472 0,-6.664 -2.38,-2.995 -0.952,-1.428 0,0"
             style="fill:#4e5f83;fill-opacity:1;fill-rule:nonzero;stroke:none"
             id="path526" /></g><g
           id="g528"
           transform="translate(663.7394,553.7861)"><path
             d="m 0,0 c 0,0 2.257,0.828 2.495,-3.218 0.238,-4.046 -4.474,-4.761 -4.474,-4.761 0,0 -2.182,5.961 1.979,7.979"
             style="fill:#4e5f83;fill-opacity:1;fill-rule:nonzero;stroke:none"
             id="path530" /></g><g
           id="g532"
           transform="translate(604.6105,538.3497)"><path
             d="m 0,0 c 0,0 4.434,-29.911 34.457,-41.812 0,0 0.033,-34.988 -6.156,-55.933 -6.188,-20.946 -19.993,-37.131 -37.844,-34.275 -17.852,2.856 -28.324,19.28 -28.324,19.28 l 0,6.188 -3.333,0 0,-5.95 c 0,0 9.045,-20.47 31.181,-23.564 22.135,-3.094 35.226,14.281 42.605,37.369 7.378,23.087 6.188,56.409 6.188,56.409 0,0 32.198,15.93 22.287,52.117 0,0 -2.427,2.006 -1.765,-1.611 0.661,-3.616 6.612,-31.702 -21.712,-47.173 0,0 -25.025,6.981 -35.124,38.955 0,0 -2.199,5.157 -2.46,0"
             style="fill:#4e5f83;fill-opacity:1;fill-rule:nonzero;stroke:none"
             id="path534" /></g><g
           id="g536"
           transform="translate(561.9828,433.9399)"><path
             d="m 0,0 c 1.336,3.319 -2.539,35.861 -3.808,41.39 -0.791,3.445 -3.306,4.895 -5.09,5.499 2.421,0.315 4.219,0.489 4.772,0.397 C -2.221,46.969 0,45.967 1.428,41.39 2.856,36.813 8.093,-0.793 4.76,-2.142 3.524,-2.643 -0.139,-3.227 -4.437,-3.689 -2.755,-2.995 -0.732,-1.819 0,0"
             style="fill:#647fad;fill-opacity:1;fill-rule:nonzero;stroke:none"
             id="path538" /></g><g
           id="g540"
           transform="translate(533.0089,477.7349)"><path
             d="m 0,0 c 4.5,0.7 14.16,2.323 20.076,3.094 1.784,-0.604 4.299,-2.054 5.09,-5.499 1.269,-5.529 5.144,-38.071 3.808,-41.39 -0.732,-1.819 -2.755,-2.995 -4.437,-3.689 C 17.253,-48.269 8.141,-48.705 5.892,-47.794 2.317,-46.346 -4.32,-0.672 0,0"
             style="fill:#4e5f83;fill-opacity:1;fill-rule:nonzero;stroke:none"
             id="path542" /></g><g
           id="g544"
           transform="translate(534.735,473.1015)"><path
             d="m 0,0 c 0.119,-1.375 1.331,-2.393 2.706,-2.274 l 4.031,0.35 C 8.112,-1.805 9.13,-0.593 9.011,0.782 8.891,2.157 7.68,3.175 6.305,3.056 L 2.274,2.706 C 0.899,2.587 -0.119,1.375 0,0"
             style="fill:#ffffff;fill-opacity:1;fill-rule:nonzero;stroke:none"
             id="path546" /></g><g
           id="g548"
           transform="translate(561.8927,496.1099)"><path
             d="M 0,0 C -0.079,1.165 -1.89,1.588 -2.334,0.427 -3.256,-1.982 -3.801,-4.97 -3.785,-7.549 -3.776,-9.061 -1.729,-8.872 -1.349,-7.663 -0.613,-5.319 0.167,-2.47 0,0"
             style="fill:#ffffff;fill-opacity:1;fill-rule:nonzero;stroke:none"
             id="path550" /></g><g
           id="g552"
           transform="translate(545.0908,497.0641)"><path
             d="m 0,0 c -0.445,1.311 -2.252,0.765 -2.247,-0.497 0.008,-2.09 0.493,-4.41 1.391,-6.297 0.528,-1.108 2.514,-0.897 2.262,0.501 C 1.032,-4.215 0.68,-2.001 0,0"
             style="fill:#ffffff;fill-opacity:1;fill-rule:nonzero;stroke:none"
             id="path554" /></g><g
           id="g556"
           transform="translate(534.9675,486.6699)"><path
             d="M 0,0 C -1.105,1.641 -2.099,3.459 -3.356,4.984 -4.142,5.939 -5.909,5.219 -5.381,3.94 -4.552,1.934 -3.194,0.031 -1.734,-1.56 -0.807,-2.57 0.722,-1.072 0,0"
             style="fill:#ffffff;fill-opacity:1;fill-rule:nonzero;stroke:none"
             id="path558" /></g><g
           id="g560"
           transform="translate(524.4638,477.5958)"><path
             d="m 0,0 c -1.339,0.949 -2.7,1.968 -4.272,2.493 -0.523,0.175 -1.054,0.149 -1.441,-0.3 -0.403,-0.468 -0.403,-1.315 0.129,-1.702 1.326,-0.967 2.693,-1.975 4.255,-2.52 0.527,-0.183 1.071,-0.146 1.459,0.305 C 0.534,-1.256 0.544,-0.385 0,0"
             style="fill:#ffffff;fill-opacity:1;fill-rule:nonzero;stroke:none"
             id="path562" /></g><g
           id="g564"
           transform="translate(531.5963,471.5464)"><path
             d="m 0,0 c 0,0 -0.556,-5.95 2.063,-7.14 2.618,-1.191 3.094,-2.619 8.806,-1.429 5.713,1.19 12.139,-0.714 12.853,-2.618 0.714,-1.904 -3.332,-5.224 -7.378,-5.23 -4.047,-0.006 -9.283,-0.72 -9.283,-2.386 0,-1.666 3.926,-2.142 8.27,-1.428 4.345,0.714 10.533,0.866 11.723,-2.423 1.19,-3.29 -2.856,-4.718 -6.664,-5.194 -3.808,-0.476 -9.759,-0.714 -10.473,-1.666 -0.714,-0.952 3.808,-2.38 6.665,-1.904 2.856,0.476 8.092,0 8.33,-2.38 0.238,-2.38 -7.854,-3.571 -12.615,-3.571 -4.76,0 -8.33,1.667 -10.234,3.571 -1.905,1.904 -5.237,15.947 -4.999,22.373 C -2.698,-4.998 0,0 0,0"
             style="fill:#ffe2c9;fill-opacity:1;fill-rule:nonzero;stroke:none"
             id="path566" /></g></g></g></g></svg>