<?xml version="1.0" encoding="UTF-8" standalone="no"?>
<!-- Created with Inkscape (http://www.inkscape.org/) -->

<svg
   xmlns:dc="http://purl.org/dc/elements/1.1/"
   xmlns:cc="http://creativecommons.org/ns#"
   xmlns:rdf="http://www.w3.org/1999/02/22-rdf-syntax-ns#"
   xmlns:svg="http://www.w3.org/2000/svg"
   xmlns="http://www.w3.org/2000/svg"
   xmlns:sodipodi="http://sodipodi.sourceforge.net/DTD/sodipodi-0.dtd"
   xmlns:inkscape="http://www.inkscape.org/namespaces/inkscape"
   id="svg2"
   version="1.1"
   inkscape:version="0.48.5 r10040"
   width="1000"
   height="1000"
   xml:space="preserve"
   sodipodi:docname="07.ai"><metadata
     id="metadata8"><rdf:RDF><cc:Work
         rdf:about=""><dc:format>image/svg+xml</dc:format><dc:type
           rdf:resource="http://purl.org/dc/dcmitype/StillImage" /><dc:title></dc:title></cc:Work></rdf:RDF></metadata><defs
     id="defs6"><clipPath
       clipPathUnits="userSpaceOnUse"
       id="clipPath16"><path
         d="M 0,0 800,0 800,800 0,800 0,0 z"
         id="path18" /></clipPath><linearGradient
       x1="0"
       y1="0"
       x2="1"
       y2="0"
       gradientUnits="userSpaceOnUse"
       gradientTransform="matrix(-3.5e-5,799.99951,799.99951,3.5e-5,400.00049,0)"
       spreadMethod="pad"
       id="linearGradient24"><stop
         style="stop-opacity:1;stop-color:#e0c696"
         offset="0"
         id="stop26" /><stop
         style="stop-opacity:1;stop-color:#dfd0b4"
         offset="1"
         id="stop28" /></linearGradient><clipPath
       clipPathUnits="userSpaceOnUse"
       id="clipPath36"><path
         d="M 0,800 800,800 800,0 0,0 0,800 z"
         id="path38" /></clipPath><clipPath
       clipPathUnits="userSpaceOnUse"
       id="clipPath44"><path
         d="m -28.3286,860.676 879.7036,0 0,-860.676 -879.7036,0 0,860.676 z"
         id="path46" /></clipPath><clipPath
       clipPathUnits="userSpaceOnUse"
       id="clipPath48"><path
         d="M 800,0 0,0 0,800 800,800 800,0 z"
         id="path50" /></clipPath><clipPath
       clipPathUnits="userSpaceOnUse"
       id="clipPath52"><path
         d="M 800,0 0,0 0,800 800,800 800,0 z"
         id="path54" /></clipPath><clipPath
       clipPathUnits="userSpaceOnUse"
       id="clipPath56"><path
         d="M 800,0 0,0 0,800 800,800 800,0 z"
         id="path58" /></clipPath><clipPath
       clipPathUnits="userSpaceOnUse"
       id="clipPath60"><path
         d="M 800,0 0,0 0,800 800,800 800,0 z"
         id="path62" /></clipPath><clipPath
       clipPathUnits="userSpaceOnUse"
       id="clipPath64"><path
         d="M 800,0 0,0 0,800 800,800 800,0 z"
         id="path66" /></clipPath><clipPath
       clipPathUnits="userSpaceOnUse"
       id="clipPath68"><path
         d="M 800,0 0,0 0,800 800,800 800,0 z"
         id="path70" /></clipPath><clipPath
       clipPathUnits="userSpaceOnUse"
       id="clipPath72"><path
         d="M 800,0 0,0 0,800 800,800 800,0 z"
         id="path74" /></clipPath><clipPath
       clipPathUnits="userSpaceOnUse"
       id="clipPath200"><path
         d="M 0,800 800,800 800,0 0,0 0,800 z"
         id="path202" /></clipPath><clipPath
       clipPathUnits="userSpaceOnUse"
       id="clipPath284"><path
         d="m 155.03,362.308 374.584,0 0,-201.135 -374.584,0 0,201.135 z"
         id="path286" /></clipPath><clipPath
       clipPathUnits="userSpaceOnUse"
       id="clipPath366"><path
         d="M -9.76562e-4,800 800,800 800,0 -9.76562e-4,0 l 0,800 z"
         id="path368" /></clipPath><clipPath
       clipPathUnits="userSpaceOnUse"
       id="clipPath370"><path
         d="m 800,0 -800.001,0 0,800 L 800,800 800,0 z"
         id="path372" /></clipPath><radialGradient
       fx="0"
       fy="0"
       cx="0"
       cy="0"
       r="1"
       gradientUnits="userSpaceOnUse"
       gradientTransform="matrix(563.46027,0,0,-563.46027,399.99951,400)"
       spreadMethod="pad"
       id="radialGradient378"><stop
         style="stop-opacity:0;stop-color:#ffffff"
         offset="0"
         id="stop380" /><stop
         style="stop-opacity:0.29999237;stop-color:#ffffff"
         offset="1"
         id="stop382" /></radialGradient><mask
       maskUnits="userSpaceOnUse"
       x="0"
       y="0"
       width="1"
       height="1"
       id="mask384"><g
         id="g386"><g
           id="g388"><g
             id="g390"><g
               id="g392"><path
                 d="m -32768,32767 65535,0 0,-65535 -65535,0 0,65535 z"
                 style="fill:url(#radialGradient378);stroke:none"
                 id="path394" /></g></g></g></g></mask><radialGradient
       fx="0"
       fy="0"
       cx="0"
       cy="0"
       r="1"
       gradientUnits="userSpaceOnUse"
       gradientTransform="matrix(563.46027,0,0,-563.46027,399.99951,400)"
       spreadMethod="pad"
       id="radialGradient396"><stop
         style="stop-opacity:1;stop-color:#ffffff"
         offset="0"
         id="stop398" /><stop
         style="stop-opacity:1;stop-color:#1d1e1c"
         offset="1"
         id="stop400" /></radialGradient></defs><sodipodi:namedview
     pagecolor="#ffffff"
     bordercolor="#666666"
     borderopacity="1"
     objecttolerance="10"
     gridtolerance="10"
     guidetolerance="10"
     inkscape:pageopacity="0"
     inkscape:pageshadow="2"
     inkscape:window-width="1600"
     inkscape:window-height="847"
     id="namedview4"
     showgrid="false"
     inkscape:zoom="1.3350176"
     inkscape:cx="554.78637"
     inkscape:cy="166.03493"
     inkscape:window-x="0"
     inkscape:window-y="0"
     inkscape:window-maximized="1"
     inkscape:current-layer="g198" /><g
     id="g10"
     inkscape:groupmode="layer"
     inkscape:label="07"
     transform="matrix(1.25,0,0,-1.25,0,1000)"><g
       id="g12"><g
         id="g14"
         clip-path="url(#clipPath16)"><g
           id="g20"><g
             id="g22"><path
               d="M 0,0 800,0 800,800 0,800 0,0 z"
               style="fill:url(#linearGradient24);stroke:none"
               id="path30" /></g></g></g></g><g
       id="g32"><g
         id="g34"
         clip-path="url(#clipPath36)"><g
           id="g40"><g
             id="g42" /><g
             id="g76"><g
               clip-path="url(#clipPath44)"
               opacity="0.199997"
               id="g78"><g
                 id="g80"><g
                   clip-path="url(#clipPath48)"
                   id="g82"><g
                     transform="translate(851.375,494.6147)"
                     id="g84"><path
                       d="m 0,0 c 0,-69.935 -56.699,-126.632 -126.632,-126.632 -69.932,0 -126.632,56.697 -126.632,126.632 0,69.937 56.7,126.633 126.632,126.633 C -56.699,126.633 0,69.937 0,0"
                       style="fill:#ff695d;fill-opacity:1;fill-rule:nonzero;stroke:none"
                       id="path86" /></g><text
                     transform="matrix(1,0,0,-1,640.9502,470.6406)"
                     id="text88"><tspan
                       style="fill:#ffffff;fill-opacity:1;fill-rule:nonzero;stroke:none;font-family:Roboto;font-variant:normal;font-weight:bold;font-stretch:normal;font-size:67.5373;writing-mode:lr;-inkscape-font-specification:Roboto-Bold"
                       x="0 43.1563347 85.9749829 128.7936311"
                       y="0"
                       sodipodi:role="line"
                       id="tspan90">CSS3</tspan></text>
<g
                     transform="translate(654.626,642.2314)"
                     id="g92"><path
                       d="m 0,0 c 0,-61.35 -49.738,-111.087 -111.089,-111.087 -61.35,0 -111.089,49.737 -111.089,111.087 0,61.352 49.739,111.089 111.089,111.089 C -49.738,111.089 0,61.352 0,0"
                       style="fill:#00b9af;fill-opacity:1;fill-rule:nonzero;stroke:none"
                       id="path94" /></g></g></g><text
                 transform="matrix(1,0,0,-1,473.001,618.1826)"
                 id="text96"><tspan
                   style="fill:#ffffff;fill-opacity:1;fill-rule:nonzero;stroke:none;font-family:Roboto;font-variant:normal;font-weight:bold;font-stretch:normal;font-size:70.1611;writing-mode:lr;-inkscape-font-specification:Roboto-Bold"
                   x="0 45.6748761 95.3489349"
                   y="0"
                   sodipodi:role="line"
                   id="tspan98">PHP</tspan></text>
<g
                 id="g100"><g
                   clip-path="url(#clipPath52)"
                   id="g102"><g
                     transform="translate(210.6021,570.4751)"
                     id="g104"><path
                       d="m 0,0 c 0,-65.979 -53.487,-119.466 -119.466,-119.466 -65.978,0 -119.465,53.487 -119.465,119.466 0,65.979 53.487,119.465 119.465,119.465 C -53.487,119.465 0,65.979 0,0"
                       style="fill:#8dbc1b;fill-opacity:1;fill-rule:nonzero;stroke:none"
                       id="path106" /></g></g></g><text
                 transform="matrix(1,0,0,-1,1.0942,552.3892)"
                 id="text108"><tspan
                   style="fill:#ffffff;fill-opacity:1;fill-rule:nonzero;stroke:none;font-family:Roboto;font-variant:normal;font-weight:bold;font-stretch:normal;font-size:55.1378;writing-mode:lr;-inkscape-font-specification:Roboto-Bold"
                   x="0 39.0375624 70.5212462 118.6565456 148.4860954"
                   y="0"
                   sodipodi:role="line"
                   id="tspan110">HTML5</tspan></text>
<g
                 id="g112"><g
                   clip-path="url(#clipPath56)"
                   id="g114"><g
                     transform="translate(318.146,712.2861)"
                     id="g116"><path
                       d="m 0,0 c 0,-48.214 -39.087,-87.302 -87.302,-87.302 -48.213,0 -87.301,39.088 -87.301,87.302 0,48.213 39.088,87.301 87.301,87.301 C -39.087,87.301 0,48.213 0,0"
                       style="fill:#ff695d;fill-opacity:1;fill-rule:nonzero;stroke:none"
                       id="path118" /></g></g></g><text
                 transform="matrix(1,0,0,-1,183.1553,689.9399)"
                 id="text120"><tspan
                   style="fill:#ffffff;fill-opacity:1;fill-rule:nonzero;stroke:none;font-family:Roboto;font-variant:normal;font-weight:bold;font-stretch:normal;font-size:55.1378;writing-mode:lr;-inkscape-font-specification:Roboto-Bold"
                   x="0 35.2330542 65.2831552"
                   y="0"
                   sodipodi:role="line"
                   id="tspan122">C++</tspan></text>
<g
                 id="g124"><g
                   clip-path="url(#clipPath60)"
                   id="g126"><g
                     transform="translate(641.4531,440.8525)"
                     id="g128"><path
                       d="m 0,0 c 0,-35.455 -28.743,-64.198 -64.198,-64.198 -35.454,0 -64.198,28.743 -64.198,64.198 0,35.455 28.744,64.198 64.198,64.198 C -28.743,64.198 0,35.455 0,0"
                       style="fill:#ffb309;fill-opacity:1;fill-rule:nonzero;stroke:none"
                       id="path130" /></g></g></g><text
                 transform="matrix(1,0,0,-1,549.0566,420.3999)"
                 id="text132"><tspan
                   style="fill:#ffffff;fill-opacity:1;fill-rule:nonzero;stroke:none;font-family:Roboto;font-variant:normal;font-weight:bold;font-stretch:normal;font-size:54.9805;writing-mode:lr;-inkscape-font-specification:Roboto-Bold"
                   x="0 27.9850745"
                   y="0"
                   sodipodi:role="line"
                   id="tspan134">&lt;&gt;</tspan></text>
<g
                 id="g136"><g
                   clip-path="url(#clipPath64)"
                   id="g138"><g
                     transform="translate(104.7002,769.3418)"
                     id="g140"><path
                       d="m 0,0 c 0,-35.455 -28.743,-64.198 -64.198,-64.198 -35.454,0 -64.198,28.743 -64.198,64.198 0,35.455 28.744,64.198 64.198,64.198 C -28.743,64.198 0,35.455 0,0"
                       style="fill:#ffb309;fill-opacity:1;fill-rule:nonzero;stroke:none"
                       id="path142" /></g><text
                     transform="matrix(1,0,0,-1,12.3037,748.8882)"
                     id="text144"><tspan
                       style="fill:#ffffff;fill-opacity:1;fill-rule:nonzero;stroke:none;font-family:Roboto;font-variant:normal;font-weight:bold;font-stretch:normal;font-size:54.9805;writing-mode:lr;-inkscape-font-specification:Roboto-Bold"
                       x="0 27.9850745"
                       y="0"
                       sodipodi:role="line"
                       id="tspan146">&lt;&gt;</tspan></text>
<g
                     transform="translate(295.2041,466.7202)"
                     id="g148"><path
                       d="m 0,0 c 0,-39.22 -31.795,-71.015 -71.018,-71.015 -39.221,0 -71.015,31.795 -71.015,71.015 0,39.22 31.794,71.016 71.015,71.016 C -31.795,71.016 0,39.22 0,0"
                       style="fill:#00b9af;fill-opacity:1;fill-rule:nonzero;stroke:none"
                       id="path150" /></g></g></g><text
                 transform="matrix(1,0,0,-1,206.0439,447.6206)"
                 id="text152"><tspan
                   style="fill:#ffffff;fill-opacity:1;fill-rule:nonzero;stroke:none;font-family:Roboto;font-variant:normal;font-weight:bold;font-stretch:normal;font-size:54.9805;writing-mode:lr;-inkscape-font-specification:Roboto-Bold"
                   x="0 18.143565"
                   y="0"
                   sodipodi:role="line"
                   id="tspan154">{}</tspan></text>
<g
                 id="g156"><g
                   clip-path="url(#clipPath68)"
                   id="g158"><g
                     transform="translate(788.7168,740.9937)"
                     id="g160"><path
                       d="m 0,0 c 0,-43.473 -35.242,-78.716 -78.716,-78.716 -43.472,0 -78.715,35.243 -78.715,78.716 0,43.472 35.243,78.715 78.715,78.715 C -35.242,78.715 0,43.472 0,0"
                       style="fill:#8dbc1b;fill-opacity:1;fill-rule:nonzero;stroke:none"
                       id="path162" /></g></g></g><text
                 transform="matrix(1,0,0,-1,654.3662,727.9946)"
                 id="text164"><tspan
                   style="fill:#ffffff;fill-opacity:1;fill-rule:nonzero;stroke:none;font-family:Roboto;font-variant:normal;font-weight:bold;font-stretch:normal;font-size:49.7153;writing-mode:lr;-inkscape-font-specification:Roboto-Bold"
                   x="0 14.4671523 40.2196777 68.2591069"
                   y="0"
                   sodipodi:role="line"
                   id="tspan166">.com</tspan></text>
<g
                 id="g168"><g
                   clip-path="url(#clipPath72)"
                   id="g170"><g
                     transform="translate(514.4121,753.3193)"
                     id="g172"><path
                       d="m 0,0 c 0,-59.289 -48.068,-107.355 -107.357,-107.355 -59.289,0 -107.356,48.066 -107.356,107.355 0,59.29 48.067,107.356 107.356,107.356 C -48.068,107.356 0,59.29 0,0"
                       style="fill:#ffb309;fill-opacity:1;fill-rule:nonzero;stroke:none"
                       id="path174" /></g><text
                     transform="matrix(1,0,0,-1,366.2046,733.542)"
                     id="text176"><tspan
                       style="fill:#ffffff;fill-opacity:1;fill-rule:nonzero;stroke:none;font-family:Roboto;font-variant:normal;font-weight:bold;font-stretch:normal;font-size:67.8037;writing-mode:lr;-inkscape-font-specification:Roboto-Bold"
                       x="0 38.7159127"
                       y="0"
                       sodipodi:role="line"
                       id="tspan178">JS</tspan></text>
<g
                     transform="translate(108.7476,403.1235)"
                     id="g180"><path
                       d="m 0,0 c 0,-35.455 -28.743,-64.198 -64.198,-64.198 -35.454,0 -64.198,28.743 -64.198,64.198 0,35.455 28.744,64.198 64.198,64.198 C -28.743,64.198 0,35.455 0,0"
                       style="fill:#ffb309;fill-opacity:1;fill-rule:nonzero;stroke:none"
                       id="path182" /></g><g
                     transform="translate(42.2974,398.7881)"
                     id="g184"><path
                       d="m 0,0 c -7.129,-7.129 -18.729,-7.129 -25.858,0 -7.129,7.129 -7.129,18.729 0,25.858 7.129,7.129 18.729,7.129 25.858,0 C 7.129,18.729 7.129,7.129 0,0 m 5.271,31.128 c -10.051,10.052 -26.348,10.052 -36.399,0 -10.051,-10.05 -10.051,-26.347 0,-36.399 8.949,-8.949 22.847,-9.922 32.881,-2.935 l 26.872,-26.87 6.452,6.452 L 8.206,-1.753 C 15.194,8.282 14.22,22.18 5.271,31.128"
                       style="fill:#ffffff;fill-opacity:1;fill-rule:nonzero;stroke:none"
                       id="path186" /></g><g
                     transform="translate(781.0146,321.5195)"
                     id="g188"><path
                       d="m 0,0 c 0,-39.22 -31.795,-71.016 -71.018,-71.016 -39.221,0 -71.015,31.796 -71.015,71.016 0,39.22 31.794,71.016 71.015,71.016 C -31.795,71.016 0,39.22 0,0"
                       style="fill:#00b9af;fill-opacity:1;fill-rule:nonzero;stroke:none"
                       id="path190" /></g><g
                     transform="translate(728.3447,325.1113)"
                     id="g192"><path
                       d="m 0,0 0,43.196 -36.695,0 0,-43.196 -14.217,0 14.217,-24.624 0,-1.076 0.621,0 17.727,-30.704 17.727,30.704 0.62,0 0,1.074 L 14.218,0 0,0 z"
                       style="fill:#ffffff;fill-opacity:1;fill-rule:nonzero;stroke:none"
                       id="path194" /></g></g></g></g></g></g></g></g><g
       id="g196"><g
         id="g198"
         clip-path="url(#clipPath200)"><g
           id="g204"
           transform="translate(543.5371,70.3291)"><path
             d="m 0,0 c 0,-21.849 -17.711,-39.56 -39.561,-39.56 l -208.251,0 c -21.849,0 -39.56,17.711 -39.56,39.56 l 0,299.854 c 0,21.848 17.711,39.561 39.56,39.561 l 208.251,0 C -17.711,339.415 0,321.702 0,299.854 L 0,0 z"
             style="fill:#42210b;fill-opacity:1;fill-rule:nonzero;stroke:none"
             id="path206" /></g><path
           d="m 715.692,0 -631.385,0 0,145.055 631.385,0 0,-145.055 z"
           style="fill:#8b6239;fill-opacity:1;fill-rule:nonzero;stroke:none"
           id="path208" /><path
           d="m 426.33,334.891 -52.959,0 0,32.827 52.959,0 0,-32.827 z"
           style="fill:#e5e5e5;fill-opacity:1;fill-rule:nonzero;stroke:none"
           id="path210" /><g
           id="g212"
           transform="translate(398.708,355.1924)"><path
             d="M 0,0 0,-14.763"
             style="fill:none;stroke:#b2b2b2;stroke-opacity:1;stroke-width:2.198;stroke-linecap:butt;stroke-linejoin:miter;stroke-miterlimit:10;stroke-dasharray:none"
             id="path214" /></g><g
           id="g216"
           transform="translate(589.4131,209.8887)"><path
             d="m 0,0 c -22.709,45.422 -71.061,145.789 -80.219,153.48 -9.158,7.693 -57.479,15.385 -85.149,15.385 0,0 5.2,-34.065 -25.337,-34.065 -30.537,0 -25.337,34.065 -25.337,34.065 -27.67,0 -75.991,-7.692 -85.149,-15.385 -9.159,-7.691 -57.51,-108.058 -80.22,-153.48 -22.71,-45.419 6.226,-48.716 6.226,-48.716 l 79.488,0 0,38.095 c -11.721,4.028 -36.997,8.791 -36.997,8.791 7.692,18.681 52.382,104.027 52.382,104.027 l 4.76,-146.885 84.847,0 84.847,0 4.76,146.885 c 0,0 44.69,-85.346 52.382,-104.027 0,0 -25.276,-4.763 -36.998,-8.791 l 0,-38.095 79.488,0 c 0,0 28.936,3.297 6.226,48.716"
             style="fill:#ff7257;fill-opacity:1;fill-rule:nonzero;stroke:none"
             id="path218" /></g><g
           id="g220"
           transform="translate(424.0449,368.1299)"><path
             d="M 0,0 C 0,0 -3.582,-12.938 -25.337,-12.938 -47.092,-12.938 -50.674,0 -50.674,0 l 0,61.427 L 0,61.427 0,0 z"
             style="fill:#ffdaa2;fill-opacity:1;fill-rule:nonzero;stroke:none"
             id="path222" /></g><g
           id="g224"
           transform="translate(398.708,536.6216)"><path
             d="m 0,0 c -48.515,18.924 -70.188,0 -70.188,0 0,0 3.765,-66.667 5.505,-80.167 4.128,-31.998 45.759,-53.332 64.683,-53.332 18.924,0 60.555,21.334 64.683,53.332 C 66.423,-66.667 70.188,0 70.188,0 70.188,0 48.515,18.924 0,0"
             style="fill:#ffdaa2;fill-opacity:1;fill-rule:nonzero;stroke:none"
             id="path226" /></g><g
           id="g228"
           transform="translate(330.7607,499.3882)"><path
             d="m 0,0 c 0,0 -12.33,12.21 -16.691,4.891 -9.635,-16.172 7.224,-22.224 8.346,-37.502 0.803,-10.933 8.163,-10.847 11.09,-5.426 C 5.673,-32.611 4.438,-3.67 0,0"
             style="fill:#f7d197;fill-opacity:1;fill-rule:nonzero;stroke:none"
             id="path230" /></g><g
           id="g232"
           transform="translate(466.6553,499.3882)"><path
             d="M 0,0 C 0,0 12.33,12.21 16.691,4.891 26.326,-11.281 9.467,-17.333 8.345,-32.611 7.542,-43.544 0.182,-43.458 -2.745,-38.037 -5.673,-32.611 -4.438,-3.67 0,0"
             style="fill:#f7d197;fill-opacity:1;fill-rule:nonzero;stroke:none"
             id="path234" /></g><g
           id="g236"
           transform="translate(398.708,427.1699)"><path
             d="m 0,0 c -14.513,0 -22.025,4.121 -22.025,10.165 0,6.044 8.885,2.472 22.025,2.472 13.14,0 22.025,3.572 22.025,-2.472 C 22.025,4.121 14.513,0 0,0 m 67.629,51.412 -2.747,0 c 0,0 3.477,-28.297 -64.882,-28.297 -68.359,0 -64.882,28.297 -64.882,28.297 l -2.747,0 c 0,0 -3.892,-32.001 9.066,-50.274 C -40.707,-24.047 0,-24.047 0,-24.047 c 0,0 40.706,0 58.563,25.185 12.958,18.273 9.066,50.274 9.066,50.274"
             style="fill:#e8b23c;fill-opacity:1;fill-rule:nonzero;stroke:none"
             id="path238" /></g><g
           id="g240"
           transform="translate(466.3369,478.582)"><path
             d="m 0,0 c 0,0 -2.876,20.227 6.895,25.91 0,0 17.187,57.331 2.351,72.441 -14.835,15.11 -35.988,24.725 -53.846,26.649 -17.856,1.922 -37.636,5.494 -46.977,15.659 0,0 4.67,-12.912 10.989,-13.737 0,0 -41.483,-7.417 -68.132,1.649 0,0 7.418,-20.055 24.176,-23.627 0,0 -35.165,-8.241 -56.044,-1.373 0,0 16.587,-33.92 42.772,-45.531 0,0 19.865,8.993 29.481,5.147 0,0 1.923,-5.495 -6.594,-9.066 0,0 23.352,0.824 33.516,5.769 0,0 0.825,-3.846 0.275,-7.418 0,0 26.631,5.89 40.376,12.972 0,0 11.547,-8.576 7.701,-12.148 0,0 27.748,-1.099 33.609,3.847 0,0 -3.2,-49.726 -0.548,-57.143"
             style="fill:#e8b23c;fill-opacity:1;fill-rule:nonzero;stroke:none"
             id="path242" /></g><g
           id="g244"
           transform="translate(331.0786,478.582)"><path
             d="m 0,0 c 0,0 1.004,22.626 -11.173,27.796 0,0 -6.41,34.841 -3.113,42.533 L -0.547,58.89 c 0,0 3.754,-49.275 1.882,-58.89 L 0,0 z"
             style="fill:#e8b23c;fill-opacity:1;fill-rule:nonzero;stroke:none"
             id="path246" /></g><g
           id="g248"
           transform="translate(398.708,355.1924)"><path
             d="m 0,0 c 0,0 -21.201,-0.064 -27.794,-14.763 0,0 -7.036,26.924 2.457,38.325 0,0 2.582,-21.714 25.337,-23.562"
             style="fill:#f1f1f1;fill-opacity:1;fill-rule:nonzero;stroke:none"
             id="path250" /></g><g
           id="g252"
           transform="translate(398.708,355.1924)"><path
             d="m 0,0 c 0,0 21.201,-0.064 27.794,-14.763 0,0 7.036,26.924 -2.457,38.325 C 25.337,23.562 22.755,1.848 0,0"
             style="fill:#f1f1f1;fill-opacity:1;fill-rule:nonzero;stroke:none"
             id="path254" /></g><g
           id="g256"
           transform="translate(147.1641,211.1816)"><path
             d="m 0,0 c 0,-1.215 -0.983,-2.198 -2.198,-2.198 l -5.245,0 c -1.215,0 -2.199,0.983 -2.199,2.198 l 0,5.245 c 0,1.213 0.984,2.198 2.199,2.198 l 5.245,0 C -0.983,7.443 0,6.458 0,5.245 L 0,0 z"
             style="fill:#4d4d4d;fill-opacity:1;fill-rule:nonzero;stroke:none"
             id="path258" /></g><g
           id="g260"
           transform="translate(152.5146,360.5645)"><path
             d="M 0,0 C 0,0 -98.907,-2.689 -45.611,-150.439"
             style="fill:none;stroke:#4d4d4d;stroke-opacity:1;stroke-width:6.593;stroke-linecap:butt;stroke-linejoin:miter;stroke-miterlimit:10;stroke-dasharray:none"
             id="path262" /></g><g
           id="g264"
           transform="translate(167.2832,207.79)"><path
             d="m 0,0 0,1.326 c 0,1.851 -0.983,3.347 -2.198,3.347 l -79.85,0 c -1.215,0 -2.198,-1.496 -2.198,-3.347 L -84.246,0 0,0 z"
             style="fill:#1a1a1a;fill-opacity:1;fill-rule:nonzero;stroke:none"
             id="path266" /></g><g
           id="g268"
           transform="translate(159.9321,360.5645)"><path
             d="m 0,0 c 0,-4.098 -3.32,-7.418 -7.417,-7.418 -4.098,0 -7.418,3.32 -7.418,7.418 0,4.098 3.32,7.418 7.418,7.418 C -3.32,7.418 0,4.098 0,0"
             style="fill:#1a1a1a;fill-opacity:1;fill-rule:nonzero;stroke:none"
             id="path270" /></g><g
           id="g272"
           transform="translate(198.3506,344.6279)"><path
             d="m 0,0 c 7.081,-7.078 7.081,-18.561 0,-25.642 -7.083,-7.08 -18.561,-7.08 -25.642,0 C -32.722,-18.561 -32.725,-7.08 -25.644,0 -18.561,7.083 -7.081,7.083 0,0"
             style="fill:#fbed21;fill-opacity:1;fill-rule:nonzero;stroke:none"
             id="path274" /></g><g
           id="g276"
           transform="translate(155.0298,362.3076)"><path
             d="M 0,0 C -19.095,-19.096 -19.095,-50.061 0,-69.155 L 69.158,0 C 50.06,19.095 19.098,19.095 0,0"
             style="fill:#1a1a1a;fill-opacity:1;fill-rule:nonzero;stroke:none"
             id="path278" /></g><g
           id="g280"><g
             id="g282" /><g
             id="g288"><g
               clip-path="url(#clipPath284)"
               opacity="0.199997"
               id="g290"><g
                 transform="translate(155.0298,293.1523)"
                 id="g292"><path
                   d="m 0,0 20.74,-131.979 353.844,0 L 69.158,69.155 0,0 z"
                   style="fill:#fbed21;fill-opacity:1;fill-rule:nonzero;stroke:none"
                   id="path294" /></g></g></g></g><g
           id="g296"
           transform="translate(516.8867,283.4727)"><path
             d="m 0,0 c -2.198,3.661 -9.523,4.396 -9.523,4.396 l -108.656,0 -108.655,0 c 0,0 -7.326,-0.735 -9.523,-4.396 -2.198,-3.664 2.197,-120.147 2.197,-120.147 l 115.981,0 115.981,0 c 0,0 4.395,116.483 2.198,120.147"
             style="fill:#cbcbcb;fill-opacity:1;fill-rule:nonzero;stroke:none"
             id="path298" /></g><g
           id="g300"
           transform="translate(516.8867,281.3174)"><path
             d="m 0,0 c -2.198,3.664 -9.523,4.396 -9.523,4.396 l -108.656,0 -108.655,0 c 0,0 -7.326,-0.732 -9.523,-4.396 -2.198,-3.661 2.197,-120.145 2.197,-120.145 l 115.981,0 115.981,0 c 0,0 4.395,116.484 2.198,120.145"
             style="fill:#e5e5e5;fill-opacity:1;fill-rule:nonzero;stroke:none"
             id="path302" /></g><g
           id="g304"
           transform="translate(408.3486,223.4434)"><path
             d="m 0,0 c 0,-5.325 -4.315,-9.642 -9.641,-9.642 -5.325,0 -9.641,4.317 -9.641,9.642 0,5.324 4.316,9.641 9.641,9.641 C -4.315,9.641 0,5.324 0,0 z"
             style="fill:none;stroke:#cbcbcb;stroke-opacity:1;stroke-width:2.198;stroke-linecap:butt;stroke-linejoin:miter;stroke-miterlimit:10;stroke-dasharray:none"
             id="path306" /></g><g
           id="g308"
           transform="translate(408.3486,233.084)"><path
             d="m 0,0 c 0,-5.325 -4.315,-9.641 -9.641,-9.641 -5.325,0 -9.641,4.316 -9.641,9.641 0,5.325 4.316,9.641 9.641,9.641 C -4.315,9.641 0,5.325 0,0 z"
             style="fill:none;stroke:#cbcbcb;stroke-opacity:1;stroke-width:2.198;stroke-linecap:butt;stroke-linejoin:miter;stroke-miterlimit:10;stroke-dasharray:none"
             id="path310" /></g><g
           id="g312"
           transform="translate(385.5381,226.9736)"><path
             d="M 0,0 C 4.61,2.661 10.508,1.081 13.17,-3.528 15.831,-8.139 14.251,-14.037 9.642,-16.698 5.029,-19.361 -0.867,-17.78 -3.528,-13.17 -6.192,-8.56 -4.612,-2.661 0,0 z"
             style="fill:none;stroke:#cbcbcb;stroke-opacity:1;stroke-width:2.198;stroke-linecap:butt;stroke-linejoin:miter;stroke-miterlimit:10;stroke-dasharray:none"
             id="path314" /></g><g
           id="g316"
           transform="translate(402.2344,210.2754)"><path
             d="m 0,0 c -4.608,2.661 -6.192,8.56 -3.528,13.17 2.661,4.607 8.559,6.189 13.169,3.528 C 14.253,14.034 15.833,8.139 13.17,3.528 10.51,-1.084 4.612,-2.666 0,0 z"
             style="fill:none;stroke:#cbcbcb;stroke-opacity:1;stroke-width:2.198;stroke-linecap:butt;stroke-linejoin:miter;stroke-miterlimit:10;stroke-dasharray:none"
             id="path318" /></g><g
           id="g320"
           transform="translate(182.4463,186.9844)"><path
             d="m 0,0 -107.387,0 0,10.504 107.387,0 c 0,0 -0.654,-0.387 -0.654,-5.252 C -0.654,0.386 0,0 0,0"
             style="fill:#f1f1f1;fill-opacity:1;fill-rule:nonzero;stroke:none"
             id="path322" /></g><g
           id="g324"
           transform="translate(193.8477,164.1816)"><path
             d="m 0,0 -130.204,0 0,16.104 130.204,0 c 0,0 -0.794,-0.592 -0.794,-8.051 C -0.794,0.593 0,0 0,0"
             style="fill:#f1f1f1;fill-opacity:1;fill-rule:nonzero;stroke:none"
             id="path326" /></g><g
           id="g328"
           transform="translate(198.106,201.7461)"><path
             d="m 0,0 -129.67,0 0,4.67 L 0,4.67 C 0,4.67 -0.79,4.499 -0.79,2.335 -0.79,0.172 0,0 0,0"
             style="fill:#f1f1f1;fill-opacity:1;fill-rule:nonzero;stroke:none"
             id="path330" /></g><g
           id="g332"
           transform="translate(199.3032,205.4463)"><path
             d="m 0,0 0,2.344 -129.815,0 -1.954,0 0,-2.344 0,-2.732 0,-2.341 1.954,0 129.815,0 0,2.341 -129.815,0 0,2.732 L 0,0 z"
             style="fill:#29aae1;fill-opacity:1;fill-rule:nonzero;stroke:none"
             id="path334" /></g><g
           id="g336"
           transform="translate(184.0947,195.6377)"><path
             d="m 0,0 0,4.735 -111.4,0 0,-0.003 0,-4.732 0,-7.765 0,-4.735 4.73,0 106.67,0 0,4.735 -106.67,0 0,7.765 L 0,0 z"
             style="fill:#c0272d;fill-opacity:1;fill-rule:nonzero;stroke:none"
             id="path338" /></g><g
           id="g340"
           transform="translate(196.4575,178.4053)"><path
             d="m 0,0 0,4.732 -136.126,0 0,-4.732 0,-12.5 0,-4.732 4.73,0 131.396,0 0,4.732 -131.396,0 0,12.5 L 0,0 z"
             style="fill:#8bc53f;fill-opacity:1;fill-rule:nonzero;stroke:none"
             id="path342" /></g><g
           id="g344"
           transform="translate(640.6436,202.4053)"><path
             d="m 0,0 c 0,0 10.284,7.2 13.027,0 2.744,-7.199 -1.714,-17.825 -6.513,-19.881 -4.802,-2.06 -14.4,2.398 -14.4,2.398"
             style="fill:none;stroke:#e5e5e5;stroke-opacity:1;stroke-width:5.375;stroke-linecap:butt;stroke-linejoin:miter;stroke-miterlimit:10;stroke-dasharray:none"
             id="path346" /></g><g
           id="g348"
           transform="translate(577.2549,165.3818)"><path
             d="m 0,0 c 0.181,-2.351 2.12,-4.209 4.518,-4.209 l 63.231,0 c 2.396,0 4.338,1.858 4.517,4.209 L 0,0 z"
             style="fill:#b2b2b2;fill-opacity:1;fill-rule:nonzero;stroke:none"
             id="path350" /></g><g
           id="g352"
           transform="translate(584.4209,210.2881)"><path
             d="m 0,0 0,-15.597 c 0,-15.998 12.968,-28.968 28.967,-28.968 16,0 28.968,12.97 28.968,28.968 L 57.935,0 0,0 z"
             style="fill:#f1f1f1;fill-opacity:1;fill-rule:nonzero;stroke:none"
             id="path354" /></g><path
           d="m 653.671,167.781 -80.564,0 0,-4.114 80.564,0 0,4.114 z"
           style="fill:#e5e5e5;fill-opacity:1;fill-rule:nonzero;stroke:none"
           id="path356" /><g
           id="g358"
           transform="translate(757.4502,152.4678)"><path
             d="m 0,0 c 0,-4.855 -3.937,-8.791 -8.791,-8.791 l -697.318,0 c -4.855,0 -8.791,3.936 -8.791,8.791 0,4.854 3.936,8.791 8.791,8.791 l 697.318,0 C -3.937,8.791 0,4.854 0,0"
             style="fill:#603813;fill-opacity:1;fill-rule:nonzero;stroke:none"
             id="path360" /></g><g
           id="g362"><g
             id="g364" /><g
             id="g402"><g
               clip-path="url(#clipPath366)"
               id="g404"><g
                 id="g406"><g
                   clip-path="url(#clipPath370)"
                   id="g408"><g
                     id="g410"><g
                       id="g412" /><g
                       mask="url(#mask384)"
                       id="g414"><g
                         id="g416"><path
                           d="m 800,0 -800.001,0 0,800 L 800,800 800,0 z"
                           style="fill:url(#radialGradient396);stroke:none"
                           id="path418" /></g></g></g></g></g></g></g></g><g
           id="g504"
           transform="translate(392.4053,28.7686)"><path
             d="M 0,0 C -0.002,0.004 -0.002,0.01 -0.002,0.018 -0.002,0.01 -0.002,0.004 0,0"
             style="fill:#f1f1f1;fill-opacity:1;fill-rule:nonzero;stroke:none"
             id="path506" /></g><g
           id="g508"
           transform="translate(392.5361,27.9385)"><path
             d="M 0,0 0.003,0 C -0.047,0.236 -0.085,0.471 -0.116,0.703 -0.085,0.469 -0.047,0.234 0,0"
             style="fill:#f1f1f1;fill-opacity:1;fill-rule:nonzero;stroke:none"
             id="path510" /></g><g
           id="g512"
           transform="translate(393.3945,25.5322)"><path
             d="M 0,0 C -0.006,0.01 -0.011,0.021 -0.017,0.033 -0.011,0.021 -0.006,0.01 0,0"
             style="fill:#f1f1f1;fill-opacity:1;fill-rule:nonzero;stroke:none"
             id="path514" /></g><g
           id="g516"
           transform="translate(393.3125,25.6924)"><path
             d="M 0,0 C -0.022,0.045 -0.044,0.09 -0.065,0.135 -0.044,0.088 -0.022,0.045 0,0"
             style="fill:#f1f1f1;fill-opacity:1;fill-rule:nonzero;stroke:none"
             id="path518" /></g><g
           id="g520"
           transform="translate(392.7773,27.0127)"><path
             d="M 0,0 C 0.127,-0.4 0.28,-0.789 0.457,-1.158 0.277,-0.781 0.127,-0.393 0.003,0 L 0,0 z"
             style="fill:#f1f1f1;fill-opacity:1;fill-rule:nonzero;stroke:none"
             id="path522" /></g><g
           id="g544"
           transform="translate(385.4321,497.5942)"><path
             d="M 0,0 C 0,0 1.695,6.243 13.276,6.243"
             style="fill:none;stroke:#e5e5e5;stroke-opacity:1;stroke-width:5;stroke-linecap:butt;stroke-linejoin:miter;stroke-miterlimit:10;stroke-dasharray:none"
             id="path546" /></g><g
           id="g548"
           transform="translate(411.9844,497.5942)"><path
             d="M 0,0 C 0,0 -1.695,6.243 -13.276,6.243"
             style="fill:none;stroke:#e5e5e5;stroke-opacity:1;stroke-width:5;stroke-linecap:butt;stroke-linejoin:miter;stroke-miterlimit:10;stroke-dasharray:none"
             id="path550" /></g><g
           id="g552"
           transform="translate(332.9365,508.5015)"><path
             d="m 0,0 c 0,0 -3.361,-27.764 8.736,-35.3 12.097,-7.536 41.051,0 43.034,10.709 1.983,10.709 0,25.781 0,25.781"
             style="fill:none;stroke:#cbcbcb;stroke-opacity:1;stroke-width:5;stroke-linecap:butt;stroke-linejoin:miter;stroke-miterlimit:10;stroke-dasharray:none"
             id="path554" /></g><g
           id="g556"
           transform="translate(464.4795,508.5015)"><path
             d="m 0,0 c 0,0 3.361,-27.764 -8.735,-35.3 -12.098,-7.536 -41.052,0 -43.036,10.709 -1.982,10.709 0,25.781 0,25.781"
             style="fill:none;stroke:#cbcbcb;stroke-opacity:1;stroke-width:5;stroke-linecap:butt;stroke-linejoin:miter;stroke-miterlimit:10;stroke-dasharray:none"
             id="path558" /></g><g
           id="g560"
           transform="translate(389.6646,509.1304)"><path
             d="m 0,0 c 0,-2.209 -1.791,-4 -4,-4 l -53.478,0 c -2.209,0 -4,1.791 -4,4 l 0,1.122 c 0,2.209 1.791,4 4,4 l 53.478,0 c 2.209,0 4,-1.791 4,-4 L 0,0 z"
             style="fill:#754c24;fill-opacity:1;fill-rule:nonzero;stroke:none"
             id="path562" /></g><g
           id="g564"
           transform="translate(407.752,509.1304)"><path
             d="m 0,0 c 0,-2.209 1.791,-4 4,-4 l 53.477,0 c 2.209,0 4,1.791 4,4 l 0,1.122 c 0,2.209 -1.791,4 -4,4 L 4,5.122 c -2.209,0 -4,-1.791 -4,-4 L 0,0 z"
             style="fill:#754c24;fill-opacity:1;fill-rule:nonzero;stroke:none"
             id="path566" /></g></g></g></g></svg>